<?xml version="1.0" encoding="utf-8"?>
<!-- Generator: Adobe Illustrator 22.1.0, SVG Export Plug-In . SVG Version: 6.00 Build 0)  -->
<!DOCTYPE svg PUBLIC "-//W3C//DTD SVG 1.1//EN" "http://www.w3.org/Graphics/SVG/1.1/DTD/svg11.dtd">
<svg version="1.1" id="Layer_1" xmlns="http://www.w3.org/2000/svg" xmlns:xlink="http://www.w3.org/1999/xlink" x="0px" y="0px"
	 width="17px" height="17px" viewBox="0 0 17 17" enable-background="new 0 0 17 17" xml:space="preserve">
<title>ABV</title>
<path fill="#90D6A0" d="M4.574,15.972L4.574,15.972l-0.026-0.017C4.556,15.961,4.565,15.967,4.574,15.972z"/>
<path fill="#90D6A0" d="M9.907,16.872L9.86,16.877C9.876,16.879,9.892,16.877,9.907,16.872z"/>
<path fill="#90D6A0" d="M4.669,16.025c0.002,0.003,0.003,0.007,0.004,0.01l0.022,0.014C4.7,16.046,4.689,16.037,4.669,16.025z"/>
<path fill="#90D6A0" d="M0.601,11.51c-0.005-0.01-0.011-0.022-0.015-0.03L0.601,11.51z"/>
<path fill="#90D6A0" d="M3.775,15.563c0.002-0.004,0-0.01-0.006-0.018C3.769,15.552,3.771,15.558,3.775,15.563z"/>
<path fill="#90D6A0" d="M0.151,9.68l0.004,0.005V9.677C0.155,9.677,0.152,9.679,0.151,9.68z"/>
<path fill="#90D6A0" d="M16.503,5.587c0.026,0.152-0.125-0.217-0.074,0.008C16.433,5.57,16.553,5.771,16.503,5.587z"/>
<path fill="#90D6A0" d="M14.234,14.807c-0.012,0.002-0.024,0.006-0.035,0.013C14.202,14.823,14.209,14.821,14.234,14.807z"/>
<path fill="#90D6A0" d="M12.176,16.137c-0.02,0.007-0.039,0.015-0.057,0.024L12.176,16.137z"/>
<path fill="#90D6A0" d="M15.116,13.811l-0.019,0.02C15.103,13.824,15.11,13.817,15.116,13.811z"/>
<path fill="#90D6A0" d="M11.204,16.584c0.02-0.008,0.035-0.014,0.048-0.019C11.236,16.572,11.218,16.577,11.204,16.584z"/>
<path fill="#90D6A0" d="M0.357,10.52l-0.002-0.025C0.353,10.504,0.354,10.512,0.357,10.52z"/>
<path fill="#90D6A0" d="M3.657,15.435l0.004-0.005l0,0c-0.028-0.025-0.059-0.047-0.092-0.066C3.6,15.387,3.628,15.411,3.657,15.435z
	"/>
<path fill="#90D6A0" d="M6.948,16.838l0.019,0.002l-0.02-0.007C6.947,16.834,6.948,16.836,6.948,16.838z"/>
<polygon fill="#90D6A0" points="8.148,16.954 8.148,16.954 8.148,16.954 "/>
<path fill="#90D6A0" d="M1.519,13.3v-0.003c0.007,0,0.014,0.001,0.02,0.003C1.513,13.27,1.496,13.244,1.519,13.3z"/>
<path fill="#90D6A0" d="M16.921,9.119c-0.013-0.052-0.013-0.106,0-0.158c0.016-0.052,0.018-0.106,0.007-0.159l0.048-0.051
	c-0.002-0.029-0.004-0.069-0.008-0.114c-0.004-0.034-0.008-0.073-0.013-0.113c-0.019-0.008-0.038-0.015-0.057-0.023
	c0.003,0.015,0.006,0.024,0.008,0.034c-0.008,0-0.016-0.001-0.023-0.003c0-0.019,0-0.039,0-0.058
	c0.021,0.004,0.041,0.011,0.059,0.021c0.003-0.004,0.006-0.009,0.008-0.013l0,0c0-0.013-0.002-0.026-0.004-0.039
	c-0.006-0.009-0.012-0.017-0.018-0.025c-0.004,0.016-0.031,0.018-0.045,0.008c0-0.008,0-0.015,0-0.023c0.002,0,0.004,0,0.007,0
	l-0.007-0.003c0-0.005,0-0.011,0-0.016l0.013,0.021c0.01,0.005,0.021,0.009,0.032,0.012c-0.002-0.052-0.019-0.102-0.047-0.145
	c0-0.034-0.002-0.069-0.004-0.103l0.008-0.006c0.011-0.006,0.023-0.01,0.035-0.012c0-0.001,0-0.003,0-0.004c0,0.001,0,0.003,0,0.004
	l0.012-0.004c-0.003,0.005-0.006,0.01-0.009,0.015c0.016,0.051,0.028,0.103,0.035,0.155c0.006,0.003,0.012,0.006,0.017,0.01
	c-0.007-0.026-0.013-0.054-0.019-0.084c-0.003,0-0.005,0-0.008,0l0.006-0.01c-0.009-0.047-0.018-0.098-0.026-0.153
	c-0.018-0.005-0.035-0.009-0.053-0.013L16.87,8.01c0.017,0.002,0.034,0.007,0.048,0.016c-0.002-0.023-0.006-0.046-0.008-0.069
	l-0.045-0.017c0-0.018-0.002-0.037-0.004-0.055l0.015-0.017l0.03,0.034c-0.002-0.021-0.004-0.043-0.005-0.066
	c-0.015-0.012-0.03-0.023-0.045-0.033c-0.003-0.031-0.006-0.062-0.009-0.093c0.025,0.02,0.056,0.03,0.088,0.029
	c0-0.077-0.005-0.155-0.014-0.232c-0.01-0.131-0.035-0.275-0.035-0.374c-0.014-0.008-0.021-0.023-0.02-0.038
	c-0.015-0.004-0.031-0.016-0.03-0.034c0.006-0.003,0.014-0.003,0.02,0c-0.007-0.011-0.017-0.023-0.024-0.034
	c0.02,0.002,0.04,0.006,0.059,0.014c-0.009-0.036-0.018-0.073-0.026-0.11c-0.012-0.011-0.025-0.022-0.04-0.034
	c0-0.008,0.003-0.022,0.006-0.041l0.019,0.011L16.83,6.79l-0.043,0.011c0.002-0.015,0.004-0.029,0.006-0.043
	c-0.003-0.001-0.005-0.002-0.008-0.003c0.003-0.007,0.005-0.014,0.008-0.021c0.004-0.01,0,0,0.002,0
	c0.002-0.02,0.005-0.039,0.008-0.06c-0.013-0.06-0.025-0.121-0.037-0.183c-0.005-0.013-0.008-0.026-0.009-0.04l0,0
	c-0.023-0.1-0.047-0.201-0.072-0.305c-0.007-0.027-0.013-0.054-0.02-0.08s-0.016-0.053-0.025-0.08
	c-0.017-0.055-0.035-0.109-0.054-0.164c-0.015,0.18-0.045-0.13-0.104-0.078c-0.018-0.051-0.035-0.085-0.042-0.109
	c-0.006-0.013-0.01-0.027-0.011-0.041l0.005,0.022c-0.002-0.009-0.003-0.014-0.005-0.023l0,0c-0.008-0.032-0.015-0.064-0.023-0.097
	C16.4,5.5,16.391,5.503,16.382,5.505c-0.003-0.046-0.03-0.046-0.055-0.087c0.009-0.003,0.018-0.006,0.027-0.008
	c-0.012-0.023-0.022-0.048-0.035-0.074c0.026,0,0.035,0.023,0.051,0.033c-0.005,0.012-0.005,0.025,0,0.036l0.011-0.002
	c-0.011-0.044-0.021-0.088-0.035-0.132c0-0.005,0-0.009,0-0.012c-0.008,0.016-0.013,0.033-0.042,0.032
	c-0.013-0.013-0.021-0.031-0.02-0.05c0.023-0.005,0.046,0.002,0.062,0.018c0-0.023,0.012-0.002,0.027,0.024
	c0.015,0.027,0.035,0.069,0.039,0.063c-0.019-0.057-0.031-0.091-0.038-0.113C16.37,5.22,16.368,5.205,16.37,5.191
	c0.002-0.018,0.011-0.026-0.012-0.103c-0.009,0.034-0.049-0.03-0.089-0.125c-0.003,0-0.006,0-0.009,0l0.031,0.125
	c-0.034-0.054-0.062-0.112-0.084-0.172c-0.015-0.038-0.027-0.076-0.037-0.116c-0.019-0.08-0.05-0.156-0.093-0.226
	c-0.017,0.011-0.035,0.023-0.052,0.034c-0.022,0.011-0.045,0.018-0.069,0.023l0,0c-0.011-0.004-0.023-0.01-0.038-0.016l-0.015-0.026
	c0.021-0.009,0.039,0.023,0.053,0.043c0.011-0.034-0.007-0.086,0.069-0.079c-0.042-0.032-0.044-0.063-0.021-0.062
	c0.013,0.001,0.026-0.001,0.038-0.004c-0.04-0.069-0.09-0.153-0.141-0.236c-0.021-0.034-0.042-0.069-0.063-0.1
	c-0.021-0.031-0.046-0.062-0.067-0.09c-0.035-0.047-0.076-0.091-0.12-0.13c-0.009-0.03-0.015-0.075,0.031-0.014
	c-0.015-0.025-0.031-0.05-0.047-0.074c-0.002,0.026-0.038,0.013-0.052,0.003c0.008-0.021,0.021-0.008,0.045-0.013
	c-0.011-0.016-0.021-0.034-0.035-0.049c-0.032-0.044-0.066-0.088-0.1-0.132c-0.038-0.049-0.077-0.1-0.118-0.149
	c-0.019,0.007-0.041-0.001-0.052-0.018c0-0.013,0.009-0.019,0.015-0.027c-0.018-0.021-0.037-0.043-0.056-0.063L15.26,3.367
	c-0.021,0.003-0.03-0.016-0.029-0.034c-0.053-0.062-0.104-0.122-0.152-0.179c-0.061-0.067-0.118-0.138-0.17-0.212l0.035,0.013
	c-0.027-0.026-0.053-0.046-0.08-0.069c-0.022-0.001-0.044-0.006-0.064-0.013c0.004-0.011,0.012-0.021,0.021-0.027
	c-0.016-0.016-0.03-0.034-0.042-0.053c0.009,0,0.035,0.011,0.011-0.015c-0.083-0.062-0.159-0.132-0.227-0.209l0.074,0.049
	c-0.033-0.04-0.069-0.077-0.107-0.113h-0.003c0-0.002-0.002-0.005-0.003-0.007c-0.027-0.026-0.054-0.05-0.08-0.073
	c-0.035-0.03-0.067-0.057-0.1-0.084c0.008,0.029,0.022,0.058,0.002,0.084c-0.023-0.02-0.041-0.043-0.063-0.064l-0.051,0.022
	l0.086,0.085c-0.072-0.025-0.129-0.082-0.154-0.155c-0.012-0.031,0.01-0.058,0.035-0.078c-0.1-0.069-0.2-0.135-0.311-0.221
	c0.009-0.01,0-0.031-0.02-0.057c-0.022-0.003-0.026-0.008-0.029-0.034c-0.016-0.019-0.035-0.038-0.056-0.06
	c-0.07-0.07-0.145-0.136-0.223-0.197c-0.007-0.005-0.015-0.009-0.024-0.011l0.012-0.007c-0.088-0.064-0.171-0.122-0.253-0.174
	c-0.09-0.053-0.177-0.103-0.263-0.148c-0.086-0.045-0.17-0.086-0.257-0.129l0.011,0.013c-0.004,0.003-0.008,0.006-0.012,0.01
	c-0.008-0.011-0.015-0.022-0.021-0.034l-0.05-0.024c-0.012,0.007-0.028,0.008-0.028-0.008c0.001-0.002,0.002-0.003,0.004-0.004
	c-0.021-0.011-0.042-0.021-0.063-0.031c-0.01,0.005-0.021,0.012-0.031,0.016c0.005,0.002,0.009,0.007,0.009,0.016
	c-0.012,0.011-0.03,0.014-0.045,0.007c0.002-0.008,0.007-0.016,0.015-0.019c-0.008-0.002-0.015-0.01-0.02-0.027l0.01-0.023
	l-0.032-0.015c-0.003,0.011-0.01,0.019-0.013,0.03c-0.008-0.012-0.012-0.026-0.011-0.041l-0.009-0.004
	c-0.013-0.011-0.028-0.022-0.045-0.034l-0.01,0.006c-0.005-0.007-0.009-0.014-0.012-0.021c-0.044-0.03-0.095-0.062-0.153-0.096
	c-0.009-0.004-0.018-0.009-0.027-0.014c-0.007,0.021-0.031,0.03-0.065,0.031c-0.027-0.025-0.046-0.057-0.055-0.092l-0.123-0.06
	c-0.013,0.004-0.028,0.004-0.041,0c0-0.006,0.002-0.011,0.007-0.015l-0.01-0.005l-0.077-0.034c-0.001,0.024-0.011,0.047-0.028,0.064
	c-0.043-0.012-0.02-0.055,0.011-0.071c-0.026-0.012-0.053-0.023-0.08-0.034c-0.059-0.024-0.118-0.049-0.177-0.073
	c-0.115-0.052-0.231-0.093-0.331-0.137c0.06,0.031-0.024,0.034-0.098,0.014c-0.008-0.004-0.016-0.007-0.025-0.011
	c0.006,0.027,0.002,0.055-0.011,0.079c0.003,0,0.006,0,0.008,0c0.004,0.018,0.006,0.034-0.015,0.034
	c-0.005-0.005-0.008-0.011-0.008-0.019c0,0-0.002,0.002-0.003,0.002c-0.027,0.003-0.054-0.01-0.069-0.033
	c-0.018-0.049,0.031-0.076,0.073-0.071c-0.096-0.03-0.228-0.036-0.203-0.072l0.021,0.007c0-0.002,0-0.005,0-0.007l0,0
	c-0.039-0.028-0.083-0.05-0.129-0.065c-0.01,0.01-0.022,0.019-0.035,0.025c-0.012-0.01-0.016-0.026-0.01-0.04
	c-0.055-0.018-0.116-0.034-0.175-0.047l-0.039,0.015c0.001-0.008,0.004-0.015,0.007-0.023l-0.035-0.008l-0.041,0.055
	c-0.11-0.052-0.226-0.089-0.346-0.111c-0.063-0.013-0.128-0.024-0.193-0.034C9.914,0.157,9.881,0.152,9.849,0.148
	s-0.065-0.007-0.097-0.01C9.624,0.126,9.502,0.112,9.398,0.1C9.314,0.095,9.231,0.078,9.151,0.049c-0.053,0.004-0.11,0-0.168,0.003
	C8.924,0.056,8.867,0.056,8.815,0.062l0.007-0.033c-0.005,0-0.011,0-0.016,0c0.007,0.002,0.01,0.011,0.011,0.022l-0.02,0.003
	c-0.004-0.013,0-0.018,0.003-0.026C8.737,0.024,8.681,0.021,8.627,0.017C8.568,0.013,8.511,0.015,8.454,0.014
	c-0.057,0-0.119,0-0.187,0.002c-0.035,0-0.069,0.002-0.109,0.003L8.09,0.025c0.008,0.018,0.016,0.037,0.025,0.06L8.06,0.051
	l0.014-0.023c-0.013,0-0.025,0.002-0.038,0.003l0.054-0.023l0,0l0,0l0,0l0,0l0,0L8.109,0l0,0C8.1,0,8.091,0,8.083,0.003l0,0
	c0.002,0,0.003,0.002,0.005,0.003l0,0H8.087C8.086,0.004,8.085,0.003,8.084,0.002L8.081,0C8.065,0.002,8.05,0.005,8.036,0.007
	c0,0,0,0.003,0,0.004C8.025,0.02,8.011,0.024,7.997,0.024L7.994,0.018C7.986,0.02,7.978,0.023,7.971,0.025
	c0.011,0.015,0.02,0.032,0.028,0.048C8.007,0.092,8.004,0.12,8.016,0.13c0.026,0.02,0,0.034,0,0.053L7.982,0.186
	C7.97,0.149,7.965,0.11,7.905,0.107C7.91,0.13,7.913,0.146,7.917,0.163C7.919,0.172,7.922,0.181,7.924,0.19
	C7.866,0.194,7.808,0.198,7.751,0.203c-0.004-0.041,0.04-0.039,0.066-0.052h0.009c0.003-0.014,0.012-0.03,0.008-0.042
	C7.831,0.103,7.827,0.096,7.824,0.09C7.815,0.093,7.806,0.097,7.796,0.1c-0.01,0.003-0.021,0.007-0.035,0.01
	c-0.01,0.021-0.018,0.041-0.027,0.061C7.689,0.167,7.682,0.094,7.631,0.129c0.005-0.011,0.009-0.021,0.012-0.03L7.639,0.094
	c-0.003,0-0.006,0-0.009,0c-0.001-0.003-0.001-0.006,0-0.008L7.626,0.082c-0.001,0-0.002,0-0.003,0
	c0.004,0.014,0.008,0.03,0.012,0.045l0,0l0,0l0,0C7.616,0.122,7.6,0.117,7.58,0.111c0.002,0.006,0.004,0.011,0.008,0.016l0,0
	c0.02,0.031,0.058,0.045,0.062,0.084C7.589,0.217,7.529,0.224,7.468,0.232C7.456,0.161,7.455,0.16,7.393,0.147
	c0.002-0.017,0.01-0.033,0.021-0.047c-0.013,0-0.026,0.002-0.039,0.003C7.319,0.138,7.264,0.138,7.213,0.151
	c-0.006-0.01-0.011-0.019-0.016-0.029L7.102,0.135C7.015,0.147,6.93,0.158,6.843,0.177C6.761,0.197,6.68,0.221,6.601,0.249
	c-0.01,0.018-0.027,0.021-0.047,0.007c0-0.009,0.002-0.016,0.003-0.024C6.406,0.26,6.19,0.311,6.122,0.351
	c0.017,0.023,0.032,0.047,0.05,0.073C6.16,0.432,6.15,0.439,6.134,0.449C6.125,0.416,6.117,0.388,6.109,0.36
	C6.101,0.367,6.099,0.374,6.103,0.38c-0.049-0.023-0.35,0.113-0.51,0.188l0.016-0.041C5.476,0.622,5.475,0.635,5.273,0.724
	C5.223,0.739,5.22,0.717,5.289,0.699C5.257,0.706,5.226,0.718,5.197,0.733c-0.018,0.01-0.036,0.022-0.053,0.034
	C5.093,0.804,5.036,0.831,4.976,0.849l0.063-0.051C4.895,0.861,4.889,0.869,4.838,0.916C4.836,0.928,4.833,0.94,4.83,0.952
	L4.811,0.944c0.001-0.003,0.002-0.005,0.003-0.008l0,0C4.719,0.999,4.507,1.08,4.468,1.067C4.456,1.095,4.383,1.164,4.286,1.208
	C4.268,1.206,4.299,1.18,4.314,1.168C4.261,1.193,4.209,1.22,4.158,1.25l0.027,0.021c-0.003,0.003-0.005,0.007-0.008,0.01
	c-0.01-0.008-0.021-0.015-0.031-0.024L4.138,1.263C4.119,1.275,4.101,1.287,4.084,1.299C4.087,1.301,4.09,1.303,4.092,1.306
	C4.083,1.314,4.073,1.32,4.061,1.322c0,0.009,0.004,0.019,0.006,0.028v0.002l0.059-0.004c-0.03,0.029-0.045,0.018-0.059,0.004l0,0
	V1.35C4.055,1.348,4.043,1.344,4.033,1.337C4.023,1.344,4.014,1.351,4.005,1.357C3.929,1.419,3.847,1.471,3.759,1.512
	C3.749,1.506,3.736,1.509,3.72,1.516C3.768,1.482,3.817,1.452,3.86,1.425c0.044-0.027,0.083-0.052,0.115-0.071L4,1.339
	c-0.003-0.015,0.005-0.03,0.018-0.037C3.973,1.314,3.924,1.331,3.995,1.253c-0.06,0.051-0.138,0.122-0.224,0.192
	C3.693,1.517,3.609,1.581,3.52,1.638C3.511,1.642,3.502,1.643,3.493,1.644L3.507,1.63c-0.034,0.02-0.066,0.045-0.094,0.073
	C3.376,1.726,3.349,1.744,3.319,1.765c0.008,0.009,0.007,0.024-0.005,0.051C3.306,1.804,3.3,1.794,3.293,1.784L3.284,1.791
	C3.267,1.787,3.221,1.819,3.17,1.86C3.118,1.9,3.061,1.946,3.025,1.978c0.027,0.02-0.069,0.096,0.032,0.044
	C3.076,2,3.096,1.981,3.119,1.963C3.113,1.97,3.109,1.974,3.1,1.982C3.112,1.976,3.124,1.97,3.135,1.964
	C3.11,2.01,3.084,2.064,3.066,2.091C2.989,2.124,2.914,2.163,2.842,2.207C2.805,2.228,2.771,2.249,2.745,2.266
	c-0.018,0.012-0.039,0.021-0.06,0.027L2.653,2.327l0.013,0.004l0.002,0.011C2.654,2.346,2.64,2.351,2.624,2.357
	C2.589,2.391,2.554,2.426,2.52,2.46C2.491,2.489,2.463,2.519,2.436,2.55C2.43,2.556,2.424,2.563,2.419,2.57
	c0.004,0.002,0.008,0.004,0.012,0.004c0.042-0.046,0.075,0.009,0.116,0V2.63L2.519,2.658c-0.014-0.02-0.026-0.042-0.035-0.065
	L2.469,2.594c-0.01,0.024-0.02,0.047-0.035,0.084C2.422,2.659,2.413,2.648,2.406,2.634C2.399,2.621,2.397,2.61,2.391,2.6
	C2.38,2.614,2.368,2.627,2.357,2.64H2.36C2.357,2.687,2.373,2.725,2.435,2.721c-0.008,0.017-0.016,0.034-0.026,0.05L2.378,2.806
	L2.355,2.784H2.236c-0.008,0.01-0.015,0.019-0.021,0.028c-0.01,0.015-0.02,0.03-0.029,0.044c0.008,0.014,0.02,0.026,0.035,0.034
	c0.017,0.012,0.028,0.031,0.031,0.051c-0.017,0.019-0.035,0.037-0.05,0.055c0.006-0.015,0.013-0.029,0.021-0.043L2.137,2.947
	C2.133,2.953,2.13,2.959,2.128,2.965C2.115,2.985,2.098,3.002,2.08,3.016l0.053,0.062C2.118,3.094,2.103,3.112,2.089,3.127
	C2.081,3.116,2.074,3.103,2.069,3.09c-0.01,0.018-0.055,0.014-0.057-0.004C2.009,3.08,2.011,3.074,2.016,3.071c0,0,0,0,0.001,0
	c0.009-0.009,0.031-0.003,0.047,0.003c-0.004-0.015-0.007-0.03-0.009-0.045C2.044,3.033,2.033,3.037,2.023,3.042
	c0.009-0.013,0.02-0.027,0.03-0.041c0-0.002,0-0.004,0-0.006C2.039,3.014,2.024,3.032,2.008,3.051
	C1.993,3.07,1.974,3.094,1.956,3.116C1.938,3.138,1.923,3.161,1.907,3.182C1.875,3.224,1.846,3.268,1.82,3.314
	c0.01-0.006,0.022-0.006,0.032,0C1.855,3.338,1.839,3.36,1.815,3.364c-0.001,0-0.002,0-0.003,0C1.808,3.36,1.805,3.355,1.803,3.349
	C1.8,3.357,1.798,3.366,1.799,3.375C1.726,3.451,1.736,3.422,1.743,3.403c0.004-0.01,0.006-0.017-0.003-0.008
	C1.714,3.425,1.69,3.456,1.669,3.49l0.012-0.04C1.591,3.547,1.51,3.651,1.439,3.762C1.376,3.868,1.324,3.974,1.27,4.08
	c-0.054,0.106-0.1,0.219-0.164,0.332C1.092,4.436,1.078,4.463,1.063,4.489c0.011-0.004,0.023-0.004,0.035,0
	C1.11,4.51,1.103,4.537,1.081,4.549C1.067,4.557,1.049,4.556,1.035,4.547C1.026,4.563,1.018,4.579,1.008,4.594
	C0.978,4.647,0.943,4.7,0.905,4.755c0.008-0.013,0.018-0.024,0.03-0.032C0.912,4.762,0.888,4.8,0.867,4.839
	C0.846,4.879,0.827,4.92,0.807,4.96C0.768,5.042,0.729,5.124,0.691,5.207l-0.1,0.255C0.576,5.505,0.557,5.548,0.543,5.591L0.5,5.722
	c-0.01,0.031-0.02,0.062-0.03,0.093c0.02,0.001,0.036,0.017,0.038,0.036C0.499,5.856,0.49,5.862,0.49,5.874
	c-0.013,0.002-0.027,0-0.039-0.004C0.45,5.873,0.449,5.876,0.448,5.88C0.473,5.892,0.502,5.897,0.53,5.894
	C0.518,5.923,0.505,5.949,0.495,5.979c-0.035-0.008,0-0.063-0.031-0.075c-0.008,0-0.018,0.003-0.026,0.004
	C0.43,5.932,0.422,5.957,0.414,5.982C0.412,5.989,0.41,5.998,0.407,6.005c0.024,0,0.038,0.01,0.037,0.04
	C0.427,6.044,0.411,6.034,0.403,6.018c-0.004,0.015-0.01,0.031-0.014,0.047C0.408,6.071,0.418,6.09,0.413,6.109
	C0.402,6.117,0.388,6.12,0.374,6.116C0.373,6.122,0.371,6.127,0.369,6.133c0.04-0.01,0.049,0.02,0.09,0.009L0.447,6.184
	C0.422,6.191,0.378,6.158,0.369,6.135C0.358,6.17,0.348,6.207,0.338,6.243C0.324,6.286,0.31,6.328,0.297,6.372
	c-0.013,0.043-0.024,0.086-0.035,0.13c-0.003,0.01-0.006,0.02-0.009,0.03c0,0.001,0,0.003,0,0.004
	C0.253,6.537,0.251,6.539,0.249,6.54C0.228,6.612,0.206,6.685,0.18,6.757C0.131,6.951,0.154,6.978,0.152,7.1L0.108,7.137
	C0.111,7.208,0.116,7.279,0.12,7.35C0.117,7.42,0.107,7.489,0.091,7.556c-0.013,0.067-0.028,0.132-0.044,0.2
	C0.03,7.827,0.017,7.899,0.008,7.972C0.001,8.057,0.002,8.143,0.013,8.228L0.039,8.18c-0.004,0.067-0.007,0.172-0.006,0.26
	c0.001,0.088,0,0.154-0.013,0.142c0.016,0.03,0.021,0.065,0.013,0.098L0.013,8.685l0.009,0.083c0.021-0.005,0.043-0.01,0.065-0.014
	c0.006,0.01,0.021,0.015,0.032,0.023c0,0.016,0,0.032,0.002,0.048c-0.012-0.026-0.023-0.048-0.035-0.07
	C0.046,8.788,0.077,8.832,0.09,8.881C0.064,8.875,0.042,8.858,0.032,8.834L0.034,8.85l0.007,0.043L0.107,8.92
	C0.099,8.957,0.075,8.96,0.053,8.964l0.003,0.019c0.011,0.013,0.015,0.031,0.01,0.047C0.064,9.026,0.063,9.023,0.061,9.02v0.024
	l0.025,0.023L0.063,9.084c0-0.003-0.002-0.006-0.003-0.008C0.054,9.138,0.04,9.133,0.025,9.139C0.017,9.142,0.008,9.148,0.004,9.177
	c-0.006,0.047-0.006,0.095,0,0.142c0.009,0,0.018,0.003,0.025,0.008c0.001,0.013-0.008,0.025-0.02,0.027
	C0.011,9.367,0.012,9.378,0.015,9.39c0.014-0.004,0.029,0.002,0.008,0.031l0,0c0.018,0.089,0.045,0.176,0.079,0.26l0.012-0.014
	C0.109,9.613,0.111,9.542,0.128,9.536L0.146,9.63l0.005-0.005C0.162,9.641,0.17,9.654,0.173,9.659
	C0.171,9.661,0.169,9.664,0.167,9.666c0.012,0.005,0.024,0.011,0.035,0.014c0.007,0.046,0.013,0.091,0.02,0.137
	C0.224,9.83,0.226,9.842,0.228,9.852c0.002,0.01-0.002,0.03-0.002,0.046c0.004,0,0.008,0.002,0.011,0.005
	c0,0.011,0.004,0.022,0.006,0.034C0.237,9.94,0.232,9.942,0.227,9.943c0,0.02,0.003,0.041,0.006,0.062
	c0.005,0.031,0.011,0.061,0.019,0.091c0.007,0.024,0.016,0.047,0.026,0.071h0.008c0.002,0.011,0.004,0.022,0.007,0.034
	c-0.003,0.001-0.007,0.001-0.01,0c-0.006,0.006-0.016-0.009-0.023-0.013c0.014,0.032,0.031,0.063,0.05,0.093
	c0.013,0.06,0.026,0.119,0.04,0.178l0.004,0.034c0-0.003,0.002-0.005,0.003-0.007c0.015,0.058,0.03,0.117,0.045,0.175l-0.013-0.037
	c-0.006,0.02-0.008,0.041-0.006,0.062c0.005-0.001,0.011-0.002,0.016-0.002c0,0.008,0.003,0.011,0.008,0.012
	c0.004,0.02-0.002,0.031-0.018,0.034c0.012,0.05,0.027,0.098,0.046,0.145c0.018,0.052,0.045,0.103,0.069,0.155
	c0.01,0.023,0.02,0.045,0.029,0.069c0.009,0.024,0.017,0.052,0.026,0.077L0.49,11.12l0.026,0.044c0.004,0,0.008,0,0.012,0.002
	c-0.002,0.003-0.005,0.005-0.008,0.007l0.072,0.125c0,0.022-0.002,0.042-0.011,0.046c-0.009,0.004-0.024-0.009-0.042-0.054
	c0.004,0.028,0.011,0.056,0.021,0.083c0.05,0.016,0.053,0.025,0.043,0.091c0,0,0,0.002,0,0.002s0,0,0,0l0,0c0,0.001,0,0.001,0,0.002
	c0.027,0.022,0.062,0.04,0.026,0.099l0.025,0.049c0.004-0.008,0.008-0.017,0.011-0.025c-0.004-0.01-0.009-0.018-0.013-0.028
	c-0.008-0.044,0.008-0.033,0.025-0.009c0.002-0.008,0.005-0.017,0.008-0.026c0.042,0.107,0.085,0.213,0.132,0.318l-0.003-0.005
	c0,0-0.003,0-0.004,0c0.001-0.001,0.002-0.001,0.002-0.002c-0.002-0.004-0.006-0.008-0.008-0.012
	c-0.008-0.012-0.016-0.024-0.025-0.034c-0.011,0.006-0.024,0.01-0.036,0.012c-0.007-0.017-0.002-0.037,0.013-0.047
	c-0.008-0.013-0.017-0.026-0.025-0.04c-0.015-0.026-0.03-0.054-0.046-0.086c-0.007,0.003-0.013,0.005-0.02,0.006l0.003,0.005
	c-0.003-0.003-0.006-0.005-0.008-0.005H0.655c-0.01,0.003-0.018,0.018-0.035-0.042c0.013,0.054,0.032,0.107,0.055,0.158
	c0,0.003,0.003,0.006,0.004,0.009l0.063,0.007c0,0.008,0,0.015-0.002,0.023c-0.016-0.002-0.032-0.004-0.048-0.007
	c0.01,0.02,0.02,0.039,0.03,0.056c0.002-0.001,0.004-0.003,0.005-0.005c0.056,0.031,0.074,0.111,0.118,0.158
	c0.013,0,0.026,0,0.039,0c0.004,0.009,0.008,0.018,0.012,0.027c-0.001,0-0.002,0-0.003,0c-0.003,0-0.007,0.001-0.01,0.002
	c0.005,0.002,0.01,0.003,0.016,0.004c0.009,0.018,0.018,0.036,0.027,0.055c0,0.03-0.004,0.059-0.01,0.088
	c0.011,0,0.031,0.013,0.083,0.085l-0.002,0.194l0.019,0.005c0.001-0.007,0-0.014-0.004-0.02c0.02-0.005,0.027,0.006,0.041,0.008
	c0.004,0.012,0.004,0.026,0,0.038c0.017,0.032,0.037,0.075,0.02,0.071l0.008,0.009c0.005-0.001,0.011-0.001,0.016,0
	C1.099,12.571,1.1,12.577,1.1,12.584c0.04,0.042-0.016-0.049,0.035-0.002c0.007,0.021,0.016,0.041,0.025,0.062
	c0.003,0,0.006,0.002,0.009,0.004c0.002,0.006,0.003,0.013,0.002,0.019c0.03,0.061,0.069,0.125,0.104,0.183
	c0.023,0.036,0.044,0.069,0.06,0.099c0.019,0.007,0.035,0.012,0.048,0.016c-0.009,0.006-0.019,0.01-0.029,0.012
	c0-0.002,0.014,0.011,0.048,0.055c-0.004,0.016-0.003,0.032,0.004,0.047c0.007,0.004,0.013,0.011,0.02,0.015H1.411
	c0.014,0.025,0.031,0.049,0.05,0.071c0.019,0.023,0.041,0.048,0.064,0.075c0.017-0.009,0.035-0.013,0.054-0.014
	c0.007,0.022,0.002,0.034-0.008,0.039c0.006,0.015,0.01,0.029,0.015,0.042l-0.018-0.006c0.009,0.014,0.016,0.028,0.023,0.043
	c-0.011-0.005-0.021-0.012-0.03-0.02c0.003,0.007,0.005,0.015,0.006,0.023c-0.004,0.001-0.008,0.002-0.012,0.003
	c0.027,0.022,0.051,0.049,0.069,0.078h0.01c-0.003-0.008-0.005-0.017-0.006-0.025c0.025-0.007,0.029,0.011,0.027,0.027h0.002
	c0,0.004,0,0.008,0,0.012c-0.007,0.003-0.015,0.004-0.022,0.004c0.009,0.014,0.018,0.03,0.026,0.045
	c0.03,0.051,0.061,0.103,0.092,0.149H1.76c0.035-0.024,0.08-0.027,0.119-0.009c-0.012-0.014-0.024-0.03-0.035-0.045
	c-0.003-0.003-0.006-0.008-0.01-0.012l-0.021,0.019c0-0.021,0-0.034,0-0.046c-0.022-0.028-0.045-0.056-0.069-0.086l0,0l0,0
	c-0.035-0.046-0.075-0.089-0.117-0.129c0.028,0.03,0.059,0.056,0.094,0.078c0.073,0.099,0.148,0.197,0.225,0.292
	c-0.013-0.012-0.025-0.025-0.037-0.039c-0.021-0.004-0.041-0.011-0.059-0.021c-0.009,0.004-0.017,0.011-0.022,0.02l0.015,0.021
	l-0.009,0.007l-0.016-0.018l-0.003,0.003c-0.011,0-0.021,0-0.032-0.002c0.003,0.004,0.006,0.008,0.009,0.012l0,0
	c-0.006,0.003-0.009,0.012-0.009,0.027c0.021,0.029,0.055,0.018,0.075,0.02c-0.025-0.01-0.048-0.026-0.066-0.047
	c0.019-0.01,0.066,0.043,0.127,0.119c0.027,0.032,0.057,0.069,0.088,0.105c0.005,0,0.009,0.001,0.013,0.002
	c0.001,0.004,0.001,0.009,0,0.013c0.039,0.044,0.08,0.09,0.12,0.13c-0.012,0,0.057,0.086,0.145,0.189
	c-0.001-0.004-0.001-0.008,0-0.011c0.007-0.011,0.063-0.032,0.073-0.01c0.008,0.027-0.037,0.046-0.06,0.034
	c0.082,0.095,0.177,0.202,0.242,0.275H2.531c0.03,0,0.081,0.034,0.14,0.085c0.03,0.025,0.061,0.053,0.092,0.081
	c0.031,0.028,0.065,0.054,0.095,0.078c-0.021,0.015-0.05,0.006-0.12-0.042c0.035,0.034,0.072,0.064,0.109,0.096
	c-0.011-0.004-0.023-0.007-0.035-0.009l0.063,0.034l-0.028-0.024c0.054,0.023,0.105,0.055,0.149,0.094H2.945
	c0.037,0.031,0.075,0.062,0.115,0.091c0.04,0.029,0.083,0.057,0.126,0.086s0.087,0.061,0.131,0.096
	c0.022,0.018,0.045,0.034,0.069,0.054c0.025,0.02,0.047,0.037,0.069,0.057c0.028-0.015-0.096-0.165,0.086-0.063
	c0.001-0.006,0.004-0.011,0.008-0.015l0.039,0.029c-0.003,0.009-0.011,0.015-0.02,0.016c-0.006,0.015-0.021,0.027-0.069,0
	c0.038,0.018,0.074,0.041,0.106,0.069l-0.102-0.038c0.085,0.075,0.062,0.015,0.133,0.069c-0.015,0.018,0.044,0.052,0.024,0.06
	l0.047,0.01c0,0.004,0,0.008-0.002,0.012L3.667,15.45c0.008,0.007,0.015,0.013,0.022,0.02c0.028,0.024,0.055,0.051,0.079,0.08
	c0-0.015,0.018-0.026,0.082,0.012c0.163,0.103,0.04,0.059,0.129,0.13c0.047,0.013,0.146,0.089,0.167,0.061
	c0.028,0.015,0.05,0.038,0.064,0.067c0.031,0.012,0.084,0.041,0.141,0.071c0.002-0.001,0.004-0.002,0.006-0.003l-0.003-0.002
	l0.01-0.002c0.012-0.007,0.023-0.013,0.031-0.019c-0.003-0.015-0.001-0.031,0.007-0.044c0.017-0.008,0.015,0.011,0.028,0.009
	c0.006,0.025,0.004,0.045-0.012,0.055c-0.004,0-0.008-0.001-0.011-0.003c-0.002,0.002-0.003,0.003-0.004,0.005
	c0.006,0.004,0.01,0.008,0.013,0.014H4.42c0,0,0,0.002,0,0.005c0.003,0.006,0.006,0.013,0.009,0.02l-0.012-0.007
	c0,0.001,0,0.002,0,0.003l0.026,0.013c0-0.006,0-0.012,0.002-0.016c0.002,0.004,0.008,0.013,0.012,0.023
	c0.054,0.024,0.095,0.041,0.098,0.032L4.551,15.97c0,0,0.003,0,0.004,0c-0.002-0.007-0.007-0.013-0.012-0.018l0.007,0.004
	c-0.005-0.003-0.009-0.008-0.013-0.012c0.023,0.009,0.046,0.019,0.069,0.03c0.024-0.002,0.046,0.008,0.061,0.027
	c0.032,0.016,0.064,0.031,0.096,0.048c0.01,0.004,0.02,0.009,0.03,0.014h0.006c0,0,0,0.002,0,0.003l0.035,0.016l0.007-0.014
	l0.049,0.021c0,0.006,0,0.012,0,0.018H4.887l0.011,0.005c0,0,0-0.002-0.002-0.004c0.035,0.018,0.069,0.034,0.104,0.054l0.048,0.024
	h0.005c0,0.001,0,0.001,0,0.002l0,0l0.026-0.014c0.001,0.009,0,0.017-0.003,0.026c0.06,0.03,0.121,0.058,0.182,0.085
	c0.01-0.01,0.018-0.02,0.027-0.029c0,0,0-0.002,0-0.002l0,0l0,0l0.08,0.032c-0.04,0.016-0.04,0.016-0.08-0.032l0,0l0,0
	c-0.003,0.012-0.006,0.024-0.01,0.034c0.058,0.025,0.117,0.048,0.176,0.069l-0.004,0.011c0.053,0.019,0.11,0.036,0.168,0.054
	l0.018-0.002c0,0.002,0.002,0.005,0.004,0.009c0.019,0.006,0.037,0.012,0.056,0.018l-0.011-0.015l0.062,0.031
	c0.022,0.007,0.044,0.013,0.066,0.019c0.006-0.011,0.011-0.019,0.016-0.025C5.85,16.458,5.876,16.462,5.9,16.47l0.019,0.009
	c0.012-0.005,0.02-0.016,0.023-0.029c0.006,0.008,0,0.021-0.008,0.036c0.031,0.015,0.061,0.031,0.09,0.048
	c0.047,0.019,0.09,0.049,0.067,0.054l0.021,0.005c0.001-0.004,0.003-0.009,0.004-0.013c-0.003-0.004-0.006-0.008-0.009-0.012h0.014
	c0.005-0.009,0.012-0.017,0.02-0.023c-0.009-0.011-0.018-0.023-0.031-0.039l0.093,0.02c0.001,0.004,0.002,0.008,0.003,0.011
	c0.006,0.005,0.009,0.012,0.009,0.019l0.066-0.009c0.005,0.025,0.005,0.052,0,0.077c0.018,0.008,0.037,0.015,0.055,0.023
	c0.032,0.009,0.069,0.021,0.121,0.038c-0.017,0-0.028-0.003-0.037-0.003l0.046,0.02c-0.003,0.003-0.006,0.006-0.009,0.009
	l0.027,0.009c-0.005-0.005-0.007-0.012-0.006-0.019c0.027-0.02,0.062-0.025,0.094-0.013c0.003,0.019-0.01,0.038-0.029,0.043
	l0.047,0.011l-0.008,0.002c0.052,0.01,0.104,0.016,0.156,0.019c-0.04,0.009,0.002,0.026,0.064,0.042c0-0.001,0-0.003,0-0.004
	c-0.012-0.011-0.035-0.021-0.035-0.031c-0.002-0.049-0.044-0.053-0.073-0.071c-0.022-0.014-0.043-0.03-0.061-0.049
	c-0.005-0.008-0.008-0.018-0.007-0.028c0.047,0.011,0.094,0.021,0.141,0.031c0.02,0.024,0.057,0.034,0.079,0.056
	c0.022,0.022,0.042,0.042,0.064,0.062l0,0c0.008-0.002,0.015-0.005,0.023-0.008l0.009,0.045c0.061,0.011,0.119,0.023,0.176,0.034
	l-0.056,0.029c0.014,0.004,0.028,0.008,0.042,0.011c0.007-0.002,0.014-0.003,0.021-0.003L7.12,16.886
	c0.074,0.017,0.148,0.029,0.224,0.034l0.021,0.002l-0.044-0.056l0.083,0.005c-0.006,0.016-0.011,0.031-0.018,0.052
	c0.028,0.003,0.055,0.004,0.081,0.006l-0.004-0.003c0.005-0.005,0.009-0.011,0.015-0.016L7.5,16.93c0.035,0,0.071,0.002,0.106,0
	h0.108c-0.005-0.011-0.004-0.024,0.003-0.034c0.013,0.008,0.035,0.005,0.043,0.021c0.001,0.005,0.001,0.011,0,0.016
	c0.03,0,0.059,0.002,0.088,0.004c0.039,0.003,0.078,0.009,0.115,0.015c0.039,0.005,0.077,0.014,0.114,0.025
	c0.106-0.023-0.215-0.027-0.119-0.056c0.064,0.005,0.128,0.014,0.191,0.027v-0.03h0.012c-0.002,0.01-0.003,0.019-0.005,0.028H8.149
	c0.108,0.022,0.2,0.049,0.237,0.05c0.076,0.008,0.152,0.002,0.226-0.017c-0.002-0.025-0.004-0.049-0.006-0.075
	c0.009,0.01,0.018,0.02,0.028,0.031c-0.008-0.028,0.022-0.028,0.035-0.042c0-0.009-0.002-0.018-0.004-0.027H8.663l0,0
	c0-0.012-0.003-0.024-0.005-0.034c0.007,0,0.013-0.002,0.019-0.003c0.004,0.01,0.006,0.02,0.006,0.031l0.052-0.019
	c0.018,0.031-0.003,0.053-0.009,0.075l-0.044-0.034c-0.004,0.032-0.02,0.061-0.047,0.058c0.006,0.006,0.011,0.012,0.017,0.018
	c-0.002,0.005-0.004,0.01-0.006,0.014c0.025-0.007,0.05-0.013,0.075-0.016c0.002-0.012,0.005-0.025,0.008-0.037
	c0.018,0.012,0.019,0.025,0.004,0.036c0.049-0.006,0.098-0.009,0.147-0.009c-0.035-0.012-0.066-0.047,0.126-0.073
	c0.014,0,0.027,0,0.039,0c-0.003-0.005-0.004-0.01-0.003-0.016c0.011,0,0.021-0.003,0.033-0.004c0.004,0.006,0.004,0.015,0,0.021
	c0.123,0.007,0.145,0.046,0.046,0.062c-0.043,0.004-0.064,0-0.064-0.003c0.033-0.005,0.06-0.009,0.052-0.012
	c-0.035,0.003-0.05,0.008-0.052,0.012l0,0c-0.057,0.009-0.133,0.02-0.065,0.03c0-0.002,0-0.003,0-0.005l0.006,0.004l0.021-0.014
	c0.045,0.004,0.131,0.002,0.198,0.002c0.067,0,0.115-0.003,0.087,0.013c0.117-0.025,0.075-0.029-0.004-0.027
	c0.032,0,0.062-0.003,0.092-0.006c-0.002-0.003-0.004-0.006-0.006-0.009c0.01,0,0.02,0.003,0.03,0.007
	c0.043-0.004,0.084-0.009,0.125-0.013c0.001-0.001,0.003-0.002,0.004-0.002c0,0.001,0,0.001,0,0.002l0.013-0.002
	c0.045-0.006,0.092-0.01,0.141-0.018l0.04-0.005c-0.003-0.019-0.011-0.043-0.057-0.034c0.012-0.034,0.078-0.016,0.099-0.054
	c0.007-0.025-0.005-0.046-0.006-0.069l0.041-0.006c0.013,0.016,0.024,0.033,0.035,0.051c-0.045,0.024-0.08,0.063-0.101,0.109
	c0.02-0.003,0.04-0.006,0.062-0.008l0.006-0.011c-0.014-0.004-0.017-0.009,0.004-0.012l0,0c0.003-0.007,0.006-0.014,0.008-0.021
	c0.013-0.004,0.018,0.002,0.027,0.003l-0.004,0.014c0.064-0.004,0.128-0.016,0.189-0.034c0.001-0.01,0.007-0.02,0.015-0.026
	c0.006,0,0.012,0.004,0.015,0.009c0.007-0.005,0.015-0.009,0.022-0.012c0.009-0.004,0.02-0.008,0.035-0.013
	c-0.001-0.002-0.002-0.005-0.002-0.008c0.019,0.002,0.038-0.006,0.05-0.021c-0.027-0.016-0.019-0.048-0.013-0.081l0.054-0.011
	c-0.015,0.038,0,0.081,0.035,0.103c0.024,0.007,0,0.024,0.03,0.02c0-0.001,0-0.003,0-0.004l0.011,0.002
	c0.019-0.003,0.051-0.012,0.106-0.029l0,0c-0.013-0.012-0.024-0.025-0.035-0.038c0.025-0.014,0.057-0.005,0.071,0.019
	c0.003,0.005,0.005,0.01,0.006,0.015c0.077-0.002-0.011,0.036-0.06,0.057c0.051-0.017,0.102-0.032,0.155-0.043
	c0.049-0.013,0.096-0.022,0.142-0.03s0.095-0.015,0.136-0.021c-0.05-0.039-0.086-0.092-0.104-0.152
	c-0.01,0.004-0.022,0.001-0.029-0.008l0.074-0.021c0.004,0.015,0.012,0.028,0.022,0.039c0.011-0.014,0.017-0.032,0.016-0.049
	l0.078-0.022c0.01,0.007,0.022,0.012,0.035,0.014c0.002,0.019-0.011,0.026-0.021,0.034c-0.018-0.008-0.033-0.02-0.044-0.036
	c0.003,0.029,0.007,0.057,0.01,0.087l0.077,0.024c-0.01,0.004-0.021,0.006-0.031,0.006c0.001,0.009,0.004,0.017,0.01,0.023
	c0.006,0.026-0.025,0.024-0.028,0.043c0,0.002,0.004,0.003,0.005,0.004c0.01-0.002,0.021-0.004,0.03-0.006l-0.025,0.01l0.006,0.002
	c0.017-0.005,0.035-0.01,0.05-0.015c0.005-0.004,0.009-0.008,0.012-0.013l-0.048-0.006c0.019-0.003,0.037-0.007,0.056-0.012
	c0-0.003,0-0.006,0-0.009c-0.009-0.019-0.061-0.037-0.028-0.062c0.024-0.002,0.017,0.039,0.035,0.048
	c0.024-0.009,0.046-0.021,0.066-0.036c0-0.007,0.012-0.018,0.037-0.034c0.01-0.011,0.019-0.023,0.028-0.034
	c0.002-0.031-0.035-0.036-0.015-0.064c0.013,0.002,0.026,0.001,0.038-0.004c-0.008-0.006-0.016-0.013-0.023-0.021
	c-0.002,0.001-0.004,0.002-0.005,0.004c-0.001-0.003-0.002-0.007-0.002-0.01l-0.005-0.004l0.077-0.025
	c0.002,0.003,0.004,0.006,0.005,0.009c-0.005,0.003-0.011,0.006-0.016,0.008c-0.002,0.01-0.003,0.02-0.005,0.03
	c0.01-0.004,0.021-0.006,0.032-0.006c0.009,0.011,0.008,0.027-0.002,0.036l0.031,0.005c-0.002,0.005-0.004,0.011-0.006,0.016
	c-0.01-0.005-0.021-0.01-0.031-0.014c-0.011,0.008-0.02,0.017-0.028,0.028c0,0.007,0.001,0.015,0.004,0.022
	c0.085-0.026,0.191-0.071,0.231-0.064c-0.015-0.025-0.027-0.054-0.042-0.081c0.076-0.021,0.08-0.016,0.098,0.045
	c0.009,0.024,0.025,0.045,0.046,0.059c0.003,0.002,0.005,0.004,0.008,0.005c0.024-0.015,0.046-0.033,0.065-0.054
	c-0.009-0.009-0.006-0.019,0-0.048l0.03,0.026c0.005-0.003,0.011-0.006,0.016-0.01c-0.003-0.008-0.002-0.007,0-0.023
	c0.001,0,0.001,0,0.002,0c-0.011-0.016-0.029-0.026-0.048-0.026c0.043-0.023,0.09,0.048,0.127-0.014
	c-0.026-0.041-0.096,0-0.123-0.062c0.039,0.011,0.079,0.016,0.12,0.016c0.037-0.004,0.074,0.004,0.106,0.022
	c-0.011,0.016-0.018,0.028-0.03,0.045c0.004,0,0.008,0.003,0.011,0.004c0.023-0.005,0.045-0.013,0.066-0.024
	c-0.09,0.04-0.073,0.004-0.01-0.043c-0.018-0.022-0.032-0.047-0.048-0.071c-0.016-0.024-0.03-0.051-0.072-0.019
	c-0.011,0.008-0.026,0.008-0.038,0c0.037-0.015,0.074-0.031,0.111-0.046c0.004,0.007,0.007,0.013,0.01,0.021
	c0.003,0.013,0.008,0.025,0.015,0.036c0.012-0.005,0.026,0.002,0.031,0.014c0.001,0.002,0.001,0.004,0.001,0.006
	c0.011,0.01,0.02,0.021,0.027,0.034c0.15-0.05,0.17-0.082,0.232-0.113c-0.001,0-0.001,0-0.002,0l-0.002-0.002l-0.069,0.024
	c0.01-0.012,0.023-0.022,0.037-0.03c-0.014-0.002-0.027-0.007-0.039-0.013c0.002,0.009,0,0.019-0.004,0.022
	c-0.023,0.009-0.013-0.024-0.019-0.037c0.005-0.003,0.012-0.002,0.017,0.002c0-0.011,0.009-0.026,0.027-0.053
	c0.011,0.029,0.018,0.052,0.027,0.074c0.006-0.004,0.013-0.008,0.021-0.012c0.001-0.006,0.001-0.012,0-0.018l0.031-0.004
	c0,0.001,0,0.003,0,0.004l0.12-0.067c0.017,0.01-0.097,0.062-0.054,0.048c0.063-0.047,0.135-0.082,0.212-0.103
	c0.041-0.015,0.084-0.028,0.126-0.048c0.043-0.02,0.084-0.045,0.122-0.073c0.078-0.029,0.038,0.019,0.084,0.005
	c0-0.001,0-0.003,0-0.004c0.007-0.007,0.016-0.01,0.025-0.01c0,0.001,0,0.003,0,0.004c0.035-0.026,0.072-0.049,0.11-0.069
	c-0.002-0.014-0.005-0.027-0.008-0.042c0.013-0.001,0.025,0.001,0.037,0.006l0.179-0.16c-0.097,0.06-0.193,0.146-0.256,0.174
	c0.089-0.077,0.08-0.069,0.023-0.058c0.074-0.027,0.143-0.068,0.203-0.119c0.065-0.054,0.135-0.101,0.21-0.14l0.01,0.015
	c0.001-0.009,0.003-0.018,0.008-0.026c0.008,0.025,0.012,0.041,0.017,0.056l0,0c-0.002,0.001-0.004,0.002-0.006,0.003l0.007,0.012
	c0.076-0.042,0.147-0.091,0.215-0.145h-0.002c0.001,0,0.003,0,0.004,0c0.009-0.008,0.018-0.014,0.028-0.022
	c0-0.016-0.002-0.034-0.004-0.057c0.012,0.014,0.021,0.026,0.029,0.034c0.015-0.013,0.03-0.025,0.045-0.038l0.06-0.048l0,0
	l-0.003-0.003l0,0c0,0,0-0.002,0-0.004l-0.049-0.043c0.039-0.004,0.044,0.019,0.049,0.043c0.001,0.001,0.002,0.002,0.004,0.003
	v0.003l0,0c0.03-0.026,0.06-0.054,0.093-0.081c0.019-0.017,0.04-0.034,0.062-0.051l-0.069-0.019c0.024-0.019,0.06-0.015,0.079,0.01
	c0,0.001,0.001,0.001,0.001,0.002c0.037-0.029,0.075-0.059,0.115-0.092c-0.031,0.021-0.062,0.044-0.094,0.064
	c0.019-0.05,0.163-0.144,0.242-0.226c0.008,0.024,0.069-0.016,0.114-0.037c-0.008-0.004,0.035-0.044,0.081-0.091
	c-0.007-0.024-0.015-0.048-0.035-0.056c0.025-0.013,0.045-0.034,0.055-0.06c0.008,0.02,0.018,0.042,0.028,0.064
	c0.03-0.034,0.054-0.069,0.05-0.087c0.045-0.029,0.092-0.056,0.135-0.087c0.049-0.045,0.093-0.095,0.132-0.148
	c-0.045-0.014-0.056-0.063-0.073-0.09l-0.01-0.009l0.002-0.002c0.003,0.003,0.006,0.007,0.008,0.011l0.081,0.078
	c0.011-0.016,0.022-0.032,0.032-0.048c-0.008-0.008-0.015-0.016-0.021-0.024l0.027,0.013c0.051-0.092,0.113-0.178,0.183-0.257
	c-0.035,0.076,0.053,0.002-0.039,0.133c0,0,0,0,0.002,0c0.056-0.063,0.106-0.116,0.096-0.128c0.019-0.016,0.036-0.034,0.05-0.055
	l-0.035-0.013l0.008-0.015c0.012,0.005,0.024,0.012,0.035,0.018c0.013-0.018,0.027-0.037,0.04-0.057
	c0.029-0.052,0.067-0.1,0.11-0.141c-0.007,0.015-0.016,0.029-0.028,0.041c0.015-0.015,0.029-0.032,0.04-0.05
	c-0.004,0.003-0.008,0.005-0.011,0.008c0.015-0.036,0.004-0.061,0.069-0.14c0.006-0.003,0.008,0,0.008,0.003
	c0.002-0.01,0.02-0.037,0.03-0.06c0.01-0.023,0.017-0.045-0.019-0.017c0.062-0.054,0.118-0.114,0.167-0.179
	c0.028-0.034,0.056-0.073,0.084-0.111c0.028-0.038,0.052-0.08,0.077-0.12c0.051-0.081,0.102-0.16,0.15-0.231
	c0.038-0.064,0.083-0.124,0.135-0.179c-0.006,0.012-0.013,0.025-0.02,0.037l0.038-0.057l-0.018,0.018
	c0.023-0.044,0.048-0.089,0.073-0.136c0.025-0.047,0.047-0.097,0.069-0.145c0.046-0.097,0.095-0.189,0.132-0.271
	c0,0.014,0.01,0.005-0.006,0.034c0.1-0.175,0.041-0.176,0.087-0.3c-0.027-0.008-0.035-0.013-0.041-0.031
	c0.005-0.011,0.01-0.022,0.015-0.034c0.01,0.017,0.019,0.034,0.03,0.053c0.01-0.023,0.022-0.05,0.04-0.084
	c-0.018,0.005-0.038,0.005-0.056,0c0.009-0.02,0.017-0.041,0.026-0.062c0.017,0.011,0.033,0.022,0.048,0.034
	c0.028-0.034,0.027-0.017,0.018,0.013c0.011,0.008,0.023,0.016,0.035,0.022c0.022-0.044,0.041-0.09,0.055-0.137
	c0.008-0.023,0.015-0.046,0.023-0.071c-0.027,0.003-0.053-0.008-0.069-0.029c-0.009-0.01-0.019-0.019-0.027-0.028
	c0.005-0.011,0.009-0.023,0.014-0.034l0.046-0.029c0.023,0.012,0.047,0.021,0.072,0.026c0.018-0.047,0.039-0.092,0.064-0.135
	l-0.011,0.045c0.022-0.043,0.04-0.088,0.052-0.135c-0.005-0.009-0.009-0.018-0.01-0.028c0.006,0.004,0.011,0.006,0.016,0.009
	c0.006-0.021,0.011-0.042,0.017-0.065c-0.008,0.009-0.014,0.007-0.035-0.004c0,0-0.002,0-0.003,0l-0.003-0.002l-0.094,0.013
	l0.025-0.072c0.007,0.004,0.014,0.008,0.02,0.014c0.017,0.015,0.033,0.03,0.049,0.045h0.003c0.001,0.001,0.002,0.001,0.003,0.002
	c0.011-0.003,0.023-0.006,0.037-0.011c0.012-0.052,0.025-0.106,0.038-0.163c-0.006,0.009-0.013,0.018-0.02,0.029
	c-0.061-0.065-0.061-0.065-0.028-0.122l-0.026-0.027c0.004-0.012,0.008-0.024,0.011-0.037c0.011,0.005,0.023,0.008,0.035,0.011
	c0.021,0.005,0.043,0.008,0.065,0.008c0.004-0.012,0.007-0.025,0.011-0.037c0,0,0.003,0.013,0.011,0.004
	c0.003-0.049,0.009-0.098,0.017-0.146c0.009-0.054,0.016-0.115,0.027-0.177c0.011-0.073,0.026-0.148,0.039-0.221l-0.048-0.034
	c0.004-0.016,0.007-0.034,0.01-0.049c0.024,0.014,0.039,0.039,0.041,0.067c0.007-0.044,0.015-0.088,0.019-0.129
	c0.017,0.076-0.004,0.105,0.035,0.069v-0.002c-0.014-0.014-0.022-0.034-0.021-0.054c-0.008-0.007-0.012-0.022-0.011-0.064
	c-0.008-0.007-0.015-0.014-0.023-0.021l0.017-0.016l0.009,0.008c0-0.01,0.003-0.02,0.004-0.032c0.001-0.012,0.007-0.015,0.01-0.023
	c0,0,0,0,0-0.002l0,0c0.009-0.022,0.019-0.049,0.03-0.076c-0.011-0.021-0.023-0.041-0.035-0.061h-0.011
	c0.004-0.027,0.009-0.054,0.013-0.08l0.029,0.022c0,0,0,0,0-0.002h0.004l0.021-0.03c0.005,0.007,0.01,0.014,0.015,0.022
	l-0.035,0.008l-0.003,0.004l0,0c-0.012,0.016-0.016,0.032,0.006,0.044c0.008,0.005,0.016,0.009,0.025,0.012
	c0.013-0.027,0.026-0.049,0.038-0.054c-0.003,0.024-0.008,0.049-0.012,0.074c0.01,0.013,0.013,0.029,0.008,0.044
	c0,0.001,0,0.003,0,0.004c0.009-0.032,0.015-0.065,0.018-0.098c-0.003-0.006-0.005-0.013-0.006-0.02
	c0.002,0.002,0.005,0.003,0.007,0.004c0.001-0.055,0.006-0.111,0.014-0.166l0.016,0.016c0.037-0.295-0.016-0.304,0.017-0.619
	L16.921,9.119z M16.849,6.965c0.026-0.005,0.022,0.051-0.008,0.041C16.849,6.996,16.841,6.975,16.849,6.965z M0.459,10.91
	c-0.004-0.008-0.008-0.015-0.011-0.023c0,0,0.004-0.003,0.006-0.004c0.004,0.008,0.009,0.016,0.013,0.024L0.459,10.91z
	 M8.727,16.924l-0.002-0.002l0,0l0,0l0,0c0.001-0.001,0.002-0.001,0.003,0c0,0,0,0,0.001,0.001L8.727,16.924z M10.95,16.491
	c-0.009,0.009-0.018,0.018-0.028,0.025c0.001-0.012,0.004-0.023,0.008-0.034c0.003-0.004,0.011-0.004,0.016-0.005
	C10.949,16.484,10.952,16.491,10.95,16.491z M16.393,11.456c-0.013-0.007-0.026-0.015-0.038-0.023l0.009-0.014l0.037,0.025
	C16.399,11.449,16.396,11.452,16.393,11.456z M16.543,11.078c-0.003,0.004-0.006,0.008-0.008,0.011
	c-0.011-0.008-0.021-0.016-0.031-0.024l0.008-0.011L16.543,11.078z M16.863,9.513c-0.015,0.005-0.029,0.01-0.041,0.014l0.005-0.039
	c0.011-0.007,0.025-0.01,0.038-0.009C16.872,9.497,16.858,9.497,16.863,9.513L16.863,9.513z M13.195,15.421
	c-0.007,0.003-0.015,0.003-0.022,0l0.02-0.013C13.194,15.412,13.194,15.416,13.195,15.421z M11.481,7.738
	c-0.011-0.069-0.031-0.147-0.048-0.253c-0.018-0.089-0.017-0.181,0.003-0.269c0.033-0.229,0.083-0.246,0.207-0.473
	c0.124-0.235,0.454-0.332,0.603-0.365c0.135-0.021,0.376-0.006,0.459,0.034c0.112,0.027,0.249,0.069,0.346,0.196
	c0.12,0.125,0.266,0.317,0.285,0.385c0.027,0.1,0.048,0.201,0.064,0.304c0.017,0.105-0.005,0.206,0.015,0.329
	c0.008,0.053,0.029,0.085,0.039,0.146c0.016,0.096-0.062,0.189-0.045,0.294c0.013,0.079-0.022,0.147-0.09,0.301
	c-0.04,0.132-0.215,0.142-0.273,0.214c-0.064,0.127-0.239,0.137-0.409,0.226c-0.033,0.013-0.068,0.022-0.104,0.025
	c-0.187,0.03-0.455-0.009-0.531-0.05c-0.071-0.06-0.303-0.212-0.328-0.271c-0.03-0.04-0.167-0.224-0.185-0.338
	C11.473,8.071,11.483,7.845,11.481,7.738z M11.014,7.477c0.005,0.085-0.038,0.228-0.072,0.27c-0.045,0.029-0.117,0.399-0.13,0.522
	c-0.002,0.144-0.188,0.518-0.194,0.69c-0.003,0.187-0.334,0.275-0.509,0.318c-0.193,0.031-0.373-0.069-0.38-0.112
	S9.803,8.803,9.857,8.73c0.045-0.079,0.153-0.275,0.164-0.412c0.024-0.142,0.065-0.281,0.123-0.412
	c0.061-0.081,0.082-0.206,0.133-0.301c0.06-0.088,0.075-0.148,0.11-0.29c0.035-0.142,0.15-0.137,0.175-0.243
	c0.029-0.127,0.012-0.282,0.08-0.371c0.069-0.082,0.146-0.374,0.207-0.556l0.149-0.504c0.057-0.159,0.132-0.308,0.161-0.434
	c0.029-0.133,0.066-0.264,0.111-0.393c0-0.043,0.096-0.172,0.113-0.219c0.024-0.054,0.002-0.244,0.069-0.398
	c0.03-0.104,0.05-0.21,0.06-0.317c0.035-0.149,0.069-0.298,0.152-0.333c0.008,0,0.047-0.014,0.071-0.018
	c0.129-0.021,0.43-0.04,0.486,0c0.038,0.03,0.117,0.06,0.129,0.137c0.006,0.034-0.013,0.074-0.021,0.125
	c-0.06,0.189,0,0.206-0.093,0.344c-0.11,0.137-0.09,0.258-0.142,0.447c-0.043,0.193-0.069,0.341-0.155,0.469
	c-0.077,0.134-0.057,0.36-0.176,0.494c-0.107,0.153-0.175,0.602-0.313,0.767c-0.138,0.165-0.047,0.323-0.13,0.472
	c-0.089,0.165-0.162,0.427-0.242,0.49C10.99,7.331,11.009,7.399,11.014,7.477z M10.536,13.701c-0.043,0.118-0.115,0.224-0.21,0.307
	c-0.154,0.142-0.379,0.237-0.668,0.284l-1.032,0.166l-0.122-0.392l0.247-0.1L8.423,11.95l-0.265,0.018l-0.069-0.431l1.009-0.162
	c0.308-0.049,0.569-0.015,0.778,0.103c0.201,0.11,0.338,0.308,0.368,0.535c0.028,0.161,0.004,0.328-0.069,0.475
	c-0.034,0.072-0.081,0.138-0.138,0.193c0.097,0.025,0.189,0.07,0.269,0.131c0.141,0.106,0.233,0.264,0.257,0.438
	C10.59,13.426,10.581,13.578,10.536,13.701z M7.075,14.707l-0.058-0.358l0.326-0.135l-0.237-0.459l-0.774,0.125L6.26,14.388
	l0.346,0.023l0.058,0.362l-1.003,0.161l-0.135-0.35l0.223-0.119l0.423-2.622l0.488-0.078l1.279,2.35l0.223,0.048l-0.005,0.369
	L7.075,14.707z M4.42,10.565c-0.26-0.35-0.28-0.393-0.45-0.826C3.795,9.283,3.672,8.991,3.612,8.782
	C3.586,8.687,3.566,8.59,3.553,8.492c-0.038-0.236-0.069-0.508-0.1-0.698C3.426,7.625,3.384,7.447,3.355,7.256
	C3.336,7.152,3.323,7.046,3.317,6.94C3.297,6.586,3.154,6.01,3.254,5.683c0.1-0.327-0.012-0.47,0.115-0.79
	c0.127-0.32,0.219-0.38,0.359-0.621c0.14-0.241,0.304-0.486,0.511-0.622s0.65-0.309,0.843-0.376C5.25,3.212,5.516,3.205,5.69,3.176
	c0.025-0.004,0.064,0,0.113-0.007c0.179,0.006,0.44,0.045,0.611,0.157c0.185,0.12,0.527,0.192,0.696,0.373
	c0.155,0.172,0.64,0.658,0.716,1.13C7.835,4.874,7.83,4.922,7.837,4.967c0.049,0.303,0.18,0.409,0.252,0.616
	c0.025,0.077,0.073,0.219,0.075,0.23C8.143,5.84,8.175,6.042,8.198,6.177C8.221,6.312,8.3,6.886,8.304,7.231
	C8.306,7.315,8.316,7.398,8.331,7.48C8.358,7.648,8.4,7.837,8.427,7.996c0.012,0.083,0.017,0.167,0.015,0.251
	C8.419,8.504,8.325,9.106,8.276,9.436c-0.049,0.33-0.254,0.639-0.389,0.903c-0.136,0.264-0.434,0.309-0.606,0.43
	s-0.122,0.112-0.445,0.243c-0.152,0.066-0.31,0.114-0.473,0.144c-0.093,0.015-0.187,0.018-0.28,0.008
	c-0.232-0.021-0.355,0.01-0.601-0.02C5.236,11.115,4.762,11.029,4.42,10.565z M0.121,8.146L0.121,8.146c0,0.002,0,0.004,0,0.006
	C0.122,8.15,0.121,8.148,0.121,8.146z M0.174,7.51C0.171,7.53,0.169,7.551,0.167,7.572C0.148,7.564,0.153,7.552,0.174,7.51z
	 M0.717,5.403C0.701,5.39,0.692,5.372,0.69,5.351c0.015,0,0.03,0.002,0.045,0.006C0.729,5.373,0.724,5.388,0.717,5.403z
	 M0.692,5.399L0.714,5.41L0.707,5.429L0.683,5.415C0.686,5.41,0.689,5.404,0.692,5.399z M7.23,0.236c0.01-0.013,0.026,0,0.028,0.016
	C7.242,0.257,7.23,0.255,7.23,0.236z M2.799,14.611c0,0.001,0,0.002,0,0.003l-0.01-0.013L2.799,14.611z M16.672,6.645
	c0.025-0.008,0.027,0.033,0.018,0.044l-0.009-0.003L16.672,6.645z M16.677,6.635l-0.008-0.002c0-0.005-0.002-0.011-0.004-0.016
	c0.006-0.015,0.011-0.032,0.016-0.047l0.013,0.004C16.688,6.594,16.683,6.614,16.677,6.635z M16.614,6.41
	c-0.007-0.028-0.014-0.055-0.022-0.083C16.615,6.372,16.623,6.394,16.614,6.41z M10.61,6.01c0.012,0.079-0.024,0.148-0.093,0.303
	c-0.041,0.133-0.221,0.143-0.28,0.215c-0.066,0.127-0.245,0.137-0.419,0.229C9.785,6.77,9.749,6.779,9.713,6.782
	C9.521,6.813,9.248,6.775,9.17,6.733c-0.073-0.06-0.309-0.212-0.334-0.271c-0.03-0.04-0.17-0.225-0.188-0.339
	C8.631,6.018,8.641,5.791,8.64,5.684C8.629,5.615,8.608,5.536,8.591,5.43C8.573,5.341,8.575,5.249,8.595,5.16
	C8.629,4.93,8.681,4.913,8.81,4.685C8.936,4.449,9.274,4.35,9.426,4.317C9.565,4.295,9.81,4.31,9.895,4.351
	c0.114,0.027,0.255,0.069,0.354,0.196c0.122,0.125,0.271,0.317,0.29,0.386c0.027,0.1,0.049,0.202,0.065,0.305
	c0.017,0.105-0.006,0.208,0.014,0.331c0.009,0.053,0.03,0.085,0.039,0.147C10.673,5.81,10.593,5.904,10.61,6.01z M16.861,9.405
	c0,0.004,0,0.007-0.002,0.011l-0.025-0.003c0-0.004,0-0.009,0-0.013L16.861,9.405z M16.877,8.107c0,0-0.002,0.004-0.003,0.005
	c0-0.003,0-0.005,0-0.008C16.874,8.104,16.876,8.106,16.877,8.107L16.877,8.107z M16.91,7.419c-0.018,0.023-0.028,0.037-0.038,0.051
	c-0.006-0.004-0.016-0.008-0.017-0.013C16.851,7.434,16.857,7.415,16.91,7.419L16.91,7.419z M16.82,6.972
	c-0.024,0-0.044,0.002-0.064,0L16.74,6.97c-0.002-0.014-0.006-0.029-0.009-0.043c0.007-0.007,0.014-0.013,0.02-0.02L16.82,6.972z
	 M16.674,6.376c0.019,0.014,0.035,0.026,0.057,0.043l-0.075,0.032c0.008-0.029,0.012-0.052,0.018-0.076L16.674,6.376z M16.63,6.325
	c-0.014-0.01-0.028-0.021-0.042-0.031l0.003-0.004c0.015,0.009,0.029,0.019,0.044,0.029L16.63,6.325z M16.58,6.277
	c0-0.004-0.002-0.009-0.004-0.013l0.035-0.013c-0.001,0.018-0.016,0.023-0.033,0.026H16.58z M16.601,5.994
	c0.001,0.02-0.015,0.037-0.035,0.038c-0.02,0.001-0.038-0.014-0.039-0.035c0.009-0.039,0.053-0.033,0.072-0.004H16.601z
	 M16.47,5.809c0.011,0.016,0.019,0.028,0.032,0.048c-0.011,0.001-0.022,0.001-0.033,0c-0.035-0.013-0.022-0.027-0.001-0.048H16.47z
	 M16.116,4.881c0.009-0.004,0.019-0.005,0.028-0.004c0.002,0,0.004,0.012,0.006,0.018l-0.032,0.01
	c-0.003-0.012-0.007-0.024-0.003-0.025L16.116,4.881z M16.11,5.001L16.1,4.978h0.006C16.108,4.985,16.109,4.993,16.108,5
	L16.11,5.001z M16.075,4.623c0.024,0.04-0.039,0.061-0.058,0.039c-0.006-0.032,0.027-0.035,0.059-0.039L16.075,4.623z M16.066,4.863
	c-0.01-0.001-0.019-0.005-0.028-0.01l-0.018-0.036C16.049,4.812,16.076,4.841,16.066,4.863L16.066,4.863z M15.863,4.401
	c0.035-0.002,0.059,0.069,0,0.063C15.855,4.443,15.855,4.421,15.863,4.401L15.863,4.401z M15.499,3.87
	c0.027-0.007,0.038,0.031,0.02,0.043C15.489,3.913,15.489,3.887,15.499,3.87L15.499,3.87z M15.43,3.802
	c-0.001,0.002-0.003,0.003-0.004,0.004L15.408,3.78c0.01,0.001,0.018,0.009,0.02,0.019L15.43,3.802z M15.086,3.237
	c-0.008,0.023-0.022,0.043-0.04,0.058l-0.031-0.039c0.019-0.018,0.045-0.026,0.071-0.022L15.086,3.237z M14.753,2.768
	c0.002-0.002,0.011,0.003,0.016,0.005c-0.003,0.006-0.007,0.012-0.011,0.018c0,0-0.008-0.003-0.014-0.005
	c0.002-0.007,0.003-0.016,0.008-0.02L14.753,2.768z M14.748,2.879c0.006,0.009,0.012,0.019,0.018,0.028
	c-0.004,0.002-0.008,0.004-0.011,0.006c-0.006-0.009-0.011-0.018-0.017-0.027c-0.001-0.003,0.006-0.007,0.009-0.009L14.748,2.879z
	 M14.417,2.531c0.017-0.004,0.023,0.006,0.024,0.024c-0.017,0.004-0.028,0-0.029-0.016C14.417,2.539,14.417,2.535,14.417,2.531z
	 M14.4,2.536c-0.017,0.013-0.028,0.015-0.036,0.011L14.35,2.534c-0.004-0.007-0.008-0.014-0.011-0.021L14.4,2.536z M14.006,2.146
	l0.061,0.116c-0.006-0.001-0.012-0.003-0.018-0.005l-0.039-0.034c-0.011-0.023-0.007-0.05-0.017-0.069L14.006,2.146z M13.72,1.96
	l-0.037-0.005l-0.022-0.017C13.685,1.924,13.691,1.929,13.72,1.96L13.72,1.96z M13.502,1.7c-0.017,0.028-0.04,0.051-0.069,0.067
	L13.396,1.74c0.004-0.023,0.003-0.047-0.004-0.069C13.427,1.684,13.475,1.679,13.502,1.7L13.502,1.7z M13.26,1.521
	c0.011,0.032-0.035,0.043-0.055,0.034c0.007-0.021,0.028-0.031,0.056-0.034H13.26z M13.137,1.518
	c0.008,0.007,0.016,0.012,0.024,0.018c-0.001,0.001-0.001,0.002-0.002,0.003c-0.008-0.006-0.017-0.012-0.024-0.018
	C13.136,1.52,13.137,1.519,13.137,1.518z M13.005,1.405c0.007,0.023-0.017,0.023-0.037,0.025c0-0.007-0.002-0.013-0.002-0.019
	C12.976,1.4,12.992,1.397,13.005,1.405z M12.709,1.287c0,0.003-0.001,0.007-0.002,0.01L12.66,1.27
	C12.678,1.256,12.699,1.274,12.709,1.287L12.709,1.287z M12.52,1.181c0.002,0.004,0.002,0.008,0,0.011l-0.017-0.009L12.52,1.181z
	 M12.411,1.022c0,0.003,0.001,0.007,0.002,0.01l-0.03,0.008c0-0.008-0.003-0.014-0.004-0.022C12.389,1.019,12.4,1.021,12.411,1.022z
	 M12.328,1.001c-0.013,0.003-0.026-0.005-0.029-0.018c0-0.001-0.001-0.003-0.001-0.004C12.319,0.973,12.329,0.981,12.328,1.001
	L12.328,1.001z M12.255,0.953c0.017-0.004,0.028-0.002,0.029,0.015C12.267,0.973,12.251,0.975,12.255,0.953L12.255,0.953z
	 M12.169,0.945c0.014,0.011,0.017,0.031,0.006,0.045C12.121,1.005,12.109,0.944,12.169,0.945z M12.075,0.845
	c0.007,0.033-0.042,0.025-0.04,0c0.01-0.011,0.027-0.011,0.038-0.001c0,0,0,0,0.001,0.001L12.075,0.845z M11.992,0.802
	c0,0.004,0,0.007,0,0.011c-0.011,0-0.022,0-0.033,0c0-0.003,0-0.006,0-0.01L11.992,0.802z M11.587,0.755l-0.062-0.024L11.52,0.719
	c0.022-0.005,0.037-0.009,0.05-0.012c0.006,0.016,0.011,0.032,0.015,0.048L11.587,0.755z M11.387,0.643
	C11.43,0.655,11.505,0.65,11.507,0.6c0.017-0.007,0.015,0.011,0.028,0.01c0.009,0.026-0.008,0.033-0.006,0.054
	c-0.038-0.013-0.081-0.002-0.108,0.027l-0.035-0.013c-0.003-0.007-0.007-0.013-0.01-0.02c0.005-0.003,0.008-0.009,0.009-0.015
	L11.387,0.643z M11.304,0.586c0.006,0.022-0.019,0.041-0.043,0.047l-0.035-0.012c0.001-0.029,0.062-0.014,0.076-0.035L11.304,0.586z
	 M10.514,0.318c0.02,0.007,0.039,0.014,0.039,0.047c-0.049,0.01-0.066-0.021-0.04-0.047L10.514,0.318z M10.503,0.356
	c0,0.004,0.003,0.011,0,0.014c-0.003,0.004-0.008,0.004-0.012,0.005c-0.003-0.004-0.004-0.009-0.007-0.013L10.503,0.356z
	 M10.212,0.314c0.009,0.001,0.018,0.002,0.027,0.005c0.004,0.003,0.002,0.013,0.004,0.02l-0.031,0.002L10.212,0.314z M9.589,0.173
	l0.013-0.002c0,0.005,0.003,0.005,0.007,0.005s0,0.009,0.002,0.013c-0.006,0-0.006,0.003-0.006,0.007L9.592,0.199
	c0-0.006-0.003-0.006-0.007-0.006L9.584,0.18c0.003,0.001,0.003-0.003,0.003-0.007L9.589,0.173z M8.922,0.077
	c0.002,0.014,0.004,0.027,0.006,0.041C8.868,0.141,8.854,0.069,8.922,0.077z M8.745,0.112C8.762,0.106,8.78,0.114,8.787,0.131
	c0.001,0.003,0.002,0.005,0.002,0.008C8.78,0.143,8.78,0.152,8.771,0.154C8.746,0.161,8.733,0.13,8.746,0.112H8.745z M8.71,0.07
	C8.688,0.077,8.68,0.064,8.669,0.056C8.672,0.03,8.716,0.042,8.711,0.07H8.71z M8.382,0.104c0.002,0,0.007,0.005,0.017,0.013
	L8.367,0.114c0.005-0.004,0.011-0.008,0.017-0.01H8.382z M8.193,0.042l0.035-0.003c0,0.007,0,0.013,0,0.02L8.193,0.054V0.042z
	 M8.111,0.154L8.111,0.154c0-0.013,0.011-0.019,0.016-0.029C8.134,0.124,8.14,0.127,8.144,0.132c0.004,0,0.008,0,0.011,0
	c0,0.016,0.002,0.031,0.004,0.047L8.113,0.181C8.112,0.172,8.111,0.163,8.112,0.154H8.111z M7.377,0.198
	C7.396,0.212,7.418,0.221,7.418,0.23c0,0.003,0,0.007,0,0.01l-0.05,0.007C7.371,0.234,7.374,0.219,7.377,0.198z M7.212,0.154
	L7.212,0.154c0,0.001,0,0.001,0,0.002C7.261,0.16,7.302,0.193,7.316,0.24c0.001,0.005,0.004,0.009,0.006,0.013L7.277,0.26
	c0-0.021-0.006-0.041-0.043-0.044c-0.009,0-0.014-0.038-0.021-0.06c-0.002,0-0.004,0-0.006,0L7.212,0.154z M7.13,0.138
	c0,0.007,0,0.014,0,0.021c-0.004,0-0.011,0.002-0.013,0C7.114,0.153,7.112,0.146,7.11,0.139L7.13,0.138z M6.696,0.366L6.677,0.37
	L6.634,0.359C6.662,0.334,6.676,0.339,6.696,0.366L6.696,0.366z M6.544,0.332C6.528,0.336,6.516,0.333,6.515,0.316
	C6.533,0.313,6.548,0.31,6.544,0.333V0.332z M6.556,0.396L6.441,0.424c-0.004-0.001-0.007-0.002-0.01-0.004
	c0.058-0.009,0.08-0.033,0.126-0.023L6.556,0.396z M6.231,0.465V0.48L6.216,0.485c0-0.007-0.002-0.013-0.003-0.02
	C6.219,0.465,6.225,0.465,6.231,0.465L6.231,0.465z M6.077,0.477c0.007,0.006,0.014,0.012,0.02,0.02
	C6.094,0.5,6.092,0.503,6.089,0.506C6.081,0.501,6.074,0.496,6.066,0.491C6.07,0.485,6.073,0.48,6.077,0.477z M5.319,0.724
	l0.007,0.002C5.323,0.734,5.322,0.743,5.32,0.751C5.317,0.751,5.314,0.75,5.311,0.749C5.313,0.741,5.316,0.732,5.319,0.724z
	 M4.34,1.267L4.327,1.274C4.33,1.27,4.335,1.268,4.34,1.267z M4.049,1.439l-0.02,0.013c-0.011,0-0.021,0-0.031-0.002
	c0-0.009-0.002-0.018-0.004-0.026C4.016,1.423,4.043,1.419,4.049,1.439z M3.995,1.469c-0.049,0-0.061,0.023-0.093,0.013
	C3.893,1.429,3.994,1.393,3.995,1.469L3.995,1.469z M3.9,1.519l0.003,0.013L3.889,1.541C3.887,1.535,3.885,1.529,3.883,1.523
	L3.9,1.519z M3.364,1.822c0,0.019-0.008,0.03-0.029,0.031c-0.007-0.007-0.01-0.016-0.01-0.025C3.335,1.815,3.348,1.824,3.364,1.822
	L3.364,1.822z M3.075,2.146c-0.015,0.015-0.04,0.015-0.055,0C3.014,2.14,3.01,2.132,3.009,2.123
	C3.025,2.101,3.081,2.098,3.075,2.146z M3.026,2.164l0.018,0.012C3.031,2.187,3.018,2.199,3.005,2.211L2.997,2.205
	c0.009-0.014,0.019-0.027,0.029-0.041H3.026z M2.304,2.889c-0.03-0.019-0.059-0.041-0.087-0.063
	c0.041,0.004,0.083,0.002,0.116,0.032L2.305,2.889L2.304,2.889z M1.993,3.147c0.007,0.001,0.013,0.004,0.019,0.007
	c0.003,0.002,0,0.009,0.003,0.014c-0.007,0-0.013,0-0.023,0C1.991,3.16,1.991,3.153,1.991,3.147H1.993z M1.911,3.254
	c0.005,0.005,0.007,0.013,0.004,0.02C1.912,3.28,1.902,3.281,1.892,3.286c0-0.017,0-0.024,0-0.031
	c0.004-0.001,0.013-0.004,0.017-0.001H1.911z M1.366,4.083c-0.008,0.008-0.02,0.008-0.028,0.001
	c-0.004-0.004-0.007-0.01-0.006-0.016c0.017-0.004,0.034-0.005,0.033,0.015H1.366z M0.921,4.942
	c-0.002,0.005-0.005,0.01-0.007,0.014C0.912,4.954,0.91,4.951,0.91,4.948c0.003-0.002,0.007-0.004,0.01-0.005L0.921,4.942z
	 M0.833,4.915l0.035,0.026c-0.003,0.003-0.006,0.007-0.009,0.01l-0.031-0.03c0-0.002,0.002-0.003,0.004-0.006L0.833,4.915z
	 M0.842,5.053C0.833,5.082,0.827,5.101,0.821,5.122c-0.035-0.021-0.035-0.021,0.02-0.068L0.842,5.053z M0.765,5.194
	C0.752,5.212,0.708,5.217,0.71,5.18c0.014-0.018,0.055-0.023,0.054,0.014L0.765,5.194z M0.689,5.237l0.016,0.004
	C0.702,5.256,0.699,5.27,0.695,5.284c-0.004,0-0.009-0.002-0.014-0.003C0.684,5.267,0.687,5.254,0.689,5.237z M0.701,5.441
	l-0.016,0.04c-0.006,0-0.011-0.001-0.016-0.004C0.663,5.464,0.67,5.448,0.684,5.442C0.69,5.44,0.696,5.44,0.701,5.441L0.701,5.441z
	 M0.597,5.718C0.595,5.726,0.592,5.733,0.589,5.74C0.587,5.735,0.585,5.73,0.585,5.724C0.589,5.722,0.593,5.72,0.597,5.718
	L0.597,5.718z M0.504,5.759C0.49,5.725,0.539,5.71,0.553,5.732C0.548,5.75,0.529,5.757,0.504,5.759L0.504,5.759z M0.532,5.814
	c0.004-0.021,0.023-0.037,0.045-0.037C0.572,5.789,0.569,5.801,0.565,5.812C0.554,5.818,0.542,5.818,0.532,5.814L0.532,5.814z
	 M0.327,6.578l0.016-0.002C0.339,6.59,0.336,6.603,0.333,6.616C0.325,6.605,0.323,6.591,0.327,6.578L0.327,6.578z M0.268,6.917
	L0.266,6.929C0.264,6.926,0.262,6.922,0.261,6.919L0.268,6.917z M0.189,6.928C0.171,6.932,0.154,6.934,0.154,6.913
	C0.165,6.898,0.187,6.909,0.189,6.928L0.189,6.928z M0.154,7.707c0,0.006,0,0.012-0.002,0.018L0.139,7.711L0.154,7.707z
	 M0.136,7.818l0.006,0.005c0,0.006,0,0.012,0,0.019L0.127,7.83C0.13,7.826,0.133,7.822,0.136,7.818z M0.029,8.011
	C0.024,8,0.024,7.987,0.029,7.976l0.02-0.002c0.008,0.009,0.011,0.02,0.011,0.031C0.05,8.011,0.039,8.013,0.029,8.011z M0.076,8.616
	c-0.002-0.013-0.005-0.026-0.007-0.04l0.022-0.003c0,0.014,0.002,0.027,0.003,0.042L0.076,8.616z M0.107,7.953
	c0.01-0.003,0.012,0.004,0.021,0.004c0.007,0.017-0.011,0.015-0.009,0.027C0.101,7.986,0.099,7.962,0.107,7.953L0.107,7.953z
	 M0.093,9.498c-0.006,0-0.012,0-0.017,0V9.459c0.008,0,0.015,0,0.023,0C0.097,9.471,0.095,9.485,0.093,9.498z M0.067,9.13
	c0.009-0.03,0.038-0.049,0.069-0.046c0,0.011,0,0.022,0.002,0.034C0.127,9.141,0.1,9.149,0.077,9.138
	C0.074,9.136,0.07,9.133,0.067,9.13z M0.157,9.581c0.013,0,0.024,0.006,0.031,0.016c0,0.008,0.002,0.016,0.003,0.024
	C0.171,9.62,0.162,9.605,0.157,9.581L0.157,9.581z M0.264,10.114c-0.009-0.032-0.012-0.065-0.009-0.098
	c0.007,0.039,0.015,0.078,0.023,0.117L0.264,10.114z M0.546,11.202c0.005-0.005,0.011-0.008,0.018-0.009
	c0.003,0.009,0.006,0.018,0.009,0.027C0.563,11.228,0.546,11.224,0.546,11.202L0.546,11.202z M0.583,11.25l0.002,0.007
	c-0.001-0.003-0.002-0.005-0.003-0.008L0.583,11.25z M0.604,11.329c0.002-0.002,0.004-0.003,0.007-0.005l0.016,0.042
	C0.615,11.357,0.607,11.344,0.604,11.329L0.604,11.329z M0.934,12.154c-0.001-0.011,0.006-0.021,0.016-0.025
	c0.005,0.011,0.011,0.022,0.016,0.034C0.955,12.167,0.942,12.163,0.934,12.154L0.934,12.154z M1.016,12.315
	c-0.009-0.006-0.011-0.018-0.005-0.026c0.003-0.005,0.008-0.008,0.014-0.008l0.013,0.025C1.033,12.313,1.025,12.316,1.016,12.315
	L1.016,12.315z M1.046,12.321c0.006,0.012,0.012,0.024,0.019,0.036C1.039,12.343,1.035,12.337,1.046,12.321L1.046,12.321z
	 M1.423,13.037c0.011-0.003,0.019-0.007,0.027-0.01l0,0v-0.002c-0.018-0.009-0.028-0.029-0.024-0.049l0.026,0.041
	c0,0.003,0,0.005,0,0.009s0,0,0.002,0H1.452l0.011,0.004c0.012,0.018,0.023,0.036,0.035,0.054
	C1.476,13.089,1.461,13.074,1.423,13.037z M1.713,13.515c-0.025,0.006-0.032-0.01-0.043-0.02C1.671,13.427,1.761,13.48,1.713,13.515
	z M1.693,13.409c-0.002,0.002-0.004,0.005-0.005,0.007L1.612,13.36c0.002-0.002,0.003-0.005,0.005-0.008L1.693,13.409z
	 M1.658,13.343c0-0.004,0-0.009,0.003-0.013h0.006c0.004,0.006,0.008,0.012,0.012,0.017L1.658,13.343z M2.007,13.808
	c0.014,0.025,0.021,0.038,0.029,0.052C2.003,13.866,2.003,13.866,2.007,13.808z M2.061,13.96c0.045,0,0.077-0.043,0.112,0.015
	C2.135,13.977,2.107,14.01,2.061,13.96z M2.268,14.187c-0.015-0.003-0.012-0.04,0.009-0.034c0.007,0.02-0.009,0.021-0.01,0.034
	H2.268z M2.571,14.427h0.02c-0.012-0.01-0.025-0.019-0.037-0.03l0,0l-0.019-0.014l-0.055-0.046
	c-0.038-0.032-0.075-0.066-0.108-0.103c-0.002-0.021,0.01-0.015,0.028,0c-0.004-0.005-0.006-0.012-0.006-0.018l0,0
	c-0.087-0.069-0.18-0.126-0.226-0.22c0.019,0.017,0.04,0.038,0.062,0.06c0.001-0.005,0.003-0.009,0.006-0.013
	c0.01,0.011,0.02,0.022,0.03,0.032l-0.014,0.003c0.023,0.023,0.047,0.045,0.073,0.066c-0.003-0.004-0.005-0.009-0.008-0.013
	c0.035,0.037,0.069,0.074,0.104,0.11c-0.002,0.002-0.003,0.004-0.004,0.006l-0.009-0.004c0.017,0.017,0.037,0.032,0.057,0.044
	c0.083,0.085,0.167,0.168,0.253,0.25c-0.026-0.005-0.051,0.011-0.149-0.108L2.571,14.427z M2.667,14.553
	c0.002-0.006,0.003-0.011,0.005-0.016l0.069,0.02c0.002,0.002,0.004,0.003,0.006,0.005l-0.005,0.017
	c-0.026-0.007-0.051-0.016-0.076-0.024L2.667,14.553z M2.792,14.67c-0.009-0.008-0.018-0.015-0.026-0.022
	c0.002-0.003,0.004-0.006,0.006-0.009L2.8,14.66C2.797,14.663,2.794,14.666,2.792,14.67z M3.029,14.909
	c-0.014-0.002-0.03-0.016-0.018-0.031c0.022-0.008,0.027,0.019,0.018,0.03V14.909z M3.061,14.997
	c-0.032-0.002-0.02-0.047,0.013-0.048c0.008,0.017,0.002,0.037-0.013,0.047V14.997z M3.239,15.078c0.02-0.005,0.03,0.002,0.03,0.023
	c-0.02,0.005-0.03-0.003-0.03-0.024V15.078z M3.032,14.828c-0.073-0.036-0.14-0.081-0.2-0.135c0.083,0.057,0.075,0.033,0.047-0.009
	c0.045,0.041,0.09,0.08,0.136,0.12l0,0l0,0c0.005,0.007,0.01,0.015,0.017,0.023L3.032,14.828z M3.74,15.458
	c-0.018,0.004-0.021-0.013-0.024-0.03c0.028-0.017,0.048,0.019,0.023,0.029L3.74,15.458z M3.781,15.419
	c0.004-0.008,0.007-0.015,0.01-0.022l0.013,0.008c-0.008,0.005-0.016,0.009-0.024,0.012L3.781,15.419z M3.952,15.546
	c0.003-0.015,0.005-0.028,0.007-0.04l0.02,0.013L3.952,15.546z M4.058,15.57l0.016,0.01c-0.007-0.002-0.012-0.005-0.019-0.008
	L4.058,15.57z M4.222,15.707c-0.004-0.013-0.004-0.026,0-0.039l0.016,0.009C4.237,15.69,4.231,15.701,4.222,15.707L4.222,15.707z
	 M4.419,15.81c-0.008-0.01-0.012-0.022-0.011-0.034l0.018,0.01C4.424,15.792,4.421,15.801,4.419,15.81L4.419,15.81z M4.545,15.913
	c-0.009-0.021-0.011-0.045-0.004-0.067c0.024,0.013,0.048,0.026,0.073,0.039c-0.01,0.026-0.039,0.039-0.065,0.03
	C4.547,15.915,4.546,15.914,4.545,15.913L4.545,15.913z M4.691,15.952c-0.016-0.008-0.031-0.015-0.047-0.022l0.007-0.013
	l0.046,0.023L4.691,15.952z M4.741,15.95l0.008,0.004L4.741,15.95L4.741,15.95z M4.792,16.012c0.022-0.007,0.03,0.007,0.042,0.014
	C4.83,16.052,4.782,16.048,4.792,16.012L4.792,16.012z M4.863,16.063c0.062-0.009,0.065-0.008,0.133,0.058
	C4.945,16.099,4.905,16.081,4.863,16.063L4.863,16.063z M5.057,16.101l0.037,0.015l0.033,0.015
	C5.088,16.149,5.074,16.135,5.057,16.101L5.057,16.101z M5.173,16.151l0.015,0.007C5.182,16.158,5.176,16.156,5.173,16.151
	L5.173,16.151z M5.319,16.24c-0.002,0-0.006-0.007-0.013-0.015l0.03,0.007C5.331,16.235,5.325,16.237,5.319,16.24L5.319,16.24z
	 M5.369,16.272c-0.002-0.01-0.003-0.02-0.004-0.03c-0.02-0.012-0.041-0.024-0.063-0.037c0.046,0.019,0.091,0.037,0.138,0.055
	C5.421,16.279,5.392,16.284,5.369,16.272L5.369,16.272z M5.544,16.319c-0.001,0-0.003-0.001-0.004-0.002
	c-0.027,0.009-0.056-0.005-0.065-0.032c0-0.001,0-0.002-0.001-0.002l0.066,0.034h0.003l0,0c0.001,0,0.003,0,0.004,0l0.009-0.01
	l0.016,0.006c-0.008,0-0.016,0.003-0.025,0.004C5.546,16.318,5.544,16.319,5.544,16.319L5.544,16.319z M5.764,16.441l-0.085-0.063
	c0-0.01,0-0.019,0-0.027l0.05,0.018c-0.004,0.007-0.009,0.013-0.015,0.018l0.053,0.049L5.764,16.441z M5.81,16.395
	c0.04,0.014,0.08,0.027,0.121,0.04C5.887,16.431,5.846,16.418,5.81,16.395L5.81,16.395z M6.52,16.603h0.011l0.045,0.01
	C6.553,16.653,6.537,16.618,6.52,16.603L6.52,16.603z M6.923,16.688l0.051,0.009c0.008,0.007,0.017,0.017,0.029,0.03L6.923,16.688z
	 M7.046,16.71c0.017,0.003,0.035,0.006,0.052,0.009c-0.003,0.01-0.012,0.024-0.019,0.043L7.046,16.71z M7.196,16.898
	c-0.017-0.037,0-0.055,0.03-0.069C7.217,16.85,7.208,16.869,7.196,16.898L7.196,16.898z M7.34,16.787l-0.048-0.014
	c0.002-0.005,0.003-0.011,0.005-0.017c0.015,0.005,0.03,0.01,0.046,0.014C7.341,16.776,7.34,16.781,7.34,16.787L7.34,16.787z
	 M7.474,16.803c-0.018-0.001-0.033-0.016-0.035-0.034l0.044,0.006C7.478,16.783,7.474,16.793,7.474,16.803L7.474,16.803z
	 M7.533,16.897c-0.016-0.011-0.031-0.023-0.046-0.034c0.002-0.003,0.004-0.005,0.006-0.009c0.015,0.012,0.03,0.024,0.045,0.037
	C7.536,16.893,7.534,16.895,7.533,16.897L7.533,16.897z M7.619,16.79l0.017,0.002l-0.022,0.009
	C7.615,16.797,7.617,16.794,7.619,16.79L7.619,16.79z M7.649,16.904c-0.015-0.01-0.006-0.023-0.006-0.039
	c0.007,0,0.013-0.002,0.02-0.002c0.008,0.009,0.012,0.02,0.011,0.031C7.662,16.895,7.661,16.904,7.649,16.904L7.649,16.904z
	 M7.973,16.886H7.96c0-0.006-0.002-0.012-0.002-0.019c0.008,0,0.011-0.003,0.012-0.008C7.987,16.859,7.982,16.878,7.973,16.886
	L7.973,16.886z M8.063,16.873c-0.007-0.001-0.015-0.003-0.021-0.005c-0.002,0,0-0.008,0-0.015c0.007-0.001,0.015,0,0.022,0.002
	C8.064,16.855,8.062,16.866,8.063,16.873L8.063,16.873z M8.166,16.868c-0.01-0.012-0.021-0.025-0.035-0.04l0.057,0.002h0.004
	C8.181,16.847,8.176,16.856,8.166,16.868L8.166,16.868z M8.223,16.97c0-0.025,0.018-0.03,0.036-0.025
	C8.262,16.969,8.242,16.974,8.223,16.97L8.223,16.97z M8.286,16.958l-0.03-0.022c0.001-0.001,0.002-0.003,0.003-0.004l0.033,0.024
	L8.286,16.958z M8.342,16.867c-0.008-0.007-0.01-0.018-0.004-0.027l-0.007-0.005h0.041C8.369,16.851,8.366,16.867,8.342,16.867
	L8.342,16.867z M8.383,16.835c0.073,0,0.146,0,0.219,0c-0.07,0.01-0.14,0.013-0.21,0.008C8.388,16.841,8.385,16.838,8.383,16.835
	L8.383,16.835z M8.413,16.989c-0.006-0.02,0.015-0.02,0.015-0.034C8.455,16.957,8.432,16.986,8.413,16.989L8.413,16.989z
	 M8.527,16.996l-0.085-0.034c0-0.005,0.004-0.011,0.006-0.018l0.083,0.042C8.529,16.989,8.529,16.992,8.527,16.996L8.527,16.996z
	 M8.514,16.861c0.001-0.005,0.002-0.011,0.004-0.016c0.02,0.01,0.054-0.03,0.069,0.034L8.514,16.861z M8.869,16.892
	c-0.013-0.006-0.026-0.011-0.038-0.016c0.002-0.006,0.006-0.012,0.009-0.019c0.012,0.007,0.024,0.014,0.035,0.021L8.869,16.892z
	 M8.942,16.836c0.037-0.007-0.098,0.006-0.197-0.004c0.106-0.003,0.213-0.009,0.321-0.016c-0.001,0.012,0.007,0.019-0.122,0.019
	L8.942,16.836z M9.08,16.83c0,0-0.002,0-0.002-0.002c0.001,0,0.002,0,0.002,0c-0.001-0.004-0.002-0.008-0.002-0.012h0.022
	l-0.02,0.013l0,0c0,0.001,0,0.002,0,0.002c0.013,0.013,0.027,0.025,0.046,0.044c-0.04-0.003-0.047-0.02-0.045-0.045H9.08z
	 M9.268,16.83l-0.009-0.004c-0.008,0.007-0.02,0.008-0.03,0.003c0.001-0.005,0.004-0.01,0.008-0.014
	c-0.003-0.003-0.005-0.008-0.006-0.012l0.045-0.004c-0.001,0.007-0.004,0.015-0.009,0.02c0,0.004,0.001,0.008,0,0.013L9.268,16.83z
	 M9.4,16.883c-0.004-0.011-0.008-0.021-0.012-0.031l0.01-0.006c0.007,0.01,0.014,0.019,0.021,0.029L9.4,16.883z M9.4,16.806
	l-0.006-0.019l0.022-0.003L9.42,16.8L9.4,16.806z M9.436,16.846c0-0.012,0.01-0.016,0.025-0.017c0.001,0.007,0.001,0.013,0.003,0.02
	c-0.011,0.006-0.015-0.001-0.026-0.002L9.436,16.846z M9.565,16.808c-0.008-0.031,0.021-0.034,0.04-0.046
	c0.012,0.032-0.012,0.06-0.038,0.046L9.565,16.808z M9.461,16.789c0.001-0.004,0.002-0.008,0.003-0.011l0.053-0.007
	C9.517,16.793,9.481,16.8,9.464,16.79L9.461,16.789z M9.951,16.801c0,0.002,0,0.004,0,0.005c-0.03,0.011-0.039-0.006-0.039-0.034
	c0.015-0.004,0.03,0.002,0.038,0.015l0.025-0.026c0,0.03-0.002,0.036-0.02,0.041L9.951,16.801z M10.073,16.783
	c0-0.022,0.031-0.043,0.038-0.012c-0.017-0.001-0.015,0.014-0.035,0.013L10.073,16.783z M10.082,16.702
	c-0.016,0.006-0.035,0.003-0.048-0.009l0.05-0.01c-0.001,0.007,0,0.014,0.001,0.02L10.082,16.702z M10.408,16.637
	c-0.035,0.008-0.05-0.013-0.09,0l0.003-0.002l0.094-0.021c-0.003,0.007-0.004,0.015-0.003,0.023c0,0,0,0-0.001,0.001L10.408,16.637z
	 M10.475,16.694c-0.006,0-0.011-0.006-0.029-0.018c0.026,0,0.038,0,0.05,0c0,0.004,0.002,0.008,0.003,0.011
	C10.491,16.69,10.483,16.693,10.475,16.694z M10.695,16.644c-0.018,0.04-0.122,0.012-0.131-0.034
	c0.049,0.007,0.081,0.033,0.132,0.034H10.695z M10.572,16.576L10.572,16.576z M10.574,11.535l-0.063-0.389l1.047-0.168l0.109,0.363
	l-0.346,0.132l0.768,1.49l0.262-1.661l-0.355-0.011l-0.061-0.373l1.025-0.166l0.063,0.39l-0.159,0.085l-0.424,2.619l-0.472,0.076
	l-1.224-2.353L10.574,11.535z M11.202,16.435l0.059-0.002c-0.014,0.024-0.03,0.049-0.058,0.003L11.202,16.435z M11.377,16.376
	c0.003-0.014,0.011-0.038,0.03-0.024c-0.003,0.013-0.008,0.025-0.029,0.024L11.377,16.376z M11.43,16.333
	c0.047-0.018,0.055,0.005,0.062,0.034c-0.015-0.01-0.034-0.019-0.061-0.034L11.43,16.333z M11.257,16.38
	c-0.006,0-0.013,0.002-0.02,0.002c0,0,0-0.002,0-0.004l0.02-0.007c0.001,0.003,0.001,0.005,0.001,0.008L11.257,16.38z
	 M11.832,16.222c-0.003,0-0.006-0.017-0.011-0.034c0.014-0.002,0.028-0.001,0.041,0.002c0.006,0.003,0.008,0.016,0.011,0.025
	c-0.013,0.004-0.027,0.006-0.04,0.007L11.832,16.222z M12.173,15.993c0.015-0.008,0.031-0.014,0.046-0.022h0.003
	c-0.012,0.014-0.029,0.022-0.047,0.022L12.173,15.993z M12.316,15.946c0.035,0.013,0.063,0.024,0.097,0.037
	c-0.055,0.044-0.061,0.041-0.096-0.037L12.316,15.946z M12.411,15.873l0.044-0.024c0.012,0.02,0.023,0.04,0.039,0.069
	C12.461,15.915,12.431,15.899,12.411,15.873z M12.597,15.886c-0.004-0.004-0.005-0.012-0.011-0.03
	c0.017,0.014,0.024,0.02,0.04,0.034c-0.017,0-0.025,0.001-0.028-0.003L12.597,15.886z M12.681,15.839
	c0-0.006-0.003-0.012-0.004-0.018c0.007-0.001,0.013-0.002,0.02-0.002c0.002,0,0.003,0.008,0.004,0.013L12.681,15.839z
	 M12.686,15.721l0.004-0.002l0.046,0.05c-0.027-0.009-0.049-0.018-0.049-0.046L12.686,15.721z M12.792,15.679L12.792,15.679
	L12.792,15.679L12.792,15.679c0,0.007-0.002,0.014-0.004,0.029l-0.041-0.021l0.022-0.013C12.777,15.677,12.785,15.679,12.792,15.679
	c0,0,0-0.002,0-0.003l0.002,0.002c0.015-0.011,0.031-0.023,0.054-0.04c0.011,0.026,0.02,0.05,0.031,0.076
	c-0.049,0.016-0.064-0.016-0.085-0.034L12.792,15.679z M12.926,15.629l-0.012-0.014l0.03-0.016c0.002,0.002,0.004,0.004,0.006,0.007
	L12.926,15.629z M13.061,15.493l0.054-0.034c0.002,0.007,0.001,0.015-0.003,0.021c0.003,0.007,0.005,0.015,0.006,0.023
	c-0.019,0.002-0.038-0.001-0.055-0.008L13.061,15.493z M13.193,15.462c-0.012-0.006-0.024-0.012-0.035-0.018l0.006-0.011l0.035,0.02
	L13.193,15.462z M13.31,15.432l-0.03-0.04c0.003-0.002,0.006-0.004,0.009-0.007c0.011,0.013,0.021,0.026,0.031,0.039
	c-0.003,0.003-0.007,0.007-0.01,0.01L13.31,15.432z M13.304,15.33l0.033-0.023l0.065,0.032c-0.037,0.037-0.065,0.008-0.096-0.007
	L13.304,15.33z M13.387,15.271l0.029-0.021c-0.001,0.004-0.001,0.008,0,0.012c0.004,0.018,0.023,0.031,0.04,0.052
	c-0.028-0.002-0.054-0.017-0.068-0.042L13.387,15.271z M13.55,15.271c-0.011,0.003-0.024,0.001-0.033-0.007
	c-0.005-0.022-0.009-0.043-0.011-0.066l0.015-0.006c0.015,0.014,0.028,0.029,0.04,0.046c0.003,0.012,0,0.025-0.009,0.034
	L13.55,15.271z M13.825,14.982c-0.008-0.013-0.014-0.022-0.02-0.03l0,0c0.028-0.01,0.03,0.002,0.021,0.032L13.825,14.982z
	 M14.03,14.855l-0.028-0.003c0-0.004,0-0.007,0-0.011l0.028,0.004c0.001,0.004,0.001,0.008,0.001,0.012L14.03,14.855z
	 M13.991,14.795l0.021-0.018l0.03,0.008c-0.015,0.008-0.033,0.013-0.05,0.012L13.991,14.795z M14.111,14.795l-0.055-0.041
	c0.033,0.017,0.048,0.025,0.064,0.034c-0.002,0.003-0.005,0.006-0.008,0.008L14.111,14.795z M14.297,14.555
	c-0.002-0.011-0.003-0.021-0.004-0.032l0.002-0.002h0.011c0.002,0.011,0.003,0.023,0.005,0.034
	c-0.004,0.001-0.012,0.002-0.012,0.001L14.297,14.555z M14.424,14.395l0.023-0.023c0.002,0.006,0.003,0.013,0.002,0.019
	c-0.008,0.003-0.015,0.005-0.024,0.006L14.424,14.395z M14.559,14.434c-0.017,0.004-0.028,0.002-0.029-0.015
	c0.018-0.002,0.034-0.005,0.03,0.017L14.559,14.434z M14.555,14.302l-0.013,0.008l-0.013-0.02l0.012-0.012L14.555,14.302z
	 M14.658,14.194c-0.004,0.008-0.007,0.017-0.008,0.026c-0.014-0.004-0.028-0.009-0.041-0.014c0.034-0.036,0.068-0.073,0.102-0.11
	c0.005,0.001,0.01,0.003,0.015,0.005c0.002,0.051-0.011,0.088-0.067,0.095L14.658,14.194z M14.773,14.1
	c-0.004-0.003-0.006-0.008-0.008-0.013l-0.022-0.005l0.002-0.009c0.006,0.001,0.012,0.003,0.018,0.005
	c-0.002-0.008,0-0.016,0.004-0.022c0.016,0.001,0.028,0.013,0.031,0.029c-0.013,0.002-0.006,0.02-0.024,0.018L14.773,14.1z
	 M15.046,13.805c-0.01-0.011-0.019-0.021-0.03-0.032c0.003-0.003,0.006-0.006,0.009-0.009l0.032,0.027
	c-0.003,0.005-0.007,0.01-0.011,0.015L15.046,13.805z M15.198,13.583c-0.012-0.004-0.024-0.007-0.037-0.01
	c0-0.005,0.002-0.01,0.003-0.015l0.038,0.006c-0.001,0.007-0.003,0.014-0.004,0.02L15.198,13.583z M15.419,13.342
	c-0.018-0.016-0.035-0.032-0.053-0.046l0.007-0.008c0.018,0.014,0.037,0.028,0.056,0.042L15.419,13.342z M15.775,12.78l-0.031-0.023
	c0.001-0.003,0.003-0.006,0.004-0.009l0.037,0.017C15.782,12.769,15.778,12.774,15.775,12.78z M16.052,12.151l-0.015-0.003
	c0.002-0.005,0.004-0.01,0.007-0.014l0.011,0.006c0,0.003-0.001,0.007-0.002,0.01L16.052,12.151z M16.082,12.102l-0.015-0.013
	c0.01-0.022,0.021-0.043,0.031-0.065c0.007-0.008,0.017-0.01,0.038,0.007L16.082,12.102z M16.17,11.98l-0.045-0.016l0.007-0.016
	c0.018,0.003,0.033,0.015,0.038,0.032L16.17,11.98z M16.262,11.711c0,0.001,0.001,0.002,0.002,0.003L16.241,11.7
	c0-0.003,0.003-0.007,0.004-0.01c0.005,0.005,0.01,0.011,0.015,0.018c0.003-0.022,0.048-0.016,0.058-0.007
	c-0.003,0.03-0.037,0.02-0.055,0.009L16.262,11.711z M16.353,11.659c-0.029-0.007-0.058-0.012-0.088-0.015l0.016-0.041
	C16.304,11.619,16.328,11.636,16.353,11.659L16.353,11.659z M16.652,10.615c0.003,0.026-0.025,0.027-0.048,0.034
	c0-0.001,0-0.003,0-0.004l0.004-0.016C16.618,10.614,16.636,10.609,16.652,10.615z M16.768,10.022
	c-0.009,0.002-0.018-0.001-0.023-0.008l0.006-0.034C16.765,9.985,16.766,10.005,16.768,10.022z M16.784,9.785l0.002-0.013
	c-0.001,0.005-0.001,0.01,0,0.015C16.786,9.788,16.786,9.786,16.784,9.785L16.784,9.785z M16.837,9.757
	c-0.013-0.001-0.025-0.004-0.037-0.007c0-0.006,0.003-0.013,0.005-0.02l0.039,0.008C16.842,9.744,16.839,9.757,16.837,9.757
	L16.837,9.757z M16.827,9.567c0.03-0.019,0.03-0.019,0.069,0.013L16.827,9.567z M16.881,8.79l-0.003-0.004V8.759
	c0.006,0.006,0.012,0.013,0.018,0.019L16.881,8.79z M16.887,8.655c0.044-0.006,0.044-0.006,0.081,0.061l-0.013,0.012L16.887,8.655z"
	/>
<polygon fill="#90D6A0" points="16.349,5.261 16.348,5.26 16.348,5.261 "/>
<path fill="#90D6A0" d="M13.278,15.522l-0.011-0.007l0.004,0.007L13.278,15.522L13.278,15.522z"/>
<path fill="#90D6A0" d="M11.251,16.565l0.053-0.017l-0.003-0.002l0.002-0.004c0.003,0.001,0.006,0.003,0.008,0.004
	c0.018-0.006,0.036-0.011,0.057-0.016c0.001,0,0.002,0,0.003,0c0.012-0.01,0.027-0.016,0.042-0.018
	c-0.012-0.01-0.023-0.023-0.031-0.036C11.143,16.549,11.379,16.511,11.251,16.565z"/>
<path fill="#90D6A0" d="M12.904,15.792c0.013-0.006,0.025-0.012,0.037-0.018c0.074-0.032,0.143-0.073,0.205-0.123
	c-0.065,0.011-0.076,0.021,0.015-0.059v-0.006l-0.277,0.194C12.892,15.783,12.898,15.787,12.904,15.792z"/>
<path fill="#90D6A0" d="M16.843,10.037c0.003-0.005,0.005-0.01,0.008-0.015h-0.005C16.845,10.027,16.844,10.032,16.843,10.037z"/>
<path fill="#90D6A0" d="M16.615,10.974c0.004-0.014,0.007-0.028,0.011-0.043c-0.004,0.003-0.007,0.007-0.009,0.012
	C16.614,10.954,16.614,10.964,16.615,10.974z"/>
<path fill="#90D6A0" d="M6.606,0.224c0.001,0.004,0.001,0.009,0,0.013C6.622,0.227,6.64,0.219,6.659,0.215
	C6.643,0.218,6.625,0.22,6.606,0.224z"/>
<path fill="#90D6A0" d="M16.087,4.566L16.082,4.57l0.025,0.032L16.087,4.566z"/>
<path fill="#90D6A0" d="M16.988,8.342c-0.002-0.033-0.006-0.066-0.013-0.098c-0.001,0-0.003,0-0.004,0
	c0.005,0.03,0.008,0.061,0.007,0.091C16.982,8.337,16.985,8.339,16.988,8.342z"/>
<path fill="#90D6A0" d="M2.094,2.951L2.094,2.951C2.083,2.965,2.071,2.981,2.06,2.997c0,0,0.002,0,0.003,0.003
	C2.074,2.985,2.085,2.968,2.094,2.951z"/>
<path fill="#90D6A0" d="M16.975,8.384c0.006,0.014,0.012,0.028,0.018,0.042c0-0.01,0-0.019-0.002-0.029
	c-0.003-0.002-0.006-0.004-0.008-0.007C16.98,8.389,16.978,8.387,16.975,8.384z"/>
<path fill="#90D6A0" d="M16.88,8.207c0.012,0.018,0.028,0.032,0.048,0.04c-0.002-0.027-0.005-0.055-0.008-0.08
	C16.911,8.184,16.897,8.198,16.88,8.207z"/>
<path fill="#90D6A0" d="M9.849,16.878H9.86H9.849C9.849,16.878,9.849,16.878,9.849,16.878z"/>
<path fill="#90D6A0" d="M1.355,12.975c0,0-0.003,0-0.005,0c0.011,0.018,0.014,0.04,0.01,0.06C1.398,13.06,1.351,12.981,1.355,12.975
	z"/>
<path fill="#90D6A0" d="M0.716,11.611l0.005,0.01c0-0.004-0.002-0.008-0.003-0.013L0.716,11.611z"/>
<path fill="#90D6A0" d="M12.11,16.165l0.008-0.004l-0.007,0.002C12.111,16.163,12.11,16.164,12.11,16.165z"/>
<path fill="#90D6A0" d="M10.801,16.732c0.011-0.004,0.023-0.008,0.035-0.012l0,0L10.801,16.732z"/>
<path fill="#90D6A0" d="M16.984,8.527C16.99,8.572,16.996,8.614,17,8.651c0-0.031,0-0.075-0.002-0.122
	c-0.003-0.007-0.007-0.014-0.011-0.021C16.986,8.515,16.985,8.521,16.984,8.527z"/>
<path fill="#90D6A0" d="M0.607,11.52l0.025,0.048c-0.001-0.018-0.007-0.035-0.016-0.051c0,0,0,0.002,0,0.004
	C0.617,11.536,0.613,11.53,0.607,11.52z"/>
<path fill="#90D6A0" d="M16.931,8.298c0.001,0.001,0.002,0.002,0.002,0.003l-0.002-0.022C16.929,8.285,16.929,8.292,16.931,8.298z"
	/>
<path fill="#90D6A0" d="M6.155,16.576c0.002,0,0.004,0,0.006,0l0,0C6.159,16.577,6.157,16.577,6.155,16.576z"/>
<path fill="#90D6A0" d="M1.135,12.677c0-0.004,0-0.008-0.002-0.012l-0.01-0.019c0.01,0.044,0.024,0.103-0.035,0.005
	c0.122,0.29-0.008-0.069,0.15,0.213c-0.035-0.061-0.066-0.125-0.099-0.187C1.138,12.676,1.136,12.676,1.135,12.677z"/>
<path fill="#90D6A0" d="M1.626,13.521c0.015,0.019,0.033,0.035,0.054,0.049c0.005,0-0.006-0.016-0.03-0.06
	C1.569,13.405,1.636,13.522,1.626,13.521z"/>
<path fill="#90D6A0" d="M7.753,16.981h0.056l-0.013-0.002L7.753,16.981z"/>
<path fill="#90D6A0" d="M7.809,16.983l0.118,0.002l-0.118-0.004V16.983z"/>
<path fill="#90D6A0" d="M15.765,12.937c-0.016,0.002-0.031,0.005-0.048,0.007C15.686,13.006,15.714,13.041,15.765,12.937z"/>
<path fill="#90D6A0" d="M16.956,9.125c0.018-0.039,0.028-0.08,0.029-0.123l0,0l0.002-0.004c0.003-0.033,0.001-0.066-0.005-0.098
	C16.975,8.99,16.957,9.079,16.956,9.125z"/>
<path fill="#90D6A0" d="M10.384,0.22c-0.051-0.008-0.102-0.018-0.153-0.023c0.024,0.005,0.047,0.009,0.069,0.016L10.384,0.22z"/>
<path fill="#90D6A0" d="M4.143,3.735C4.145,3.736,4.147,3.738,4.148,3.74C4.147,3.738,4.146,3.735,4.145,3.733L4.143,3.735z"/>
<path fill="#90D6A0" d="M4.539,4.304c-0.01,0-0.015-0.008-0.029-0.003C4.501,4.314,4.504,4.332,4.516,4.343
	C4.535,4.339,4.543,4.326,4.539,4.304z"/>
<path fill="#90D6A0" d="M6.056,10.133c0.053,0.015,0.358-0.069,0.396-0.074c0.311-0.049,0.444-0.243,0.507-0.645
	c0.052-0.309,0.078-0.069,0.141-0.391c0.063-0.322-0.014-0.562,0.012-0.797C7.137,7.992,7.17,7.561,7.103,7.145
	C7.036,6.73,6.875,6.042,6.817,5.763C6.779,5.552,6.703,5.35,6.593,5.165C6.485,4.963,6.476,5.068,6.417,4.778
	S6.135,4.293,5.929,4.28C5.763,4.272,5.644,4.246,5.495,4.268C5.449,4.275,5.403,4.286,5.36,4.303
	c-0.218,0.069-0.244,0.143-0.358,0.23C4.889,4.619,4.718,4.9,4.656,5.082c-0.061,0.182-0.15,0.174-0.158,0.44
	C4.49,5.788,4.575,6.316,4.556,6.515C4.547,6.633,4.553,6.752,4.574,6.869C4.598,7.023,4.641,7.174,4.7,7.319
	c0.043,0.108,0.054,0.176,0.108,0.513c0.02,0.123,0.059,0.29,0.111,0.535c0.16,0.677,0.408,1.11,0.625,1.352
	C5.762,9.961,5.83,10.076,6.056,10.133z"/>
<path fill="#90D6A0" d="M9.61,12.445c0.073-0.072,0.098-0.172,0.076-0.303c-0.025-0.154-0.108-0.35-0.535-0.282H9.149l-0.181,0.029
	l0.12,0.737L9.2,12.607C9.394,12.577,9.532,12.522,9.61,12.445z"/>
<path fill="#90D6A0" d="M9.93,13.18c-0.034-0.041-0.079-0.073-0.13-0.091c-0.104-0.038-0.236-0.044-0.391-0.02l-0.242,0.039
	l0.122,0.75l0.251-0.04c0.242-0.039,0.39-0.128,0.45-0.272c0.021-0.061,0.026-0.127,0.013-0.191
	C9.995,13.291,9.97,13.231,9.93,13.18z"/>
<polygon fill="#90D6A0" points="6.402,13.373 6.87,13.298 6.511,12.607 "/>
<path fill="#90D6A0" d="M9.924,5.263C9.861,5.165,9.798,5.067,9.693,5.048c-0.06-0.01-0.121-0.01-0.18,0
	C9.459,5.056,9.405,5.065,9.378,5.087C9.322,5.132,9.324,5.195,9.298,5.28C9.273,5.365,9.223,5.445,9.237,5.533l0.008,0.053
	c0.055,0.099,0.067,0.268,0.117,0.333c0.043,0.074,0.122,0.124,0.24,0.124l0.084-0.013c0.1-0.016,0.181-0.047,0.22-0.098
	c0.076-0.066,0.119-0.19,0.114-0.315c-0.007-0.044-0.017-0.105-0.024-0.149C9.985,5.397,9.973,5.318,9.924,5.263z"/>
<path fill="#90D6A0" d="M12.055,7.647c0.054,0.099,0.066,0.268,0.115,0.332c0.048,0.082,0.139,0.13,0.235,0.124l0.082-0.013
	c0.098-0.015,0.177-0.046,0.215-0.097c0.074-0.065,0.116-0.189,0.111-0.313c-0.007-0.044-0.017-0.103-0.024-0.148
	c-0.011-0.069-0.024-0.149-0.071-0.204c-0.062-0.098-0.123-0.196-0.227-0.215c-0.058-0.01-0.118-0.01-0.176,0
	c-0.046,0.003-0.092,0.016-0.132,0.039c-0.055,0.045-0.052,0.107-0.077,0.192c-0.025,0.085-0.073,0.164-0.059,0.252
	C12.051,7.621,12.052,7.629,12.055,7.647z"/>
</svg>
