<svg width="12px" height="15px" viewBox="0 0 12 15" version="1.1" xmlns="http://www.w3.org/2000/svg" xmlns:xlink="http://www.w3.org/1999/xlink">
    <g id="Gesture" transform="translate(-2.000000, -3.000000)" fill-rule="nonzero" fill="#ffae2d">
        <path d="M13.5505653,9.94265699 C12.0535355,7.38523127 10.4238328,4.85651839 8.66145652,2.36938967 C8.28323852,1.83572631 7.86343652,1.60206294 7.17729802,1.67434017 C6.49016927,1.74760749 6.24066427,2.24859759 6.10502077,2.83275601 C5.77234752,4.28028077 5.43967427,5.72780552 5.10601077,7.17533027 C5.10601077,7.17533027 4.21789202,11.0347362 4.21789202,11.0347362 C3.95848602,12.1604788 3.70007027,13.2862214 3.44066427,14.4119639 C3.30601077,14.9981025 3.29908027,15.5495877 3.79710002,15.9040431 C4.29511977,16.2584986 4.70997127,16.2307758 5.23571377,15.9248352 C7.68818902,14.5020629 10.247595,13.1713699 12.9099713,11.9436471 C13.6891793,11.5842412 13.988189,10.693152 13.5505653,9.94265699 Z" id="arrow-head"></path>
    </g>
</svg>