<?xml version="1.0" encoding="UTF-8" standalone="no"?>
<svg width="195px" height="6px" viewBox="0 0 195 6" version="1.1" xmlns="http://www.w3.org/2000/svg" xmlns:xlink="http://www.w3.org/1999/xlink">
    <defs></defs>
    <g id="RDC-Website-Desktop" stroke="none" stroke-width="1" fill="none" fill-rule="evenodd">
        <g id="Food-Menu-" transform="translate(-429.000000, -1073.000000)" fill="#FFAE2D">
            <g id="Actual-Food-menu" transform="translate(-6.000000, 915.000000)">
                <g id="Starters" transform="translate(120.000000, 111.000000)">
                    <g id="Title" transform="translate(312.000000, 4.000000)">
                        <path d="M131.337122,46.5261071 L125.051663,42.99998 L119.866232,46.57998 L113.919683,43.02198 L107.501823,46.62198 L101.044854,42.99998 L95.8283362,46.60098 L89.0645129,43.03098 L83.0768495,46.61298 L76.6569834,43.01198 L71.0714391,46.59198 L65.1188735,43.03098 L58.3349943,46.61298 L52.7193663,43.01198 L46.2824527,46.62198 L39.8465419,43.01198 L34.2609977,46.59198 L28.2773455,43.01198 L22.2585956,46.61298 L15.8387295,43.01198 L10.2220987,46.61298 L3.93861211,43.29398 L3,45.06198 L10.3203722,48.92598 L15.9069193,45.34398 L22.2916877,48.92598 L28.2773455,45.34398 L34.2981009,48.94598 L39.9147317,45.34398 L46.2824527,48.91698 L52.6501737,45.34398 L58.2367208,48.92598 L65.0577032,45.32598 L71.1085424,48.94598 L76.7261759,45.34398 L83.1099416,48.92598 L89.1266859,45.32598 L95.9677241,48.93798 L101.15516,45.35598 L107.501823,48.91698 L113.887594,45.33498 L119.94445,48.95898 L124.898788,45.5377222 L131.3,48.92598 L136.871,45.34398 L143.238,48.92598 L149.207,45.34398 L155.211,48.94598 L160.812,45.34398 L167.162,48.91698 L173.512,45.34398 L179.083,48.92598 L185.885,45.32598 L191.919,48.94598 L197.521,45.34398 L197.452,43.01198 L191.882,46.59198 L185.946,43.03098 L179.181,46.61298 L173.581,43.01198 L167.162,46.62198 L160.744,43.01198 L155.174,46.59198 L149.207,43.01198 L143.205,46.61298 L136.803,43.01198 L131.337122,46.5261071 Z" id="Combined-Shape"></path>
                    </g>
                </g>
            </g>
        </g>
    </g>
</svg>