<?xml version="1.0" encoding="UTF-8" standalone="no"?>
<svg width="195px" height="6px" viewBox="0 0 195 6" version="1.1" xmlns="http://www.w3.org/2000/svg" xmlns:xlink="http://www.w3.org/1999/xlink">
    <defs></defs>
    <g id="Page-1" stroke="none" stroke-width="1" fill="none" fill-rule="evenodd">
        <g id="Artboard" fill-rule="nonzero" fill="#79D99A">
            <g id="border-zig-zag">
                <polygon id="Combined-Shape" points="128.337122 3.5261071 122.051663 -2e-05 116.866232 3.57998 110.919683 0.02198 104.501823 3.62198 98.044854 -2e-05 92.8283362 3.60098 86.0645129 0.03098 80.0768495 3.61298 73.6569834 0.01198 68.0714391 3.59198 62.1188735 0.03098 55.3349943 3.61298 49.7193663 0.01198 43.2824527 3.62198 36.8465419 0.01198 31.2609977 3.59198 25.2773455 0.01198 19.2585956 3.61298 12.8387295 0.01198 7.2220987 3.61298 0.93861211 0.29398 0 2.06198 7.3203722 5.92598 12.9069193 2.34398 19.2916877 5.92598 25.2773455 2.34398 31.2981009 5.94598 36.9147317 2.34398 43.2824527 5.91698 49.6501737 2.34398 55.2367208 5.92598 62.0577032 2.32598 68.1085424 5.94598 73.7261759 2.34398 80.1099416 5.92598 86.1266859 2.32598 92.9677241 5.93798 98.15516 2.35598 104.501823 5.91698 110.887594 2.33498 116.94445 5.95898 121.898788 2.5377222 128.3 5.92598 133.871 2.34398 140.238 5.92598 146.207 2.34398 152.211 5.94598 157.812 2.34398 164.162 5.91698 170.512 2.34398 176.083 5.92598 182.885 2.32598 188.919 5.94598 194.521 2.34398 194.452 0.01198 188.882 3.59198 182.946 0.03098 176.181 3.61298 170.581 0.01198 164.162 3.62198 157.744 0.01198 152.174 3.59198 146.207 0.01198 140.205 3.61298 133.803 0.01198"></polygon>
            </g>
        </g>
    </g>
</svg>