<?xml version="1.0" encoding="UTF-8" standalone="no"?>
<svg width="17px" height="17px" viewBox="0 0 17 17" version="1.1" xmlns="http://www.w3.org/2000/svg" xmlns:xlink="http://www.w3.org/1999/xlink">  
    <defs></defs>
    <g id="RDC-Website-Desktop" stroke="none" stroke-width="1" fill="none" fill-rule="evenodd">
        <g id="Food-Menu-" transform="translate(-1691.000000, -1543.000000)">
            <g id="Actual-Food-menu" transform="translate(-8.000000, 906.000000)">
                <g id="Diatery-Icons" transform="translate(252.000000, 195.000000)">
                    <g id="Gluten-Free-Copy-24" transform="translate(1447.000000, 442.000000)">
                        <circle id="Oval-2" fill="#0CC6C9" cx="8.5" cy="8.5" r="8.5"></circle>
                        <path d="M8.684,8.62 L11.816,8.62 L11.816,12.364 C11.4799983,12.6440014 11.0780023,12.8479994 10.61,12.976 C10.1419977,13.1040006 9.68000228,13.168 9.224,13.168 C8.68799732,13.168 8.1900023,13.0840008 7.73,12.916 C7.2699977,12.7479992 6.87200168,12.4860018 6.536,12.13 C6.19999832,11.7739982 5.93600096,11.3200028 5.744,10.768 C5.55199904,10.2159972 5.456,9.5600038 5.456,8.8 C5.456,8.00799604 5.56999886,7.33400278 5.798,6.778 C6.02600114,6.22199722 6.32599814,5.77000174 6.698,5.422 C7.07000186,5.07399826 7.48799768,4.82200078 7.952,4.666 C8.41600232,4.50999922 8.8879976,4.432 9.368,4.432 C9.8480024,4.432 10.2699982,4.46799964 10.634,4.54 C10.9980018,4.61200036 11.2879989,4.6879996 11.504,4.768 L11.168,6.148 C10.967999,6.0679996 10.7440012,6.00600022 10.496,5.962 C10.2479988,5.91799978 9.93200192,5.896 9.548,5.896 C9.20399828,5.896 8.88800144,5.94799948 8.6,6.052 C8.31199856,6.15600052 8.06200106,6.32599882 7.85,6.562 C7.63799894,6.79800118 7.47400058,7.09999816 7.358,7.468 C7.24199942,7.83600184 7.184,8.28399736 7.184,8.812 C7.184,9.31600252 7.23999944,9.74999818 7.352,10.114 C7.46400056,10.4780018 7.619999,10.7779988 7.82,11.014 C8.020001,11.2500012 8.25399866,11.4239994 8.522,11.536 C8.79000134,11.6480006 9.07599848,11.704 9.38,11.704 C9.58800104,11.704 9.791999,11.6780003 9.992,11.626 C10.192001,11.5739997 10.3599993,11.4960005 10.496,11.392 L10.496,9.808 L8.684,9.616 L8.684,8.62 Z" id="G" fill="#FFFFFF"></path>
                    </g>
                </g>
            </g>
        </g>
    </g>
</svg>