<svg xmlns="http://www.w3.org/2000/svg" viewBox="0 0 46.38 46.52"><defs><style>.cls-1{fill:#fff;}</style></defs><g id="Layer_2" data-name="Layer 2"><g id="svg61"><path id="House" class="cls-1" d="M46.17,22.6a70,70,0,0,0-5.06-7.36l0-.06v0c-.09-.12-.34-.41-.42-.53-.84-1.15-1.83-10.35-1.94-11S38.32,2,37.17,1.85c-.94-.1-2.33-.25-3.87-.33a1.28,1.28,0,0,0-1.27.7,1.63,1.63,0,0,0-.18.78c0,1.18,0,1.76,0,1.91a.06.06,0,0,1,0,0,.31.31,0,0,1-.13.2.38.38,0,0,1-.46,0c-.73-.56-4.53-3.44-6.63-4.74l-.3-.16a2.67,2.67,0,0,0-2.4.07l-.14.09A65,65,0,0,0,.3,22.52,1.53,1.53,0,0,0,.16,24c.4.83,4.31,1.07,4.94,1.14a.69.69,0,0,1,.7.66A185,185,0,0,0,7,45.36,1.34,1.34,0,0,0,8.21,46.5c.44,0,2-.07,6.35-.17a.29.29,0,0,0,.32-.26V46c-.41-4.24-.54-7.92-.55-8.13a.54.54,0,0,0-.28-.44,4.92,4.92,0,0,1-2.54-4.32c-.12-8.4.39-14.86.39-14.86s0-.9.84-.83.74,1,.74,1c-.28,3.62-.39,10.15-.39,10.15a1.19,1.19,0,1,0,2.38,0c0-5.11.39-10.25.39-10.25a.84.84,0,0,1,.84-.86.69.69,0,0,1,.7.56.94.94,0,0,1,0,.41C17.08,22.81,17,28.52,17,28.52a1.2,1.2,0,0,0,1.19,1.24c1.19,0,1.19-1.35,1.19-1.35,0-4.23.39-10.13.39-10.13a.82.82,0,0,1,.84-.86.76.76,0,0,1,.73.86C21,22.88,21,29.93,21,33a5.07,5.07,0,0,1-2.42,4.47.48.48,0,0,0-.2.44c.1,2.79.34,5.9.54,8.12a.29.29,0,0,0,.27.28h4.9c2.3,0,3.21,0,4.9,0,.18,0,.28-.14.29-.34.44-4,.59-6.94.61-7.19s-.33-.35-.33-.35c-.53-.07-1.76-.21-2.81-.38s-1.09-1.37-1.09-1.37a30.1,30.1,0,0,1,5.74-20.38A1.47,1.47,0,0,1,33,15.75c.8.3,1,2.63,1,2.77A154.45,154.45,0,0,1,33.34,46a.34.34,0,0,0,.26.4c.22,0,4.2.17,4.57.13a1.43,1.43,0,0,0,1.26-1.2,133.24,133.24,0,0,0,1.2-19.48.71.71,0,0,1,.65-.65l3.81-.41a1.44,1.44,0,0,0,1.15-.7,1.65,1.65,0,0,0-.07-1.47"/></g></g></svg>