<svg xmlns="http://www.w3.org/2000/svg" width="37" height="58" fill="#1D1D1B">
    <path d="M17.1 8.26c0-.02-.11-.02-.13 0 .03.02.08 0 .14 0M17.2 8.25c.02.02.08 0 .1-.02-.03.01-.1-.02-.1.02M17.09 8.13c.11-.02.2 0 .32-.03-.11-.01-.22-.04-.32.03M16.83 7.2c-.06 0-.12 0-.16.02 0 .06.14.01.16-.02M16.94 7.1c.04 0 .06-.02.06-.07h-.05a.1.1 0 0 0 0 .07M14.31 4.83c-.02.02-.03.13.02.14 0-.04.05-.1-.02-.14M14.47 4.3c-.08-.04-.11.06-.1.15.08 0 .05-.12.1-.15M14.78 3.67l-.04-.02c-.07.06-.1.17-.13.26.13-.01.2-.08.17-.24M20.82 2.96c-.03-.01-.06-.02-.09-.05 0 .06.07.11.1.05M16.14 2.54c-.08-.04-.14.05-.22.06.03.15.22.07.22-.06M19.92 2.44c-.11-.01-.14-.06-.23-.07-.02.11.2.22.23.07M19.43 2.31c-.05-.05-.15-.05-.23-.07-.05.1.2.22.23.07M17.14 2.34c.02-.03.13-.11.06-.14-.05.05-.13.04-.2.05 0 .08.06.09.14.09M17.76 2.17c-.09 0-.18 0-.2.06.06.04.21.06.2-.06M18.86 2.2c-.06-.03-.17-.02-.29-.04.01.1.27.17.3.04M20.43 2.7c-.03 0-.01-.05-.04-.04-.01.02-.02.02-.05.03-.03-.03-.06-.12-.11-.08.04.08.14.2.2.09M16.63 2.44c.01-.03.03-.06.03-.1-.1 0-.18.04-.25.08.05.06.15.02.22.02M19.37 6.8c.05 0 .09-.02.1-.05-.04 0-.1 0-.14.02.02 0 .04.02.04.03M18.8 9.66c.03 0 .06 0 .06-.03-.02-.02-.08-.02-.07.03M18.66 9.63c-.01.05.05.02.07.03 0-.05-.04-.04-.07-.03M18.44 9.6c.03 0 .1.1.12.02-.02-.02-.1-.04-.12-.02M18.98 9.47c-.03.01-.1-.02-.09.03.04 0 .09 0 .09-.03M18.54 9.28c-.04.03-.1.04-.14.08.06.03.13-.02.14-.08M18 9.2c.05 0 .14.05.15 0-.06.02-.12-.03-.14 0M18.59 9.24c-.02-.06.07-.03.05-.09-.04 0-.08.07-.05.1M19.25 9.02h-.08v.03c.02 0 .1.02.08-.03M19.4 8.88c-.05-.06-.1 0-.13-.02-.02.07.13.06.13.02M18.2 8.88c.1 0 .1-.09.22-.06-.07-.08-.2.05-.23.06M17.64 8.7c.08 0 .2.08.25 0a.43.43 0 0 0-.25 0M17.57 8.48c-.03-.03-.08-.01-.12 0-.07-.05-.22 0-.3.03.06-.01.09 0 .1.04a.32.32 0 0 0 .06-.06h.3c.07 0-.01-.02-.04-.01M19.48 8.43l.09.01c.02-.05-.09-.04-.09-.01M17.84 8.13c-.18.03-.1.02.05.06 0-.04-.03-.05-.05-.06M18.3 7.88c.1.03.15.01.25-.02-.03-.08-.2 0-.26.02M19.89 7.73c-.06 0-.12 0-.12.06.06 0 .1-.02.12-.06M18.48 7.7c-.07-.02-.16 0-.22 0 .02.08.2.09.22 0M18.35 7.6c0-.06-.1-.04-.1 0 .05 0 .07.04.1 0M18.45 7.55c-.04-.02-.04.02-.07.01-.01.07.09.05.07-.01M19.96 7.53c-.04.01-.1 0-.1.05.05.04.1 0 .1-.05M18.52 7.53c-.01.05.03.03.06.03v-.04l-.06.01M18.22 7.47c.07.02.1-.02.16-.01-.03-.06-.14-.04-.16.01M18.46 7.29c.03.03.06-.02.12 0 0-.07-.1-.05-.12 0M18.6 7.1c.01.03.08.03.08 0-.03-.01-.08-.04-.09 0M18.39 7.01c-.08 0-.17 0-.22.03.07.02.17.01.22-.03M18.65 6.97c-.12 0-.17-.02-.23.04.09-.03.2.03.23-.04M18.95 6.67c.02 0 .02-.02 0-.02-.25.04-.5.04-.75.13.24.01.5-.09.75-.1M20.08 6.58c.06.01.1 0 .1-.04-.04 0-.06-.02-.1-.03v.07M19.68 6.43c.05.04.15.04.24.05-.02-.08-.17-.02-.24-.05M19.08 6.46c.08-.06.18.06.22-.03-.06-.02-.2-.03-.22.03M19.55 6.3c.07.04.2.02.27.05-.02-.07-.23-.04-.27-.04M17.59 6.1c.05 0 .05.04.1.01 0-.06-.08-.04-.1 0M17.36 5.93c-.05 0-.06-.03-.1-.02-.02.05.1.04.1.02M16.63 5.95c.07-.02.14.01.16 0 0-.06-.15-.04-.16 0M17 5.9c-.05 0-.12-.01-.12.03.03-.01.12.03.11-.03M17.17 5.84c-.01.04.03.03.03.06-.01.03-.08 0-.09.03.03.03.1 0 .13-.02-.04 0-.02-.08-.07-.07M19.79 5.85c.04.03.06-.01.1.01v-.04c-.05.02-.08-.02-.1.03M17.33 5.81c.05.01.06-.02.08 0 .02-.04-.1-.04-.08 0M19.98 5.67c-.06 0-.14-.06-.16.02.03-.01.13.03.16-.02M17.41 5.68c-.01-.06-.1-.04-.14-.01l.14.01M17 5.64c0 .04.14.04.2.01-.06-.01-.17-.03-.2-.01M19.82 5.53c-.02-.03-.07 0-.09.01.02.02.09.03.09-.01M19.56 5.57c.04 0 .08-.01.08-.06-.03.02-.09 0-.08.06M17.33 5.5c-.04.02-.12-.01-.14.02.02.02.14.04.14-.01M17.65 5.42c0-.07-.07-.04-.1-.01.04 0 .07.04.1.01M17.4 5.4c.03 0 .1.05.11-.02-.03 0-.1-.02-.11.01M17.53 5.23c0 .05.04.05.08.05.01-.06-.04-.05-.08-.05M17.44 5.25c-.04-.02-.03 0-.09-.02-.02.05.1.04.1.02M16.75 5.3c.2-.02.31-.04.52-.02-.13-.07-.4-.04-.52.01M19.5 5.22c.03.05.08 0 .1-.02-.04 0-.11-.03-.1.02M19.3 5.25c.03 0 .04-.02.04-.05h-.04v.05ZM19.67 5.22c.04 0 .07 0 .07-.04-.03 0-.07 0-.07.04M19.53 5.05c-.02.05.12.04.11 0-.03-.04-.07 0-.11 0M19.32 5.1c.05.02.06 0 .09 0 0-.04 0-.06-.03-.06 0 .04-.06.02-.06.07M17.44 5c.03-.01.11.03.1-.03h-.1V5M16.9 5.09c.07.01.04-.05.1-.06.1-.04.3.02.35-.06-.1.02-.3.02-.43.05.01.04-.02.04-.02.07M19.34 4.98c.05.05.1-.02.13-.06-.07 0-.11.02-.13.06M19.69 4.92c-.02-.02-.11-.03-.12 0 .01.01.1.03.12 0M16.95 4.87c-.05-.03-.12.02-.08.06.05 0 .06-.03.08-.06M16.99 4.9c.22-.05.4.02.52-.07-.2.02-.41-.04-.52.07M17.73 4.81c0 .05.03.05.07.04 0-.04-.05-.03-.07-.04M17.58 4.84c.02 0 .03.02.06.01 0-.03 0-.06-.04-.05 0 .02 0 .03-.02.04M19.08 4.82c.03.03.09 0 .08-.04-.03-.04-.09-.01-.08.04M17.54 4.71h.07v-.03c-.03 0-.09-.02-.07.03M16.95 4.76c.24-.02.43 0 .56-.08-.23.01-.4 0-.56.08M17.87 4.7c.05-.02.02.04.06.04.05-.04-.04-.11-.06-.05M17.7 4.7c.02 0 .04.01.07 0 0-.04-.06-.04-.07 0M16.89 4.61c-.03 0-.1-.02-.07.03h.07v-.03ZM16.92 4.64c.19 0 .5-.05.65-.1-.24.01-.48-.02-.65.1M17.77 4.56c0-.05-.12-.06-.11 0h.11M17.81 4.35v.05h.06c0-.04-.04-.03-.06-.05M18.12 4.26c.02.02.07.02.07-.02-.03 0-.06-.02-.07.02M21.13 10.13c-.04-.16-.03-.3-.08-.4 0 .15-.04.33.08.4M23.1 9.67c0 .05.04.07.08.09 0-.07-.06-.05-.09-.09M23.66 9.6c0-.05.05.03.04-.03-.09-.01-.14-.05-.23-.06.13.1.21.23.4.27-.03-.08-.1-.19-.21-.18M22.08 9.59c0-.05 0-.1-.05-.12-.02.03.03.09.05.12M15.16 9.77c.03-.05.04-.14.05-.23-.03-.05-.1-.07-.14-.11.07.07 0 .28.09.34"/>
    <path d="M23.65 10.16c.09-.12.28-.13.4-.22h.07c.04.01.04.06.09.06.18-.03.24-.17.45-.16-.03-.15.02-.28-.1-.28.02.04.02.1.03.15-.18.1-.32-.04-.37-.19l-.11-.04c.02-.04.06.03.06-.03-.03-.03-.04 0-.08 0 .03-.03.03-.05-.01-.07-.03.17.14.15.14.3-.08.02-.1.1-.21.07-.03.05-.01.09-.08.12-.05 0-.05-.07-.13-.06 0 .1-.09.05-.14.1-.07-.11-.19.06-.3 0-.14.1-.2.26-.38.28v.1c.25.15.46-.12.67-.13M24.13 9.1c0 .07.05.08.1.1 0-.07-.06-.07-.1-.1M23.17 9.45c0-.17-.18-.27-.3-.37l-.01.04c-.02-.03 0-.02 0-.06h-.04v.06c.18.04.23.22.35.33M23.9 9.12c-.05-.02-.08-.06-.14-.07.05.08.13.12.19.2-.01-.07-.06-.08-.05-.13M24.45 9.03c.08.04.16.16.22.17-.07-.05-.14-.18-.22-.17M23.45 9.16c.01-.08-.05-.1-.1-.13-.01.05.07.06.03.08-.04-.02-.04-.08-.09-.1.07.15.22.2.3.34 0-.11-.09-.13-.14-.19M20.72 9.01c-.02-.05-.05-.1-.14-.08 0 .06.09.11.14.08M13.68 9.71c.08-.05.1-.15.21-.16.08.13.2.2.35.24.2-.05.17-.33.33-.42.06.02.1.06.15.07.05-.05.1-.12.1-.23.14 0 .15-.26.01-.27 0 .14.02.4-.2.39-.15-.12-.13-.32-.2-.47 0 .33.07.74-.27.83-.07-.07-.18-.15-.22-.26-.03-.06 0-.19-.12-.18 0 .14-.02.31-.14.33-.17.02-.13-.14-.2-.23 0 .04-.05.04-.1.04.05.07.13.11.1.25.07.02.1.08.2.07M15.22 8.73h-.04c0 .04 0 .06.03.06 0-.02.02-.03.01-.06M25.5 8.68c0 .04 0 .07.04.08.02-.02-.02-.06-.04-.08M25.26 8.7c.06-.01.15.06.16 0-.04 0-.14-.03-.16 0M25.23 8.66c-.04 0-.1 0-.14-.03 0 .05.12.1.14.03M24.88 8.62c.04.02.08.04.12.04.02-.05-.15-.05-.12-.04M23.66 8.58c.01.04.01.1.05.12-.02-.04 0-.12-.05-.12M24.84 8.6c-.03-.05-.14-.02-.17-.07v.06l.17.02M23.05 8.82c-.16-.12-.22-.33-.34-.48.05.12.1.29-.08.32-.14-.1-.2-.27-.32-.38.03.09-.04.15.03.22.03.04.03-.03.08-.01.1.18.3.32.27.59-.04.01-.08.04-.12.04-.12 0-.47-.32-.48-.5-.06-.02-.07-.1-.13-.12.02.06.06.1.04.19.15.11.21.3.22.55-.2.15-.32-.18-.4-.35-.06.02-.06-.02-.09-.04.07.24.23.37.3.6.03-.02-.05-.12.05-.12.06 0 .07.06.14.05.13-.07-.03-.28.15-.31.05.03 0 .07.06.1.08 0 .28.08.26-.08.02 0 .01.04.05.03.06-.12 0-.25-.04-.37.02-.06.1-.05.16-.06.04.05.13.13.19.13M24.6 8.2l.14.03c0-.04-.1-.05-.13-.03M23.3 8.76c.05.02.15.12.23.16.06.03.22.08.15 0 0 .02-.01.03-.04.02 0-.02.03-.02.03-.04-.1 0-.13-.13-.2-.06 0-.06-.06-.07-.08-.13-.04 0-.06.04-.07 0a.75.75 0 0 0-.17-.29c0 .1.1.12.04.2.06-.02.07.02.06.07-.09-.02 0 .07-.06.02 0 .08-.04.12-.08.15.04-.01.05.02.08.02.04-.04.05-.1.1-.12"/>
    <path d="M23.12 8.42c.02 0 .05 0 .06-.02-.03 0-.04-.02-.03-.05-.07.01-.08-.02-.06-.07a.2.2 0 0 0-.12-.06c.04-.05-.07-.15-.09-.14l.02.01c-.02 0-.02.02-.05 0 .02.05.03.1.08.1.01-.02-.05-.04 0-.05 0 .02.03 0 .03.04-.07.1.15.13.16.24M24.4 8.09c-.07-.03-.22-.06-.28-.02.15.01.25.06.39.02 0-.06-.15-.03-.12 0M23.5 8.24c-.03-.08-.16-.06-.15-.18-.08 0-.15-.01-.19-.05.02.07.1.08.16.1-.01.04.02.03.01.07.15.09.22.25.34.37.01-.03.04-.04.07-.06.06.05.13.07.18.08-.14-.07-.28-.21-.43-.3-.02-.02 0 0 .02-.03M24.57 8.06c0-.03.04-.01.04-.05-.02 0-.01-.04-.03-.04-.01.02-.06.07-.01.09M25.52 8.85c-.08-.01-.06.08-.11.11-.04 0 0-.08-.06-.07-.05.04.07.07.02.1-.03 0-.02-.04-.03-.07-.07-.01-.06.05-.13.03 0 .03.01.07-.03.06-.05-.01-.02-.02 0-.04l-.15.04c0-.04-.1-.05-.1-.01-.1-.09-.3-.08-.4-.13-.01.04.09.04.04.06-.03-.02-.08-.06-.12-.02-.06-.1-.23-.04-.24-.21.04 0 .04-.03.07-.03l-.02-.13c.1-.1.29.05.4.02-.13-.13-.33-.06-.43-.17v-.04c-.02-.02-.05 0-.07-.03 0 0 .04 0 .03-.02a.47.47 0 0 0-.16-.08c.05-.05-.05-.04-.03-.1 0-.05.1-.02.1-.06-.14-.02-.27-.11-.4-.13 0 .05.06.05.08.09 0-.06.01 0 .05-.02 0 .03 0 .05-.02.06.18.12.31.27.4.46-.03.11-.16.07-.24.08.04.04.13.02.15.08.04.17.23.18.32.29a.15.15 0 0 1 .09-.04c.16.17.54.13.62.4-.05.1-.33.13-.48.1-.17-.03-.31-.2-.43-.23.08.08.18.27.29.23.04.04 0 .07.03.1 0-.04.03-.05.07-.05.14.11.38.05.54 0a.36.36 0 0 0-.05-.37c.14-.07.35-.07.4-.26M12.11 9.08c.16.1.48.07.6-.05.05.02.03.1.05.16.37.25.57-.19.72-.38.03.06.08.11.1.12-.05.03.02.14 0 .22.08-.02.12-.01.2 0 .14-.09.3-.28.18-.46-.01.13-.16.28-.3.25-.16-.03-.07-.2-.15-.31-.04 0-.01.1-.05.04-.05.08-.05.17-.12.24-.06.08-.2.2-.24.2-.14.06-.28-.07-.27-.2.02-.12.17-.14.2-.27-.2.1-.48.48-.85.34a.86.86 0 0 1 .42-.7c-.2.02-.27.16-.4.25-.14.01-.28.1-.45.06-.12-.13.06-.26.15-.34.14-.1.3-.2.35-.3-.16.03-.27.21-.4.32-.11.09-.25.16-.25.33.16.1.36.05.52.12-.03.17-.02.22 0 .36M25.5 7.94a6.7 6.7 0 0 1-.75-.1c.18.09.5.12.74.1M22.93 7.95c.17-.06.33-.05.48-.08-.18-.04-.36-.04-.48.08M25.64 7.8c-.1 0-.21-.02-.26.02.08.05.2.02.26-.03M25.7 7.78c.06 0 .06-.03.11-.02-.01-.07-.09-.02-.1.02M23.6 7.66v-.03c-.05.06-.08-.04-.1.03.02 0 .09.03.1 0"/>
    <path d="M24.88 7.78c-.07-.06-.22-.04-.3-.1.04-.1.19-.1.24-.2-.16.03-.33.16-.49.17-.08 0-.13-.06-.22-.04 0-.04-.07-.07-.1-.06.12.05.24.22.37.16.03.03-.02.03-.03.06.1.04.15.12.23.17 0-.08-.07-.06-.08-.13 0-.03.05-.03.06-.04.06.02.1.06.16.07 0-.05.03-.05.05-.06.18.07.4.04.58.06-.17-.08-.33-.02-.45-.09-.03 0 0 .03-.02.03M22.6 7.85c-.1-.02-.2.09-.34.12v.05l-.16.06c.14 0 .14 0 .28-.03 0 .04-.03.05.01.06.1-.1.2.08.25.09-.04-.02.02-.06 0-.1-.06-.03 0 .06-.04.05-.03-.04.03-.05 0-.1-.06.03-.14.05-.15-.04.04-.02.13 0 .12-.05.05.04.28.07.32-.01-.05-.06-.22.01-.24-.08.07-.1.25-.04.35-.05-.01-.08-.1-.02-.12-.08.14-.14.43.05.6-.1-.06.03-.1-.03-.13 0-.02.08-.3.03-.37-.01.1-.1.2-.06.3-.12-.08 0-.17.02-.21-.03.06-.07.2-.07.3-.1-.06-.01-.14 0-.18-.04.03-.11.17-.03.25-.09-.12-.01-.38-.02-.46.1.04.05.1-.02.1.03-.07.06-.17.08-.24.13.06.01.14-.04.19 0-.02.03-.06.03-.08.06-.2 0-.25.16-.34.28M24.9 7.3c-.06-.05-.18-.04-.24-.08l-.01.04c-.05 0 0-.04-.03-.04-.01.01-.07.05-.09.01 0-.03.07 0 .05-.04-.04.03-.15-.02-.16.04.2.05.32.1.55.1-.02-.03 0-.04-.01-.06-.02.02-.07 0-.06.03M26.39 7.06c-.04.01-.08.01-.1.04.03-.02.1.02.1-.04M25.16 7.01c-.02-.02-.11-.05-.14-.01.05-.01.11.04.14.01M26.33 6.96c-.05.02-.07 0-.1.03.04 0 .09.03.1-.03M26.17 6.96c-.06 0-.13.01-.18.03.06.01.25.01.18-.03"/>
    <path d="M23.14 7.13c-.02.07-.13.03-.13.12a.83.83 0 0 1 .87.08c-.12.1-.35.08-.5.08.1.08.3.06.34.2 0 .03-.07.04-.1.02 0 .06.21.06.23.01-.03-.05-.08-.08-.1-.14.03-.11.18-.1.23-.18-.02-.05-.1-.02-.08-.1-.01-.06.07-.02.05-.09-.28.14-.49-.05-.78 0 .05-.09.2-.07.28-.13a.8.8 0 0 0-.45.14c.04 0 .11-.04.14 0M23.42 6.9a.56.56 0 0 0-.32.1c.1.02.24-.04.32-.1M23.46 6.9c.05.02.18.03.2.03-.05-.04-.16-.05-.2-.03M25.46 8.56c0 .05-.04-.07-.07-.01.04.02.06.07.1.08l-.03-.07"/>
    <path d="M26.39 7.34c.1-.03.24.02.36 0 .29-.05.45-.2.7-.26.1.06.27-.03.37-.06 0-.1-.1-.1-.12-.18.02-.02.07-.01.1-.01-.07-.13-.32.03-.39-.05-.04.02.1.03.03.06-.12-.1-.26 0-.39-.08.09.2.53-.03.58.23-.3.06-.67.04-.98.02-.06-.07-.25-.07-.3 0 .19.07.48.03.63.12-.27.14-.54 0-.9.02.02.08.15.06.15.16-.2.24-.68.18-.87.13.02-.03.03.02.04-.01-.03-.04-.16.02-.16-.06-.01-.05.12-.03.06-.07-.03.02-.17.03-.17-.01.02-.08.16-.06.18-.15-.07.01-.2.15-.31.12 0 .02 0 .04-.02.04.05.06.11.1.2.12 0-.03-.05-.05-.01-.06.09.14.28.15.45.14.1.11.3.1.3.3h.05c-.05.12-.2.2-.35.17 0 .06.05.05.06.1-.01.1-.1.16-.17.2.01 0 .03.02.02.04-.04 0-.04.03-.08.02l.04-.07c-.13 0-.24.04-.34.07v-.04c-.13-.01-.26-.04-.4-.09 0 .08.1.06.16.06.15.09.37.1.44.26.04-.04.07.03.1 0-.06-.05-.13-.09-.16-.16.23 0 .52-.06.48-.3.1-.09.25-.1.27-.27l-.13-.23.24-.06c.12-.03.18-.15.24-.16"/>
    <path d="M26.27 7.08c-.22 0-.4-.04-.6 0v-.06c-.12-.06-.3 0-.37-.1.15-.03.43.1.64.05-.2-.02-.42-.07-.56-.1-.1-.03-.24.01-.31-.06.26-.05.56.08.8.05-.43-.12-.86-.04-1.31-.16.04 0 .11.01.11-.03-.14-.03-.33.07-.46-.02-.06.22-.3.27-.53.31.06.09.25.03.32.11.01.06-.06.06-.02.1.1-.08.17-.07.25-.11-.07-.08-.22.02-.24-.1.16 0 .22-.1.35-.1 0 .02-.06.04 0 .04h.58c.13.1.35-.01.4.14-.07.03-.1-.06-.15-.01.07.03.13.09.26.07.12.07.24.09.38.1.08 0 .2.03.26-.05-.08 0-.15 0-.18-.05.11-.03.26.03.38-.02M10.88 8.27c.5.14.91-.17 1.27-.34-.17.04-.32.02-.48.06-.24.08-.47.23-.66.2-.01-.04.07 0 .07-.03-.1 0-.22-.02-.26 0 .05 0 .1.02.14.04-.07.07-.24.04-.34.02v-.13c.27-.21.72-.26 1.02-.44-.22.05-.51.17-.68.23a1.9 1.9 0 0 1-.81-.01c.02-.06 0-.07.01-.14.4-.11.8-.16 1.09-.37-.1-.08-.26.1-.36 0-.28.15-.75.2-.99-.03.11-.2.37-.27.52-.43-.04 0-.1.08-.13.01.07-.1.21-.13.29-.23-.19.04-.4.28-.55.35-.04.02-.14 0-.1.04-.24.03-.6.23-.77 0-.04.04-.08.08-.08.15.1.2.46.01.63.03 0 .05-.02.07-.01.13.15.16.46.19.7.23-.15.1-.4.08-.48.25.03.04.08.06.1.11.14.08.43.02.56.1-.04.06-.1.1-.1.2.12.03.27.05.4 0M25.14 6.52c.04.01.1.02.14 0-.02-.02-.12-.03-.14 0M25 6.52c.06-.02.1.07.12 0-.02-.02-.16-.03-.13 0M24.96 6.5c-.13-.03-.29 0-.43-.02-.09-.01-.16-.06-.22-.06l-.06.03c-.03 0-.01-.05-.05-.04-.06 0-.15.01-.12.1.3-.09.67.05.88 0M25.69 6.41c0-.01 0-.03-.02 0v.05c-.13.05-.28.01-.39.04.02 0 .02.03.02.05.2-.02.35-.02.46-.12-.03-.02-.06 0-.07-.02M8.4 6.9c.03.03.03.12.07.17.15.14.43.01.6 0 .35-.19.71-.38.96-.68-.1-.02-.17.13-.3.13-.18.21-.7.41-1.02.46-.12.02-.16 0-.2-.07-.02-.08.05-.07.03-.15-.06-.02-.11.08-.15.13M29.66 6.15c.04.04.17 0 .2-.01-.07 0-.16-.01-.2.01M12.24 6.18a.43.43 0 0 0-.2 0c.04.01.17.09.2 0M23.96 6.1c-.05.02-.09-.04-.11 0 .02.04.08.04.11 0M10.8 6.09c.07-.02.07.02.1.04.01-.06.09.01.1-.06-.05 0-.09.02-.16-.01 0 .02-.03 0-.03.03M23.77 5.97c.03.03.1.02.1-.01-.03 0-.1-.02-.1.01M11.88 5.94c.14 0 .17 0 .29.02-.05-.07-.24-.06-.29-.02M29.15 5.85c0-.07-.05-.02-.09-.01 0-.03-.06-.07-.07-.05 0 0 .02 0 .01.02l-.05.01c.07 0 .11.04.2.03M24.63 5.81c-.04 0-.09-.04-.1.02.03-.01.1.01.1-.02M28.8 5.77c0 .05.16.06.15 0-.06.02-.09-.04-.15 0M25.32 5.85c-.06-.07-.23-.05-.27-.04-.05-.06-.23-.05-.3-.01.26.03.61.06.8.12.04-.03.07.02.1-.01-.05-.04-.16-.02-.18-.07-.06.01-.09-.01-.15.01M12.2 5.85c.06-.01.11.04.14-.02-.06 0-.15-.01-.14.02M28.61 5.74c0 .05.08.04.13.06a.16.16 0 0 0 .06-.06c-.11-.02-.11.03-.19 0M11.17 5.88c.3-.02.72 0 .99-.05a2.5 2.5 0 0 0-.99.05M28.05 5.7c0-.03-.08-.05-.1-.02l.1.03M24.27 5.68c-.08 0 .2.1.24.01-.08.02-.23 0-.24 0M8.6 5.8c.05.02.1-.02.14-.05-.22.03-.5.18-.71.25.02 0 .07-.02.07.01-.07 0-.07.01-.12-.02-.05.04-.1.03-.04.07.24-.06.46-.15.67-.26h-.02M7.62 6.14c.11-.01.2-.05.3-.07a.35.35 0 0 0-.3.07M7.94 6.07h-.02.02M24.05 5.67c0 .02-.03.01-.03.03.15.02.26-.02.03-.03M12.9 5.7c0 .02-.03 0-.03.03.03 0 .02.06.08.04 0-.03-.02-.05-.04-.07M29.87 5.6c0 .02-.01.03-.03.04-.04-.01-.2-.05-.29-.02.13.01.26.06.4.07-.03-.04-.06-.04-.08-.09M29.45 5.57c-.02 0-.01.03-.03.03 0-.05-.06-.04-.11-.04.02.08.16.03.21.07 0-.04-.03-.05-.07-.06M24 5.6c.05 0 .1 0 .1-.03-.03 0-.1-.01-.1.03M24.38 5.57c.04 0 .13.03.16 0-.03-.02-.14-.03-.16 0"/>
    <path d="M10.17 6.33c.32.15.64.03.99.09 0 .04-.03.04-.05.07-.02.06-.09.16-.08.2.02.15.32.1.35.23.02.12-.14.13-.15.28.03.04.09.04.1.1.11.09.32.01.46.07.02.12-.1.1-.08.22.1.05.2.08.26.16.1.01.35.07.34-.03-.05-.02-.25.02-.28-.1.03-.05.1-.06.18-.08 0-.03-.03-.05-.02-.1-.09.06-.27 0-.32.1.02.03.1 0 .1.06-.08.04-.15-.03-.16-.1.09-.09.2-.13.28-.23-.14-.02-.6.1-.71-.09l.04-.02c.07.02.13.06.19 0-.1-.02-.16-.1-.22-.15.12-.13.3-.2.46-.28-.22.02-.56.12-.68-.1.15 0 .34.05.4-.07-.12-.03-.16.04-.25 0 .1-.1.27.01.37-.07-.1-.09-.36.02-.42-.06.1-.07.18-.01.3-.06-.06-.03-.2.04-.24-.04.1-.08.28 0 .4-.06-.04-.02-.08-.02-.08-.07.05 0 0-.04.03-.05.03.04.17.04.14-.01-.3-.03-.71.1-.95.05-.13.08-.37-.04-.48.07l.67-.03c.04 0 .1-.06.11.03-.26.04-.7.1-.91 0 .03-.07.15-.06.16-.16.08-.04.22-.03.26-.1-.12-.01-.2.01-.25.07 0-.04-.1-.04-.1.02-.1-.02-.25-.07-.32.01-.05-.1-.27.02-.29-.1.09-.14.35-.1.5-.19-.36.05-.64.14-.98.02.07-.15.3-.13.4-.23-.2.06-.39.06-.58.2.07.21.34.14.52.2-.02.05-.07.05-.07.1.1.25.65-.07.66.23M29.28 5.53c-.06 0-.12 0-.16-.03-.01.08.13.08.16.03M26.12 5.59c-.13-.05-.19-.05-.33-.07.09.06.21.08.33.07M29.06 5.49h-.07c0 .04.03.04.05.04l.02-.04M28.32 5.68c0-.07-.02-.09-.01-.16-.04-.01-.06-.04-.1-.04-.03.09.07.07.05.14-.08 0-.1.08-.2.06.06.08.17.01.26 0M25.77 5.53c-.07-.04-.2-.09-.29-.07.02 0 .02.02.02.04.11-.02.2.07.27.03M27.93 5.48c-.06-.02-.12-.06-.14-.01a.78.78 0 0 0-.31-.06c.14.03.32.1.45.07M24.47 5.4c-.16-.01-.25.03-.36.02.03.07.29.03.36-.01M24.55 5.4c-.02.07-.07-.04-.08.05.09-.01.18.05.26.01-.07 0-.1-.05-.18-.07M11.86 5.46c0-.08-.12-.04-.14-.02-.08-.02-.17-.01-.19-.01-.07 0 .07.01.1.02.07 0 .17.03.23 0M26.05 6.32h.1-.1M27.73 5.62c-.07-.02-.1-.11-.2-.07 0-.04.03-.02 0-.05-.08.01-.08-.06-.17-.05-.07-.15-.38-.06-.49-.14.06.05.14.08.2.14.04.02.01-.06.06-.04.01.04-.02.04-.01.07.07 0 .12.06.19.03 0 .08.11.06.1.16-.08.01-.1.07-.16.06l.03-.02c-.11 0-.17-.02-.27-.01.08.03-.1.04-.05-.03-.05-.01-.02.05-.06.04-.12-.08-.35-.1-.5-.07.24.09.5.12.64.3-.03.05-.03.1-.1.1-.1-.01-.24-.04-.41-.02.03 0 .05 0 .06.03-.05 0-.11-.01-.08-.04-.06-.02-.07 0-.13.01 0-.1-.12-.02-.14-.07 0 .02 0 .04-.02.04-.08-.03-.29-.1-.31 0-.04-.02-.05-.07-.08-.04.15.1.43.09.5.27-.05.06-.14.07-.22.05-.02.06.07 0 .07.04l-.03.01h.15c.03-.01-.03-.04.01-.05.03.05.1 0 .13-.02-.02-.02-.07 0-.09-.04.02 0 .04-.02.05-.03-.02-.03-.07-.02-.09-.04.02-.04-.04-.07 0-.09.1-.01.3.07.32-.02.04 0 .08 0 .09.04h-.05c.12.02.31.03.42-.05-.01-.17-.12-.12-.11-.26.17 0 .45.04.55-.1-.02-.02-.06-.02-.06-.06 0-.03 0-.06.03-.08.06.04.14.14.23.1M26.15 6.32ZM26 6.3c-.2-.01-.17-.06-.33-.04 0-.06-.17-.07-.24-.06.03-.05-.09-.04-.13-.06-.02 0-.02.03-.03.03-.1-.07-.4-.09-.52-.13-.04 0-.05.03-.08.03-.05-.08-.23-.03-.29-.1.08.2.4.1.55.12.17.02.33.1.51.14.2.04.4.08.6.09 0-.04-.11-.07-.05-.02"/>
    <path d="m26.03 6.33.02-.01h-.02M10.27 5.44h.07l.03-.06c-.05 0-.08.02-.1.06M24.87 5.33c-.11-.09-.4-.07-.56-.02.28.04.5-.02.7.1-.08.03-.24-.02-.25.08.18-.08.4.08.52-.04 0 .04.07.02.11.03-.03-.04-.1-.04-.14-.1-.06.03-.29-.07-.38-.05M26.06 5.14c.21.12.5.14.8.21-.03-.08-.16-.1-.24-.1-.07 0 0 .01-.05-.01-.04-.02-.13.01-.2 0s-.13-.05-.17-.06l-.14-.04M25.36 5.04c-.04.01-.11-.02-.13.02.04.02.12.04.13-.02M9.4 5.12c.06.01.2 0 .23-.06-.06.05-.18-.02-.23.06M26.05 5.15c-.2-.13-.37-.15-.58-.17.04.05-.08.06-.1.09.26.05.45.02.68.08M28.6 4.93c-.03.07-.06 0-.14.01 0 .06.08.04.12.06 0-.02.05-.06.02-.07M7.28 4.98a.92.92 0 0 0-.28.08l.04.01s-.02.01 0 .02c.07-.05.18-.06.24-.1M28.78 4.93s.15.02.15-.06c-.03-.03-.06-.06-.12-.05.02.15-.17.09-.2.18.09.01.12-.06.17-.07M25.47 4.84c.01.04.18.05.18.01-.07.01-.12 0-.18-.01M25.42 4.82c-.06 0-.3-.02-.39 0 .15 0 .29.1.4 0M29.24 4.82c.03 0 .03-.04.05-.06.04.07.1.03.19.03-.14-.07-.34-.05-.47-.03.05.05.17.03.23.06M28.98 4.74c.02 0 .01.01.02.02l-.02-.02M28.77 4.77c-.02-.02-.05-.08-.07-.03.02 0 .04.07.07.03M28.35 5.06c0-.07.13-.08.05-.14-.01.04-.2.03-.18 0-.05.03-.34-.08-.4.01-.1 0-.17-.02-.24.01 0-.02.02-.02 0-.04-.05-.01-.03.04-.06.04-.09-.1-.24-.03-.35-.02l-.01-.06c-.13-.05-.24.1-.27.01.01.02.05.02.05 0-.07-.03-.15-.03-.2 0 0-.05-.04-.07-.07-.1-.03.04-.16.09-.18 0 .05 0 .13.02.12-.04-.15 0-.38-.09-.57-.07.12.08.27.02.37.1-.15.04-.3-.03-.44 0 .06.02.05.04.06.08.47.03 1.01.13 1.5.13.15 0 .3-.03.47.02.13.03.4.15.43.23v.08c-.14.1-.32.01-.52.1.06 0 .14.03.2 0 0 .03-.01.04-.02.05.05 0 .06.02.11.01.02-.04-.02-.04-.01-.08.15 0 .3.01.37-.1-.05-.09-.16-.13-.21-.22M26.07 4.56c.07.01.2.03.26.01-.06-.01-.19-.05-.26-.01M27.29 4.55c.11-.03-.03-.02-.07-.05-.03.02-.05.07.01.07 0-.03-.02-.04 0-.04l.06.02M27.64 4.45c-.02.05.03.03.04.06.33.03.68.16 1 .2-.09-.02-.19-.13-.17-.04-.03-.01-.06-.03-.03-.06a1.8 1.8 0 0 0-.32-.06l.04-.01c-.2-.03-.38-.08-.56-.09M25.48 4.39a.2.2 0 0 0 .11-.03c-.04 0-.11-.02-.11.03M29.75 4.34c.03.03.09.02.1-.01-.05.01-.09-.04-.1.01M28.76 4.32c-.06.02-.08-.02-.08-.02-.11 0-.25-.02-.38 0 .06.03.1 0 .15.03.08-.04.26 0 .31-.01"/>
    <path d="M23.08 6.82c0-.03.09-.05.1-.02-.01.04-.13.05-.08.1l.32-.1c.05-.01.24-.02.18-.03-.14-.02-.26.04-.4.03.14-.13.42-.1.64-.12-.19-.04-.4-.07-.54.04-.02-.03-.07-.03-.06-.08.2-.06.44-.13.68-.1a.65.65 0 0 0-.62.04c-.02-.1.08-.14.16-.11.06-.1.28-.09.37-.12-.08-.02-.25.01-.34 0-.04.04-.06.1-.15.09-.03-.04.01-.06-.01-.1.16-.04.43-.14.66-.1-.06 0-.08-.05-.13-.06-.04.06-.1.02-.17.01-.08.02-.24.1-.3.05.13-.07.25-.08.36-.14-.08 0-.17.05-.2 0 .02-.09.1-.1.18-.13-.08-.02-.12.06-.17.02.1-.18.44-.07.52-.16-.15 0-.34.02-.48.04V5.8c.15-.05.3-.06.4-.13-.07-.02-.13.05-.17.01.02-.06.06-.09.13-.08 0-.04-.03-.03-.01-.07.02-.04.1-.03.13-.06.03-.04-.04-.04-.02-.1.08-.01.1-.07.2-.05.02-.08-.07 0-.1-.04.28-.2.71-.03 1.03-.11-.23-.02-.5-.03-.7-.02-.1 0-.24.06-.31-.03a3 3 0 0 1 1.04-.04c-.06-.11-.25-.04-.36-.05l-.34-.04c-.07.03-.23.07-.26 0 .38-.07.77-.08 1.18 0-.18-.1-.56-.04-.74-.12.08-.06.17-.03.32-.03 0-.11-.25.02-.25-.09.46-.02.79 0 1.23.06-.04 0-.04-.05-.06-.06-.05-.01-.05.02-.1.01-.02 0-.02-.04-.06-.04-.15.04-.32-.04-.49-.04-.1 0-.24.08-.3-.03L26 4.63c-.07-.03-.15-.02-.19-.06.04-.04.11.03.15-.01.02-.07-.1 0-.08-.09.33.01.76.07 1.03.07-.02 0-.04 0-.04.02.05 0 .12.03.13-.03-.33-.07-.74-.02-1.02-.1.54-.04 1.1.05 1.63.05 0-.05-.07-.02-.05-.09.17-.1.56-.02.73-.1-.25-.03-.43.04-.54-.01-.05-.03 0 .05-.04.04-.05 0-.06-.04-.06-.05-.17.04-.4-.04-.55.06-.02-.04.04-.07-.02-.06-.07 0-.1.04-.15.04-.17-.09-.4-.01-.68-.03.26.08.56-.04.73.09-.26 0-.43-.02-.69.01-.08-.11-.25-.11-.4-.05.03 0 0 .05-.02.04-.12 0-.19-.07-.25 0 .04.04.1 0 .13-.01-.05.05.06.03.08.06-.1.08-.32-.03-.35.04-.06-.04-.13-.02-.22-.04-.01.05.1-.02.09.06-.07.05-.29-.02-.3.07a.55.55 0 0 0-.2 0c.07.03.2.01.27.04-.15.09-.3.02-.45.06.04 0 .1 0 .09.04-.1.01-.14-.02-.22 0 0 .02.02.03 0 .04-.07-.07-.16.05-.22 0 0 .1.14-.03.13.07-.2 0-.4 0-.5.07.03.04.08-.03.11.02v.04c-.1 0-.16.03-.19.09.03 0 .11-.03.1.03-.12-.03-.19.03-.26.1.18.05.34-.16.44 0-.06.05-.14 0-.15.05L24 5.16c-.16 0-.33.05-.42.15.04 0 .13-.05.14 0-.1.03-.2.07-.24.16.15-.02.34-.14.48-.08-.15.1-.43.04-.52.2.02.01.05 0 .05.02l-.16.15c.04 0 .05.01.05.04-.02.05-.07.05-.09.09l.05.01c-.03.02-.07.02-.1.05.09.02.14-.08.17-.02-.03.06-.11.06-.13.12.04 0 .08-.05.11-.02-.01.05-.05.07-.07.1.07 0 .14-.06.15.03a.93.93 0 0 0-.28.16c.04 0 .1-.06.13-.01.01.08-.09.06-.11.1-.01.05.03.03.03.07-.09.06-.1.19-.09.25 0 .04-.1.05-.06.09M9.94 5.32c.13-.01.26-.02.37-.1.1 0 .24.02.32-.05.27.01.66-.05.87.06-.42.07-.87 0-1.13.2.54-.12.97-.08 1.54-.06 0 .03.05 0 .04.04-.09.2-.58.1-.8.1.05-.14.25-.03.32-.1-.32 0-.45-.01-.7.07.11.03.34-.12.36.04-.34.08-.6.2-.9.3.31 0 .5-.23.84-.2.25-.1.58-.05.85-.05.1 0 .22 0 .3.08-.11.05-.22-.03-.34 0 .15.05.42.16.55.11 0 .06-.06.05-.07.1.07 0 .1.04.13.09-.11.02-.23-.03-.3 0 .12 0 .27.08.42.06 0 0 .03.08 0 .08-.06 0-.13 0-.18-.02.05.07.18.05.2.14-.1.05-.25-.1-.36 0 .14.03.3.04.38.14-.05 0-.17 0-.12.05.03-.05.18.02.2.08-.1-.01-.24-.07-.36-.02.02 0 .02.04 0 .04-.14-.02-.26 0-.4 0 .1.13.4-.04.5.07-.04 0-.1-.02-.08.03.08.01.14 0 .19.06-.04.03-.09 0-.12-.02-.06.06-.2.03-.24.06.13.04.3-.04.39.06-.17 0-.27.06-.48.07.14.16.48.07.64.19-.06.04-.16-.02-.25.02.02.04-.04.07.02.07.06.01-.03-.07.04-.08.08.03.18.03.2.1-.08.03-.14-.06-.2 0 .06.01.12.02.17.05-.15.05-.36-.02-.52.07.14.04.43-.04.55.07-.1.03-.19 0-.27.05.15.02.26 0 .35.06-.11.09-.37-.01-.44.08.18-.02.44-.02.57.06-.12.01-.38-.03-.46.07.12.05.4-.06.47.06-.1.04-.2-.06-.26.04.1.02.34-.03.38.09l-.19.01c0 .11.25-.02.23.1-.13 0-.25.02-.32.1.2.04.47-.06.58.08-.04.03-.14.01-.18.04.17 0 .38.08.56.01-.07 0-.15-.02-.1-.11-.09.02-.18 0-.22-.06.02-.03.1-.01.1-.06-.07 0-.13-.03-.16-.08.06-.02.1.04.12 0-.05-.09-.21 0-.23-.13.03-.03.08-.01.1.01-.02-.06.02-.06.04-.09-.03 0-.05 0-.06-.02.03-.03.03 0 .08 0 0-.06-.03-.09-.1-.08-.04.04.02.03 0 .07-.05 0-.06.05-.14.03 0-.02-.04-.01-.02-.05.01-.06.04-.04.1-.03-.03-.07-.14-.06-.16-.15.02-.04.07-.06.14-.06.04.02.03.09.09.1-.06-.14-.09-.3-.2-.38 0 .02 0 .05-.04.05.03.07.11.07.1.16 0 .02-.01.05-.05.05-.07-.03-.13-.06-.13-.15 0-.05.05-.03.07-.06-.11-.01-.14-.12-.17-.21.07-.03.07.07.11.02-.06-.05-.1-.1-.03-.15-.02-.03-.05-.06-.06-.1.02-.03.02-.07.06-.06-.03-.07-.17-.16-.06-.24a.57.57 0 0 1-.09-.17c.03-.02.06 0 .1.02-.04-.1-.13-.12-.14-.22.03-.03.05.01.1 0-.03-.09-.15-.1-.17-.2 0-.05.05-.02.09-.02 0-.05-.09-.02-.08-.09 0-.03.05-.02.04-.07-.1-.06-.13-.21-.23-.28 0-.03.03-.04.06-.04-.43-.64-1.39-.65-2.2-.74 0 .02 0 .04-.02.04-.08-.08-.22 0-.33-.04l.01.04c-.02 0-.06 0-.07-.02.02 0 .04 0 .04-.02-.14.02-.27-.03-.34.05-.03-.02-.08-.08-.12-.04.02 0 .04.03.01.04-.03-.02-.06-.08-.04 0-.07-.07-.34-.06-.45 0 .03-.07-.12 0-.12.04.43.05.94-.07 1.32-.02-.18.08-.5.03-.72.1.02 0 .04.01.02.02.5-.01 1.07-.12 1.54.05-.58.04-1.05 0-1.56.13.54-.04 1.43-.17 1.99.05a8.72 8.72 0 0 0-1.58.03c.4.07.83-.07 1.17.04-.32.1-.77.02-1.07.2-.07-.06-.13 0-.2.05"/>
    <path d="M9.37 4.77h.28c-.07 0-.06-.05-.1-.06-.04.08-.14.01-.18.06M8.42 6.22c.16.01.34-.1.46-.18-.14.09-.32.07-.46.18"/>
    <path d="M4.45 5.63c.17.07.44.04.58-.06.14.05.29-.04.36 0-.04.11-.26.18-.22.28-.03.03-.03 0-.06-.02.23.34.78-.05 1.06-.01-.04.09-.14.12-.14.26.22.12.54.04.77-.03-.12.18-.33.17-.38.42.2.14.5.08.71 0-.01.07.02.07.04.1.17 0 .29-.07.44-.04.09-.02.27-.12.33-.04-.04.05-.05.12-.04.22.15.15.4.04.64-.02l.5-.13c.12-.02.18-.1.26-.15.07-.04.2-.1.25-.16-.25.08-.5.34-.77.25.15-.1.34-.16.45-.3-.13.1-.21.08-.38.17l.02.06c-.03 0-.02-.04-.06-.03-.24.11-.5.22-.8.26a.43.43 0 0 1-.04-.17c.13-.11.31-.17.45-.26-.06-.03-.16.03-.2.07-.04-.01-.07-.02-.09.01-.19-.06-.43.12-.6.08-.02.03-.06.04-.08.06-.02-.04-.1-.02-.1-.07a.73.73 0 0 1 .26-.25c-.3.1-.56.25-.96.26a.2.2 0 0 1-.07-.07c.29-.45 1.07-.45 1.5-.7-.06 0-.06.06-.1 0 .04 0 .07-.02.09-.05-.11.04-.24.07-.26.15-.16-.02-.36.04-.42.12-.06 0 .01-.05-.05-.04-.33.06-.66.14-1.05.17 0-.04-.03-.03-.03-.05.13-.14.35-.25.56-.31.28-.08.6-.1.84-.2.2-.1.34-.28.55-.26-.02.05-.08.05-.07.12.2.11.58.06.81.07-.01.05-.08.05-.07.12.35.1.8-.01 1.07-.12-.28 0-.55.18-.9.04.06-.11.2-.15.28-.24-.32.1-.68.15-.99.06.09-.25.5-.18.68-.32-.05 0-.07-.03-.13-.02-.19.08-.47.14-.75.13-.19 0-.42.02-.52-.14.24-.15.54-.11.87-.16-.12-.11-.24.03-.34-.03.03 0 .09.02.09-.01-.34-.01-.6.07-.77.23.02.27.41.12.58.24-.04.09-.15.1-.23.15 0-.02.03-.03-.01-.03-.05 0-.06.04-.06.06-.08-.03-.17.04-.23.06.04-.01.05 0 .04.04-.04-.03-.07 0-.07-.05-.41.12-.8.18-1.2.27-.26.06-.56.2-.87.14L5.4 5.7c.4-.34 1.13-.33 1.6-.61-.06-.07-.11.01-.16.04 0-.02.02-.03 0-.04-.2.1-.48.09-.63.23-.16-.07-.42.16-.6.06.22-.11.63-.13.76-.3l-.14.07s0-.04-.05-.03c-.1.02-.2.1-.31.13l.02.01c-.13-.02-.3.05-.4.11-.27-.01-.56.2-.88.09.18-.06.36-.24.62-.28.24-.03.39-.1.55-.19.07 0 .13 0 .19-.02l.01-.05c.03.02-.02.05.04.05.46-.09.9-.2 1.27-.38-.22-.04-.4.08-.57.18-.03-.05-.13-.01-.12.03-.02-.09-.05.03-.08.03 0-.03.02-.04 0-.04-.05.04-.15.03-.22.05-.03.03-.06.12-.12.06 0-.03.04.02.05-.03-.15.02-.33.02-.42.09-.03 0-.01-.04-.05-.03-.35.15-.8.21-1.18.22-.06.05-.2.07-.28.08-.27.01-.75.2-.7-.14.15-.1.4-.08.58-.1.5-.08.96-.22 1.42-.35.02.03.08.02.12.02.11-.05.28-.05.37-.12.26.01.63-.11.95-.18.35-.08.74-.1 1.08-.2.9 0 1.79-.02 2.68.01l.26.02c.42 0 .8.07 1.2.18.2.2.49.31.64.56.05.1.12.18.2.25.04.1.08.2.14.3.01.17.08.29.12.44-.06.28-.03.57.07.8-.03.13.08.3.14.43-.04 0-.03-.03-.06-.03 0 .05.04.06.03.13.03.03.04-.02.08-.02.04.04.04.1.06.15a.1.1 0 0 1-.07-.02c0 .07.05.1.09.13 0-.03-.07-.06-.02-.08.05 0 .08.02.12.04-.11.02-.01.07-.05.1-.01.02-.05-.1-.04 0 .01.07.11.05.15.09.02.08.06.14.14.16.02-.04-.06-.05-.01-.08.02.02.06.02.06.06 0 .04-.07 0-.05.04.03.01.04.04.05.08.1-.03.14.1.2.08-.03-.03-.08-.04-.1-.08 0-.02.03-.02.04-.03.08.1.4.13.45-.02-.51-.1-.76-.45-.9-.92 0-.05-.04.04-.05-.02.03-.25-.12-.54-.13-.85-.12 0-.15-.16-.13-.26.02 0 .06.08.06.01-.02-.18-.11-.28-.16-.4a2.16 2.16 0 0 0-1.69-1.34c-.39-.07-.77-.04-1.16-.08l-.07-.06c-.11.1-.2.03-.33.03-.44-.01-.87 0-1.28.02-.17 0-.35-.02-.52 0-.06 0-.12.05-.19.06-.56.1-1.21.1-1.68.31-.3.04-.61.11-.92.18l-.18.01-.08.06c-.1.04-.24.06-.35.09l-.57.12c-.14.02-.25.07-.34.09-.2.03-.44-.02-.5.14 0 .14.1.25.14.4.26.07.7-.07.84.2"/>
    <path d="m7.3 4.59.14-.05c-.05 0-.12 0-.14.05M17.22 1.86c0-.05 0-.1-.05-.09 0 .05 0 .09.05.09M17.1 1.55c-.04.08.02.17.08.2-.01-.08-.03-.16-.09-.2M18.05 9.7c.07 0 .16.05.2.02-.05-.04-.12-.07-.2-.03M17.43 8.94c-.05.02-.15-.01-.16.04.07.01.12-.01.16-.04M18.82 2.85c.01-.04-.01-.12-.04-.07.03.01-.03.07.04.07M15.27 5.85c.05.02.16 0 .17-.06-.04-.01-.17-.01-.17.06M15.52 5.7c-.01.04-.07.04-.06.1.03-.01.1-.07.06-.1M16.23 3.73c.15.03.4.1.6.13.1.01.23.03.32-.03-.35.05-.6-.16-.92-.1M17.06 3.57c.05.08.17.03.24.03-.08 0-.14-.06-.24-.03M21.7 5.4c.05-.01.11-.1.06-.13-.02.04-.1.08-.06.13M21.8 4.87c.04 0 .06-.09.03-.1-.02.02-.04.04-.03.1M21.78 4.32l-.06-.18c-.03.04-.03.19.06.18M21.55 3.78a.26.26 0 0 0-.13-.16c.02.08.05.15.13.16M21.16 3.26c-.03.04.05.05 0 .06-.05-.02 0-.07-.06-.09v.09c.04.02.08.05.13.06.03-.05-.03-.1-.07-.12M20.66 5.62c.02 0 .1.05.1-.01-.02-.03-.09 0-.1.01M20.51 5.34c.06.03.1.08.18.08-.03-.05-.14-.1-.18-.08M20.63 4.81c.02.03.03.05.07.06 0-.03-.05-.1-.07-.06M20.47 4.6c.03.01.04.05.1.05-.01-.03-.07-.09-.1-.05M17.33 9.27c-.08-.02-.19 0-.25.03.05.04.19.01.25-.03M16.94 7.67c-.04 0-.11-.02-.11.03.04 0 .11.02.11-.03M16.71 7.58c.1-.02.19.02.28-.03-.06 0-.23-.02-.28.03M13.81 18.22l-.15-.17-.1.28.25-.1"/>
    <path d="M18.3 56.08c1.39-.63 21.47-13.02 17.5-39-.82.2-9.6 3.16-17.67-3.8.1-.1.21-.18.24-.34.1-.07.2-.13.23-.26.1-.02.15-.07.18-.16-.3-.28-.53-.61-.62-1.1l.03-.01c.08-.01.1.03.09.1.09.12.13.26.2.43.19.14.3.37.47.52.1-.03.19-.09.33-.09.08-.13.38-.03.4-.23-.2-.14-.32-.37-.43-.6-.35.09-.75.05-.93-.19.13-.03.23.07.38.06.25-.03.63-.41.31-.6 0 .06.06.06.06.12-.05 0-.04.06-.07.07-.08.4-.71.25-.93.08-.1.06-.19.16-.33.2-.12-.04-.25 0-.36-.07-.28-.2-.02-.86.3-.63.1-.05.2.04.29.07-.1.07-.08.18-.23.2-.08-.03-.07-.13-.09-.2-.18.13.06.3.24.25.1-.08.21-.43.37-.2-.02.4.72.24.35-.06-.04.05 0 .15.03.17-.1.17-.32 0-.35-.13.04-.08.17-.1.25-.04 0-.05 0-.07.04-.09.1.01.15-.02.25-.02.03.12.13.17.18.27.07.02.03-.06.1-.05.07 0 .13.01.2.05l.23-.1c.03.03.1.02.16.02.29-.18.62-.47.54-.93a.73.73 0 0 1-.84-.27c.16.02.37.03.55-.03.18-.11.24-.35.4-.48.02.12 0 .3.05.43.23.07.2.48.5.42-.1-.05-.14-.25 0-.29.04.08.08.2.05.3.08.13.17.24.3.31.04-.03.03-.12.08-.16.2.03.3.28.5.22.07-.1.02-.32.17-.37.03.22.2.3.39.38.06-.01.1-.06.16-.08.03-.2-.07-.4-.05-.56.13.04.15.19.32.19.03-.05.11-.05.15-.1-.04-.17-.12-.37-.22-.4.02.1.05.13.04.25.02.04.09-.04.09.03-.07-.02-.1.06-.16.09a.91.91 0 0 1-.35-.34c-.04.05.02.06.02.12l-.05-.01c.03.16.28.6.05.66-.13.03-.17-.1-.28-.11-.11-.1-.02-.41-.23-.42 0 .18-.02.49-.12.52-.19.07-.28-.29-.36-.43a.29.29 0 0 0 .03-.2c-.23.1.01.45-.25.54-.22-.1-.23-.5-.22-.7-.01-.02-.06-.02-.05-.06 0-.07.1-.16.02-.22-.06.05-.04.23-.14.2.03-.15.09-.27.22-.33.03.08.06.15.13.19.02.12.07.23.14.3.08.01.05-.09.12-.09.04.11.15.16.17.3.1-.04.07-.19.1-.27.05.02.06.01.1-.01.02-.2-.08-.26-.06-.4-.13-.03-.15-.17-.26-.24.03.29.29.5.14.77-.04-.13-.16-.21-.15-.33-.04.05-.11.08-.17.13-.13-.15-.09-.41-.25-.5-.06.06-.09.15-.17.18 0-.03-.05-.01-.05-.04.02-.08.1-.18.05-.28-.1.09-.09.35-.22.36-.23.03-.1-.45-.02-.47.06-.02.09.02.16.05 0-.07-.09-.06-.1-.13.03-.04.08.03.1-.01-.04-.04-.1-.1-.09-.14.05-.02.06 0 .1 0 .02-.08-.15-.05-.08-.13.06-.03.02.06.07.05.23.13.62.11.81-.08.1-.14.08-.3.07-.46.17-.04.31-.17.42-.26 0 0 .02.02.03.01.06-.03.08-.1.12-.14.08-.09.13-.1.18-.22.14-.3.3-.67.32-1.09 0-.03-.04-.01-.05-.04.1-.06.1-.29.1-.38 0 .02-.02.02-.02 0 .06 0 0-.06.07-.07.17-.7.48-1.23 1.14-1.48 0-.02.02-.05.04-.06.33-.04.74-.19 1.07-.2.14 0 .32-.04.43-.04.06 0 .1-.04.13-.04 0 0 .02.03.05.02.22 0 .44-.04.65-.04.24 0 .45.03.63.03h.9c.16.02.31.07.47.08.15 0 .29 0 .44.02.13.03.25.1.42.1.06.11.35.13.44.06.23.04.54.06.76.14-.15.06-.35-.08-.52-.04.22.1.45.07.7.17.03 0 0-.07.05-.06 0 .05.04.07.07.12.38-.08.78.1 1.12.04.25.15.74 0 .91.18-.25.15-.62.02-.87.06-.05-.05-.16-.05-.24-.04-.09-.07-.3-.1-.4-.05v-.05c-.2-.02-.36-.08-.56-.1-.05.01.01.07-.07.06 0-.03.02-.03.03-.04-.37-.07-.8-.13-1.1-.17-.04 0 .02.04-.03.04.02-.06-.04-.04-.06-.07-.61-.02-1.24-.1-1.74-.05.37.06.95-.01 1.29.14.53.04 1.25.05 1.77.21.03 0 .03-.02.04-.03.18.05.4.09.57.11.27.04.58.05.78.19-.1.2-.35.1-.57.16-.37-.05-.77-.23-1.1-.2v-.04c-.19-.05-.42-.08-.65-.16-.02.07.1 0 .07.06-.04.02-.08 0-.08-.06a.83.83 0 0 1-.3-.01c0 .06-.03.06-.05.08.3 0 .52.16.78.12.3.13.62.17.97.24 0-.02 0-.04.02-.04.04.06.13.07.19.13-.05.08-.12.05-.2.04-.12 0-.26.06-.4.05-.04 0-.09-.04-.13-.05l-.45-.01a4.86 4.86 0 0 0-.91-.18l-.01-.05c-.15.03-.33-.1-.51-.02.04 0 .01.02.01.05.06.03.14.05.2.03.6.22 1.2.27 1.92.37 0 .03.05.03.04.07-.23.06-.42.13-.63.06-.02.05.07.08.04.09-.02-.01-.06-.01-.04-.06-.06-.01-.05.04-.1.03.07-.14-.2.01-.25-.1.01.05 0 .04-.02.07.26.02.47.06.58.23-.08.18-.42.04-.55.1-.08-.05-.28-.07-.36-.08.02.02.06 0 .04.04-.07 0-.04-.06-.08-.07-.18-.02-.26-.04-.4-.07 0 .08.07.05.14.06.18.03.37.13.52.14.02.03.07.07.03.12.03 0 .07 0 .07.02-.08.08-.34.1-.42.02.01-.04.1.01.1-.04-.19 0-.45.01-.64-.01-.07-.01-.16-.07-.15-.02-.02 0-.02-.02-.02-.04-.44-.03-.78-.1-1.09-.1-.01-.02 0-.06-.05-.05-.22 0-.38-.09-.51-.05.08.04.13.1.25.1 0 .04.04.06.07.08.41.03.76.13 1.1.24.01-.04.09-.04.1 0 0 .02-.04 0-.04.03.05.03.12.05.14.13-.04.1-.13.04-.22.06-.03 0-.08.04-.1.04l-.02-.04c-.05-.01-.12.01-.18.01a3.24 3.24 0 0 1-.64-.1c0-.04.03-.04.03-.07-.27.04-.56-.1-.8-.07.06.05.14 0 .2.03-.06.07-.34-.04-.32.07-.08.03-.06-.05-.12-.04.01.05-.04.03-.03.07.25.1.53.03.78.09.05 0 .14.08.15.08.1.04.2.03.29.09 0 .04.03.05.01.1.12.05.16-.05.28-.07h.1c.29.01.66-.02.78-.21-.08-.08-.2-.1-.27-.17.09-.1.31 0 .39.07.32.01.8.07 1.04-.14.03-.07-.07-.07-.03-.11.2.06.48-.04.65-.14-.02-.05-.02-.01 0-.07-.06-.1-.19-.1-.25-.2.22-.04.69.01.87-.24.06.01.07-.01.12-.01-.02-.06.07-.05.1-.1 0-.05-.03-.07-.03-.12.17-.05.49.02.67-.06-.04-.38.61-.09.63-.38-.01.06-.06.02-.06-.03-.04-.02 0 .05-.05.03 0-.08-.07-.16-.1-.22-.48-.09-1-.13-1.48-.2-.04-.01 0 .06-.05.04 0-.04-.02-.03 0-.06l-.38-.07c.02 0 .03.01.03.03-.05-.04-.26-.11-.2-.03-.11-.08-.19-.04-.29-.06 0-.06.04.01.06-.03-.1.02-.14-.04-.25 0 0-.04.03-.03 0-.05-.09.01-.2-.05-.19.03-.03-.04-.08-.13-.14-.09 0 .02.06 0 .06.03-.04-.01-.03.03-.06.03-.02-.13-.28-.14-.36-.1-.24-.12-.54-.1-.79-.1l.02-.05a3.37 3.37 0 0 0-.71 0c0-.02.02-.03.01-.05-.07.02-.1-.01-.13.03-.03-.05-.18-.05-.24-.01-.07-.03-.09-.05-.14 0-.01-.04-.03-.04 0-.06-.07 0-.13 0-.15.04-.03 0-.03-.04-.06-.04-.12.06-.17-.05-.28-.01.02.02.09 0 .1.04-.14.02-.32-.1-.5-.03.07 0 0 .06-.03.06 0-.08-.03-.1-.07-.03 0-.04-.1-.04-.1-.02.01 0 .03 0 .02.02-.08.04-.1-.01-.18-.02-.04.03-.09.06-.08.1-.04-.04-.07-.03-.11 0-.01-.04.02-.04.01-.08-.06 0-.12 0-.14-.02 0 .04 0 .06-.05.05-.08-.14-.27.08-.33-.04-.04.05.04.06 0 .09-.05 0-.04-.05-.07-.06-.1.02-.2.02-.28.05.03 0 .02.05-.01.05-.05.01 0-.07-.06-.05l-.1.07c0-.06-.06-.07-.1-.07.02.09-.21-.03-.16.07a.52.52 0 0 0-.35.06c-.4.02-.73.25-.95.5-.16.02-.21.16-.26.29-.02-.04.04-.06 0-.06-.03.08-.1.11-.09.19 0-.02.04-.05.04-.02-.05.03-.13.08-.1.15-.13.02-.08.22-.17.29 0 .2-.1.3-.12.48 0 .04.05.02.04.07-.09.12-.03.24-.1.3-.05.57-.3 1.01-.58 1.4-.3.15-.7.3-.94.07-.23-.22-.08-.6-.1-.85-.06.22-.14.4-.1.6.06.39.3.51.65.51-.03.09.03.13.02.23a.65.65 0 0 1-.36.28c-.23 0-.43-.1-.58-.13.03-.05-.03-.05-.08-.07-.14.61-.32 1.18-.82 1.44-.12.01-.31.08-.35-.06.1-.22.28-.37.32-.62-.02.04-.09.1-.13.09.08-.05.03-.22.16-.22.01.05-.02.05-.02.1.1-.12.16-.26.2-.44-.12.02-.06.2-.15.23-.02-.1.03-.24.11-.29.03 0 0 .05.03.05l.03-.09.01-.03c.12-.3.2-.63.26-.94-.13.08-.04.3-.16.35.04-.16.04-.38.13-.52.06.05-.02.08.02.14.06-.06.08-.15.1-.25.08-.39.2-.82.44-1.07.17-.16.47-.2.74-.16.09.13.26.21.26.4 0 .15-.15.3-.29.3-.1.02-.16-.08-.26-.12-.08.04-.11.13-.16.2.08 0 .11.03.2.02.3.2.6-.1.61-.41-.05-.08-.02-.1-.04-.2l-.22-.3c.13-.08.25-.18.35-.3.05-.23.12-.5.14-.8 0-.13-.04-.22-.06-.34v-.16c-.01-.06-.06-.1-.07-.15-.04-.13-.03-.24-.12-.33-.07-.24-.25-.44-.36-.58-.04-.16-.24-.15-.27-.32-.03-.01-.07.04-.07 0v-.05c-.27-.2-.58-.46-.89-.52-.1-.08-.23-.17-.37-.15-.18-.17-.55-.11-.76-.25.1-.2.14-.4.19-.66-.22-.1-.5.37-.76.14.04-.1-.06-.17-.1-.23.02-.06-.02-.22-.07-.2.04-.08-.05-.12-.07-.14.12-.05-.19-.15-.18-.23-.14.04-.28.07-.24.23.01 0 .04-.07.05-.02-.03.03-.07.05-.1.1.1.15-.1.34 0 .48-.1 0-.1.1-.2.11-.05-.05-.19-.1-.29-.18.07.12.23.33.37.31.1-.01.06-.1.08-.16h.04c.03-.06.04-.16.09-.24.04-.07.11-.13.13-.2-.01-.1 0-.23.06-.3-.02.08.07.05.07.12.01.05-.02.07-.01.11.06 0 0 .06.01.08.03.05.12.07.15.11.1.13.06.47.26.5.1 0 .42-.2.45-.24.24-.06.06.2.04.3-.01.07 0 .17-.07.2-.06.04-.14 0-.22 0-.14-.01-.3 0-.42.01-.25-.09-.54.01-.82.03-.12.01-.25-.03-.36-.02-.26 0-.51.08-.73.14.04 0 0 .06-.03.05 0-.02.02-.02.02-.05-.06 0-.07.04-.09.08-.02-.01-.01-.05-.06-.03-.38.15-.73.33-1 .58-.05 0-.05.03-.1.03-.14.23-.42.32-.52.6-.27.32-.53.81-.61 1.33-.06.4.09.71.25 1.04.07.04.12.1.16.16.04.02.08-.04.1 0-.02 0-.04 0-.05.02l.1.05c-.15.19-.32.32-.3.62.05.15.23.42.38.44.11.02.22-.1.32 0 0 .14.1.23.1.36.02.26-.2.5-.46.54l-.05.07c-.05.45.33.8.78.6.12.07.1.2.15.32-.02.04-.04.06-.09.05-.02-.05 0-.09-.03-.13 0 .22.02.35.1.5 0-.13-.08-.26-.03-.36.14.02.1.2.2.3.01.11.07.19.14.25-.04.07.04.05.03.12-.01.03-.04.04-.09.04-.08-.03-.07-.16-.19-.16.05.11.08.3-.04.32-.14.02-.17-.35-.19-.43.06-.01.04.06.09.06-.1-.18-.21-.37-.18-.61-.05.02-.04-.08-.07-.03.01.18.08.47.13.56-.11.01-.03-.1-.12-.13 0 .14.08.23.05.37.15.07.3.43.06.47-.06.02-.1-.04-.2-.02l-.05-.16c-.05-.01-.07 0-.1.03 0 .04.03.07.02.13-.1.04-.11.17-.2.19-.23.04-.2-.33-.3-.45-.08.2-.02.34-.15.52-.1.01-.3.02-.4-.09 0 .13.13.11.17.2-.15 0-.19-.1-.24-.18.03-.1.02-.2-.07-.23-.04 0-.02.07-.09.06 0 .17-.16.2-.17.39.04.02.05-.07.07-.03 0 .1-.12.07-.2.09-.1-.17-.12-.4-.1-.62 0-.14.1-.28.02-.37-.1.26-.13.6-.46.64-.14-.05-.2-.34-.04-.43 0 .04-.03.05-.02.1.14-.13.14-.36.18-.5-.03-.03-.03.07-.09.03.01.11-.15.18-.1.3 0-.03-.01-.04-.03-.05-.12.21-.14.52-.49.51-.04-.06-.1-.08-.1-.14-.03-.12.03-.14.05-.2.02-.03-.01-.1 0-.14.04-.12.18-.22.15-.35-.29.16-.38.5-.74.59-.34-.07-.06-.41.04-.54.12-.07.27-.17.3-.28-.27.2-.5.53-.93.53-.01-.03-.04-.04-.03-.07.11-.17.27-.29.41-.43.25-.06.4-.23.57-.37-.06.02-.23.1-.25.17-.03 0-.02-.04-.05-.03-.33.14-.65.35-1.06.24 0-.02-.02-.02-.02-.03.07-.24.42-.29.5-.47-.06.05-.11.04-.1.1-.04 0-.04-.02-.02-.04-.06 0-.07.04-.09.07-.18 0-.51.15-.64-.04.08-.1.25-.16.37-.2.07-.03.18-.01.18-.09-.13.05-.23-.12-.34-.08-.04.11.12.03.13.11-.17.1-.49.1-.44.37.13.06.36.02.44.14-.03.07-.1.08-.1.16.01.28.53.02.7.08-.12.15-.28.25-.35.44.06.25.35.09.5.02.01.24.1.52.43.38a.44.44 0 0 1 .23-.19c.07.13.06.35.14.48.25.1.4-.1.54-.2-.03.35.35.26.5.12.05.05.04.2.04.26.06.14.24.16.42.17.06-.04.03-.17.08-.23.15.15.46.24.64.1.1-.07.06-.2.16-.27.07.24.46.18.54-.02.46.14.39-.51.8-.47.04-.03 0-.15.03-.19.17.16.54.24.82.19-.16.27-.56.37-.89.4.03.27.25.49.37.72.15.06.3.17.5.2.2.02.36-.06.53-.08-.17.18-.14.55.09.65.16.07.36 0 .47.03-.14.21-.54.16-.86.18-.08.27-.3.4-.42.64.09.1.29.08.45.1.1.07.24.1.39.14.11-.09.15-.24.22-.36.02-.05.07-.09.1-.15l.14-.32c.03-.09 0-.24.13-.26-.03.42-.17.82-.39 1.1-.06.03-.12.06-.13.14.06.13.14.18.24.27.14.14.23.37.4.42-8.01 7.02-16.8 4.14-17.62 3.95-3.74 26.01 16.45 38.23 17.84 38.85Zm.34-44.5c.2.08.3.05.54.06.14.1.12.37.28.46 0 .04-.03.03-.03.06-.05.01-.05-.03-.1-.03-.15-.01-.26.15-.41.06-.03-.02-.03-.06-.07-.1-.12-.12-.32-.26-.34-.47.03-.04.14.06.13-.04Zm-1.25-1.37.07.01c0 .04-.1.05-.07-.01Zm-.17.03c-.2-.23.2-.34.21-.06-.07.02-.13.05-.21.06Zm.29.2c-.02-.06-.06-.1-.05-.19.08-.06.14-.02.23 0 .03.04.04.1.03.17-.08.02-.13.03-.21.02Zm.43.07a.24.24 0 0 1-.14-.16c.02-.07.14-.08.23-.06.03.05-.02.1.03.13-.02.05-.07.07-.12.1Zm.42 0c-.13.02-.21-.02-.26-.09.06-.1.22-.21.32-.07a.35.35 0 0 1-.06.16Zm.2-.1c-.13-.2.24-.33.25-.1-.02.09-.14.14-.25.1Zm.2-.28c-.14-.01-.22.08-.34.12a.26.26 0 0 0-.32.03c-.11-.04-.24-.1-.33-.04-.07 0-.05-.1-.12-.09-.02 0 0 .02 0 .04-.02 0-.03-.02-.03-.05-.04-.02-.05 0-.12 0-.08-.18-.24-.25-.44-.2-.03-.03-.06-.05-.05-.12.04-.06.2-.06.2.03.03-.08-.07-.15-.16-.18-.07.09-.2.07-.24-.02 0-.15.2-.06.23-.13.16.06.23.22.46.21.09.12.33.17.48.13.03.01.03.06.05.09.33-.04.56-.09.78-.24a.9.9 0 0 1 .23-.13c.03-.02.17-.11.2.03-.05.03-.16 0-.22 0-.03 0-.03.05-.07.06.04.2-.14.3-.2.46ZM17.03 8.8c.1-.04.3-.08.48-.06 0 .08-.07.08-.14.09.1.03.2-.06.25.04 0 .05-.04.06-.03.13 0 .06.1 0 .1.06-.14.1-.46.09-.68.03.14-.05.33-.03.51-.06-.2-.03-.54.04-.68-.08.07 0 .13.02.21.01.02-.05-.07-.01-.05-.07.09-.01.24-.02.36-.05-.07-.05-.23 0-.33-.04Zm.82.33c.09.09.32-.02.4.09-.48-.07-.89.11-1.34-.04.32 0 .62-.04.94-.05Zm-.07-.09h.18c-.02.06-.18.1-.18 0Zm-.78.41c-.16.16-.17-.2-.06 0 .02-.01.04-.02.06 0Zm-.34-.7c.12-.01.26-.03.35.02-.05.1-.3.04-.35-.03Zm.25.11c.02.07-.16.07-.14 0h.14Zm1.12.9c0-.05.12-.06.14-.03 0 .07-.08.02-.14.02Zm1.11-.32c.03-.08.24-.02.22.08-.1 0-.12-.07-.22-.08Zm-.14.45c.06-.2.34 0 .15.1-.08 0-.1-.06-.15-.1Zm.1.34c-.1.03-.22.1-.29-.03 0-.22.42-.19.3.03Zm.64-.34c.12.04.2-.03.3.06.04.07.02.12.05.2-.15.16-.3.45-.58.5-.25.06-.49-.03-.7-.12.04-.09.17-.23.3-.15.03-.01-.05-.02-.04-.07.08-.07.11-.2.14-.29.19-.02.3.15.44.22-.07.08-.15.16-.3.17-.03.01.02.03-.01.05-.01-.07-.12-.04-.18-.06.17.23.64-.1.6-.26-.01-.1-.4-.15-.45-.26-.03-.05.02-.1 0-.2.2-.05.26.16.43.21Zm.55-3.7c-.07.22-.32.02-.48.02.09.13.3.12.45.14-.02.06-.12.07-.19.05.01.07.11.04.16.07 0 .06-.08.07-.16.07 0-.1-.1-.2-.24-.21 0 .06.07.05.1.08.01.04-.03.03-.03.06.07.02.12.07.17.1-.13.05-.22-.09-.34-.08-.06 0-.1.03-.16-.02 0-.03.02-.04.03-.07h-.1c-.03.01.04.02.02.06-.16.02-.23.07-.36.1 0-.07.08-.07.12-.1-.02-.02-.07.04-.13.01 0-.04.06-.03.04-.1.12.03.2-.05.32-.1.09.06.19.04.3.07 0-.06-.11-.12-.17-.16-.06 0-.07.06-.1.08-.16-.12-.25.13-.44.07-.04.07-.1.11-.16.16-.26-.1-.49.04-.78.08.3.06.53-.13.75-.07 0 .1-.06.14-.17.12.03.05-.07.17.02.25l.14-.02c.02.03 0 .02 0 .06.16 0 .2.15.35.1.07.14.29.04.38.04.02 0 .03-.04.05-.06.17.02.23-.17.35-.25l.09.05c0 .07-.05.08-.09.1 0 .03.06 0 .08.03 0 .05-.05.06-.1.07.02.04.06.03.05.09-.03.03-.05.07-.1.09.06.04 0 .1-.06.11 0 .07.05.1.05.13-.03.12-.15.12-.23.2.04.04.12-.02.2 0 0 .1-.1.1-.19.14 0 .06.06.03.06.08-.06.03-.11.05-.17.06 0 .05.08.01.08.06-.01.04-.05.06-.1.07l.05.13c-.04.03-.11.03-.13.08.03.02.13-.02.2-.02-.05.11-.2.13-.3.18.02.06.13-.03.18.02-.03.08-.14.07-.2.12.05.04.15-.05.19-.02-.05.12-.2.11-.3.17.05.05.13-.01.18.02-.08.12-.28.1-.42.14.08.09.26-.07.34.03.02.08-.09.03-.07.1-.1-.06-.26.03-.37.01.05.07.18.03.28.03-.02.09-.16.07-.22.12.03.04.06 0 .13.01-.02.06-.11.07-.17.1 0 .04.07.01.09.04-.12.15-.32.13-.54.17.13.06.2.01.35 0-.08.14-.39.14-.5.11.02.1.16.02.24.06-.15.13-.37 0-.61.03-.1.01-.26.11-.29-.03.2-.02.4-.04.62-.04-.24-.12-.63.06-.9-.03.18-.02.37-.08.53-.09.12 0 .27.08.36-.03l-1 .02c.08-.04.32-.12.39-.04.1-.06.2-.04.3-.06-.24-.05-.55.04-.8-.03.03-.07.1-.02.17-.03.09 0 .21-.06.33-.06.05 0 .1.05.14.05l.27-.02c.11 0 .24 0 .28-.13.07 0 .1-.01.14-.04l-.38-.1c0-.02.06 0 .07-.05-.15.02-.22-.03-.36-.04.01-.07.04-.06-.03-.09.04-.08.14-.03.25-.07.17.19.41-.06.62.07.1-.03.12-.14.15-.24-.13 0-.3.1-.41-.02-.12.03-.19.1-.35.09l-.02-.1.09-.02c-.08-.02-.24-.03-.33-.07-.02.07.04.06.08.07-.1.14-.3.07-.46.09.02.02.05.02.06.05-.18.13-.53.04-.73.03.11-.1.3.02.45-.05-.19-.04-.4-.01-.6-.08.34-.06.6 0 .92-.05-.32-.06-.73.07-.98-.09.26.02.54 0 .8-.03-.3 0-.61 0-.95-.08.1-.1.24 0 .36 0 .16.01.32-.03.48-.03 0-.04-.04-.02-.04-.04-.25.06-.57 0-.83-.04.18-.04.45-.04.7-.02 0-.08-.18 0-.2-.07-.17.08-.39-.06-.5 0l-.1-.06c.04-.06.2 0 .24-.06.37.16.89-.05 1.24.11-.01.07-.08.03-.13.03.02.06.13.04.18.07-.06.11-.32-.02-.39.07.16-.03.42.06.51-.02.04.02.2.12.22.01.11.06.21-.06.27-.15a.65.65 0 0 0 .3-.16c.01-.18-.07-.18-.17-.24-.03 0-.04.02-.08.01.27.02.13.37-.1.24-.05-.02-.02.04-.06.02l.01-.04c-.08 0-.12.1-.13.22-.1-.06-.27-.05-.33-.14.03-.03.08-.03.11-.05-.13.02-.26-.12-.42-.04-.01-.08.02-.13-.06-.16.06-.17.23-.04.38-.03.03.03.04.07.02.12.03-.02.08-.04.08-.06.02-.1-.16-.1-.2-.16.01-.07.14-.02.19-.06-.04-.06-.18 0-.16-.12.08 0 .17 0 .23-.04l-.26-.07c.06-.05.17-.05.24-.09-.04-.1-.14.03-.23-.03.02-.11.17-.04.23-.08-.02-.06-.16-.01-.19-.06.13-.13.4-.05.57-.13-.11-.07-.26.04-.4.03-.06 0-.09-.08-.17-.06.18-.16.55 0 .71-.16-.13-.01-.6.14-.63-.03.02-.02.09 0 .1-.04-.01-.07-.16.01-.13-.1.05.01.08.03.14.02.03 0 .04-.05.06-.07a.3.3 0 0 1-.17-.03c0-.05.04-.06.08-.07-.04-.05-.2.01-.19-.1l.94-.12c.04 0-.02-.02 0-.06.08-.06.28 0 .28-.13.13 0 .17-.03.3-.04.01-.05-.04-.03-.03-.08.14-.02.28-.05.4-.03 0-.07-.12-.02-.1-.1.04-.05.1.03.17.06.05.02.16 0 .17.07-.08 0-.12-.03-.19-.04.04.07.22.02.22.13-.05 0-.06-.03-.12-.02.08.19.36 0 .44.16-.04 0-.06.03-.1.03 0 .03.07 0 .1.02Zm-.5.73-.08-.01c-.06.14-.32.1-.48.06.03-.06.16 0 .24-.02-.1-.05-.26-.03-.3-.11.04-.15.2-.2.32-.27.05 0 .05.05.08.06.1-.06.24 0 .33.04 0 .06 0 .1-.04.1-.01.05.07 0 .06.03l-.02.06c-.04.01-.03-.04-.07-.03-.06.01.01.06-.03.09Zm-.83-.28c.08 0 .1-.05.16-.02-.03.07-.12.02-.1.12-.07.02-.12.08-.25.07 0-.1.05-.15.15-.16-.02.01-.02.03-.02.06.05 0 .06-.03.06-.07Zm-2.75.96c.14-.03.41-.03.52.03-.04.02-.15.02-.27.03.05.04.07.01.14.03v.07c-.07 0-.12-.03-.19 0-.01.05.05.01.03.06.07-.08.27.04.4-.02-.08-.04-.19.02-.2-.08.15-.04.35 0 .5-.03-.05-.12-.33.1-.38-.06.05-.16.25.07.3-.05-.2-.04-.6-.02-.85-.1.39-.02.94 0 1.39 0-.1.08-.29.08-.48.07.18.1.4 0 .54 0 0 .24-.34.01-.48.14.06.02.21-.04.3 0 .01.07-.04.13-.08.1-.03.12.03.1.03.2-.2 0-.43.06-.62.04-.1 0-.22-.03-.27-.08.06-.04.12 0 .18-.05-.13-.02-.29-.03-.4-.08 0-.05.05-.02.08-.03-.01-.1-.16 0-.15-.12.05-.03.14.03.2-.01-.1-.04-.17 0-.24-.06Zm.69-1.4c.12.02.26.02.35.06-.32.02-.75-.03-1.04.17-.07.03-.06.13-.16.11.14-.25.5-.35.85-.33Zm-.88-.06c-.07-.02 0-.13.04-.07 0 .04-.04.04-.04.07Zm.49-.13c.12.03.28-.1.37.05-.31-.02-.5.08-.72.14.05-.13.25-.11.35-.2Zm-.35-.03c.05 0 .09.02.1.06-.04.03-.1-.01-.1-.06Zm.77.06c.04-.01.08 0 .07.04-.04 0-.09.01-.07-.04Zm.19.14c-.1-.01-.13-.04-.24-.01.04-.1.2-.05.24.01Zm-.15-.35c-.03-.05-.12-.05-.14-.1.06 0 .1-.02.15 0-.02.03.03.07 0 .1Zm-.7.37c.11-.02.46-.2.59-.05-.3 0-.56.12-.79.24.03-.1.15-.12.2-.2Zm.9-.04c-.02 0 0-.07.05-.05 0 .04-.04.04-.06.05Zm-.21.71c-.04.02.06.02.03.08-.1.01-.28.04-.43-.05.03-.12.2-.1.31-.14v-.06c-.04-.03-.1-.03-.16-.01 0 .05.07.01.06.07-.05.02-.14.04-.19.03.01-.05.07-.04.09-.07.01-.04-.07 0-.06-.03.12-.1.5-.1.57.05.02.03.07.02.07.06-.01.1-.2.1-.29.07Zm.22.12c-.03.04-.09.05-.15.06.02-.06.07-.04.15-.06Zm-.3-.5c-.19 0-.34.03-.47.1 0-.15.35-.24.48-.1Zm-.14-.16c.04 0 .06.03.1.04-.01.03-.05.04-.1.04-.02-.01-.02-.07 0-.08Zm.2.08c-.03.01-.03-.03-.05-.03 0-.02.02-.03.05-.03v.06Zm.2.04.04-.01c-.02.1.07.1.11.17-.08-.01-.16-.07-.24-.1-.04 0-.15.04-.14-.06.09-.01.26.08.22 0Zm.15.5c0 .02 0 .03-.03.04.02.04.08.02.1.04.06-.03.03-.13.05-.16.04.04.06.01.1.03 0 .08-.08.1-.08.18l-.18.01c-.02-.04-.05-.05-.06-.1.05 0 .06-.05.1-.05Zm.15-.35c.01-.04.06-.04.1-.05-.02.04-.05.05-.1.05Zm.16.14c.02.09-.08.06-.12.09-.01-.03.04-.1.12-.09Zm.02.47c-.03.05-.1.05-.17.07 0-.07.12-.1.17-.07Zm-.06-.15c.04 0 .07 0 .07.04-.03.03-.08 0-.07-.04Zm-.06-.01c-.02-.07.05-.04.04-.1.04.02.08.03.13.02-.05.06-.08.08-.17.08Zm.13-.61h.05c0 .04-.05.03-.05.07-.05 0-.01-.04 0-.07Zm.01.39c.02.02.06.02.06.06-.05 0-.06-.02-.06-.06Zm0-.44c0-.04.12-.07.11 0h-.11Zm0-.32c.06 0 .18-.06.17.05-.04.04-.16.03-.17-.05Zm.01.18c0 .04-.03.05-.04.08-.02-.02-.04-.03-.04-.07l.08-.01Zm-.2-.07c.02-.04.08-.04.12-.03-.01.08-.07.05-.12.03Zm-.13-.26c.05-.04.12 0 .16.02-.01.05-.16.03-.16-.02Zm0 .13c.03 0 .1-.04.1.03-.05-.02-.06.02-.1.01v-.04Zm.04.24c.1.06.15.1.25.09-.05.13-.17-.01-.23-.04-.04.01.03.02.01.05-.04.04-.11 0-.14-.02 0-.06.1-.03.11-.08Zm-1.27.47c0-.06.13-.1.13-.01-.06-.02-.09.05-.13.01Zm.13.06c0 .04-.07.06-.1.03.01-.03.08-.06.1-.03Zm-.03-.26c.02-.1.12-.12.19-.17 0 .05-.12.19-.19.17Zm-.06.06c0 .05-.02.07-.07.07 0-.05.02-.08.07-.07Zm.1.36c.03-.02.03-.06.1-.05.02.03 0 .04 0 .08.06 0 .15-.02.15.05-.1.04-.3.05-.4-.02-.04-.1.1-.13.16-.06Zm.54.37c-.11-.08-.33 0-.43-.07.05-.1.2 0 .32-.04 0-.07-.11-.03-.13-.07-.07.09-.26.03-.38 0a.97.97 0 0 1 .64 0c.15-.06.38-.03.52-.04v.03c-.03.07-.2 0-.3.05.1.07.26-.01.33.05-.07.12-.27 0-.38.08.2.02.47 0 .67 0a.65.65 0 0 1-.3.1c-.16.02-.38 0-.57-.01-.26-.02-.47 0-.65-.06.17-.07.46 0 .66-.02Zm-.59-.11c.05 0 .16-.03.13.06-.04-.03-.12 0-.13-.06Zm3.94-1.35c-.04-.03-.08-.05-.1-.1-.4-.09-1-.23-1.3-.04.03.08.09-.05.13 0 0 .06-.1.04-.14.06l-.02-.06c-.11.02-.21.16-.3.12-.06.02 0 .03 0 .07l-.23.05c.15.06.3-.03.5 0-.12.14-.36.09-.57.15.17.06.31-.01.45 0-.16.17-.57.2-.79.08.1-.02.2-.04.32-.04-.06-.04-.2 0-.21-.1-.02-.04.06-.02.07-.05-.12-.03-.3.04-.4-.05.03-.1.2-.02.22-.1-.13-.02-.4-.02-.52-.1l.34-.02c-.36-.12-.87-.1-1.24 0-.02.03.03.06-.03.07-.05.03 0-.06-.04-.05-.12.02-.19.1-.32.11.13-.18.41-.2.62-.29-.18-.02-.39.08-.55.13.12-.21.5-.19.7-.27.1.04.22-.02.4 0-.37-.08-.85.05-1.17.16.1-.13.33-.2.5-.22.1-.08.32-.06.49-.1-.3-.03-.73.1-.99.22-.04 0-.03-.04-.07-.03-.02-.04.04-.04.03 0 .16-.12.39-.16.56-.27.24-.01.43 0 .68-.04-.38-.07-.76.04-1.08.16.11-.17.4-.2.62-.23l.6-.06c-.26-.06-.8.04-1.07.08.1-.13.33-.12.5-.17-.18-.03-.31.04-.48.04-.01-.07.16-.1.16-.05.32-.15.6-.12 1-.16-.4-.05-.95.07-1.3.13.17-.13.45-.15.67-.23-.1 0-.26.05-.4.06.1-.13.3-.09.45-.18-.1-.05-.2.02-.3.02.06-.1.14-.07.24-.12 0-.05-.09-.01-.09-.06.02-.05.1-.04.12-.1 0-.04-.07-.02-.06-.07.3-.13.63-.12.98-.18-.22-.04-.54.05-.7.03.02-.08.2 0 .21-.1.15 0 .45-.07.6-.03-.09-.17-.5.08-.61-.06.09.05.14-.11.25-.05.23-.09.5-.07.73-.1-.13-.04-.35 0-.55 0 .06-.17.39-.09.55-.17-.04.02-.23-.05-.23.03-.04-.01-.04-.06-.05-.1.11-.05.17-.03.3-.02.01.1.11.11.14.2-.01.04-.07.04-.09.08.11-.07.25.03.32-.05 0 .03.06.11 0 .16.05 0 .11.06.17.09.02.05-.06.03-.07.06.13.03.28-.04.44.04-.03.05-.1.05-.16.06.04.1.25-.03.3.07-.03.08-.2.04-.26.1.08.03.24.03.26-.04.02 0 .02.02.02.04.22 0 .44 0 .56.12-.14.07-.45-.12-.58.04.24-.1.54.07.79.1-.04.1-.22-.02-.3.03.11.05.27.06.34.14-.15.02-.26-.05-.38-.03.1.08.33.06.41.12-.07.06-.22.03-.29.03.04.09.22.04.26.13-.11.03-.22-.02-.33.02.1.11.26.02.4.1-.1.12-.18 0-.3.08.05.1.21-.02.25.09 0 .05-.07.04-.1.06.03.07.15.06.24.08.01.05-.04.03-.03.07-.08 0-.19-.05-.26 0 .07.06.23.02.26.1-.12.04-.3.04-.46.05.1.07.36-.05.44.1-.04.04-.08-.02-.1.03.08.03.2 0 .2.12l-.17.01Zm-4.27-1.27c-.08 0-.08.08-.13.1 0 .03.07 0 .06.06-.15 0-.1.1-.2.17-.02-.04.02-.03.02-.05-.18-.07-.26.1-.37.16.08.08.21-.08.32-.02a.31.31 0 0 1-.23.16c.2.08.24-.12.39-.15-.06.11-.26.19-.19.3.06.01.06-.03.1-.03.04.02.04.08.09.1-.03.08-.1.12-.13.2-.05-.04-.12 0-.16.01 0 .05.1-.01.07.05-.14.04-.32 0-.36-.12.05-.12.15-.2.13-.36-.15-.19.04-.45.2-.52-.19.02-.22.19-.35.26 0-.2.17-.34.3-.45-.11.04-.19.12-.27.2-.08-.08.08-.1.06-.2.1-.16.41-.08.5-.28.16.05.33-.05.48-.01-.05.06-.2.1-.27.09-.02.03-.08.04-.09.08.09 0 .11-.07.22-.06 0 .03.03.04.03.08-.07-.01-.09.04-.13.05.04.03.13-.04.2-.04 0 .11-.21.11-.3.15-.02.04.02.03.01.07Zm-.08 1.23c0 .04-.04.05-.07.06 0-.04.02-.06.07-.06ZM14.9 4.7c.03.08.07.07.03.17-.03.04-.15.08-.23.04 0-.12 0-.35-.04-.43.08-.2.12-.45.24-.64.13-.12.24-.26.36-.4.2-.12.4-.27.58-.41.18 0 .27-.15.45-.2.23-.05.51-.1.8-.1.18 0 .38-.05.55-.02l.04.05c.12.03.25.04.35.11.7-.35 1.76-.31 2.42.08 0 .03-.04.03-.05.06.17-.07.35.17.48.28-.02.07-.09.1-.13.15-.35-.23-.73-.58-1.26-.53-.05.02-.01-.05-.05-.05-.21 0-.42-.03-.7.02-.23.05-.43.18-.64.2-.15.03-.28-.06-.36-.1-.17-.05-.43 0-.64-.05-.15.05-.33 0-.45.1-.03.01-.05 0-.06-.02-.26.1-.58.15-.74.36-.28.1-.47.31-.69.48 0 .05-.03.07-.03.12l-.04-.01c-.1.2-.26.45-.19.74Zm-.29-.25c-.05 0 0-.16.02-.19.03 0 .02.03.04.03a.63.63 0 0 1-.06.16Zm.33-1.1c0-.03 0-.06-.03-.06.02-.04.12-.06.16-.03-.01.06-.08.06-.13.09Zm.13.04h-.05c-.02-.06.07-.07.05 0Zm-.01.06c.13-.12.33-.18.37-.38.04-.01.04.02.08.01.03 0 0-.1.03-.11.04 0 .05.04.11.03.02-.04.03-.08.06-.1.08.06.1-.05.13-.1.05 0 .06.08.12.04.03-.03-.01-.13.04-.15.06 0 .05.08.1.09.03-.01.03-.06.03-.1.05-.01.09 0 .1.04.04-.02.03-.1.1-.1.03.01.03.05.06.05h.03c.03-.02 0-.12.03-.14.06 0 .06.08.11.1l.04-.02c.06-.03 0-.08.05-.12.06 0 .04.08.09.1.07 0 0-.1.05-.12.06 0 .03.07.09.06.03-.02.03-.07.03-.12l.1.02c0 .06-.03.1.03.11.04-.04 0-.09.03-.13.12-.02.05.15.14.14.03-.06-.02-.11 0-.2l.03-.01c.13 0 .06.16.12.21.04-.08-.05-.23.11-.2.07.1 0 .19.06.25.05-.06.02-.15.02-.24h.04c.1.04.05.17.1.25.1-.06.03-.2.02-.3.16.02.11.17.14.33.09-.03-.03-.16.04-.23l.1.01c0 .11.02.19.04.28.1-.1-.12-.3.08-.36h.03c.01.05 0 .14.03.2.05-.04-.01-.15.07-.18.07.02.07.11.09.18.06-.06 0-.14.04-.2h.1c.02.1 0 .14.02.23.05-.06 0-.16.03-.23.07-.02.07.05.11.08.02.05-.03.03-.04.06l.07.06c-.07-.28.3-.22.3-.05.04-.02.03-.09.05-.11.1-.02.1.08.1.13.05-.02.03-.1.09-.1.05 0 .05.06.07.1.07 0 .04-.1.12-.1 0 .05.03.08.04.12.05 0 .03-.08.09-.08.05 0 .05.06.07.1.03-.01.06-.03.1-.03.07.1.24.02.3.14a3.1 3.1 0 0 0-1.86.14c-.22-.05-.4-.15-.67-.14a.4.4 0 0 1-.06-.06c-.28.05-.6.02-.91.1-.12.04-.21.12-.33.1-.28.15-.53.3-.78.47 0 .03-.04.03-.03.08-.22.1-.32.32-.5.46-.07-.1.1-.12.07-.22.09 0 .13-.06.14-.14Zm.3-.6c.03.01.06.02.07.05l-.11.07c-.04-.05.03-.08.04-.12Zm.23-.19.03-.13c.05 0 .04.16-.03.13Zm2.96-.47h.04c.02.02.02.05 0 .07-.02-.02-.04-.03-.04-.07Zm-3.7 1.64c-.03.05-.05.12-.1.15 0-.07.04-.13.1-.15Zm5.23-1.14c.04 0 .07 0 .09-.02.04.02.07.05.09.1-.06.02-.15-.03-.18-.08Zm.51.23c-.1 0-.24-.07-.3-.17.12.04.24.08.3.17Zm-.06-.2c0-.05.02-.07.07-.06.01.07-.03.07-.07.06Zm.69.8c-.1-.01-.1-.13-.2-.15L21 3.24l.15.09c-.05.1.06.1.06.18Zm-.05.06c0 .2.16.22.18.4 0 .02.02.03.06.02-.01.22.08.46.11.6-.06.09 0 .15-.05.26-.07.02-.15-.01-.2-.03-.02-.22.06-.36-.03-.5 0-.06.08-.12.04-.18-.06-.02 0 .06-.06.04-.03-.03-.05-.12-.02-.16-.02-.02-.04.01-.07-.03 0-.28-.3-.27-.3-.56.05 0 .05-.07.08-.1.12.05.14.2.26.24Zm.09.02c.02-.02.04-.02.07-.02 0 .04-.02.06-.05.06a.06.06 0 0 1-.02-.04Zm.3.6c-.06 0-.06-.06-.04-.08.05-.02.02.04.03.07Zm.01.77c-.02.03-.01.07-.06.06 0-.05.01-.07.06-.06Zm-1.53-1c0 .1-.2.05-.3.05.06-.06.18-.06.3-.06Zm-.21-.08c.07 0 .2-.08.21.03-.04.02-.2.05-.21-.03Zm.55.29c.03 0-.03-.05.01-.07.15-.01.18.1.28.13-.07-.15-.35-.17-.5-.26-.04.03.06.03.05.07-.06.01-.09-.01-.12-.03.04-.06-.02-.06-.03-.11l.05-.06c-.12-.08-.35 0-.47 0 .15-.11.44-.07.61-.06-.16-.16-.43-.04-.62-.11 0-.06.09-.04.11-.08-.12-.02-.3.1-.44.1.08-.13.3-.1.43-.21-.08-.04-.2-.02-.3.03-.01-.03-.06-.01-.05-.06.08-.01.14-.04.22-.06-.32-.03-.46.24-.75.28.02-.12.15-.13.24-.2-.04-.04-.07.05-.13.03.01-.14.2-.12.26-.1.02-.03.02-.08.06-.1-.18-.02-.23.12-.42.12-.03.04-.04.08-.1.08-.09-.11-.35.06-.4-.09.18 0 .35-.02.47-.13-.07 0-.2.05-.28.09-.04-.06-.24.03-.3-.05.06-.04.16-.03.24-.07 0-.04-.07.04-.08-.01.1-.11.3-.15.43-.22 0 .04.02.03.02.07l-.24.1c.17-.04.35-.13.51-.2.04.07.3-.1.32.05-.16.08-.39.01-.45.17.32-.15.7-.16 1.03-.06-.2.07-.4-.04-.55.01.3.05.64.03.83.18-.08.1-.23-.02-.35-.02.1.05.3.15.39.07.06.04.13.06.16.13-.02 0-.01.03-.01.04-.12 0-.3-.1-.41-.11-.02 0-.03.04-.04 0-.04.01.03.03.03.06.3.05.54.16.7.35.04.01.04.07.11.06-.02.13.16.13.12.23a1.6 1.6 0 0 0-.59-.34c.17.19.5.22.6.47.1.05.12.2.07.28-.1 0-.13-.06-.14-.15-.1-.05-.13-.15-.25-.17.15.09.25.22.32.38.04.02.08.05.1.08-.04.04-.12.03-.17.06-.05 0-.06-.06-.09-.09-.13.1-.33-.16-.32-.3a.44.44 0 0 1-.26-.18c-.12-.01-.2-.06-.27-.1-.06 0-.08.04-.13 0 .12-.09.37.03.49.08Zm-1.16-.37c.04-.04.2-.14.22-.03-.05.02-.17.06-.22.03Zm.19.13c0-.04.02-.05.03-.07.08 0 .05.09-.03.07Zm-.09.11c-.02.09-.12.03-.19.03.04-.07.13.01.2-.03Zm.22.18c-.05.05-.2.01-.26-.03.06-.1.2-.01.26.03Zm-1.2-.7c-.01-.08.1-.04.12-.02.1 0 .22-.06.28.01-.1.1-.33.03-.4 0Zm.31.1h-.06c0-.05.07-.05.06 0Zm.2-.07c-.06.02-.07.09-.15.08.01-.06.1-.1.16-.08Zm-.68-.33c0-.04.04-.05.09-.06.01.07-.03.07-.09.06Zm.35-.1c0-.06.06-.04.07-.07.04.03-.03.07-.07.07Zm.98-.08c0-.03.03-.03.02-.07.02.01.04.02.04.06-.01.01-.03.02-.06.01Zm1.44.16c-.04-.01-.08-.02-.07-.08.06-.01.05.04.11.03 0 .04-.06 0-.04.05Zm-2.88.17v.04c-.04.01-.03-.03-.06-.03.01-.04.02-.01.06-.01Zm-.24-.04c-.02.07-.06-.04-.1-.05.04-.04.07.04.1.05Zm-.08-.13c.04 0 .08 0 .07.04-.03 0-.03.02-.06.01l-.01-.05Zm.14.2c.03.02-.01.1-.07.09 0-.07.05-.06.07-.1Zm-.73.28c-.24-.07-.7.03-.89-.14-.2-.01-.3 0-.46.05-.01-.07 0-.05-.08-.07.03-.07.07-.01.12 0 .1-.03.17-.09.28-.11.17-.2.6-.2.92-.18-.1-.07-.27-.02-.35-.04.21-.15.65.03.8-.07.04.05.2-.01.19.1-.06.03-.1-.05-.19-.04.04.05.13.05.19.07-.02.03-.1 0-.13.03-.02.07.08 0 .06.06-.16.03-.33.04-.42.13.16.08.36-.1.53-.09-.1.2-.42.21-.57.3Zm.49-.08a.1.1 0 0 1-.07-.01c0-.04.08-.04.07.01Zm-.74.38c-.35-.02-.7-.16-1.04-.2-.02-.02-.02-.05-.03-.07h-.19c.1-.15.39-.15.65-.1.11.02.23.08.35.1.14.02.29-.03.38.05.05-.07.24-.08.31-.08v.03c-.1.12-.35.11-.43.27Zm.02.05c0 .06-.05.09-.1.05 0-.06.05-.07.1-.05Zm-.74.01c-.1-.04-.39-.06-.4.08-.12.04-.26.05-.3.16-.06 0-.09.03-.14.03-.05.07-.15.11-.17.22-.14-.1.13-.32.21-.4.14-.02.25-.07.32-.16-.15.04-.3.07-.38.18-.03-.12.19-.13.22-.24-.1-.02-.17.13-.28.17.05-.24.34-.28.55-.25.13.01.43.05.58.11.04.02.13.05.2.06-.08.06-.3-.02-.41.04Zm.29.54c0 .04-.07.05-.09.03.02-.03.05-.04.09-.03Zm-.8-.81c.04-.04.13-.06.16 0-.06.05-.1 0-.16 0Zm-.05-.19v-.03c.08-.05.06.09 0 .03Zm1.8.11c-.03.02-.1.16-.14.07.08.01.05-.09.14-.07Zm-1.62-.25c.04 0 .07.03.04.07-.03-.01-.04-.04-.04-.07ZM17.35 3c-.01-.04.07-.05.08-.02.02.05-.07.03-.08.02Zm.1.07c0 .04-.04.05-.08.05l-.01-.05c.03-.03.05 0 .09 0Zm-1.19 1.2c-.01.07-.08.08-.14.1l.01-.1h.13Zm-.25.8c.03-.05.08-.08.15-.08 0 .06-.08.07-.15.08Zm4.13-.13c.04 0 .08.01.08.06-.05 0-.08-.01-.08-.06Zm.07.33c.07-.03.16.02.17.09-.07 0-.2-.03-.17-.09Zm.23.4c.04-.05.1.01.09.06-.08.03-.06-.04-.09-.07Zm.3 0c.06-.05-.06-.08 0-.15-.05-.05-.05.06-.06.08-.03-.03-.1-.03-.1-.1.02-.02.06-.01.1-.01 0-.08-.06 0-.1-.05.02-.06.17-.05.22-.03-.08-.08-.3-.03-.3-.18.04 0 .08.01.11.03a.45.45 0 0 0-.16-.1c.06-.1-.06-.12-.05-.2.03-.03.04-.04.08-.02 0-.04-.05-.05-.04-.1.1 0 .13.1.22.13.03-.03-.08-.05-.03-.1-.05-.01-.06.03-.09 0 .02-.03.06-.04.07-.08 0-.03-.04-.02-.03-.07-.16.04-.26-.17-.42-.23.11-.07.2.11.3.14 0-.06-.14-.12-.17-.2-.08 0-.15 0-.16-.07.4.03.43.43.82.47.02 0 .01-.04.04-.06.05.01.07.04.11.02-.02.02-.03.06-.02.12-.04 0-.04.06-.1.06 0 .1-.08.15-.02.23-.08.05 0 .14-.05.19 0 .03.06 0 .08.01 0 .07.04.1.03.17-.09.04-.16.15-.29.1Zm1.3-1.43H22c-.02-.06.07-.06.05 0Zm-1.03-1.7c-.04-.03-.02-.07-.05-.13.06.03.03.06.05.12Zm-6.57 2.89c0-.12-.13-.22-.19-.37-.06-.17-.1-.4-.06-.56l-.03-.09c.05-.23.1-.52.26-.7-.01-.1.07-.3.15-.41.13-.2.3-.42.46-.57l.11-.07c.23-.27.65-.52.98-.67.13-.06.27-.09.38-.1a5.44 5.44 0 0 1 3.13-.03c.05.01.01-.05.06-.03.11.07.24.13.39.17 0 .02-.02.03-.01.06.4.05.68.36 1.01.54.04.06.07.12.15.13.16.24.36.44.52.68.1.3.22.68.25 1.01-.01.05-.04.08-.06.12.07.36-.13.8-.44.96-.06-.02-.09-.07-.12-.12 0-.05.03-.08.05-.11-.04-.1-.14-.19-.26-.15-.05.08.05.14-.02.18.1.05.26.1.25.21-.24.04-.32-.16-.4-.3.01-.08.06-.13.1-.2.12-.1.27-.02.38 0 .02.06.03.12.1.14-.05-.23.13-.26.22-.36-.04-.08-.04-.2-.1-.26 0-.13.1-.16.14-.25-.01-.07-.07-.1-.13-.11-.01-.14-.12-.19-.12-.32.01-.1.14-.18.05-.28-.05 0-.08.03-.13.01a.56.56 0 0 1-.2-.28c.03-.03.03-.09.06-.12-.01-.06-.05-.03-.06-.07-.08.05-.14.04-.24.01-.11-.13-.03-.23-.07-.37-.14.03-.27 0-.34-.07.03-.09.01-.2-.06-.22-.24.1-.45 0-.46-.26-.12-.05-.2.06-.3.05-.12-.02-.16-.15-.24-.24-.1.03-.13.13-.23.14-.16 0-.22-.17-.3-.28l.01.03c-.09 0-.17.13-.3.15-.06-.01-.12-.1-.18-.07a.32.32 0 0 0-.14-.16c-.04 0-.04.05 0 .05-.08.03-.16.13-.26.08 0-.09.06-.05.1-.03 0-.05-.03-.06-.02-.12-.06-.03-.12-.01-.2-.01-.02.08.1.08.06.13-.1.01-.12-.08-.18-.11-.02.12-.37.3-.44.06-.23-.05-.2.25-.47.21-.07-.04-.08-.16-.2-.15-.06.17-.16.31-.38.24-.05-.02-.14-.12-.24-.04-.02.26-.27.33-.5.24-.1.1-.24.14-.36.23.02.07.1.08.2.08-.03.1-.26.09-.34.05-.09.11-.21.2-.3.3.08.08.22-.03.29-.07-.05.17-.24.2-.42.23.11.28-.04.47-.3.53 0 .1.1.13.1.21 0 .2-.5.29-.16.48.06.23-.1.23-.1.44.08.05.2.17.22.3l-.02.07c.05.12.19.25.3.22.08-.02.18-.23.07-.28-.15 0-.1.17-.24.18-.13-.2.16-.4.35-.28.07.08.08.14.08.2-.01.04.03.09.02.1-.01.1-.11.2-.2.22-.18.04-.32-.1-.48-.15Zm1.08 2.5c-.12.05-.21.19-.38.2a.46.46 0 0 1-.41-.2c0-.03.02-.04.01-.08-.01-.07-.07-.09-.07-.17.09-.07.21-.1.3-.16.13-.07.17-.2.25-.31.03-.39-.05-.74-.27-.92-.05.08-.09.16-.17.2-.37-.04-.35-.47-.17-.75a1 1 0 0 1 .49-.04c.11.08.17.22.3.24.04.18.12.28.18.45.12.36.29.72.38 1.1.09.36.15.73.37 1-.02.14.12.24.17.36.01.04.06.04.09.06.03.15.17.2.23.33l-.01.04c-.08-.01-.04-.02-.03.05-.84.24-1.16-.8-1.26-1.4Zm1.32 2.71a.85.85 0 0 1-.57-.3.83.83 0 0 1-.18-.4c.17-.14.45-.19.6-.35.1.07.11.24.23.29-.08.16.16.2.2.35-.14.2-.54.16-.6-.07.05-.14.37-.15.26-.35l-.4.26c.07.25.52.54.76.27.12 0 .19.06.26.1-.12.16-.36.22-.56.2Zm.72 1.26c-.02.04-.08.07-.1.12-.06.09-.04.16-.14.19-.12.03-.46-.07-.49-.16.07-.13.1-.3.19-.42.22 0 .38-.04.6-.03.01.06-.02.21-.06.3Zm7.9 37.26-.08-.33.03-.12c.12.1.22.22.3.37l-.26.08Zm7.37-31.45-.04.3a.6.6 0 0 1-.16-.28l.2-.02Zm-6.97.44.14.74c-.3-.13-.48-.32-.52-.59l.38-.15Zm-7.85-5.2-.35-.4c.08-.36.31-.57.37-.95.13.1.13.26.2.43.1.2.29.36.3.61-.17.1-.27.28-.4.43-.09.02-.1-.05-.12-.11Zm-7 5.2a.43.43 0 0 1-.14-.22l-.03-.63c.1.3.15.58.17.86Zm-3 .08.14.33a2.57 2.57 0 0 1-.73-.25l.59-.08Zm-1.69.3.1.74c-.3-.14-.46-.34-.48-.61l.38-.13Zm-4.44.18c.54.12 4.84 1.51 9.95-.08V19.2l.42-.13-.1-.22-.24-.24-.08.02.01-.74a.82.82 0 0 1 .5-.6c.32-.08.63-.13.9-.15-.21.22-.47.35-.76.38l-.23.8-.38.25.04.04c.4-.13.81-.28 1.23-.45l-.01.3h.18l-.05.24.31-.13-.08-.36.07-.23-.42.18v-.26l.17-.74.39-.08.02.46-.06.16.4-.08.02.12-.27.13c.08.08.16.15.26.2l.06-.1-.05-.23c1.34-.64 2.7-1.52 4.04-2.7.46.4.92.76 1.38 1.09-.13.1-.24.21-.35.35l.48.35.68-.16-.81-.54.03-.04 1.74-.4c.1.07.14.16.15.26l-.45.22-.57.48-.09.02c.56.36 1.13.68 1.69.95l.07-.04c.3-.09.58-.14.84-.17v.07c-.16.16-.33.27-.52.32l.52.23v-.55a.97.97 0 0 0 .07-.08l-.07.01v-.01l.13-.65.39-.1.03.4-.2.6.18.56.02.03-.55-.21v.11a3.2 3.2 0 0 0-.1.43c.22.1.43.17.65.25l.06-.44-.06-.14.12.05a1.58 1.58 0 0 1-.18-.24l.39-.09.08.4-.01.03c1.66.57 3.25.82 4.67.88l.22-.36.19-.08.08.11a.94.94 0 0 1-.24.31l-.23.02c.55.03 1.07.02 1.56 0v-.6c.2-.04.37-.07.5-.11l.12.45c.02.08.06.15.1.22 1.95-.17 3.28-.6 3.56-.67 1.26 8.26-.11 15.03-2.51 20.39v.12l-.06.01-.58 1.22c.05.03.08.07.11.12a.3.3 0 0 1-.14-.07c-.45.9-.93 1.75-1.42 2.56l.02 1.32a.42.42 0 0 1-.32-.08v-.76c-.64 1-1.3 1.93-1.97 2.8l.18.55.03.73c-.14.03-.26.06-.35.1l-.08-.45c-.05-.16-.11-.3-.2-.41-.39.48-.77.94-1.16 1.37a.7.7 0 0 1 .1.23l-.14.02.02-.22a35.39 35.39 0 0 1-6.2 5.55v.02l-.25.14c-.6.4-1.02.64-1.18.71-.48-.21-3.46-1.98-6.78-5.4l-.01.48-.1.62-.27.07-.02-.4.16-.56-.12-.56v-.03C5.8 43.1-.22 33.22 1.87 18.7Z"/>
    <path d="m15.27 35.7.26.06a.75.75 0 0 1-.31.28l-.25.01.04 9.92.02-.23c.12.13.2.28.24.45l-.02.65c-.1 0-.19-.06-.24-.17l.01 1.41-.12-.06.06.32.06-.01.01 2.42v1.44l1.17.88-.03-.24a1.21 1.21 0 0 0-.34-.7l-.4-.18.56-.35.04-.97c.18.19.28.42.3.7l.27 1.1-.01.84h-.09c.94.66 1.59 1.03 1.8 1.12l-.08-.29c.1.05.21.1.31.17l-.24.12.03.1.4-.08c-.06-.06-.13-.1-.19-.14.2-.12.5-.3.88-.55l-.03-.38c.09.07.16.16.21.26.56-.38 1.28-.9 2.08-1.56v-1.43l-.07-15.63-3.39 1.18-3.25-1.1v.83a.57.57 0 0 1 .18-.11l.13-.07Zm4.94 14.5-.43.14c0-.2.02-.37.06-.52l.49.04a.98.98 0 0 1-.12.33Zm1.25.26-.17.07-.02-.45.22-.01-.03.39Zm-.5-2.38.03-.33c.12.06.23.15.32.25l-.35.08Zm.16-4.42.01.2H21c0-.09.03-.15.08-.2h.04Zm-.11-2.65a.19.19 0 0 1-.14-.13l.02-1.62c.07.3.11.58.12.84v.9Zm-.14-3.24c.04.04.08.1.1.19l-.12.46c-.06-.03-.1-.1-.1-.2.03-.17.06-.32.12-.45Zm-.34 7.6c-.1-.02-.18-.1-.23-.25.1.06.18.15.23.25Zm-.72-7.56h.26a.5.5 0 0 1-.2.26l-.1.07-.17-.06a.64.64 0 0 1 .2-.27Zm-.38 2.49.32-.86.35-.02.03.65c-.1.35-.23.57-.42.67l-.08.07-.27-.06.07-.45Zm-1.27 4.4c.12.06.2.16.24.31a.5.5 0 0 1-.24-.31Zm.02-2.8.07-.38c.08.1.13.23.15.38h-.22Zm.62 10.3-.3.14.05-.72c.14.07.26.16.36.25l-.11.33Zm-.3-2.65.06-1.88.3-.02-.04 2.02a.4.4 0 0 1-.32-.12Zm.57-3.27.16.64a.74.74 0 0 1-.45-.1l-.07-.78c.13.06.25.14.36.24Zm-.58-7.24.18-.01-.1.59-.19-.12.11-.46Zm0 1.88c-.23-.05-.37-.22-.42-.5.24.01.38.18.42.5Zm-.62 7.23-.3.08-.02-.33c.12.06.23.15.32.25Zm-.2 4.55-.16.4-.13.07-.05-.13c.04-.14.1-.25.16-.33h.18Zm-.36-8.42-.12.33-.02-.39.14.06Zm-2.29 3.8c.09.05.17.11.25.18l-.25.07v-.25Zm.45.76.18.06c-.1.24-.2.42-.33.53a1.05 1.05 0 0 1-.2-.51l.35-.08Zm-.3 2.41.03-.52c.22.1.38.29.46.56l-.48-.04Zm1-1.6c-.1-.19-.17-.4-.2-.64l-.06-.2-.08-1.87.14-.91.3 1.73.04 1.1-.14.8Zm-.4-7.31c.12.45.2.89.23 1.28.01.55 0 1.05-.03 1.5-.04-.02-.07-.09-.1-.2l-.1-2.58Zm.55-2.5c-.28 0-.44-.18-.47-.56.23.08.39.27.47.57Zm-.57.23h.05l.03.84c-.02.07-.07.12-.12.13a6.4 6.4 0 0 1-.13-.84l.17-.13ZM29.65 42.85l.39-.66a.8.8 0 0 1-.38-.07l-.1-.66c.13.04.26.1.37.19l.16.46a32.94 32.94 0 0 0 3.97-11.5l-5.82 2.04.05 10.42v1.86c.4-.57.8-1.17 1.18-1.79v-.27l.18-.02ZM33.2 31.6a.68.68 0 0 1-.35-.2c.15.04.26.1.35.2Zm-1.56 5.37a.2.2 0 0 1-.14-.1l-.04-1.4c.08.25.13.5.15.72l.03.78Zm-.26-2.8a.3.3 0 0 1 .1.17l-.1.4c-.06-.02-.09-.07-.1-.16.02-.15.05-.28.1-.4Zm-1.06.11.27-.03a.46.46 0 0 1-.2.25l-.08.06-.19-.03c.05-.11.12-.2.2-.25Zm-.28 2.17.28-.76.35-.03.06.55c-.07.31-.2.51-.39.6l-.08.07-.27-.03.05-.4Zm-1.55 6.97-.02-.28c.12.04.23.1.33.2l-.3.08Zm.2-6.79c.24 0 .38.14.43.41-.22-.03-.37-.17-.43-.4Zm.22.94c.09.09.14.2.16.32l-.22.02.06-.34Zm.04 2.76c.12.04.2.13.25.26a.43.43 0 0 1-.25-.26Zm.2-4.42-.19-.09.1-.4.17-.02c-.02.2-.05.37-.08.51ZM25.5 35.65a.5.5 0 0 0-.24-.2c.06.1.14.16.24.2M26.93 36.24c-.1-.25-.25-.4-.49-.46.05.33.21.48.49.46M26.49 37.18l-.07-.72h-.05l-.16.13c.03.22.08.45.16.72.05-.02.1-.06.12-.13M25.52 38.69l-.04-.4-.39.04c.07.23.22.35.43.36M26.8 40.82c0-.39 0-.82-.04-1.3a4.67 4.67 0 0 0-.29-1.1l.22 2.24c.02.1.06.14.1.16M31.83 39.27a.23.23 0 0 0-.07.17h.05l.07-.14v-.04h-.05ZM24.69 40.18l-.22.02a.9.9 0 0 0 .21.37v-.4ZM27.98 40.31l.11-.29-.14-.04zM24.78 41.63l.01-.4-.22-.03c.03.16.1.3.21.43M31.21 40.7l.03-.05a.63.63 0 0 0-.13-.08c.03.06.06.1.1.14M26.14 42.35l-.01-.57a.73.73 0 0 0-.26-.36l-.02.67c.05.19.14.27.29.26M26.72 42.4l.16 1.62.06.17c.04.2.11.38.23.54l.1-.69-.08-.95-.37-1.49-.1.8Z"/>
    <path d="M30.04 42.2h.07l-.02-.1-.05.1M29.65 42.85l-.18.29.01.6.3-.48v-.42l-.13.01ZM26.21 43.58a1.33 1.33 0 0 0-.37-.2l.07.28.3-.08ZM24.59 43.73l.15 1.57.22-.02-.15-1.57zM26.1 44.15c.02.17.1.31.2.43.13-.1.23-.26.32-.48l-.18-.04c-.1.04-.22.07-.35.1M27.07 45.58v.85l-.55.33.4.13c.08.05.13.1.18.17l.42-.52-.13-.37a.86.86 0 0 0-.32-.59M26.24 45.72v.45h.49a.75.75 0 0 0-.49-.45M25.61 46.51l.33-.2-.38-.3zM25.92 48.46l.02-.02-.02-.04v.06ZM34.43 26.47v.24l.14-.01a.82.82 0 0 0-.14-.23M34.44 25.67h.03l-.03-.09v.1ZM34.55 23.08l-.15-1.6-.16.02c.06.54.1 1.07.13 1.6l.18-.02Z"/>
    <path d="M30.26 20.1c-.87.07-1.87.07-2.94-.04v-.03l-.05.02h.05l-.07.62c-.2-.05-.38-.1-.54-.18l.17-.3.39-.14c-1.2-.12-2.48-.39-3.81-.87l-.02.07a3.48 3.48 0 0 1-.66-.1c0-.08.02-.15.03-.22l-.7-.31-.12.5-.38.29.28.32.22.52-.19.27-.33-.12-.03-.66.02-1.13.07-.22c-.67-.34-1.34-.74-2.02-1.2l-1.04.23c.1-.2.25-.33.44-.42l.12-.16c-.34-.26-.68-.54-1.02-.83a17.17 17.17 0 0 1-4.56 2.91l.07.3.08.2-.1.6a3.08 3.08 0 0 1-.67-.17c.04-.26.09-.5.17-.74-.3.11-.58.22-.87.31l.11.23-.18.24-.33-.1-.01-.24c-.26.08-.5.15-.75.2l.05.24c.07.28.23.48.48.61l.6.15-.84.32-.1.87c-.25-.17-.4-.37-.41-.62l-.37-.95.02-.48c-.44.1-.88.17-1.3.22a.95.95 0 0 0 .21-.27l-.07-.11-.2.06-.23.35.28-.03a.19.19 0 0 1-.03.02l-.26.01c-3.54.39-6.2-.47-6.62-.56-.57 3.96-.52 7.4-.04 10.66l1.43.49v-.16c.1.01.17.05.2.1v.12l1.18.4c.13-.2.3-.35.53-.42l.13-.06.39.04-.11.4-.2.3-.74-.25a1.5 1.5 0 0 0-.1.18l.01.27.59.2-.05.07-.52.03-.02-.3-1.11-.38-.04.84c-.1-.26-.15-.5-.16-.74v-.17l.2.07.02-.48-.2-.06-.02.47-1.36-.46a32.94 32.94 0 0 0 2.28 7.9h-.08c.04.15.12.26.22.32l-.14-.32.32-.01.02.39a.48.48 0 0 1-.2-.06c1.01 2.28 2.21 4.3 3.47 6.06v-1.86l-.05-10.43-2.58-.88.25-.4 1.38.47-.1.34.26-.01.1-.24-.26-.09.07-.19.27.1-.08.18 6.07 2.08.12.5.02-.46-.14-.05a2.56 2.56 0 0 1-.04-.35l.02-.93c.1.02.17.06.2.13l-.04 1.2 4.54 1.55 12.87-4.5a.73.73 0 0 1-.3-.32c.3-.02.5.05.6.21l-.3.11c.1.06.24.1.4.13a.57.57 0 0 0-.1-.24l2.73-.95c.16-1.14.27-2.2.31-3.4l-.17.01.03-.4c.06.04.1.09.15.14v-.1l.01-.55v-.15l-.3-.02.03-.4c.13.1.23.2.27.33 0-.81-.02-1.64-.07-2.49l-.14.02-.15-1.6.16-.01c-.07-.68-.15-1.36-.26-2.06-.23.05-1.15.35-2.54.54l.4.08-.82.37-.04.86c-.27-.14-.42-.34-.45-.59l-.27-.6c.42-.03.81-.07 1.18-.12l-.2-.03a.96.96 0 0 1-.4-.37l-.73.05v.14l.15.33ZM3.27 22.22l.26-.07.02.4-.33.02.05-.35Zm.4 6H3.6l-.01-.17h.2c-.01.07-.06.13-.13.17Zm.23-3.62a1.59 1.59 0 0 1-.47-.2l.52-.09-.05.3Zm.6 2.1c.16.02.27.09.34.21a.67.67 0 0 1-.33-.21Zm1.14-3.95-.72-.02c.04-.12.1-.22.19-.3l.64-.14c-.01.17-.05.33-.1.46ZM3.82 33.43a.28.28 0 0 1-.14-.17l.18-.4c.09.02.13.08.14.16-.04.15-.1.3-.18.41Zm1.01 2.34c.1.05.18.12.23.21a.48.48 0 0 1-.23-.21Zm1.25 5.44c-.04-.01-.07-.07-.1-.16l-.09-2.24c.13.4.2.77.23 1.11 0 .48 0 .9-.04 1.3Zm1.88 2.62-.3.07-.02-.28c.13.05.23.12.32.2Zm-.54-3.35-.12.29-.01-.34.13.05Zm-.96-3.83c-.28 0-.43-.16-.46-.48.23.06.38.22.46.48Zm-.57.2.05-.01.03.73c-.03.07-.07.1-.13.12-.06-.27-.1-.51-.12-.73l.17-.12Zm-.5-3.49-.4.02c.09-.12.19-.2.32-.24l.13-.07.26.05a.78.78 0 0 1-.32.24Zm2.6-6.13a.5.5 0 0 1-.34-.27.5.5 0 0 1 .34.27ZM7.9 29.7l-.12.35a.48.48 0 0 1-.2-.33l.32-.02Zm-.65-9.08.45-.13-.1.63c-.2-.06-.38-.13-.53-.2l.18-.3Zm-.56 5.24-.22-.57c.25 0 .47.02.66.09l.1.68c-.2-.05-.38-.11-.54-.2Zm.34-1.22.12-1.78c.18 0 .34.02.46.1l-.12 1.66-.46.02Zm.39 5.94c.33.05.53.19.6.43-.36 0-.56-.14-.6-.43Zm1.1-6.4.44-.08.02.28a1.65 1.65 0 0 1-.47-.2Zm.72 3.4.19-.3.01.35-.2-.05Zm18.72-.82a.5.5 0 0 1-.35-.26.5.5 0 0 1 .35.26Zm.04 2.46-.1.36a.48.48 0 0 1-.22-.32l.32-.04Zm-1.1-6.79c.18-.02.33 0 .46.07l-.04 1.67-.45.05.02-1.79Zm-2.07-.32.64-.17c0 .17-.03.33-.09.46l-.72.02a.73.73 0 0 1 .17-.3Zm-.37 1.21.08 1.86h-.33l-.08-1.84.33-.02Zm-.4 4.32c.16.16.25.34.28.52l-.33-.05.05-.47Zm-.29-3.59-.03.3c-.18-.05-.34-.1-.48-.19l.51-.1Zm-.72-4.77-.06.33a.7.7 0 0 1-.14-.32l.2-.01Zm.24 2.57.02.6-.16-.12.13-.01-.04-.4L23 22l-.02.2.18.13-.2.02.02-.14-.2-.14.52-.22Zm-.63 3.67c-.2-.06-.37-.14-.53-.24l.45-.09.08.33Zm-.82-.83-.26-.05c.14-.25.3-.43.5-.55.15.15.25.32.28.52-.2.02-.37.04-.52.08Zm.48-2.47-.04.54a.99.99 0 0 1-.68-.57l.72.03Zm-1.58-3.3a.52.52 0 0 1-.14-.26l-.03-.73a4 4 0 0 1 .17.99Zm-1.82 1.47.19-.08.07.13c-.07.15-.15.26-.25.34l-.26.01.25-.4Zm-1.17-1.41.14.39a2.45 2.45 0 0 1-.73-.3l.59-.1ZM17 21.33l.45-.15-.1.73c-.2-.07-.38-.15-.53-.24l.18-.34Zm-.94-2.01.1.85a.85.85 0 0 1-.48-.7l.38-.15ZM14.7 22.3l.05 1.28a.73.73 0 0 1 .12-.17l.64-.16c0 .2-.05.37-.1.53l-.65-.03v.15l-.32.02-.07-1.6.33-.02Zm-.43 3.74c.16.14.25.3.28.45l-.33-.04.05-.4Zm-.74-5 .02.51-.53-.32.51-.2Zm-.5 2.11.26-.07.02.46-.33.01.05-.4Zm.47 6.25-.59.03-.01-.4c.31.01.51.14.6.37Zm-.61-5.19a2 2 0 0 1-.54-.2l.46-.08.08.28Zm-.32-2.85-.05.46c-.33-.08-.55-.24-.67-.48l.72.02Zm-1.5 1.44c.14.17.24.36.28.56l.07.17.07 1.66-.22.81-.4-1.53-.04-.97.23-.7Zm.4 6.46c-.18-.4-.28-.78-.3-1.13-.02-.49 0-.93.06-1.32.07.01.12.07.14.16l.1 2.3Zm-.88 2.22c.41-.01.64.15.67.48-.34-.06-.56-.22-.67-.48Zm.84-.21h-.07l-.03-.74c.04-.07.1-.11.2-.13.08.28.13.52.15.74l-.25.13Zm.38-7.81c.14-.22.3-.38.5-.48.16.13.25.28.28.44-.2.02-.37.05-.52.09l-.26-.05Zm.5 2.38.03-.57c.22-.01.36.08.4.27l-.1.69a.73.73 0 0 1-.34-.39Zm.33 6.29c.14.04.26.12.34.22a.66.66 0 0 1-.34-.22Zm.82-2.04h-.06l-.01-.2h.2c-.02.08-.06.15-.13.2Zm.21-4.18a1.6 1.6 0 0 1-.47-.25l.52-.09-.05.34Zm.63 2.42c.15.03.26.11.34.25a.66.66 0 0 1-.34-.25Zm1.53 5.17-.49.88-.52.02-.03-.66c.14-.36.35-.59.63-.69l.12-.07.4.05-.11.47Zm1.36 1.26-.26.01c.05-.23.1-.43.17-.6l.26.12-.17.47Zm.04-1.92c.33.05.54.22.61.5-.36 0-.56-.17-.6-.5Zm.16-1 .32-.01-.11.4a.58.58 0 0 1-.21-.39Zm.8-1.24-1.04-3.3-2.73-.08a.8.8 0 0 1 .17.3l-.32.02.04-.32h.1a1.57 1.57 0 0 0-.1-.09v.1l-.61-.03 2.82-1.94-.91-3.21 2.66 2 2.4-1.65a1.08 1.08 0 0 1-.05-.24l-.37-1.1.03-.87c.2-.02.38-.05.52-.09l.08.53c.08.32.25.55.5.7l.59.18-.84.37-.08 1c-.07-.05-.13-.1-.17-.15l-.87 2.6.64.49v-.01l-.05-1.13.23-.8c.15.19.25.4.29.65l.07.2.07 1.54.86.64-.02.33-.89-.33.06-.27-.01-.37-.6-.45.22.97-2.53-.92h-.01l1.47-.48.96-2.83.1.17.2-.6-.4.27.1.16-2.48 3.28h-.03l.02-1.58-2.38-1.82 2.32 3.38-1.4-.48-2.47 1.71 3.9-1.15-.9 1.22.85 2.87.11-4.03.84 1.2 1.82.06.04.17h.09l-.05.19-.04-.19-1.74-.02-1.08 3.23Zm2.98-1.9.11 2.64c-.18-.47-.29-.9-.32-1.31-.01-.56.01-1.07.07-1.53.06.02.11.09.14.2Zm-.76 5.2c.42-.01.64.18.68.56a.87.87 0 0 1-.68-.56Zm.84-.24h-.06l-.04-.86c.04-.08.1-.12.19-.14.09.32.14.6.17.86l-.26.14Zm1.19-5.81a.83.83 0 0 1-.35-.44l-1-.02.05-.17.96.03-.01.15.4.01.02-.2-.4-.3.02-.17c.21-.01.35.09.4.3l-.02.16.3.22h-.32l-.05.43Zm.29 3.7-.03-.47c.32.02.52.17.61.44l-.58.02Zm.96-3.58h-.06l-.02-.16.2-.02c-.01.07-.05.13-.12.18Zm.16 2.34c.1.01.17.04.2.1l.01 1.44a2.4 2.4 0 0 1-.2-.73l-.01-.8Zm.27 2.85a.27.27 0 0 1-.14-.15l.15-.42c.1.02.14.07.15.16-.03.15-.08.29-.16.41Zm-.05-3.8.04-.46c.14.13.23.28.28.45l-.32.02Zm.39-2.96c.15.02.27.08.34.2a.66.66 0 0 1-.34-.2Zm1.22 6.61-.39.04c.08-.12.18-.2.3-.26l.13-.07.26.03a.75.75 0 0 1-.3.26Zm.5-2.23-.44.8-.52.04-.06-.57c.13-.32.32-.53.6-.63l.12-.07.4.02-.1.41Zm.41-5.33-.25-.55c.25-.02.47 0 .66.05l.14.68a2 2 0 0 1-.55-.18Zm1 6.34-.25.03c.04-.2.09-.38.14-.53l.27.09-.16.41Zm-.02-1.66c.33.03.53.16.62.4-.35.02-.56-.12-.62-.4Zm.75-6.46.45-.1.03.29c-.18-.04-.34-.1-.48-.19Zm2.86 2.49c.07.01.12.07.15.16l.22 2.28c-.2-.4-.33-.77-.37-1.12a8.01 8.01 0 0 1 0-1.32Zm.43 4.44-.07.01-.07-.74c.04-.07.1-.11.19-.13.1.27.16.51.2.73l-.25.13Zm.95-5.09a.73.73 0 0 1-.36-.37v-.57c.22-.02.36.06.43.25l-.07.7Zm1.02 3.12-.58.06-.04-.4c.32 0 .52.11.62.34Zm-.4-8.35.04.5-.55-.28.5-.22Zm-.49 3.2c-.2-.03-.38-.1-.54-.17l.45-.1.1.28Zm-.33-.77-.52.1-.26-.02c.13-.23.29-.4.48-.5.16.11.26.25.3.42Zm-.13-2.05-.03.46c-.33-.07-.56-.22-.7-.45l.73-.01Zm-1.43 1.51c.16.16.26.34.31.55l.08.16.16 1.65-.18.83-.47-1.51-.1-.97.2-.7Zm-1.56 4.87.16-.3.03.34-.2-.04ZM28.53 19.63h.02-.02"/>
    <path d="M14.91 39.06a.55.55 0 0 0-.23-.25c.06.12.14.2.23.25M14.8 42.57l-.02-.45-.4.02c.07.26.2.4.42.43M13.88 44.69l.02-.46-.22.01c.04.17.1.32.2.45M13.93 45.92l.03-.46-.23-.05c.02.18.09.35.2.5M15.01 45.97l-.04.55.04.15v-.7ZM13.64 48.33l.07 1.82.23-.01-.08-1.82zM16.2 53.07l.04.28c.07-.03.16-.05.26-.07l-.3-.21M14.53 51.6l.34-.2-.37-.38zM19.46 54.18h.01l.24-.17c-.01-.16-.05-.3-.12-.41l-.18.12.05.46ZM14.97 35.89c-.06.04-.1.1-.14.17l.14-.01v-.16ZM13.83 35.64c0-.1-.05-.17-.14-.2l-.17.47c.02.1.07.16.13.2.09-.14.15-.3.18-.47M22.8 34.92a.65.65 0 0 0-.33-.25c.07.1.18.19.34.25M21.65 18.4l.46.22.1-.43c.06 0 .12-.02.17-.04a11.2 11.2 0 0 1-.38-.18.87.87 0 0 0-.35.42M13.23 19.06a.61.61 0 0 1-.1-.18l-.01.23.1-.05M23.86 18.74l-.28-.1c.07.08.14.14.23.2l.05-.1ZM10.02 35.1a.46.46 0 0 0 .2-.24l-.26.01a.57.57 0 0 0-.2.23l.17.05.09-.06ZM11.12 34.99a.3.3 0 0 0-.1-.16c-.05.1-.1.24-.12.4.01.08.04.13.1.16l.12-.4ZM8.82 35.93h-.18l-.12.4.18.11.12-.5M11.15 36.84a3.28 3.28 0 0 0-.12-.72l-.03 1.4c.03.06.07.1.14.1l.01-.78ZM10.27 36.82l-.03-.56-.35.02-.32.74-.07.4.26.04.1-.06c.18-.08.32-.27.4-.58M8.62 37.57c-.03-.28-.17-.42-.42-.44.06.25.2.4.42.44M8.3 38.42h.22a.55.55 0 0 0-.14-.34l-.08.34ZM11.25 40.1v-.18h-.05a.22.22 0 0 0-.08.18h.13ZM8.28 40.84c.04.13.12.22.23.27a.43.43 0 0 0-.23-.27M10.41 41.2c.05.11.13.19.23.21a.49.49 0 0 0-.23-.21M8.81 42l.07.67c.13.07.28.1.45.09l-.16-.56c-.1-.08-.22-.15-.36-.2M8.6 45.04c.07.07.18.1.3.1l.06-1.75-.3.02-.07 1.63ZM11.08 43.47l-.03.28.35-.07c-.09-.09-.2-.16-.32-.21M9.86 45.71l.43-.13c.06-.08.1-.17.12-.29l-.48-.03c-.04.13-.07.28-.07.45M11.35 45.48l.02.39.17-.06.03-.34zM11.5 49.48l.01-.25c.05-.2.09-.4.1-.62-.14-.07-.29-.12-.44-.15l-.07.5.04.14.37.38M14.69 23.75h.07v-.16a.92.92 0 0 0-.07.16M10.53 19.62l-.01.27.57-.13-.04-.22a3.6 3.6 0 0 1-.52.08M13.13 18.82h-.02l.01.06v-.06ZM13.26 19.05l-.03.01.02.04.01-.05Z"/>
</svg>