<svg xmlns="http://www.w3.org/2000/svg" width="420" height="88" fill="#1D1D1B">
    <path d="M223.6 57c-.3.7-.4 1.3-.4 1.8 0 2 1 3.3 3 3.3 2.4 0 4-1.2 6.3-3.6l1.1-1.1c.2 3.5 3.1 4.6 6.3 4.6 5.4 0 10.6-4.3 10.6-9.5.9 1 1.9 1.7 3.1 1.7.4 0 .8 0 1.1-.2l-4.3 7.5 5-.2c1.3-3.1 8.2-12.2 10.8-12.2.6 0 1 .4 1 1 0 2-4.6 4.8-4.6 8.4 0 2 1.2 3.4 3.3 3.4 2 0 3.8-1.2 5.8-3.3 1.9-2 3.8-4.4 5.4-6.6l-.3-.2c-.9 1.2-3.2 4.3-5.4 6.5-1.5 1.5-3 2.7-4 2.7-.6 0-.8-.5-.8-1 0-2.2 4.8-6 4.8-9.3 0-2-1.5-2.9-3.3-2.8-3.6 0-7.5 4.8-10 8v-.1c1.6-2.5 3.2-5 5-7.5l-5.2.3-2.8 4.8c-.5.2-1 .4-1.5.4-3.7 0-2.8-5.9-9.1-5.8-5.1 0-10.8 3.4-10.9 8.9-1.9 2.2-4 4.2-5.6 4.2-.6 0-.8-.5-.8-1.2 0-1.8 3-6.5 6.2-11.5l-5.3.2c-1.7 3-3.2 5.4-4 7.3l-1 1c-2.5 2.4-5 4.1-7.1 4.1-2.1 0-3.2-1.4-3.2-3.5 0-3.4 3.3-8.7 5.3-8.7 1 0 1.2 1 1.2 2.6l-.1 2.1h.3c2.1 0 4-1 4-3 0-1.6-1.6-2.4-4-2.4-4.3 0-10 3.2-11.2 8-2.2 2.5-4.9 5.1-6.4 5.1-.5 0-.8-.2-.8-.9 0-2.5 5.4-9.5 6.6-11.7l-5.3.1c-4 7.7-8.3 12.3-10.3 12.3-.5 0-1-.4-1-1 0-1.2.8-2.7 5.4-9.7l1.3-2-5.3.2c-.8 1.5-4.3 6.2-5.1 9.3-1.9 2-3.8 3.5-5 3.5-.4 0-.8-.3-.8-.8 0-2.6 4-8.3 13.7-24.5l-5.4.3c-5.2 9-8.4 14.2-10.2 17.5-.4.2-.9.3-1.3.3-3.7 0-2.8-5.8-9.1-5.8-4 0-8.5 2.2-10.2 5.9h-.4c-.8 0-1.7-.2-2.6-1.1l.2-1.8c0-1.7-.8-3-2.6-3-1.3 0-2.2 1.3-2.2 2.6l.3 1.5C150.4 57 147 62 144 62c-1 0-1.5-.7-1.5-1.7 0-3 4.6-8.8 6.1-11.5l-5.2.2c-1.9 3-3.4 5.3-4 7.3l-.6.6c-2.7 2.6-5.4 4.5-7.7 4.5-2.2 0-3-1.7-3-3.5 0-.4 0-1 .2-1.4 2.6-.7 10.3-2.2 10.3-5.7 0-1.6-1.7-2.4-4-2.4-4.7 0-11.2 4.4-11.2 9.6 0 3 1.9 4.5 5.2 4.5 3.9 0 6.8-1.7 10.2-5l.4-.4v.9c0 2.7 1.6 4.5 4.6 4.4 5 0 10.8-3.7 12.2-8.8.8.7 1.7 1 2.7 1h.2c-.3.9-.5 1.8-.5 2.8 0 3.7 3 5 6.3 5 5.4 0 10.6-4.4 10.6-9.5.9 1 1.9 1.6 3.1 1.6l1-.1a11.4 11.4 0 0 0-1.7 5.2c0 1.5 1 2.7 3 2.7 2.3 0 4.6-1.7 6.5-3.7v.5c0 1.8 1 3.2 3 3.1 2.7 0 5-2.3 7.2-4.8 0 .5-.3 1.1-.3 1.7 0 1.6 1 3.1 3.1 3.1 2.7 0 5.6-2.6 8-5.3l-.1 1c0 3 2.6 4.3 5.2 4.2 3.3 0 5.7-1.1 8-3l2.3-2.1m21.4-8.6c1 0 1.5.7 1.5 1.9 0 3.4-4 11.3-7.5 11.3-.9 0-1.4-.7-1.4-1.9 0-3.4 4-11.3 7.4-11.3m-111.1.5c.7 0 1 .3 1 1 0 2.4-2.4 5.2-6.5 6.2.4-2.1 3.3-7.2 5.5-7.2m30 13c-1 0-1.5-.7-1.5-1.8 0-3.5 4-11.4 7.4-11.4 1 0 1.5.8 1.5 1.9 0 3.4-4 11.3-7.5 11.3"/>
    <path d="M231.5 40.7c0 1.5 1.1 2.6 2.6 2.6 1.4 0 2.5-1.1 2.5-2.6 0-1.4-1.1-2.5-2.6-2.5a2.5 2.5 0 0 0-2.5 2.5M246.4 44.1c-1.1.8-1.6 1-1.6 1.3 0 .3.1.4.4.4.8 0 6-2.8 6-4.8 0-.8-.7-1.3-1.4-1.3-1.8 0-.5 2.5-3.4 4.4M315.6 56.5c-2.6 2.5-5.4 4.4-7.6 4.4-2.3 0-3-1.7-3-3.4l.1-1.5c2.6-.6 10.3-2.2 10.3-5.7 0-1.6-1.7-2.4-4-2.3-4.4 0-10.4 3.8-11.1 8.5l-1.8 2c-1.6 1.5-3.2 2.6-4 2.6-.7 0-1-.4-1-1 0-1.5 1.3-3.8 13.6-24.3l-5.3.3-8 14.4c-.3-1.4-1.3-2.5-2.9-2.5-5.3 0-11.4 4.7-11.3 10.3 0 2 1.1 3.8 3.4 3.8 3 0 5.1-1.8 6.8-4h.1l-.2 1c0 1.7 1.2 3 3.1 3 1.8 0 3.5-.9 5.6-3 .7-.6 1.3-1.2 1.8-1.9v.3c0 3 1.9 4.5 5.2 4.5 4 0 6.8-1.7 10.2-5 1.7-1.6 3-3.3 4.2-4.9l-.3-.2c-.9 1.3-2.2 2.9-3.9 4.6m-4.9-8.1c.7 0 1 .4 1 1 0 2.4-2.4 5.3-6.5 6.2.4-2.1 3.3-7.2 5.5-7.2m-25 12.1c-1 0-1.4-.8-1.4-1.9 0-3.4 4-10.1 7-10.1 1 0 1.4.7 1.4 1.8 0 2.8-3.6 10.2-7 10.2M419.2 52c-3.7 4.9-7.4 9-9.4 9-.5 0-.9-.3-.9-1 0-2.6 5-9.2 6.6-11.6l-5.2.2-1 1.9C409 49 408 48 406 48c-4.7 0-8.3 2.8-10 5.8l-.6.1c-1.2 0-2-.5-2.5-1l.2-2c0-1.8-1-2.8-2.4-2.8-1.5 0-2.4 1.3-2.4 2.6 0 .5.2.9.3 1.3-1 3.7-4.4 9.7-8 9.7-.8 0-1.4-.5-1.4-1.3-.2-2.2 2-5.4 13.6-24.5l-5.3.3c-7.6 12.5-10.7 17-11.6 19.6-2.2 2.7-5 5.5-6.6 5.5-.4 0-.8-.2-.8-1 0-2.5 5.4-9.5 6.7-11.7l-5.3.2c-4 7.7-8.4 12.2-10.3 12.2-.6 0-1-.4-1-1 0-1.2.7-2.6 5.4-9.7l1.2-2-5.2.2c-1 1.8-5.4 7.7-5.4 10.6 0 1.8 1 3.2 3 3.2 2.7 0 5.1-2.4 7.2-4.9v.1a5 5 0 0 0-.2 1.6c0 1.6.9 3.1 3 3.1 2.8 0 5.7-2.7 8.1-5.5v.8c0 3 2 4.7 5 4.7a13 13 0 0 0 12-9c.6.7 1.6 1.2 2.6 1.2h.5a7.7 7.7 0 0 0-.9 3.3c0 3 1.3 4.4 3.6 4.4 2.6 0 4.7-2.1 6.3-4v.1c0 1.4 0 3.9 3.4 3.9 3.8 0 7.2-5 11.1-10h-.2ZM401 60.5c-1 0-1.2-1-1.2-1.9 0-3.4 3.7-10.1 6.7-10.1.9 0 1.7.5 1.7 1.6 0 4.4-5.2 10.4-7.2 10.4Z"/>
    <path d="M366 64.5c-1.8 3-14.2 17.8-26.5 16.4A11.4 11.4 0 0 1 329 69.6c0-19 20-38.5 35.6-38.5 3.3 0 7 .8 9.2 5.3 1.3 2.5.8 4.1 1.5 4.8.9 1 1.5-12.1-12-11.6-16.6.5-42.9 19.4-42.8 37.6 0 10.3 5 16.1 17 16.2 12.6.1 25.4-11.4 28.7-18.3.4-.7.4-1.4-.1-.6M142.7 77.3s-3.7 3.2-7.8 3.1c-3.7 0-10.8-4.5-12.9-12.9-2.4-9.4-9.7-13-9.3-13.2 0 0 10.5-1 17.1-11.8 5.5-8.8.6-16.4-5.5-18.9h-.2l-.2-.1c-.6-.3-1.2-.4-1.9-.5-13-3-29 4.5-27.1 4.6 1 0 12.1-4.3 21.6-4.1-9.3 3-15.9 13.8-22.8 26.9C88 61 83.4 73.6 77 77.2c-3.4 2-7.2 2.1-9.4 1.8-4.8-.3-7.5-6.4-8-6.2-.3.2 0 .7.3 1.3.5.7 1.9 2.6 2.7 3.3 3 3 8.1 3.3 12 2.5 3.3-.7 5.7-2.3 7-3.2 7.1-5.5 13.9-17.2 17-22.4 8.2-13.5 13.6-28.6 20.2-30.1 1-.3 1.8-.3 2.6-.2a7 7 0 0 1 2.3 1c2.2 1.8 3.2 5.3 3.1 8.6a25 25 0 0 1-.6 4.4c-3.7 13-14.8 15.5-14.7 15.5 0 0-9-5-9-1-.1 3.2 8.7 2.2 8.7 2.2s1-.4 2 5c.8 4 .5 6.2 2.2 9.9 3.6 7.8 12 11 14.6 11.5 2.6.5 7 .4 10.3-1.6 1.4-.8 2.5-1.7 2.5-1.7s.2-.2.1-.4l-.3-.1m-37-23.4c-2-.2-3.2-1.5-2-2.2 1.5-1 6.8 2 6.8 2-1.4.3-3 .4-4.8.2M26.8 12h-.2.2M27 12h.2c-.1 0-.2-.1-.2 0M26.8 11.8h.5-.5M26.4 10.3h-.2c0 .1.2 0 .2 0M22.5 6.6s-.1.2 0 .2v-.2M22.7 5.8c-.1-.1-.2 0-.2.2.2 0 .1-.2.2-.2M23.2 4.8c-.2 0-.2.2-.3.3.2 0 .3-.1.3-.3M32.7 3.6h-.2s.1.1.2 0M25.3 3H25c0 .3.3.2.3 0M31.3 2.8h-.4s.3.3.4 0M30.5 2.6H30s.3.3.4 0M26.9 2.7s.2-.2 0-.2h-.2c0 .2 0 .2.2.2M27.9 2.4l-.3.1h.3M29.6 2.5l-.5-.1c0 .2.5.3.5 0M32 3.2c-.1 0-.2-.2-.3-.1.1.1.3.3.4.1M26.1 2.8v-.1l-.3.1h.3M30.4 9.7l.2-.1h-.3.1M29.5 14.2h.1c0-.1-.1-.1-.1 0M29 14s.1.2.1 0H29M29.8 13.9h-.2.2M29.1 13.6h-.2c0 .1.2 0 .2 0M28.3 13.4s.2.1.2 0h-.2M29.2 13.5v-.1.1M30.2 13.2h-.1.1M30.4 13c0-.2-.1 0-.2 0h.2M28.5 13l.4-.2-.4.1M27.7 12.7h.4-.4M27.6 12.3h-.7l.2.1h.5c.1 0 0-.1 0-.1M30.6 12.2h.1-.1M28 11.8c-.3 0-.2 0 0 0M28.7 11.4h.4c0-.2-.3 0-.4 0M31.2 11.1l-.2.1h.2M29 11h-.3c0 .2.3.2.3 0M28.8 11c0-.2-.2-.1-.2 0h.2M29 10.8h-.2c0 .2.2.1.1 0M31.3 10.8l-.1.1h.1M29 10.8h.2-.1M28.6 10.7h.2-.2M29 10.4h.2-.2M29.2 10.2h.1s-.1-.1-.1 0M28.9 10h-.4.4M29.3 10c-.2 0-.3-.1-.4 0h.4M29.7 9.5l-1.1.1 1.1-.1M31.5 9.3h.2-.2M30.9 9c0 .2.2.2.4.2 0-.2-.3 0-.4-.1M30 9.1h.3-.4M30.7 8.9h.4-.4M27.6 8.6h.2c0-.1-.2 0-.2 0M27.2 8.3h-.1.1M26.1 8.3h.2-.2M26.7 8.3h-.2.2M27 8.2l-.2.1h.3l-.2-.1M31 8.2h.2s-.1-.1-.1 0M27.2 8.1h.1-.1M31.3 7.9s-.2-.1-.2 0h.2M27.3 8c0-.2-.1-.2-.2-.1h.2M26.7 7.9h.3-.3M31.1 7.7H31h.1M30.7 7.7h.1-.1M27.2 7.6H27s.2.1.2 0M27.7 7.5c0-.1-.1 0-.1 0M27.3 7.5h.2-.2M27.5 7.2h.1-.1M27.4 7.2h-.2.2M26.3 7.3h.8c-.2-.1-.6 0-.8 0M30.6 7.2h.2-.2M30.3 7.2ZM30.6 7h.2c0-.1 0 0-.2 0M30.3 7h.2v-.1l-.2.1M27.4 6.8h.1-.1M26.5 7l.2-.1.5-.1h-.7V7M30.3 6.8c.1.1.2 0 .2 0h-.2M30.9 6.7h-.2.2M26.6 6.6s-.2 0-.1.1M26.7 6.7l.8-.1h-.8M27.8 6.6h.1M30 6.6v-.1M27.5 6.4h.1s-.1 0 0 0M26.6 6.5c.4 0 .7 0 .9-.2-.4 0-.6 0-1 .2M28 6.4h.1c.1 0 0-.1 0 0M26.5 6.2h-.1.1ZM26.5 6.3l1-.2c-.3 0-.7 0-1 .2M27.9 6.2c0-.1-.2-.1-.2 0h.2M28 5.8V6M28.4 5.7h.1M33.2 14.9c-.1-.3 0-.5-.2-.6 0 .2 0 .5.2.6M36.2 14.2l.2.1-.2-.1M37.1 14s.1.1 0 0h-.3c.2 0 .4.3.6.4 0-.2-.1-.4-.3-.3M34.6 14V14v.1M23.8 14.3V14l-.2-.2c.2.1 0 .4.2.5"/>
    <path d="M37.1 15c.1-.2.5-.3.6-.4h.2s0 .1 0 0l.8-.2c0-.2 0-.4-.2-.4v.2c-.2.2-.4 0-.5-.3h-.2.1c0-.1 0 0 0 0l-.1-.2c0 .3.2.3.2.5l-.3.1-.1.2-.2-.1c0 .1-.2 0-.3.2 0-.2-.3 0-.5 0-.2.1-.3.4-.5.4v.1c.3.3.7-.1 1-.2M37.9 13.3l.1.1-.1-.1M36.3 13.8c0-.2-.2-.4-.4-.6v.1h-.1c.3 0 .4.4.5.5M37.5 13.3l-.2-.1.3.3c0-.1-.1-.1 0-.2M38.4 13.2l.3.2-.3-.2M36.8 13.4c0-.2 0-.2-.2-.2 0 0 .2 0 0 0 0 .2.3.3.4.5 0-.2-.1-.2-.2-.3M32.5 13.1s0-.1-.2 0h.2M21.5 14.2s.1-.2.3-.2l.5.4c.3-.1.3-.6.6-.7l.2.1.2-.3c.2 0 .2-.5 0-.5 0 .3 0 .7-.3.6-.3-.1-.2-.5-.4-.7 0 .5.2 1.2-.4 1.3-.1-.1-.3-.2-.3-.4 0-.1 0-.3-.2-.3 0 .2 0 .5-.2.5-.3 0-.2-.2-.4-.3v.4l.4.1M40 12.6v.2c.1 0 0-.2 0-.2M39.6 12.6h.3-.3M39.6 12.6h-.2.2M39 12.5h.2-.2M37.1 12.5l.1.2v-.2M39 12.5l-.3-.1.3.1M36.2 12.8l-.6-.7c.1.2.2.4-.1.5L35 12v.3c.1.1 0 0 .2 0 .1.3.5.5.4 1h-.2c-.2 0-.7-.5-.7-.8l-.2-.2v.3c.2.2.4.5.4.9-.4.2-.5-.3-.6-.5l-.2-.1.5 1v-.3l.3.1c.2 0 0-.4.2-.5v.2c.2 0 .5.1.5-.1.2-.2 0-.4 0-.6h.3l.3.1M38.6 11.9h.2-.2M36.5 12.7l.4.3h.3-.1c-.1 0-.2-.2-.3-.1v-.2h-.2c0-.2-.2-.4-.3-.5 0 .2.2.2 0 .3l.2.1c-.2 0 0 .1-.1 0l-.1.3c.2 0 .2-.1.2-.2M36.3 12.2s-.1-.1 0-.2l-.3-.1c.1 0 0-.2 0-.2h-.1v.2c.1 0 0-.1 0-.1h.1c0 .2.3.2.3.4M38.3 11.7h-.5.7c0-.1-.3 0-.2 0M36.9 12c0-.2-.3-.2-.3-.3l-.3-.1.3.1v.1l.5.6h.4c-.2 0-.4-.3-.6-.4M38.5 11.6h.1v-.1s-.1.1 0 .1"/>
    <path d="m40 12.9-.1.2c-.1 0 0-.2-.1-.1-.1 0 0 0 0 .1V13h-.2v.1c-.2 0-.1 0 0 0H39l-.6-.2s.1 0 0 .1h-.1c-.1-.2-.4 0-.4-.4h.1v-.2c.1-.2.4 0 .6 0-.2-.2-.5 0-.7-.2V12l-.3-.2v-.2h.1l-.6-.3.1.2c0-.1 0 0 0 0 .3.2.6.5.7.8 0 .1-.3 0-.4 0 0 .2.2.1.2.2.1.3.4.3.5.5h.2c.2.2.8.1 1 .5-.1.2-.6.2-.8.2-.3 0-.5-.3-.7-.4.2.2.3.5.5.4v.2l.1-.1c.3.2.7 0 .9 0v-.6c.1-.1.5-.1.6-.4M19 13.2c.2.2.8.2 1 0v.2c.6.4 1-.3 1.2-.6l.1.2v.4h.3c.2-.2.5-.5.3-.8 0 .2-.2.5-.5.4-.2 0 0-.3-.2-.5v.1c-.2.1-.2.3-.3.4a2 2 0 0 1-.3.3c-.3 0-.5-.1-.5-.3 0-.2.3-.2.4-.4-.4.1-.8.7-1.4.5 0-.5.3-.9.7-1.1-.3 0-.5.2-.7.4-.2 0-.4.2-.7 0-.1-.1.1-.3.3-.4l.5-.5c-.2 0-.4.3-.6.5-.2.1-.4.2-.4.5.3.2.6 0 .8.2v.5M36 11.5l.7-.1H36M40.2 11.2h-.4c.1.2.3.1.4 0M40.3 11.2h.2c0-.1-.1 0-.2 0M37 11H37h.1M39 11.2l-.4-.1c0-.2.3-.2.4-.4-.3 0-.6.3-.8.3h-.4l-.1-.2c.2.1.3.4.5.3.1 0 0 0 0 0l.4.4-.1-.2v-.1l.3.1h1l-.7-.1"/>
    <path d="m35.5 11.3-.6.2-.2.2h.4c.2-.1.4.1.4.2v-.2s0 .1 0 0l-.3-.1.2-.1h.5l-.4-.1c.2-.2.4-.1.6-.1 0-.2-.2 0-.2-.1.2-.3.7 0 1-.2H36c.1-.2.3-.1.4-.2h-.3c0-.2.3-.2.5-.2h-.3c0-.3.3-.1.4-.2l-.7.1c0 .1.1 0 .1 0 0 .2-.2.2-.4.3h.3c-.4 0-.5.3-.6.5M39 10.5l-.3-.2c-.1 0 0 0 0 0s-.2.1-.2 0c0 0 .1 0 0 0h-.2l.9.2s-.1-.1-.1 0M41.4 10l-.2.1h.2M39.5 10h-.2.2M41.3 10h-.1.1M41 10h-.2.3"/>
    <path d="M36.3 10.2s-.2 0-.2.2c.5-.3 1-.2 1.4.1-.2.2-.6.1-.8.1.2.1.5.1.5.3 0 0-.1.1-.1 0 0 .2.3.2.3 0l-.1-.1c0-.2.2-.2.3-.3l-.1-.2s.1 0 0-.1c-.4.2-.7-.1-1.1 0 0-.2.3-.1.4-.2-.2 0-.6 0-.7.2h.2M36.7 9.8c-.2 0-.3 0-.5.2.2 0 .4 0 .5-.2M36.8 9.8h.3-.3M40 12.4c0 .1-.1 0-.2 0l.2.1M41.4 10.5h.6c.4 0 .7-.3 1-.4h.7l-.2-.4h.1c-.1-.2-.5 0-.6 0 0 0 .2 0 0 0l-.6-.1c.2.3.9 0 1 .4h-1.6c0-.1-.4-.1-.4 0 .2.1.7 0 1 .2-.5.2-1 0-1.5 0 0 .2.3.1.3.3-.3.3-1.1.3-1.4.2l-.2-.1c0-.1.2 0 .1-.1h-.3c0-.2.3-.2.3-.3l-.5.2.3.2c.1.2.4.2.7.2.1.1.5.1.5.4 0 .2-.3.3-.5.3l.1.2-.3.3h-.5l-.7-.1h.3c.2.2.6.2.7.5 0-.1 0 0 .1 0l-.2-.3c.3 0 .8 0 .7-.5.2 0 .4-.1.5-.4l-.2-.3.3-.1c.2 0 .3-.3.4-.3"/>
    <path d="M41.2 10.1h-1c-.1-.2-.4 0-.5-.2h1l-.9-.1-.5-.1h1.3c-.7-.1-1.3 0-2-.2h.1-.7c-.1.3-.5.4-.8.4 0 .2.4 0 .5.2 0 0-.1 0 0 .1l.3-.1c0-.1-.3 0-.3-.2l.5-.1s-.1 0 0 0h1c.1.2.5 0 .5.2h-.2c.1 0 .2.2.4.1l.6.2h.4c-.1 0-.2 0-.3-.2h.6M17 12c.8.2 1.5-.3 2-.5h-.7c-.4.2-.7.4-1 .3H17h.2c-.1.2-.4.1-.5 0v-.1c.4-.3 1-.4 1.6-.7-.4 0-.8.3-1.1.4h-1.3V11c.7-.1 1.3-.2 1.7-.6-.1 0-.4.2-.5 0-.5.3-1.2.4-1.6 0 .2-.3.6-.4.9-.7H16l.5-.3c-.3 0-.6.4-.9.5 0 0-.2 0-.1.1-.4 0-1 .4-1.2 0l-.2.2c.2.3.8 0 1 0v.3c.3.2.7.3 1.1.3-.2.2-.6.2-.7.4l.1.2c.2.1.7 0 1 .2-.2 0-.3.1-.2.3h.6M39.4 9.2h.3-.3M39.2 9.2c.1 0 .2.1.2 0h-.2M39.2 9.2h-.7L38 9H38c-.1 0-.3 0-.2.1h1.4M40.3 9v.1l-.6.1.7-.1"/>
    <path d="M13.2 9.8v.3c.3.2.8 0 1 0 .6-.3 1.1-.6 1.5-1-.1-.1-.2.1-.4.1-.3.4-1.1.7-1.6.7h-.3v-.3l-.2.2M46.5 8.7h.4-.4M19.2 8.7H19h.3M37.6 8.6h-.2.2M17 8.5l.1.1h.2l-.3-.1M37.3 8.4h.2-.2M18.6 8.3h.5-.5M45.7 8.2c0-.1 0 0-.1 0l-.1-.1s.1.1.2 0M38.6 8.1h-.1.1M45.2 8c0 .1.2.2.2 0h-.2M39.7 8.2c0-.1-.3-.1-.4 0 0-.2-.4-.2-.5-.1.4 0 1 0 1.3.2h.1l-.2-.1h-.3M19.1 8.2h.3-.3M44.9 8h.2-.2M17.5 8.2h1.6a4 4 0 0 0-1.6 0M44 8c0-.1-.1-.1-.1 0h.1M38 8h.5-.4M13.5 8c0 .1.2 0 .2 0-.3 0-.8.3-1.1.4h.1-.2s-.1 0 0 .1c.3 0 .7-.2 1-.4M12 8.6h.4c-.1-.1-.3 0-.4 0M37.7 7.9c.2 0 .4 0 0 0M20.3 8h-.1.1M46.9 7.8h-.5l.6.1-.1-.1M46.2 7.7H46l.3.1M37.7 7.8h.1-.1M38.3 7.7h.2-.2"/>
    <path d="M16 9c.5.2 1 0 1.5 0v.2l-.2.3c0 .2.5.1.6.4 0 .1-.3.2-.3.4 0 0 .2 0 .2.2h.7c0 .2-.2.2-.1.4l.4.3h.5c0-.1-.4 0-.4-.2l.3-.2v-.1l-.6.1.2.1-.3-.1.5-.4c-.3 0-1 .2-1.1-.1h.3c-.2 0-.2-.2-.3-.3l.7-.4c-.4 0-.9.1-1-.2l.5-.1h-.3c.1-.2.4 0 .5-.1-.1-.2-.5 0-.6-.1l.5-.1h-.4c.1-.2.4 0 .6-.2h-.1v-.1h.3H17l-.8.1h1c.1 0 .2-.1.2 0-.4 0-1 .2-1.4 0 0 0 .2 0 .2-.2.2 0 .4 0 .5-.2l-.4.1h-.7c0-.1-.4.1-.4 0 0-.3.5-.2.7-.4-.5.1-1 .2-1.5 0 .1-.2.5-.2.6-.3-.3 0-.6 0-.9.3.1.3.6.2.8.3v.2c0 .4 1-.1 1 .3M46 7.7h-.3.2M41 7.8l-.5-.1h.5M45.6 7.6h-.1.1M44.4 8v-.3l-.1-.1v.2L44 8c.1.1.3 0 .4 0M40.4 7.7s-.3-.2-.4-.1c.2 0 .3.1.4 0M43.8 7.6h-.2l-.5-.1c.2 0 .5.2.7.1M38.4 7.5h-.6.6M38.5 7.5h-.1c.1 0 .3.1.4 0h-.3M18.6 7.6c0-.2-.2-.1-.2 0H18h.5M40.9 9h.1s0-.1-.1 0"/>
    <path d="M43.5 7.8s-.1-.2-.3 0v-.2H43c0-.3-.6-.1-.7-.3l.3.3v-.1.1h.3c0 .2.2.1.2.3-.1 0-.1.1-.2 0h-.4c.1.1-.2.1-.1 0h-.9c.4 0 .8.1 1 .4l-.1.2h-.7.1-.1c0-.1-.1 0-.2 0 0-.2-.2 0-.2-.2v.1c-.2 0-.5-.2-.5 0-.1 0-.1-.1-.2 0 .3.1.7 0 .8.4H41V9h.5l-.1-.2h-.1v-.2h.6s-.1 0 0 0h.6c0-.3-.2-.2-.2-.5.3 0 .7.1.9-.1l-.1-.1v-.1c.1 0 .3.2.4.1M41 9ZM40.8 8.9h-.5c0-.2-.3-.2-.4-.2h-.2l-.9-.2-.5-.1c0 .3.6.1.8.1.3 0 .5.2.8.3l1 .1h-.1M16.1 7.5h.1M39 7.4c-.1-.2-.6-.2-.9 0h1.1c0 .1-.3 0-.4.2h1l-.2-.2H39M40.9 7l1.2.4-.3-.2H41L41 7M39.8 7s-.2-.1-.2 0h.2M14.8 7h.3-.3M40.9 7l-1-.2c.1 0 0 .1 0 .2h1M44.9 6.7c0 .1-.1 0-.2 0l.1.1s.1 0 0 0M11.4 6.8 11 7h.4M45.2 6.7h.2l-.2-.1c0 .2-.3.1-.3.2h.3M40 6.6h.3-.3M39.9 6.6h-.6.6M45.9 6.6v-.1h.4c-.3-.1-.6 0-.8 0h.4M45.1 6.5s0-.1 0 0M44.5 7c0-.2.2-.2 0-.3h-1.9c-.2-.1-.4 0-.4 0 0-.1-.2-.1-.2 0l-.2-.2s-.2.1-.2 0h.2l-1-.2c.2.1.5 0 .6.2h-.6l2.4.3h.7l.7.4v.1c-.2.2-.5 0-.8.2h.5c.2 0 .4 0 .5-.2 0-.2-.2-.2-.3-.4M41 6.2h.3s-.3-.1-.4 0M42.8 6.1h-.1.1M43.4 6l1.6.4c-.1 0-.3-.2-.3 0v-.2h-.5l-.8-.2M40 5.9h.2-.2M46.7 5.8h.1-.1M45.1 5.8h-.7.7"/>
    <path d="M36.2 9.7h.2l-.2.1.5-.1h.3-.6c.2-.2.7-.2 1-.2-.3 0-.6-.1-.8 0h-.1c.3-.2.7-.3 1-.2a1 1 0 0 0-1 0l.3-.2.6-.1h-.5l-.3.1v-.2c.3 0 .7-.2 1-.1l-.2-.1c0 .1-.1 0-.2 0-.2 0-.4.2-.5 0l.6-.1h-.4c0-.2.2-.2.3-.2H37c.1-.3.7-.1.8-.3l-.8.1v-.1l.7-.2h-.3l.2-.1v-.1l.2-.1v-.2h.3c0-.2-.1 0-.2-.1.4-.3 1.1 0 1.6-.2H38c.6-.2 1.1-.2 1.7-.1-.1-.2-.4 0-.6-.1h-.9c.6-.2 1.2-.2 1.8 0-.3-.2-.9-.1-1.1-.3h.5c0-.2-.4 0-.4-.1h1.9-.3s0-.1 0 0l-.8-.2c-.2 0-.4.2-.5 0h1.6l-.3-.1h.2c0-.2-.1 0 0-.2l1.5.1s.1.1.2 0L40.8 6h2.5V6c.2-.2.8 0 1-.2h-3.1c.4.1.9 0 1.1.2h-1c-.2-.2-.4-.2-.7-.1h-.4c0 .1.2 0 .2 0l.1.1c-.1.2-.5 0-.5.1h-.4s.2-.1.2 0l-.5.1H39l.4.1-.7.1h.1-.3v.1h-.3c0 .2.2 0 .2.1l-.8.1c0 .1.1 0 .2 0v.1c-.2 0-.3 0-.3.2h.1c-.2 0-.3 0-.4.2.3 0 .5-.3.7 0h-.2c-.3 0-.6 0-.7.2h.2l-.4.3c.3 0 .6-.2.8-.1-.3.1-.7 0-.8.3l-.2.2v.2l-.1.1s.2-.1.2 0-.2 0-.2.2h.2l-.1.1h.2l-.4.3h.2c0 .1-.2 0-.2.2v.5s-.3 0-.2.1M15.6 7.3l.6-.1h.5c.4 0 1-.2 1.3 0-.6.1-1.3 0-1.7.3.8-.2 1.5-.1 2.4 0 0 .3-.9.1-1.2.1 0-.2.4 0 .5-.1h-1.1c.2.1.5 0 .6.2-.6 0-1 .3-1.5.4.5 0 .8-.3 1.4-.3h1.8-.6c.3.2.7.3.9.2l-.1.2.2.1H19c.2 0 .4.2.7.1v.2h-.3l.3.1h-.5c.2.1.4.1.5.3h-.1s.2 0 .3.2h-1.2c.1.2.6 0 .8.1h-.2l.3.1c0 .1-.1 0-.1 0l-.4.1.6.1-.8.1c.3.3.8.1 1 .3h-.4v.2c.2 0 0-.2.1-.2.2 0 .3 0 .4.2-.2 0-.3-.1-.4 0h.3c-.2.2-.6 0-.8.2h.9c-.2.1-.3 0-.5.2h.6c-.2.2-.6 0-.7.2h.9c-.2.1-.6 0-.7.2h.7l-.4.1c.2 0 .5 0 .6.2h-.3c0 .2.4 0 .4.2l-.5.1.9.1-.3.1h.9c-.2 0-.3 0-.2-.2h-.3l.1-.1c-.1 0-.2 0-.2-.2h.1c0-.1-.3 0-.3-.2h.2V11c0-.1 0-.2-.1-.1l-.2.1s-.1 0 0 0v-.1l-.2-.3h.3c0-.1 0-.4-.2-.5v.4c-.1 0-.2 0-.2-.2l.1-.1c-.2 0-.2-.2-.3-.3h.2s-.2-.2 0-.3l-.1-.1v-.1c0-.1-.2-.2 0-.4l-.2-.2h.2l-.2-.4h.1s-.2-.1-.2-.3v-.2l-.3-.5c-.6-1-2.1-1-3.4-1.2h-2l-.2.1h2c-.2.1-.7 0-1 .2.7 0 1.6-.2 2.4 0-1 .1-1.7 0-2.5.3.9-.1 2.3-.3 3.1 0h-2.5c.7.2 1.4 0 1.9.2-.5.1-1.2 0-1.7.3h-.3"/>
    <path d="M14.7 6.5h.4l-.1-.1h-.3M13.2 8.8c.3 0 .5-.2.7-.3-.2.1-.5 0-.7.3"/>
    <path d="M7 7.8h1.5c-.1.1-.4.2-.4.4.3.5 1.1-.1 1.6 0 0 0-.2.1-.2.3.3.2.8.1 1.2 0-.2.3-.6.3-.6.6.3.3.8.2 1 0 0 .2.1.2.2.2h.6c.2 0 .5-.2.6-.1l-.1.3c.2.3.6 0 1 0l.8-.2.4-.2.4-.3c-.4.1-.8.5-1.2.4l.7-.5-.6.3-1.3.5v-.3c.1-.2.4-.3.6-.4H13l-.1.1c-.3 0-.7.2-1 .1l-.1.1-.2-.1.4-.4c-.4.2-.8.4-1.5.4.4-.8 1.6-.8 2.3-1.2-.1 0-.1.1-.2 0h.2c-.2 0-.4 0-.4.2-.3 0-.6 0-.7.2-.1 0 0-.1 0-.1-.6 0-1.1.2-1.7.3v-.1c.1-.2.5-.4.8-.5.4-.1 1-.1 1.3-.3.3-.2.6-.5.9-.4l-.1.2H14v.3c.5.1 1.2 0 1.6-.2-.4 0-.9.3-1.4 0l.4-.3c-.5.1-1 .2-1.5 0 .1-.3.8-.2 1-.4H14a3 3 0 0 1-1.2.1c-.3 0-.7 0-.8-.2.3-.2.8-.2 1.3-.2-.2-.2-.4 0-.5 0l.1-.1c-.5 0-1 .1-1.2.4 0 .4.7.1 1 .3-.1.2-.3.2-.4.3h-.1l-.4.1-2 .4c-.3.1-.8.3-1.3.2.6-.6 1.7-.6 2.5-1h-.3c-.3.1-.7.1-1 .3-.2 0-.6.3-1 .1.5-.1 1-.2 1.3-.4H9.7l-.5.2-.6.2c-.4 0-.9.3-1.4.2l1-.5c.4 0 .6-.1.9-.3h.3c.8-.1 1.4-.3 2-.6l-.9.3c0-.1-.2 0-.1 0 0-.1-.1 0-.2 0l-.3.1s-.1.2-.2 0c0 0 0 .1 0 0-.2 0-.4 0-.6.2-.6.2-1.3.3-2 .3l-.4.1c-.4 0-1.1.3-1-.2.2-.2.6-.1.9-.2.8 0 1.5-.3 2.2-.5H9c.2 0 .4 0 .6-.2.4 0 1-.1 1.4-.3.6 0 1.2-.1 1.7-.3h4.7c.6 0 1.2.2 1.8.4.3.3.8.4 1 .8l.3.4.3.5.2.7v1.2l.3.7h-.1v.2h.2v.4c.1-.1 0-.1 0-.2h.3c-.2.1 0 .2-.1.3 0 0-.1-.2 0 0h.1c0 .2.1.3.3.3 0 0-.1 0 0 0v.2c.2 0 .3.2.4.1l-.2-.1c.2.1.7.1.8 0-.8-.2-1.2-.8-1.4-1.5 0-.1-.1 0-.1 0l-.2-1.4c-.2 0-.3-.2-.2-.4 0 0 0 .1 0 0l-.2-.6a3.4 3.4 0 0 0-2.6-2.1l-1.9-.1v-.1H13l-.3.1c-.9.2-2 .2-2.6.5l-1.5.3h-.3l-.1.1-.5.2-1 .1-.5.2c-.3 0-.7 0-.8.2l.3.6c.4.1 1 0 1.3.3M11.5 6.2h.2-.2M27 2v-.2.1M26.8 1.4c0 .2 0 .3.2.4 0-.2 0-.3-.2-.4M28.3 14.2h.3-.3M27.3 13l-.2.1h.2M29.5 3.5v-.1M24 8.2l.2-.1H24M24.3 8s.1 0 0 0M25.5 4.9l.9.2h.5c-.5 0-1-.3-1.4-.2M26.8 4.6h.3-.3M34 7.5l.1-.2s-.1.1 0 .2M34.2 6.6s.1-.1 0-.1v.1M34.2 5.8l-.1-.3v.3M33.8 5c0-.2-.1-.3-.2-.3 0 .1 0 .2.2.2M33.2 4.1v.1l-.1-.1v.1l.2.1-.1-.2M32.4 7.8s.2.1.2 0h-.2M32.2 7.4l.3.1-.3-.1M32.4 6.6s0-.1 0 0M32.1 6.2l.2.1s-.1-.1-.2 0M27.2 13.6h-.4.4M26.6 11h-.2s.2.1.2 0M26.2 10.9h.5-.5M21.7 27.6l-.3-.3-.1.5.4-.2"/>
    <path d="M28.7 88a60 60 0 0 0 27.5-61.2c-1.3.3-15 5-27.7-6 .1-.1.3-.2.3-.5l.4-.4.3-.3a3 3 0 0 1-1-1.7c.2 0 .2 0 .2.2l.3.6.7.9.6-.2c0-.2.6 0 .6-.3l-.7-1c-.5.1-1.2 0-1.5-.3l.6.1c.4 0 1-.6.5-1l.1.2v.2c-.2.6-1.2.3-1.5 0l-.6.4-.5-.1c-.5-.3 0-1.4.4-1l.5.1c-.2.1-.1.3-.4.3l-.1-.3c-.3.2 0 .5.4.4.1-.1.3-.7.6-.3 0 .6 1 .4.5-.1v.3c-.1.2-.5 0-.5-.2s.3-.2.4-.1v-.1h.4l.3.3h.5l.4-.1h.2c.5-.3 1-.7.9-1.4-.6.2-1.1-.1-1.4-.5h1l.5-.8.1.7c.4.1.3.8.8.7-.2-.1-.2-.4 0-.5v.5l.5.5.2-.3c.3 0 .4.5.8.4 0-.2 0-.5.2-.6 0 .3.3.5.6.6l.3-.1v-1c.1.1.1.4.4.4l.2-.2c0-.2-.1-.6-.3-.6v.4h.2l-.2.2c-.3-.2-.5-.3-.6-.6v.2c0 .3.4 1 0 1-.2.1-.2-.1-.4-.1-.2-.2 0-.7-.4-.7l-.1.8c-.4.1-.5-.4-.6-.6v-.4c-.3.2 0 .8-.4.9-.3-.2-.3-.8-.3-1.1l-.1-.1c0-.1.2-.3 0-.3 0 0 0 .3-.2.3 0-.3.2-.5.4-.5 0 0 0 .2.2.2 0 .2 0 .4.2.5l.2-.1c0 .2.2.2.3.4l.1-.4h.1V14c-.2 0-.3-.3-.4-.4 0 .5.4.8.2 1.2 0-.2-.3-.3-.3-.5l-.2.2-.4-.8-.3.3v-.5c-.2.1-.1.5-.3.6-.4 0-.2-.7 0-.8l.2.1c0-.1-.2 0-.2-.2h.2l-.1-.2v-.3.1c.5.2 1 .2 1.4 0 .1-.3 0-.6 0-.8.3 0 .6-.3.7-.4.2 0 .2-.2.3-.2l.3-.4c.2-.4.4-1 .4-1.7l.1-.6.1-.1c.3-1.2.8-2 1.8-2.4.6-.1 1.2-.4 1.7-.4h.7l.2-.1h3.5l.8.1h.6l.7.2c.1.2.6.2.7.1l1.2.2c-.2.1-.6 0-.8 0 .3.1.7 0 1 .2h.1l.2.1c.5 0 1.2.2 1.7.1.4.2 1.2 0 1.4.3-.3.2-1 0-1.3 0h-.4c-.1-.1-.5-.2-.6 0v-.1l-.9-.2-.1.1c-.5-.2-1.2-.3-1.7-.3h-.1l-2.8-.2c.6.1 1.5 0 2 .3.9 0 2 0 2.8.3h.1l.9.1c.4 0 .9 0 1.2.3-.1.3-.5.2-.9.3-.6-.1-1.2-.4-1.7-.3v-.1c-.3 0-.7-.1-1-.3 0 .1.1 0 0 .1h-.5c.4 0 .7.3 1.1.2l1.6.4.3.1c0 .2-.2.1-.3.1H47.4L46 7.5c-.2 0-.5-.2-.8-.1.1.1.2.2.3.1 1 .4 1.9.5 3 .6l.1.1c-.4.1-.7.2-1 .1 0 0 .1.1 0 .2v-.1h-.1c0-.2-.4 0-.4-.1.3 0 .7.2.8.4 0 .3-.6 0-.8.2l-.6-.1s.1 0 0 0l-.7-.2c0 .1.1 0 .2 0l.9.3v.2h.1c-.1.2-.5.2-.6 0h.1-1c-.1 0-.2-.1-.2 0V9l-1.8-.2c-.4 0-.6-.2-.9-.1l.4.1.1.2c.7 0 1.2.2 1.8.3h.1l.2.3h-.3l-.2.1h-.3a5 5 0 0 1-1-.2l-1.2-.2h.3c-.1.2-.6 0-.5.2-.2 0-.1-.1-.2 0 .3.2.8 0 1.2.2h.2c.2.2.3.1.5.2v.2l.4-.1h.2c.4 0 1 0 1.2-.4l-.4-.2c.1-.2.5 0 .6 0 .5.1 1.2.2 1.6-.1 0-.1-.1-.1 0-.2.3.1.7 0 1-.2v-.1c-.1-.2-.3-.2-.4-.3.3-.1 1 0 1.4-.4h.1l.2-.2v-.2h1c0-.7 1-.2 1-.7 0 .1-.1 0-.1 0l-.2-.3-2.4-.3-.6-.2h-.8c0-.2.1 0 .1-.1h-.3V6h-.6.1c-.1-.2-.5-.2-.6-.1-.4-.2-.9-.2-1.3-.2h-1v-.2h-1.6.1H41.1l-.1.1h-.2l-.2-.1c-.2-.2-.5.2-.6 0v.1h-.5v.1c-.1 0 0-.1-.2 0H39s-.3-.1-.2 0l-.6.1c-.6 0-1.1.4-1.5.8-.2 0-.3.3-.4.5V7l-.1.3s0-.1 0 0c0 0-.2 0-.1.2-.2 0-.1.3-.3.4l-.2.8s.1 0 0 .1v.5c-.1.9-.5 1.6-1 2.2-.4.2-1 .4-1.4 0-.4-.3-.2-.9-.2-1.3l-.2 1c.1.6.5.8 1 .8 0 .1.1.2 0 .4a1 1 0 0 1-.5.4l-.9-.2-.1-.1c-.2 1-.5 1.8-1.3 2.2-.2 0-.5.2-.5 0l.5-1-.2.1s0-.3.2-.3v.1l.3-.7c-.2 0-.1.4-.3.4l.2-.5v.1l.1-.1.4-1.5c-.2 0 0 .4-.2.5 0-.3 0-.6.2-.8v.2l.2-.4c.1-.6.3-1.3.7-1.7.2-.2.7-.3 1.1-.2.2.2.4.3.4.6 0 .2-.2.5-.4.5l-.4-.2-.3.3h.3c.5.3 1-.1 1-.6v-.3l-.4-.5.5-.5.3-1.2-.1-.6v-.2l-.1-.2c-.1-.2 0-.4-.2-.6l-.6-.9c0-.2-.4-.2-.4-.5h-.1c-.5-.3-1-.8-1.4-.9l-.6-.2c-.3-.3-.9-.2-1.2-.4.2-.3.2-.6.3-1-.4-.2-.8.6-1.2.2l-.1-.4s0-.3-.2-.3c.1-.1 0-.2 0-.2.1 0-.4-.2-.3-.4-.3.1-.5.2-.4.4 0 0 0-.1 0 0l-.1.1c.1.3-.2.6 0 .8-.2 0-.2.1-.3.2l-.5-.3c.1.2.4.5.6.5.2 0 .1-.2.1-.3h.1l.1-.4.2-.3.1-.5.1.2V1c.1 0 0 .1 0 .1l.3.2c.1.2 0 .7.4.8l.7-.4c.4 0 0 .3 0 .5v.3H27l-1.2.2c.1 0 0 .1 0 .1h-.2c-.6.3-1.2.5-1.6 1H24c-.3.3-.7.5-.8 1-.5.4-.9 1.2-1 2-.1.6.1 1.1.4 1.6l.2.3h.2v.1c-.2.3-.4.5-.4 1 0 .2.4.6.6.7.2 0 .3-.2.5 0l.2.5c0 .4-.4.8-.8.9-.1.8.5 1.3 1.2 1 .2.1.1.3.2.5l-.1.1v-.2.8-.6c.3 0 .2.4.3.5 0 .2.2.3.3.4v.2h-.1c-.2 0-.1-.2-.3-.2v.5c-.3 0-.4-.6-.4-.7l.2.1c-.2-.3-.4-.6-.3-1h-.1c0 .3 0 .7.2.9-.2 0 0-.2-.2-.2v.6c.3 0 .5.6.2.7h-.4V15h-.2v.3l-.3.3c-.3 0-.3-.6-.4-.7-.2.3 0 .5-.3.8-.2 0-.5 0-.6-.2 0 .2.2.2.2.3-.2 0-.2-.1-.3-.2l-.1-.4c-.1 0 0 .1-.2 0 0 .4-.2.4-.2.7 0 0 0-.1 0 0l-.2.1c-.2-.3-.2-.6-.2-1 0-.2.2-.4 0-.5-.1.4-.2.9-.7 1-.2-.1-.3-.6 0-.7 0 0-.1 0 0 .1l.2-.7c0-.1 0 0-.1 0 0 .2-.3.3-.2.5v-.1c-.2.3-.3.8-.8.8l-.2-.2.1-.3v-.3c0-.2.3-.3.2-.5-.4.2-.6.8-1.1 1-.6-.2-.1-.7 0-1 .2 0 .5-.2.5-.4-.4.4-.8.9-1.5.9v-.2l.7-.6.8-.6-.3.3s0-.1-.1 0c-.5.1-1 .5-1.7.3.1-.4.6-.5.8-.8-.1 0-.2 0-.2.2-.1-.1-.1 0-.2 0-.2 0-.8.2-1 0 .1-.2.4-.3.6-.4l.3-.1c-.2 0-.4-.2-.5-.1-.1.1.2 0 .2.1-.3.2-.8.2-.7.6.2.1.5 0 .7.2 0 .2-.2.2-.2.3 0 .4.8 0 1 .1 0 .3-.3.4-.4.7 0 .4.5.1.7 0 0 .4.2.9.7.6l.4-.3c0 .2 0 .6.2.8.4.1.6-.2.8-.3 0 .5.6.4.8.2.1 0 0 .3 0 .4.2.2.5.2.7.2l.2-.3c.2.2.7.4 1 .1.1 0 0-.3.2-.4.1.4.8.3.9 0 .7.2.6-.8 1.2-.8.1 0 0-.2 0-.2.3.2 1 .3 1.4.2-.3.5-1 .6-1.4.7 0 .4.4.7.5 1.1.3 0 .5.3.8.3l.9-.1c-.3.3-.3.8.1 1 .3.1.6 0 .8 0-.3.4-1 .3-1.4.3-.1.5-.5.7-.7 1 .2.2.5.2.7.2l.7.2.3-.5.2-.3.2-.5c0-.1 0-.4.2-.4 0 .7-.3 1.3-.6 1.7-.1 0-.2.1-.2.3 0 .2.2.2.3.4.3.2.4.6.7.6C15.8 31.8 2 27.3.7 27a60 60 0 0 0 28 61Zm.5-69.8h.9l.4.8c0 .1 0 0-.2 0s-.4.3-.6.1l-.1-.1c-.2-.2-.5-.4-.6-.8 0 0 .3.1.2 0Zm-2-2.2h.2c0 .1-.2.1-.1 0Zm-.2 0c-.3-.3.3-.5.4 0H27Zm.5.4-.1-.3c.1-.1.2 0 .4 0v.3h-.3Zm.7 0a.4.4 0 0 1-.3-.2h.4v.2h-.1Zm.6 0c-.2.1-.3 0-.4 0 0-.2.4-.4.5-.2v.3Zm.3 0c-.2-.4.4-.6.4-.2 0 .1-.2.2-.4.1Zm.3-.5-.5.2a.4.4 0 0 0-.5 0h-.5c-.1 0 0-.2-.2-.2h-.2c-.2-.3-.4-.4-.7-.3l-.1-.2h.3l-.2-.2c-.1.1-.4 0-.4 0 0-.3.3-.2.3-.3.3.1.4.4.8.4.1.2.5.2.7.2v.1c.6 0 1-.1 1.3-.4l.4-.2h.3-.3l-.2.2c.1.3-.2.4-.3.7Zm-2.7-2.1.8-.1-.2.1.4.1s-.1.1 0 .2v.1c-.1.2-.7.1-1 0h.8c-.3 0-.8 0-1-.2h.3-.1l.6-.1-.6-.1Zm1.3.5c.2.2.5 0 .7.1-.8 0-1.4.2-2.1 0H28Zm0-.1h.2-.3Zm-1.3.6c-.3.3-.3-.3-.1 0Zm-.5-1h.5-.5Zm.4 0c0 .2-.3.2-.3 0h.3Zm1.7 1.5h.2-.2Zm1.8-.5.3.1-.3-.1Zm-.3.7c.1-.3.6 0 .3.2-.2 0-.2-.1-.3-.2Zm.2.5c-.2 0-.4.2-.5 0 0-.4.7-.3.5 0Zm1-.5h.5v.4c-.2.3-.4.7-.9.8-.4.1-.7 0-1-.2 0-.1.2-.4.4-.2v-.1l.2-.5c.3 0 .4.2.7.4l-.5.2v.1l-.3-.1c.2.4 1-.2 1-.4s-.7-.2-.8-.4v-.3c.3-.1.4.2.7.3Zm.9-5.8c-.2.3-.5 0-.8 0 .1.2.5.2.7.3h-.3l.3.1-.3.2c0-.2-.1-.4-.4-.4l.2.1v.1l.2.2-.5-.1h-.3V10c-.1 0 0 0 0 .1l-.6.2.2-.2H30V10l.5-.2.5.1-.3-.2-.1.1c-.3-.2-.4.2-.7.1l-.3.3c-.4-.2-.7 0-1.2 0 .5.2.8-.1 1.2 0 0 .1-.1.2-.3.2v.4h.3c.2 0 .3.3.5.2.1.2.5 0 .6 0h.1c.3 0 .4-.3.5-.4h.2c0 .1 0 .2-.2.2h.2l-.2.2h.1c0 .1 0 .2-.2.2.1.1 0 .2 0 .2v.2c0 .2-.2.2-.3.3h.3c0 .2-.2.2-.3.2v.2h-.2l.1.2h-.1v.3h-.2c.1.1.3 0 .4 0-.1.2-.3.3-.5.3h.3c0 .2-.3.2-.3.3h.3l-.5.2h.3c-.2.2-.5.2-.7.3.1 0 .4-.2.5 0 0 .1-.1 0 0 .2h-.6.4c0 .2-.3.1-.4.2h.3l-.3.2h.1c-.2.3-.5.2-.8.3h.5c0 .2-.6.2-.8.2 0 .2.3 0 .4 0-.2.3-.6 0-1 .1-.1 0-.3.2-.4 0h1c-.4-.3-1 0-1.4-.1l.8-.2c.2 0 .4.2.6 0h-1.6c.1 0 .5-.2.6 0l.5-.1H27c0-.2.2-.1.3-.1l.5-.1H28.4c.2 0 .4 0 .5-.2h.2l-.6-.2h.1l-.5-.2c0-.2.1-.1.3-.2.3.3.7-.1 1 .1l.2-.4c-.2 0-.5.2-.6 0-.2 0-.3.2-.6.1v-.1h.1c-.1 0-.3 0-.5-.2l.1.2c-.1.2-.4 0-.7.1h.1c-.3.3-.8.1-1.1.1h.7c-.3-.1-.7 0-1-.2h1.5c-.5-.2-1.2 0-1.6-.2h1.3c-.5 0-1 0-1.5-.2H27.1c-.4 0-1 0-1.3-.2h1l-.3-.1c-.2.1-.6 0-.8 0h-.1c0-.2.3 0 .4-.2.5.3 1.4 0 2 .2h-.3l.3.2h-.6c.2 0 .6.2.8 0 0 0 .3.2.3 0 .2.1.4 0 .5-.2l.4-.2c0-.3 0-.3-.2-.4H29c.5 0 .2.6-.1.4h-.1c-.1 0-.2.1-.2.3-.2-.1-.4 0-.5-.2l.1-.1c-.2 0-.4-.2-.6 0l-.1-.3c0-.3.4 0 .6 0v.1h.1c0-.2-.2-.2-.3-.3l.3-.1c0-.1-.3 0-.2-.2h.3l-.4-.2.4-.1c0-.2-.2 0-.4 0 0-.2.3-.1.4-.2H28c.2-.3.6-.2.9-.3H28c.3-.3.9 0 1.1-.3-.2 0-1 .2-1 0l.2-.1c0-.1-.3 0-.2-.1h.2l.1-.1h-.3c0-.2 0-.2.2-.2-.1 0-.4 0-.3-.2l1.4-.1c.1 0 0 0 0-.1.2-.1.5 0 .5-.2l.5-.1s-.1 0 0-.1h.5c0-.2-.2-.1-.1-.2 0-.1.1 0 .2 0 .1.1.3 0 .3.2H31l.3.1h-.1c0 .3.5 0 .7.2h-.2l.2.1Zm-.8 1.1h-.2c0 .2-.5.2-.7.1h.4c-.2 0-.4 0-.5-.2 0-.2.3-.3.5-.4h.1l.5.2V10.8s0-.1 0 0H31Zm-1.3-.4h.2s-.2 0-.1.2h-.4c0-.1 0-.2.2-.2v.1-.1Zm-4.3 1.5h.8l-.5.1h.3v.2h-.3.7l-.4-.1h.8c0-.2-.5.1-.6-.1 0-.3.4 0 .5-.1-.3 0-1 0-1.3-.2h2.1l-.7.1c.3.2.6 0 .8 0 0 .4-.5 0-.7.2h.5c0 .2-.1.3-.2.2v.3H26l.2-.1-.6-.1c0-.1.1 0 .1 0 0-.3-.2 0-.2-.3h.3-.3Zm1-2.2.6.1c-.5 0-1.2 0-1.7.3 0 0 0 .2-.2.2.2-.4.8-.6 1.3-.6Zm-1.4 0c0-.1 0-.3.1-.2v.1Zm.8-.3c.2 0 .5-.1.6.1l-1.1.2c0-.2.4-.2.5-.3Zm-.5 0h.1c0 .1-.1 0-.1 0Zm1.2 0s.1 0 0 .1Zm.3.3h-.4c0-.2.3-.1.4 0Zm-.3-.6-.2-.1h.3V9Zm-1 .6c.1 0 .7-.3.9 0-.5 0-1 .1-1.3.3 0-.2.3-.2.3-.3Zm1.3 0s0-.2.1-.1Zm-.3 1c0 .1.1.1 0 .2H26c0-.3.3-.2.5-.3v-.1h-.3.1c0 .1-.2.2-.3.1h.2l-.1-.1c.2-.2.8-.2.9 0v.2c0 .1-.2.1-.4 0Zm.4.3h-.3.3Zm-.5-.8-.7.1c0-.2.5-.4.7-.1Zm-.2-.3h.1l-.1.1Zm.3.1Zm.3.1c0 .2.2.1.3.3l-.4-.2h-.2.3Zm.3.8v.1c.2 0 .1-.2.1-.2h.2l-.1.3H27L27 11l.2-.1Zm.2-.6h.1-.1Zm.2.3-.2.1s.1-.2.2-.1Zm0 .7-.2.1.3-.1Zm0-.2Zm-.1 0v-.2h.2l-.2.1Zm.2-1v.1c-.1 0 0 0 0-.1Zm0 .6c0 .1 0 0 0 0Zm0-.7s.2-.1.2 0h-.2Zm0-.5h.3-.3Zm0 .3v.1h-.1l.1-.1Zm-.3-.1h.2-.2Zm-.2-.4h.2-.2Zm0 .2h.2-.2Zm0 .4c.2 0 .3.1.4 0 0 .3-.2 0-.3 0v.1h-.2l.2-.1Zm-2 .7c0-.1.3-.2.3 0h-.2Zm.3 0c0 .2-.1.2-.2.1h.2Zm0-.3c0-.2.1-.2.2-.3l-.3.3Zm-.2 0v.2-.1Zm.2.6h.1c.1 0 .3 0 .3.2h-.7c0-.2.2-.3.3-.2Zm.8.6h-.6c0-.2.3 0 .5-.2h-.8c.2-.2.7-.2 1 0 .2-.2.6-.1.8-.1h-.5c.2.2.4 0 .5.2 0 .2-.4 0-.6.1h1a1 1 0 0 1-.4.2h-.9l-1-.1c.3-.2.7 0 1 0Zm-.9-.2s.3 0 .2.1h-.2Zm6.2-2-.2-.2c-.6-.2-1.5-.4-2 0 0 0 .1-.2.2 0h-.2c-.2 0-.4.2-.5 0-.1.1 0 .1 0 .2h-.4c.2.2.5 0 .8 0-.2.3-.6.2-.9.3h.7c-.2.3-.9.3-1.2.1h.5c-.1 0-.4 0-.4-.2h.1l-.6-.1c0-.2.3 0 .4-.2-.2 0-.7 0-.8-.2h.5c-.6-.2-1.4-.1-2 0v.1l-.6.1c.2-.3.7-.3 1-.4-.3 0-.6 0-.9.2.2-.4.8-.3 1.1-.5h.6c-.5 0-1.3.1-1.8.3.2-.2.5-.3.8-.3.2-.2.5-.1.8-.2-.5 0-1.2.1-1.6.3-.1 0 0 0 0 0l.8-.4H27c-.6-.2-1.2 0-1.7.2.2-.3.6-.4 1-.4l1-.1-1.7.1c.1-.2.5-.2.7-.2h-.7s.2-.1.2 0c.5-.3 1-.2 1.6-.3l-2 .2c.2-.2.7-.2 1-.4l-.6.1c.2-.2.5-.1.7-.2h-.5c.1-.2.2-.1.4-.2h-.1l.1-.3c.4-.3 1-.3 1.5-.3h-1.1c0-.1.3 0 .3-.2h1c-.2-.3-.8.1-1 0 .1 0 .2-.3.4-.2l1.1-.1c-.2-.1-.5 0-.8 0 0-.3.6-.2.8-.3h-.3v-.1h.4c0 .1.2.1.2.3l-.1.1h.5V6l.2.1v.1h.6l-.3.2h.5c0 .2-.3.1-.4.2h.4c.4 0 .7 0 1 .2-.3.1-.8-.2-1 0l1.3.2c-.1.2-.4 0-.5 0l.5.3H31l.7.1H31c0 .2.4.2.4.3H31c.2.2.4 0 .6.2-.1.2-.3 0-.4.1 0 .2.3 0 .4.2h-.2c0 .2.2.1.4.2h-.5c.1.2.4.1.4.3H31c.2.1.6 0 .7.2h-.2c.2 0 .4 0 .4.2h-.3Zm-6.7-2h-.2c0 .1.1.1 0 .2-.2 0 0 .1-.2.3v-.1c-.3-.1-.4.1-.6.2h.5L24 8c.4.2.4-.1.7-.2-.1.2-.4.3-.3.5H24.7l-.2.4h-.3.1c-.2.2-.5 0-.5 0L24 8c-.3-.3 0-.7.3-.8-.3 0-.4.3-.6.4 0-.3.3-.5.5-.7-.2 0-.3.2-.4.3V7c.2-.2.7 0 .9-.4h.7l-.4.1-.2.1h.4L25 7l.3-.1c0 .2-.3.2-.4.2v.1Zm-.1 1.9h-.2.2Zm-1.4-1.8s.1 0 0 .2c0 .1-.2.2-.3 0L23 7l.4-1 .5-.6a9 9 0 0 0 1-.7l.7-.3 1.2-.1h.9c.2 0 .4 0 .6.2 1-.6 2.8-.5 3.8.1v.1c.2-.1.5.3.7.5l-.2.2c-.6-.4-1.2-1-2-.8-.1 0 0-.1 0-.1h-1.2c-.4 0-.7.3-1 .3l-.6-.1-1-.1c-.2 0-.5 0-.7.2v-.1c-.5.2-1 .2-1.2.6-.5.1-.8.5-1.1.7v.2h-.1c-.2.3-.4.7-.3 1.2Zm-.5-.4v-.3h.1V7Zm.5-1.8.3-.1-.3.1Zm.3.1h-.1c0-.1 0-.1 0 0Zm0 .1c.1-.2.4-.3.5-.6h.1v-.2h.3c.2 0 .2-.1.3-.2 0 0 0 .1.1 0l.1-.2.2.1v-.1h.2l.1-.1h.1l.1-.1.2.1.1-.2.2.1V4h.2v-.1h.2V4c.1 0 0-.2 0-.2.3 0 .2.2.3.2v-.3c.3 0 .1.2.2.3.1-.1 0-.4.2-.3l.1.4v-.4h.1c.2 0 0 .3.2.4v-.5c.2 0 .2.3.2.5v-.3h.2v.4c.2-.1 0-.4.2-.6l.1.4.1-.3.2.3v-.4h.2V4v-.4c.2 0 .2.1.2.2V4c0-.5.5-.4.6-.1v-.2c.2 0 .2.2.2.2l.1-.1.1.1.2-.1V4c.2 0 .1-.2.2-.2l.1.2h.2c.1 0 .4 0 .5.2-.9-.2-2-.3-3 .2-.3-.1-.6-.3-1-.2V4l-1.5.1-.5.2L24 5v.1c-.4.2-.5.5-.8.8-.1-.2.2-.2.1-.4.1 0 .2 0 .2-.2Zm.4-1 .1.1-.2.1.1-.1Zm.4-.2V4c.1 0 0 .2 0 .2Zm4.6-.8c.1 0 .1.1 0 .1ZM23.3 6s0 .2-.2.2l.2-.2Zm8.2-1.8h.1l.2.1-.3-.1Zm.8.4c-.1 0-.4-.1-.4-.3l.4.3Zm0-.4Zm1 1.3c-.2 0-.2-.2-.3-.2V5l.2.1v.3Zm0 .1.2.6c0 .4.2.8.3 1l-.1.4h-.3V6.5h-.1v-.2h-.1c0-.5-.5-.5-.5-1h.1c.2 0 .2.2.4.3Zm0 0h.2l-.1.1Zm.5 1v-.2.2Zm0 1.2Zm-2.3-1.6c0 .2-.4.1-.5.1l.5-.1Zm-.4-.1c.1 0 .3-.1.4 0-.1 0-.4.1-.4 0Zm.9.4.4.1c0-.2-.5-.2-.7-.4-.1 0 0 0 0 .1h-.2c.1-.1 0-.1 0-.2-.1-.2-.5 0-.7 0 .3-.3.7-.2 1-.2-.3-.2-.7 0-1-.1l.2-.2-.7.2c.1-.2.5-.2.7-.3h-.5s-.1 0 0 0l.3-.2c-.5 0-.8.4-1.2.5 0-.2.2-.3.4-.3-.1-.1-.1 0-.2 0 0-.2.3-.2.4-.2v-.1l-.6.2h-.2s-.5.2-.6 0c.3 0 .6 0 .8-.3l-.5.2c0-.1-.3 0-.4 0L29 5H29l.7-.4v.1l-.4.2c.3 0 .6-.2.8-.3.1.1.5-.2.5 0-.2.2-.6 0-.7.3.5-.2 1.1-.2 1.6 0-.3 0-.6-.1-.8 0 .4 0 1 0 1.3.2-.1.2-.4 0-.6 0 .2 0 .5.2.6.1l.3.2h-.7c0-.1 0 0 0 0 .5 0 .9.3 1.1.6h.2c0 .3.2.3.2.4-.3-.2-.5-.4-1-.5.3.3.8.3 1 .7.1 0 .2.3.1.5-.1 0-.2-.1-.2-.3l-.4-.2c.2 0 .4.3.5.5l.2.2h-.4c-.3 0-.6-.3-.5-.5a.7.7 0 0 1-.5-.3l-.4-.2h-.2c.2-.1.6 0 .8.1ZM30.2 6s.3-.3.3 0h-.3Zm.3.2V6c.1 0 0 0 0 0Zm-.2.1c0 .2-.2 0-.3 0h.3Zm.4.3h-.5c.1-.2.4 0 .5 0Zm-2-1c0-.2.2-.1.3-.1.1 0 .3-.1.4 0-.2.2-.5 0-.6 0Zm.6 0h-.1Zm.3 0h-.3.3Zm-1-.5V5Zm.5-.2v-.1c.1 0 0 .1 0 .1Zm1.5-.1v-.1h.1ZM33 5l-.2-.1h.2V5Zm-4.6.3Zm-.3 0-.2-.1c0-.1.1 0 .2 0Zm-.2-.3h.1v.1Zm.3.3s0 .2-.2.2l.2-.2Zm-1.2.5c-.4-.1-1.1 0-1.4-.2H24.7c0-.2 0 0 .2 0l.4-.3c.3-.3 1-.3 1.4-.2l-.5-.1c.3-.2 1 0 1.2-.1.1 0 .4 0 .3.1h-.3l.3.1h-.2c0 .2.2 0 .1.1-.2 0-.5.1-.6.3l.8-.2c-.1.3-.7.3-.9.5Zm.8-.1h-.1c0-.1.1-.1 0 0Zm-1.2.5L25 6h-.4c.2-.3.6-.3 1-.2l.6.1.6.1.5-.1c-.2.2-.6.2-.7.4Zm0 .1v.1s0-.1 0 0Zm-1.1 0c-.2 0-.6 0-.7.2-.1 0-.3 0-.4.2H24c-.1.2-.3.2-.3.4-.2-.1.2-.5.3-.6.2 0 .4-.1.5-.3l-.6.3c0-.2.3-.2.4-.4-.2 0-.3.2-.4.3 0-.4.5-.4.8-.4.2 0 .7 0 1 .2h.2c-.1.2-.4 0-.6.1Zm.4.9Zm-1.2-1.3h.2-.2Zm0-.3c0-.1 0 .1 0 0Zm2.7.2s-.1.2-.2.1l.2-.1Zm-2.5-.4s.1 0 0 .1v-.1Zm2.4-.7h.2-.2Zm.2.1-.1.1c0-.1 0-.1 0 0Zm-1.9 2h-.2.2ZM25.1 8c0-.1.1-.2.3-.2L25 8Zm6.5-.2h.1-.1Zm.1.5.3.1-.3-.1Zm.4.6.1.1-.1-.1Zm.4 0c.1 0 0-.1 0-.2h-.2c0-.1 0 0 .1 0l-.1-.2h.3c0-.1-.4 0-.4-.3h.1l-.2-.1-.1-.3h.1v-.2l.3.2s-.1 0 0-.2h-.2.1v-.2c-.3 0-.4-.3-.7-.4.2 0 .4.2.5.3l-.3-.3s-.2 0-.2-.2c.6 0 .7.7 1.3.8v-.1h.2v.2s0 .1-.2 0v.5l-.1.3h.1s.1.1 0 .2c0 .1-.2.3-.4.2Zm2-2.3s.1 0 0 0ZM33 4l-.1-.2V4ZM22.7 8.5c0-.2-.3-.3-.3-.6-.1-.2-.2-.6-.1-.8v-.2c0-.3 0-.8.3-1 0-.2.1-.6.3-.7l.7-1h.2a5 5 0 0 1 1.5-1c.2-.2.4-.2.6-.2 1.5-.5 3.3-.6 4.9 0v-.1l.7.2v.1c.6.1 1 .6 1.6.9 0 0 0 .2.2.2l.8 1c.2.5.4 1.1.4 1.6v.2c0 .6-.3 1.3-.8 1.5l-.1-.2v-.1c0-.2-.2-.3-.4-.3v.3c.1.1.4.2.4.4-.4 0-.5-.3-.7-.5l.2-.3c.2-.2.4 0 .6 0l.1.2c0-.4.3-.4.4-.6 0-.1 0-.3-.2-.4 0-.2.2-.2.3-.4l-.2-.2-.2-.5c0-.1.2-.2 0-.4h-.2a.9.9 0 0 1-.3-.4l.1-.2v-.1H33c-.2-.2 0-.4-.2-.6l-.5-.1v-.3c-.4.1-.8 0-.8-.4h-.5c-.2 0-.2-.2-.3-.3l-.4.2c-.3 0-.4-.3-.5-.5-.1 0-.2.3-.4.3l-.3-.1-.2-.2c-.1 0-.1 0 0 0l-.4.2c0-.2 0-.1.1 0v-.3h-.3c0 .1.1.1 0 .2l-.2-.2c0 .2-.6.5-.7.1-.4 0-.3.4-.7.4-.2-.1-.2-.3-.4-.3 0 .3-.2.5-.6.4 0 0-.2-.2-.3 0 0 .4-.5.5-.8.3l-.6.4.3.1c0 .2-.4.1-.5 0-.1.3-.3.4-.5.6.2 0 .4 0 .5-.2-.1.3-.4.4-.7.4.2.4 0 .7-.5.8l.2.4c0 .3-.8.4-.2.7 0 .4-.2.4-.2.7.1 0 .3.3.3.5v.1c0 .2.3.4.5.3.1 0 .3-.3 0-.4-.1 0 0 .3-.3.3-.2-.3.3-.6.6-.5 0 .2.1.3 0 .4l.1.1c0 .2-.1.3-.3.4-.3 0-.5-.2-.7-.3Zm1.7 4-.7.3a.7.7 0 0 1-.6-.4V12c0-.2.2-.2.4-.3l.4-.5c0-.6-.1-1.1-.4-1.4l-.3.3c-.6 0-.6-.8-.3-1.2.2 0 .5-.1.8 0 .2 0 .3.3.5.3l.2.7.6 1.8.6 1.5.3.6h.1c0 .3.3.4.4.6-.1 0 0 0 0 .1-1.4.4-1.9-1.2-2-2.2Zm2 4.2c-.3 0-.7-.2-.9-.5l-.3-.6c.3-.2.7-.3 1-.6l.4.5c-.2.3.2.3.3.5-.3.4-.9.3-1 0 .1-.3.6-.3.4-.6l-.6.4c.1.4.8.9 1.2.4l.4.2c-.2.2-.6.3-.9.3Zm1.1 2-.1.2c-.1.1 0 .2-.2.3-.2 0-.7-.1-.8-.3l.3-.7h1c0 .1 0 .3-.2.5ZM40 77v-.7l.4.6-.4.1Zm11.6-49.3v.5a1 1 0 0 1-.3-.5h.3Zm-11 .7.3 1.1c-.5-.2-.8-.5-.8-.9l.6-.2Zm-12.2-8.2-.6-.6c.1-.6.5-.9.6-1.5.2.2.2.4.3.7.2.3.5.5.5 1-.3.1-.4.4-.6.6-.2 0-.2 0-.2-.2Zm-11 8.2a.7.7 0 0 1-.3-.4v-1l.3 1.4Zm-4.7.1.2.5a4 4 0 0 1-1.2-.4l1-.1Zm-2.7.5.2 1.1c-.5-.2-.7-.5-.8-1l.6-.1Zm-7 .3c.9.1 7.6 2.3 15.7-.2v.9l.6-.2-.1-.3-.4-.4h-.1v-1.1c.1-.5.4-.8.8-1l1.4-.2a2 2 0 0 1-1.2.6l-.4 1.3-.6.3v.1a28 28 0 0 0 2-.7v.5h.3v.3l.4-.2-.1-.5v-.4l-.6.3v-.4l.3-1.2.6-.1v1l.5-.1v.1l-.3.2c0 .2.2.3.4.4V27.8c2-1 4.2-2.3 6.3-4.2l2.2 1.7c-.2.2-.4.3-.5.6l.7.5 1-.2a23 23 0 0 1-1.2-.9l2.8-.7.2.4-.7.4-.9.7H32c.9.6 1.7 1.1 2.6 1.5h.1a8 8 0 0 1 1.3-.3v.1c-.2.3-.5.4-.8.5l.9.4v-1l.2-1 .6-.2v.7l-.3.9.3.9c-.3 0-.6-.2-.8-.3v.2l-.2.6 1 .4.1-.7v-.2l.1.1-.3-.4.6-.1.2.6c2.5 1 5 1.3 7.3 1.4l.3-.5.3-.1.1.1c0 .2-.2.4-.3.5h-.4 2.4v-1h.8l.2.6.2.4c3-.3 5.1-1 5.6-1a56 56 0 0 1-4 32v.1a56 56 0 0 1-3.3 6v2.1l-.4-.1V68c-1 1.6-2 3-3.1 4.4l.3.8v1.2l-.5.1-.2-.7-.3-.6-1.8 2.1.2.4h-.3v-.3a55.5 55.5 0 0 1-9.7 8.7l-.3.2-1.9 1.2c-.8-.4-5.4-3.1-10.6-8.5v.7l-.2 1-.4.1v-.6l.2-.9-.2-.9A55 55 0 0 1 3 29.4Z"/>
    <path d="m24 55 .4.1c-.2.2-.3.4-.5.4h-.4v15.6-.3c.3.2.4.4.5.7v1c-.2 0-.4 0-.4-.3v2.2h-.2v.5h.2v6l1.8 1.4v-.4c-.1-.5-.3-.9-.6-1.1l-.6-.3.9-.5v-1.6c.3.3.5.7.5 1.1l.4 1.8v1.3H26l2.8 1.7-.1-.4c.2 0 .3.1.5.3l-.4.1v.2l.7-.1-.3-.2 1.4-1-.1-.5c.1.1.3.2.3.4 1-.6 2-1.4 3.3-2.4v-2.3L33.9 54l-5.3 1.8-5.1-1.7v1.3l.3-.2h.2Zm7.7 22.8-.7.2.1-.8h.8l-.2.6Zm2 .4h-.3v-.6h.3v.6Zm-.8-3.8V74l.5.4-.5.1Zm.2-6.9v.3H33l.2-.3Zm-.1-4.2c-.1 0-.2 0-.3-.2v-2.5l.3 1.3v1.4Zm-.3-5c.1 0 .2.1.2.3l-.2.7-.1-.3.1-.7Zm-.5 11.9c-.1 0-.3-.2-.3-.4l.3.4Zm-1.1-11.9h.4c0 .2-.2.4-.3.4l-.2.1h-.2c0-.2.1-.4.3-.5Zm-.6 4 .5-1.4h.5v1c0 .5-.3.9-.6 1l-.1.1h-.4v-.8Zm-2 6.8.4.5a.8.8 0 0 1-.4-.5Zm0-4.3.1-.7.3.6h-.4Zm1 16.1-.5.2.1-1.1.6.4-.2.5Zm-.5-4.1.1-3h.5v3.1l-.6-.1Zm1-5.2.2 1-.7-.1-.1-1.3.5.4Zm-1-11.3h.3l-.2.9-.3-.2.2-.7Zm0 3c-.3-.2-.6-.4-.7-.9.4 0 .6.3.7.8Zm-1 11.3h-.4v-.4l.4.4Zm-.3 7-.2.7-.2.1-.1-.2.2-.5h.3Zm-.5-13.1-.2.5v-.6h.2Zm-3.6 6 .4.2-.4.1v-.4Zm.7 1.1.3.1-.6.9-.3-.8.6-.2Zm-.5 3.8v-.8c.4.2.6.5.8.9h-.8Zm1.6-2.5a3 3 0 0 1-.4-1v-.3l-.2-3 .3-1.4.4 2.7v1.8l-.1 1.2Zm-.7-11.5c.2.8.4 1.4.4 2v2.4c-.1 0-.2-.1-.2-.3l-.2-4Zm1-3.9c-.5 0-.8-.3-.8-.9.3.2.6.5.7 1Zm-1 .4.1 1.3c0 .1 0 .2-.2.2l-.1-1.3.2-.2ZM46.5 66.2l.6-1-.6-.1-.1-1 .6.2.2.8c2.9-5 5.2-11 6.2-18l-9 3.1V69.5a53 53 0 0 0 1.8-2.8v-.4h.3Zm5.6-17.6a1 1 0 0 1-.5-.3c.2 0 .4.1.5.3ZM49.7 57l-.3-.1v-2.2l.2 1V57Zm-.5-4.4.2.3-.1.6-.2-.2.1-.7Zm-1.6.2h.4l-.3.3-.1.1h-.3c0-.2.2-.3.3-.4Zm-.4 3.4.4-1.2h.5l.1.8c0 .5-.3.8-.6 1h-.5v-.6Zm-2.5 11v-.5c.2 0 .3.2.5.3l-.5.1Zm.3-10.7c.4 0 .6.2.7.6-.3 0-.6-.2-.7-.6Zm.4 1.5.2.5h-.3V58Zm0 4.3c.2 0 .4.2.4.4a.7.7 0 0 1-.4-.4Zm.4-7h-.3l.1-.7h.3l-.1.8ZM40 55c0-.2-.2-.3-.4-.4.1.2.2.3.4.3M42.3 55.9c-.2-.4-.4-.7-.8-.8 0 .6.3.8.8.8M41.6 57.3l-.1-1h-.1l-.3.1c0 .4.2.7.3 1.1l.2-.2M40 59.7v-.6h-.6c0 .4.3.6.6.6M42 63v-2c0-.5-.2-1-.5-1.7l.4 3.5.1.2M50 60.6l-.2.3h.1l.1-.2ZM38.7 62h-.3c0 .3.2.5.3.7V62ZM43.9 62.3l.2-.5-.2-.1zM38.9 64.3v-.6h-.4c0 .2.2.4.4.6M49 62.9v-.1l-.2-.1.2.2M41 65.4v-.8c0-.3-.2-.5-.4-.6v1c0 .3.2.5.4.4M42 65.5l.2 2.6v.2l.4.9.2-1-.1-1.6-.6-2.3-.2 1.2Z"/>
    <path d="M47.1 65.2h.2v-.1l-.2.1M46.5 66.2c0 .2-.2.3-.3.5v1l.5-.8v-.7h-.2ZM41.1 67.4a2 2 0 0 0-.6-.3l.2.4.4-.1ZM38.6 67.6l.2 2.5.4-.1-.3-2.4zM41 68.3c0 .2.1.5.3.7l.5-.8H40.9M42.5 70.5V72l-.9.5.7.2.2.3.7-.9-.2-.6c0-.3-.2-.6-.5-.9M41.2 70.7v.7h.7c-.1-.3-.4-.5-.7-.7M40.2 72l.5-.3-.6-.5zM40.7 75ZM54 40.5v.4h.3l-.3-.4M54 39.3V39v.2ZM54.2 35.2l-.2-2.5h-.3l.2 2.5h.3Z"/>
    <path d="M47.5 30.5H42.8v1l-.9-.3.3-.5.6-.2c-1.9-.2-3.9-.7-6-1.4v.1c-.4 0-.7 0-1-.2v-.3l-1.1-.5-.2.8-.6.5.4.5.4.8-.3.4-.5-.2V28c-1-.6-2-1.2-3-2l-1.7.4c.1-.3.4-.5.7-.6l.1-.3-1.6-1.3a27 27 0 0 1-7.1 4.6l.1.5.1.3-.1 1-1-.4c0-.4 0-.7.2-1.1l-1.4.5.2.3-.3.4-.5-.1v-.4l-1.2.3v.4c.2.4.4.7.8 1l1 .2-1.3.5-.2 1.3c-.4-.2-.6-.6-.6-1l-.6-1.4v-.8l-2 .4c0-.2.2-.3.3-.5l-.1-.1h-.3l-.4.6h.5-.5c-5.6.6-9.7-.7-10.4-.9-.9 6.2-.8 11.6 0 16.7l2.2.8V47l.3.1v.2L8 48c.2-.4.4-.6.8-.7l.2-.1h.6l-.2.7-.3.5L8 48l-.2.2v.5l1 .3h-.1l-.9.1v-.4L6.1 48v1.3l-.3-1.2V48H6v-.7h-.3v.7l-2.2-.8c.7 4.6 2 8.7 3.6 12.4h-.1c0 .3.2.4.3.5l-.2-.5h.5v.6h-.3C9 63.6 11 66.8 13 69.5v-2.9l-.1-16.3-4-1.4.3-.6 2.2.7-.2.5h.4l.2-.4-.4-.1.1-.3.4.2v.2l9.4 3.3.2.8v-.7l-.2-.1v-2c.2 0 .3 0 .3.2v1.9l7 2.4 20.3-7-.5-.6c.5 0 .8.1 1 .4l-.5.1.6.2-.1-.3 4.2-1.5c.3-1.8.4-3.5.5-5.4h-.3v-.6c.2 0 .3.1.3.2v-1.2h-.4v-.7c.2.2.4.3.4.5v-3.9h-.3l-.2-2.4h.2c0-1.1-.2-2.2-.4-3.3-.3 0-1.8.6-4 .9h.7l-1.3.6v1.4c-.5-.2-.7-.5-.8-1l-.4-.9 1.8-.1-.3-.1c-.3-.1-.5-.3-.6-.6l-1.2.1v.2l.3.5ZM5 34l.4-.1v.6h-.4V34Zm.6 9.4V43h.2c0 .1 0 .2-.2.3Zm.4-5.7c-.3 0-.5-.2-.7-.3l.8-.1v.4Zm1 3.3c.2 0 .4.1.5.3a1 1 0 0 1-.5-.3Zm1.8-6.2H7.7c0-.2.2-.4.3-.5l1-.2-.1.7Zm-3 16.8a.4.4 0 0 1-.1-.3l.3-.6c.1 0 .2 0 .2.2 0 .3-.2.5-.3.7ZM7.7 55c.1.1.3.2.3.4a.8.8 0 0 1-.3-.4Zm2 8.6c-.1 0-.2-.1-.2-.3L9.2 60c.2.6.4 1.2.4 1.7v2Zm2.9 4-.5.2v-.5l.5.4Zm-.9-5.2-.1.5v-.6l.1.1Zm-1.5-6c-.4 0-.6-.2-.7-.8.4.2.6.4.7.8Zm-.9.3h.1V58l-.1.1A8 8 0 0 1 9 57l.2-.2Zm-.8-5.4h-.6l.5-.4.2-.1H9c0 .2-.3.4-.5.5Zm4.1-9.7a.8.8 0 0 1-.5-.4c.3 0 .4.2.5.4Zm-.1 3.9-.2.6a.8.8 0 0 1-.3-.6h.5Zm-1-14.2.7-.3-.2 1a5 5 0 0 1-.8-.3l.3-.4Zm-.9 8.2-.3-1 1 .2.1 1.1c-.3 0-.6-.2-.8-.3Zm.5-2 .2-2.7.7.1-.2 2.6H11Zm.6 9.4c.6 0 .9.3 1 .7-.6 0-.9-.3-1-.7Zm1.8-10 .7-.2v.5l-.7-.4Zm1.1 5.3.3-.5v.6l-.3-.1ZM44 41a.8.8 0 0 1-.6-.4c.3 0 .5.2.6.4Zm0 3.9-.1.5a.8.8 0 0 1-.4-.5h.5Zm-1.7-10.7.7.1V37l-.7.1v-2.8Zm-3.2-.5 1-.3c0 .3 0 .5-.2.8h-1.1c0-.2.1-.4.3-.5Zm-.6 1.9.1 2.9H38l-.1-2.9h.5Zm-.6 6.8c.2.2.4.5.4.8h-.5v-.8Zm-.5-5.7v.5c-.3 0-.6-.2-.8-.3l.8-.2Zm-1.1-7.4-.1.5-.2-.5h.3Zm.3 4v1l-.2-.3h.2v-.6l-.4.1v.3l.2.2H36v-.2l-.3-.2.8-.3Zm-1 5.7a3 3 0 0 1-.8-.3l.7-.2.2.5Zm-1.2-1.3h-.4c.2-.4.4-.7.7-.9.3.2.4.5.5.8l-.8.1ZM35 34v.8c-.6-.1-1-.4-1.1-.9H35Zm-2.5-5.2a.8.8 0 0 1-.2-.4V27l.2 1.6ZM29.7 31l.3-.1v.2c0 .2-.1.4-.3.5h-.4l.4-.6Zm-1.9-2.2.3.6-1.2-.5 1-.1Zm-1.1 3.7.7-.3-.2 1.2-.8-.4.3-.5Zm-1.5-3.2.2 1.4c-.5-.3-.8-.7-.8-1.2l.6-.2ZM23.1 34v2l.2-.3 1-.2-.1.8h-1v.2h-.5l-.2-2.5h.6Zm-.7 5.9c.2.2.4.4.4.7l-.5-.1v-.6ZM21.2 32v.8l-.8-.5.8-.3Zm-.8 3.3h.5v.6h-.5v-.6Zm.8 9.8h-1v-.6c.5 0 .8.3 1 .6Zm-1-8.1c-.3 0-.6-.2-.8-.3l.7-.2.1.5Zm-.5-4.5v.7c-.6 0-1-.3-1.1-.7h1.1Zm-2.3 2.3c.2.2.3.5.4.9l.1.2.1 2.6-.3 1.3-.6-2.4-.1-1.5.4-1.1Zm.6 10.1c-.3-.6-.4-1.2-.5-1.8l.1-2c.1 0 .2 0 .2.2L18 45Zm-1.4 3.5c.7 0 1 .2 1 .8-.5-.1-.8-.4-1-.8ZM18 48l-.1-1.2c0-.1.1-.2.3-.2l.2 1.2-.4.2Zm.6-12.3c.3-.3.5-.6.8-.7.3.2.4.4.5.7h-1.3Zm.8 3.8v-1c.4 0 .6.2.7.5l-.2 1-.5-.5Zm.5 9.8c.3 0 .4.2.6.4a1 1 0 0 1-.6-.4Zm1.3-3.2V46h.2c0 .1 0 .2-.2.3Zm.4-6.5-.8-.4.8-.2v.6Zm1 3.8c.2 0 .4.1.5.3a1 1 0 0 1-.6-.3Zm2.3 8-.7 1.4h-.8v-1c.1-.5.5-.9.9-1l.2-.2.6.1-.2.8Zm2.2 2h-.4l.2-.9.4.2-.2.7Zm0-3c.6.1.9.4 1 .8-.6 0-.9-.3-1-.8Zm.3-1.5h.5l-.2.6a1 1 0 0 1-.3-.6Zm1.2-2L27 41.8h-4.3l.3.4h-.5v-.5h.2l-.1-.1v.1h-1l4.4-3-1.4-5.1 4.2 3.1 3.7-2.5v-.4l-.6-1.8v-1.3c.3 0 .6 0 .8-.2l.2.9c0 .5.3.8.7 1l1 .4-1.3.5L33 35l-.2-.2-1.4 4 1 .8v-1.8l.3-1.2c.2.3.4.6.4 1l.2.3v2.4l1.4 1v.5l-1.4-.5v-1l-.9-.7.4 1.5-4-1.4 2.3-.8 1.5-4.4s0 .2.2.3l.3-1-.7.5.2.2-3.9 5.2V37l-3.8-2.9 3.7 5.3-2.2-.7-3.9 2.6 6.1-1.8-1.4 2 1.4 4.5.1-6.4 1.3 2h3v.3h.1v.3L33 42h-2.8l-1.7 5Zm4.7-3 .2 4.2a7 7 0 0 1-.5-2l.1-2.5.2.3ZM32 52.2c.7 0 1 .3 1 .9-.4-.1-.8-.4-1-1Zm1.3-.4-.1-1.3c0-.2.1-.2.3-.2l.2 1.3-.4.2Zm1.9-9.1c-.3-.2-.4-.4-.5-.7H33v-.3h1.6v.3h.6v-.3l-.6-.5V41c.4 0 .6.1.7.4v.3l.4.3h-.5l-.1.7Zm.5 5.8v-.7c.4 0 .7.2.9.7h-1Zm1.5-5.6H37v-.3h.3l-.2.3Zm.2 3.7.3.1V49l-.3-1.2v-1.2ZM38 51a.4.4 0 0 1-.3-.2l.3-.7c.1 0 .2.1.2.3l-.2.6Zm-.1-6v-.7l.5.8h-.5Zm.6-4.6c.2 0 .4.2.5.3a1 1 0 0 1-.5-.3Zm1.9 10.4h-.6c.1-.1.3-.3.5-.3l.2-.2.4.1-.5.4Zm.8-3.5-.7 1.2-.8.1-.1-.9c.2-.5.5-.8 1-1h.7l-.1.6Zm.6-8.4-.4-.8h1l.3 1.1-.9-.3Zm1.6 10h-.4l.2-.8.4.1-.2.7Zm0-2.6c.5 0 .8.2 1 .6-.6 0-1-.2-1-.6ZM44.4 36l.7-.1v.4l-.7-.3Zm4.5 4c.1 0 .2 0 .3.2l.3 3.6-.6-1.8v-2Zm.7 7h-.1l-.1-1.2c0-.1.1-.2.3-.2l.3 1.1-.4.2Zm1.5-8-.6-.6v-1c.4 0 .6.1.7.4L51 39Zm1.6 4.8-1 .1v-.6c.5 0 .8.2 1 .5ZM52 31v.7l-.8-.4.8-.4Zm-.8 5-.8-.3.7-.2.1.5Zm-.5-1.3-.8.2h-.4c.2-.4.4-.7.7-.8.3.2.4.4.5.6Zm-.2-3.2v.7c-.6 0-1-.3-1.2-.7h1.2Zm-2.3 2.4c.3.2.4.5.5.8l.1.3.3 2.6-.3 1.3-.7-2.4L48 35l.3-1.1ZM46 41.4l.2-.5v.6H46ZM44.8 29.8"/>
    <path d="M23.4 60.3c0-.2-.2-.3-.4-.4l.4.4M23.2 65.8v-.7h-.6c0 .4.3.7.6.7M21.8 69.1v-.7h-.3c0 .3.1.5.3.7M21.9 71v-.7h-.4l.4.8M23.6 71.1l-.1.9v.2-1ZM21.4 74.8l.1 2.9h.4l-.2-2.9zM25.4 82.3v.4l.5-.1-.5-.3M22.8 80l.5-.4-.5-.5zM30.5 84c.2 0 .3-.2.4-.3 0-.2 0-.4-.2-.6l-.2.2v.7ZM23.5 55.3l-.2.3h.2v-.3ZM21.7 55c0-.2 0-.3-.2-.4l-.3.8.2.3.3-.8M35.8 53.8a1 1 0 0 0-.5-.4c0 .2.2.3.5.4M34 27.9l.7.3.2-.7h.2l-.6-.3c-.2.1-.4.4-.5.7M20.8 29l-.2-.4v.4h.2M37.4 28.4l-.4-.1.4.3v-.2ZM15.7 54c.2 0 .3-.1.3-.3h-.4l-.3.4h.4ZM17.4 53.9l-.1-.3-.2.7c0 .1 0 .2.2.2l.1-.6ZM13.8 55.4h-.2l-.2.6.3.2.1-.8M17.5 56.8c0-.3 0-.7-.2-1.1v2.2l.2.1v-1.2ZM16.1 56.8v-.9h-.6l-.5 1.2-.1.6H15.5c.3-.1.5-.4.6-1M13.5 58c0-.5-.2-.7-.6-.7 0 .4.3.6.6.6M13 59.3h.4c0-.2-.1-.4-.3-.5v.5ZM17.7 62v-.4h-.1l-.2.3h.3ZM13 63c0 .3.2.4.4.5l-.4-.4M16.3 63.6l.4.4c0-.2-.2-.3-.4-.4M13.8 64.9l.1 1c.2.2.5.2.7.2l-.2-.9a2 2 0 0 0-.6-.3M13.5 69.7l.5.1v-2.7h-.4l-.1 2.6ZM17.4 67.2v.5l.5-.2-.5-.3M15.5 70.7l.6-.2.2-.4h-.7l-.1.6M17.8 70.4v.6l.3-.1.1-.6zM18 76.6v-.3l.2-1-.7-.3v1.1l.6.5M23 36.3h.2V36l-.2.3M16.5 29.8v.4l.9-.2v-.3h-.9M20.6 28.5v.1ZM20.8 28.9Z"/>
</svg>