<?xml version="1.0" encoding="UTF-8" standalone="no"?>
<svg width="27px" height="27px" viewBox="0 0 27 27" version="1.1" xmlns="http://www.w3.org/2000/svg" xmlns:xlink="http://www.w3.org/1999/xlink">
    <defs>
        <path d="M11.1764706,11.1764706 L6.32352941,11.1764706 C5.59283088,11.1764706 5,11.7693015 5,12.5 C5,13.2306985 5.59283088,13.8235294 6.32352941,13.8235294 L11.1764706,13.8235294 L13.8235294,13.8235294 L18.6764706,13.8235294 C19.4071691,13.8235294 20,13.2306985 20,12.5 C20,11.7693015 19.4071691,11.1764706 18.6764706,11.1764706 L13.8235294,11.1764706 L11.1764706,11.1764706 Z" id="path-1"></path>
        <filter x="-3.3%" y="-18.9%" width="106.7%" height="175.6%" filterUnits="objectBoundingBox" id="filter-2">
            <feOffset dx="0" dy="1" in="SourceAlpha" result="shadowOffsetOuter1"></feOffset>
            <feColorMatrix values="0 0 0 0 0   0 0 0 0 0   0 0 0 0 0  0 0 0 0.13 0" type="matrix" in="shadowOffsetOuter1"></feColorMatrix>
        </filter>
    </defs>
    <g id="Symbols" stroke="none" stroke-width="1" fill="none" fill-rule="evenodd">
        <g id="Collapse-button-Copy" transform="translate(1.000000, 1.000000)">
            <g id="Collapse-button">
                <path d="M12.5,25.5 C5.32029825,25.5 -0.5,19.6797017 -0.5,12.5 C-0.5,5.32029825 5.32029825,-0.5 12.5,-0.5 C19.6797017,-0.5 25.5,5.32029825 25.5,12.5 C25.5,19.6797017 19.6797017,25.5 12.5,25.5 Z M12.5,24.5 C19.127417,24.5 24.5,19.127417 24.5,12.5 C24.5,5.872583 19.127417,0.5 12.5,0.5 C5.872583,0.5 0.5,5.872583 0.5,12.5 C0.5,19.127417 5.872583,24.5 12.5,24.5 Z" id="Oval-2" fill="#FFAE2D" fill-rule="nonzero"></path>
                <g id="Page-1">
                    <use fill="black" fill-opacity="1" filter="url(#filter-2)" xlink:href="#path-1"></use>
                    <use fill="#FFAE2D" fill-rule="evenodd" xlink:href="#path-1"></use>
                </g>
            </g>
        </g>
    </g>
</svg>