<?xml version="1.0" encoding="UTF-8" standalone="no"?>
<svg width="41px" height="41px" viewBox="0 0 41 41" version="1.1" xmlns="http://www.w3.org/2000/svg" xmlns:xlink="http://www.w3.org/1999/xlink"> 
    <defs></defs>
    <g id="UI-KIT" stroke="none" stroke-width="1" fill="none" fill-rule="evenodd">
        <g id="RDC-UI-KIT" transform="translate(-1661.000000, -2785.000000)" fill="#FFFFFF">
            <g id="Location-Finder" transform="translate(738.000000, 2624.000000)">
                <g id="Dropdown">
                    <path d="M925.445879,178.484851 C925.445879,170.19239 932.19239,163.455199 940.475986,163.455199 C948.767993,163.455199 955.505639,170.20171 955.505639,178.484851 C955.505639,186.767993 948.767993,193.523824 940.475986,193.523824 C932.19239,193.523824 925.445879,186.777313 925.445879,178.484851 M963.643641,199.915614 L953.678276,189.950363 C956.351354,186.877216 957.969703,182.867202 957.969703,178.484851 C957.969703,168.837837 950.123,161 940.484851,161 C930.837837,161 923,168.846702 923,178.484851 C923,188.123 930.846702,195.969703 940.484851,195.969703 C944.867202,195.969703 948.877216,194.351354 951.950363,191.678276 L961.915614,201.643641 C962.152246,201.879819 962.470597,202.007227 962.779628,202.007227 C963.088659,202.007227 963.407009,201.889139 963.643641,201.643641 C964.116451,201.170718 964.116451,200.388537 963.643641,199.915614" id="Search-Icon" transform="translate(943.499124, 181.503614) scale(-1, 1) translate(-943.499124, -181.503614) "></path>
                </g>
            </g>
        </g>
    </g>
</svg>