<?xml version="1.0" encoding="UTF-8" standalone="no"?>
<svg width="47px" height="47px" viewBox="0 0 47 47" version="1.1" xmlns="http://www.w3.org/2000/svg" xmlns:xlink="http://www.w3.org/1999/xlink">
    <defs>
        <rect id="path-1" x="0" y="0" width="46.2" height="46.2" rx="2"></rect>
    </defs>
    <g id="RDC-Website-Desktop" stroke="none" stroke-width="1" fill="none" fill-rule="evenodd">
        <g id="Blog-Details" transform="translate(-1166.000000, -632.000000)">
            <g id="Blog-Post" transform="translate(0.000000, 509.000000)">
                <g id="Share" transform="translate(1097.000000, 123.000000)">
                    <g id="Share-Mobile" transform="translate(69.000000, 0.000000)">
                        <g id="Share-Button" stroke-width="1">
                            <g id="Rectangle-+-Rectangle-Copy-Mask">
                                <g id="Rectangle">
                                    <mask id="mask-2" fill="white">
                                        <use xlink:href="#path-1"></use>
                                    </mask>
                                    <use id="Mask" fill="#79D99A" xlink:href="#path-1"></use>
                                </g>
                            </g>
                        </g>
                        <g id="Shared-icon" transform="translate(13.000000, 6.000000)" fill="#FFFFFF">
                            <path d="M20.9524917,30.8777854 L0.411630084,30.8777854 L0.411630084,10.3656926 L6.43475967,10.3656926 C6.84609293,10.3656926 7.17902974,10.6981631 7.17902974,11.1089202 C7.17902974,11.5191819 6.84609293,11.8521479 6.43475967,11.8521479 L1.90017022,11.8521479 L1.90017022,29.3913301 L19.4639515,29.3913301 L19.4639515,11.8521479 L14.9288659,11.8521479 C14.5180288,11.8521479 14.1845958,11.5191819 14.1845958,11.1089202 C14.1845958,10.6981631 14.5180288,10.3656926 14.9288659,10.3656926 L20.9524917,10.3656926 L20.9524917,30.8777854 Z" id="Fill-1"></path>
                            <path d="M10.6819616,18.3155035 C10.2706284,18.3155035 9.93769156,17.9825375 9.93769156,17.5722759 L9.93769156,1.84508276 C9.93769156,1.43482109 10.2706284,1.10185509 10.6819616,1.10185509 C11.0932949,1.10185509 11.4262317,1.43482109 11.4262317,1.84508276 L11.4262317,17.5722759 C11.4262317,17.9825375 11.0932949,18.3155035 10.6819616,18.3155035" id="Fill-4"></path>
                            <path d="M6.43485891,6.88302678 C6.24779903,6.88302678 6.06024297,6.8126679 5.9153584,6.67195012 C5.62112363,6.38555973 5.61516947,5.91484887 5.90196154,5.62102619 L10.6216261,0.787073395 L15.4554122,5.6140894 C15.7461737,5.90444368 15.7461737,6.37515454 15.4554122,6.66550882 C15.1646506,6.95536761 14.6937758,6.95536761 14.4030143,6.66550882 L10.635023,2.90279484 L6.96775628,6.65857203 C6.82187934,6.80820853 6.62836912,6.88302678 6.43485891,6.88302678" id="Fill-6"></path>
                        </g>
                    </g>
                </g>
            </g>
        </g>
    </g>
</svg>