<?xml version="1.0" encoding="UTF-8" standalone="no"?>
<svg width="18px" height="23px" viewBox="0 0 18 23" version="1.1" xmlns="http://www.w3.org/2000/svg" xmlns:xlink="http://www.w3.org/1999/xlink">
    <defs></defs>
    <g id="RDC-Website-Desktop" stroke="none" stroke-width="1" fill="none" fill-rule="evenodd">
        <g id="Masterclass" transform="translate(-836.000000, -1705.000000)" fill="#FFFFFF">
            <g id="Masterclass-packages" transform="translate(-1.000000, 755.000000)">
                <g id="Share" transform="translate(784.000000, 936.000000)">
                    <path d="M69.5754,22.6645 C70.0464,22.6645 70.4184,23.0925 70.4184,23.5635 L70.4184,35.4425 C70.4184,35.9135 70.0464,36.2275 69.5754,36.2275 L53.8424,36.2275 C53.3714,36.2275 53.0004,35.9135 53.0004,35.4425 L53.0004,23.5635 C53.0004,23.0925 53.3714,22.6645 53.8424,22.6645 L57.7544,22.6645 C58.2254,22.6645 58.6104,23.0505 58.6104,23.5205 C58.6104,23.9925 58.2254,24.3775 57.7544,24.3775 L54.7134,24.3775 L54.7134,34.5145 L68.7044,34.5145 L68.7044,24.3775 L65.9484,24.3775 C65.4774,24.3775 65.0924,23.9925 65.0924,23.5205 C65.0924,23.0505 65.4774,22.6645 65.9484,22.6645 L69.5754,22.6645 Z M61.5657,29.0888 C61.0947,29.0888 60.7097,28.7038 60.7097,28.2328 L60.7097,17.0108 L57.7397,19.8658 C57.3967,20.1948 56.8547,20.1808 56.5267,19.8378 C56.1977,19.4948 56.2117,18.9528 56.5547,18.6248 L60.8237,14.5268 C60.9097,14.3838 61.0377,14.2558 61.1947,14.1838 C61.5237,13.9268 61.9797,13.9418 62.2947,14.2128 L67.2197,18.5958 C67.5767,18.9098 67.6047,19.4518 67.2917,19.8088 C67.1197,19.9948 66.8907,20.0948 66.6487,20.0948 C66.4487,20.0948 66.2347,20.0238 66.0777,19.8808 L62.4227,16.6258 L62.4227,28.2328 C62.4227,28.7038 62.0377,29.0888 61.5657,29.0888 Z" id="Combined-Shape"></path>
                </g>
            </g>
        </g>
    </g>
</svg>