<?xml version="1.0" encoding="UTF-8" standalone="no"?>
<svg width="61px" height="61px" viewBox="0 0 61 61" version="1.1" xmlns="http://www.w3.org/2000/svg" xmlns:xlink="http://www.w3.org/1999/xlink"> 
    <defs></defs>
    <g id="RDC-Website-Desktop" stroke="none" stroke-width="1" fill="none" fill-rule="evenodd">
        <g id="Blog-Landing" transform="translate(-886.000000, -4162.000000)">
            <g id="Section-3" transform="translate(-21.000000, 2393.000000)">
                <g id="Social" transform="translate(825.000000, 1769.000000)">
                    <g id="Twitter" transform="translate(82.000000, 0.000000)">
                        <path d="M61,30.5 C61,47.3446505 47.3446505,61 30.5,61 C13.6553495,61 0,47.3446505 0,30.5 C0,13.6553495 13.6553495,0 30.5,0 C47.3446505,0 61,13.6553495 61,30.5" id="Twitter-Circle" fill="#24A9E6"></path>
                        <path d="M43.464428,20.4695547 C42.4245751,21.1007439 41.2755588,21.5597907 40.0474688,21.8054086 C39.0691954,20.7347661 37.6710622,20.0657895 36.1231791,20.0657895 C33.1561697,20.0657895 30.7482736,22.5345652 30.7482736,25.5792486 C30.7482736,26.0110045 30.7944582,26.4308643 30.8868274,26.8346295 C26.4181194,26.6044064 22.456742,24.4120383 19.803228,21.0720535 C19.3399827,21.8893806 19.075471,22.837564 19.075471,23.8466271 C19.075471,25.7590886 20.0243542,27.4469251 21.4679722,28.4356949 C20.5876661,28.4091038 19.7570434,28.1585874 19.0306859,27.7478246 L19.0306859,27.8157019 C19.0306859,30.4881097 20.884367,32.7175653 23.3461451,33.2220968 C22.8954955,33.3515536 22.4196544,33.4159321 21.9291182,33.4159321 C21.5827338,33.4159321 21.2447467,33.3830431 20.917256,33.3186646 C21.6016275,35.5082335 23.5861649,37.1030011 25.9394792,37.144987 C24.0997934,38.6249929 21.780068,39.5066985 19.2616088,39.5066985 C18.8277537,39.5066985 18.3987969,39.4815069 17.9789371,39.4311237 C20.3581427,40.9930023 23.1858986,41.9061974 26.221485,41.9061974 C36.1126826,41.9061974 41.5197772,33.506202 41.5197772,26.2195349 C41.5197772,25.979515 41.5155786,25.7401949 41.5064817,25.5050734 C42.556831,24.7269332 43.4693263,23.757057 44.1872866,22.6514262 C43.2244081,23.0894799 42.1873543,23.3861809 41.0999174,23.5191365 C42.2104466,22.837564 43.0627621,21.756425 43.464428,20.4695547" fill="#FFFFFF"></path>
                    </g>
                </g>
            </g>
        </g>
    </g>
</svg>