<?xml version="1.0" encoding="UTF-8" standalone="no"?>
<svg width="61px" height="61px" viewBox="0 0 61 61" version="1.1" xmlns="http://www.w3.org/2000/svg" xmlns:xlink="http://www.w3.org/1999/xlink">     
    <defs></defs>
    <g id="RDC-Website-Desktop" stroke="none" stroke-width="1" fill="none" fill-rule="evenodd">
        <g id="Blog-Landing" transform="translate(-1052.000000, -4162.000000)">
            <g id="Section-3" transform="translate(-21.000000, 2393.000000)">
                <g id="Social" transform="translate(825.000000, 1769.000000)">
                    <g id="Youtube" transform="translate(248.000000, 0.000000)">
                        <path d="M61,30.5 C61,47.3446505 47.3446505,61 30.5,61 C13.6553495,61 0,47.3446505 0,30.5 C0,13.6553495 13.6553495,0 30.5,0 C47.3446505,0 61,13.6553495 61,30.5" id="Twitter-Circle" fill="#D42328"></path>
                        <path d="M27.8392286,35.3638026 L27.8392286,24.2661659 L36.2552951,29.8156733 L27.8392286,35.3638026 Z M45.521115,24.4719811 C45.521115,22.0378791 43.5494847,20.0657895 41.1173735,20.0657895 L20.4559136,20.0657895 C18.0242618,20.0657895 16.0526316,22.0384917 16.0526316,24.4719811 L16.0526316,36.2867552 C16.0526316,38.7208572 18.0242618,40.6931 20.4559136,40.6931 L41.116761,40.6931 C43.5494847,40.6931 45.5205024,38.7202447 45.5205024,36.2867552 L45.5205024,24.4719811 L45.521115,24.4719811 Z" id="Fill-1" fill="#FFFFFF"></path>
                    </g>
                </g>
            </g>
        </g>
    </g>
</svg>