<?xml version="1.0" encoding="UTF-8" standalone="no"?>
<svg width="61px" height="61px" viewBox="0 0 61 61" version="1.1" xmlns="http://www.w3.org/2000/svg" xmlns:xlink="http://www.w3.org/1999/xlink">
    <defs>
        <linearGradient x1="50%" y1="0%" x2="50%" y2="100%" id="linearGradient-1">
            <stop stop-color="#24A9E6" offset="0%"></stop>
            <stop stop-color="#961EA0" offset="29.2166061%"></stop>
            <stop stop-color="#BF1878" offset="54.2260805%"></stop>
            <stop stop-color="#961E9F" offset="78.4486492%"></stop>
            <stop stop-color="#DF993D" offset="100%"></stop>
        </linearGradient>
        <path d="M61,30.5 C61,47.3446505 47.3446505,61 30.5,61 C13.6553495,61 0,47.3446505 0,30.5 C0,13.6553495 13.6553495,0 30.5,0 C47.3446505,0 61,13.6553495 61,30.5" id="path-2"></path>
        <linearGradient x1="66.8139539%" y1="-10.5072748%" x2="98.3430837%" y2="111.45127%" id="linearGradient-4">
            <stop stop-color="#4E60D3" offset="0%"></stop>
            <stop stop-color="#913BAF" offset="14.2763214%"></stop>
            <stop stop-color="#D52D88" offset="76.145798%"></stop>
            <stop stop-color="#F26D4F" offset="100%"></stop>
        </linearGradient>
        <radialGradient cx="30.2743283%" cy="100%" fx="30.2743283%" fy="100%" r="93.3946263%" gradientTransform="translate(0.302743,1.000000),scale(0.692191,1.000000),rotate(23.519767),scale(1.000000,0.719668),translate(-0.302743,-1.000000)" id="radialGradient-5">
            <stop stop-color="#FED276" offset="0%"></stop>
            <stop stop-color="#FDBD61" stop-opacity="0.975005661" offset="17.0240041%"></stop>
            <stop stop-color="#F6804D" offset="45.4081253%"></stop>
            <stop stop-color="#E83D5C" stop-opacity="0" offset="100%"></stop>
        </radialGradient>
    </defs>
    <g id="RDC-Website-Desktop" stroke="none" stroke-width="1" fill="none" fill-rule="evenodd">
        <g id="Blog-Landing" transform="translate(-969.000000, -4162.000000)">
            <g id="Section-3" transform="translate(-21.000000, 2393.000000)">
                <g id="Social" transform="translate(825.000000, 1769.000000)">
                    <g id="Insta" transform="translate(165.000000, 0.000000)">
                        <g id="Instagram-icon">
                            <g id="Bitmap">
                                <mask id="mask-3" fill="white">
                                    <use xlink:href="#path-2"></use>
                                </mask>
                                <use id="Mask" fill="url(#linearGradient-1)" xlink:href="#path-2"></use>
                                <path d="M46.2975525,-0.405198904 C55.1139588,-0.405198904 60.8327088,5.30881123 60.8327088,14.1179102 L60.8327088,46.0211335 C60.8327088,54.8302324 55.1139588,60.5442426 46.2975525,60.5442426 L14.367865,60.5442426 C5.55145875,60.5442426 -0.167291248,54.8302324 -0.167291248,46.0211335 L-0.167291248,14.1179102 C-0.167291248,5.30881123 5.55145875,-0.405198904 14.367865,-0.405198904 L46.2975525,-0.405198904 Z" id="Background" fill="url(#linearGradient-4)" mask="url(#mask-3)"></path>
                                <path d="M60.3691328,50.2026111 C58.8423449,56.6252628 53.6459238,60.5948011 46.2975525,60.5948011 L14.367865,60.5948011 C5.55145875,60.5948011 -0.167291248,54.880791 -0.167291248,46.071692 L-0.167291248,20.9004259 C4.68331625,19.4715041 9.91946374,18.6920601 15.3805603,18.6920601 C38.2705817,18.6920601 57.2086033,32.3856588 60.3691328,50.2026111 L60.3691328,50.2026111 Z" id="Yellow-Flare" fill="url(#radialGradient-5)" mask="url(#mask-3)"></path>
                                <g id="Icon" mask="url(#mask-3)" fill="#FFFFFF">
                                    <g transform="translate(14.447368, 14.447368)">
                                        <path d="M29.2854452,23.3251971 C29.2854452,26.6119948 26.6119948,29.2854452 23.3251971,29.2854452 L9.061931,29.2854452 C5.77513334,29.2854452 3.10168296,26.6119948 3.10168296,23.3251971 L3.10168296,9.06216636 C3.10168296,5.7753687 5.77513334,3.10168296 9.061931,3.10168296 L23.3251971,3.10168296 C26.6119948,3.10168296 29.2854452,5.7753687 29.2854452,9.06216636 L29.2854452,23.3251971 Z M23.3251971,0.277367033 L9.061931,0.277367033 C4.21775847,0.277367033 0.277367033,4.21799383 0.277367033,9.06216636 L0.277367033,23.3251971 C0.277367033,28.1693697 4.21775847,32.1097611 9.061931,32.1097611 L23.3251971,32.1097611 C28.1693697,32.1097611 32.1097611,28.1684282 32.1097611,23.3251971 L32.1097611,9.06216636 C32.1097611,4.21799383 28.1693697,0.277367033 23.3251971,0.277367033 L23.3251971,0.277367033 Z" id="Fill-1"></path>
                                        <path d="M16.1381316,22.0249863 C13.1730706,22.0249863 10.7596927,19.6134912 10.7596927,16.6474888 C10.7596927,13.6826632 13.1721292,11.2692852 16.1381316,11.2692852 C19.1041341,11.2692852 21.5165706,13.6826632 21.5165706,16.6474888 C21.5165706,19.6134912 19.1031926,22.0249863 16.1381316,22.0249863 M16.1381316,8.44591072 C11.6147543,8.44591072 7.93537674,12.1252883 7.93537674,16.6474888 C7.93537674,21.1708661 11.6147543,24.8502437 16.1381316,24.8502437 C20.6605675,24.8502437 24.3408865,21.1708661 24.3408865,16.6474888 C24.3408865,12.1252883 20.6605675,8.44591072 16.1381316,8.44591072" id="Fill-4"></path>
                                        <path d="M24.8122625,5.89324082 C24.2678756,5.89324082 23.7338446,6.11306674 23.3495022,6.49905658 C22.962571,6.88339891 22.7408622,7.41837142 22.7408622,7.96464119 C22.7408622,8.50879272 22.9635124,9.04305915 23.3495022,9.429049 C23.7329031,9.81339132 24.2678756,10.0351001 24.8122625,10.0351001 C25.3582969,10.0351001 25.8906805,9.81339132 26.2769057,9.429049 C26.6628955,9.04305915 26.8836629,8.50785128 26.8836629,7.96464119 C26.8836629,7.41837142 26.6628955,6.88339891 26.2769057,6.49905658 C25.8925634,6.11306674 25.3582969,5.89324082 24.8122625,5.89324082" id="Fill-6"></path>
                                    </g>
                                </g>
                            </g>
                        </g>
                    </g>
                </g>
            </g>
        </g>
    </g>
</svg>