<svg width="52" height="48" viewBox="0 0 52 48" fill="none" xmlns="http://www.w3.org/2000/svg">
<path fill-rule="evenodd" clip-rule="evenodd" d="M36.5469 34.7845C36.6327 34.864 36.6786 35.0124 36.6614 35.1237L36.6614 35.1238C36.6614 35.1238 36.6385 35.2192 36.6499 35.3676C36.6728 35.6802 36.816 35.9929 37.0736 36.2314L48.7998 47.0843C49.3725 47.6142 50.3 47.6144 50.8726 47.0843C51.4451 46.5543 51.4451 45.6958 50.8726 45.1659L39.1464 34.313C38.9116 34.0957 38.6139 33.9685 38.3047 33.9261C38.1158 33.9049 37.944 33.9367 37.944 33.9367C37.8238 33.9473 37.6635 33.8996 37.5833 33.8254L34.4342 30.9109C34.3483 30.8314 34.3598 30.7042 34.4457 30.6141C34.4457 30.6141 34.6403 30.418 34.8121 30.2379C37.778 27.0317 39.5759 22.8665 39.5759 18.3144C39.5759 8.19806 30.7182 0 19.7879 0C8.85767 0 0 8.19806 0 18.3144C0 28.4307 8.85767 36.6288 19.7879 36.6288C24.7062 36.6288 29.2008 34.97 32.6592 32.225C32.8596 32.0661 33.1001 31.8647 33.1001 31.8647C33.1859 31.7905 33.3176 31.7958 33.3978 31.87L36.5469 34.7845ZM38.1097 18.3143C38.1097 27.6781 29.9048 35.2721 19.7876 35.2721C9.67035 35.2721 1.46539 27.6781 1.46539 18.3143C1.46539 8.95053 9.67035 1.35658 19.7876 1.35658C29.9048 1.35658 38.1097 8.95053 38.1097 18.3143Z" fill="black"/>
</svg>
