<svg width="121" height="5" viewBox="0 0 121 5" fill="none" xmlns="http://www.w3.org/2000/svg">
<path d="M1 4L4.66739 1.24242C4.85553 1.10096 5.11686 1.10988 5.29492 1.26384L8.16035 3.7416C8.33553 3.89308 8.59181 3.90443 8.7797 3.76904L12.3019 1.23096C12.4898 1.09557 12.7461 1.10692 12.9213 1.2584L15.7867 3.73616C15.9648 3.89012 16.2261 3.89904 16.4142 3.75758L19.7507 1.2488C19.9427 1.10446 20.2102 1.117 20.3878 1.27867L23.0646 3.71518C23.2452 3.87958 23.5182 3.88944 23.7102 3.7385L26.898 1.23263C27.0732 1.09488 27.3184 1.08975 27.4993 1.22006L31.0282 3.76293C31.2199 3.90111 31.4822 3.88614 31.657 3.72704L34.3532 1.27296C34.528 1.11386 34.7903 1.09889 34.9821 1.23707L38.5109 3.77994C38.6918 3.91025 38.937 3.90512 39.1123 3.76737L42.3085 1.25482C42.4967 1.10685 42.7634 1.11309 42.9445 1.26969L45.7902 3.73031C45.9713 3.88691 46.238 3.89315 46.4262 3.74518L49.6094 1.24291C49.7907 1.10035 50.046 1.10035 50.2274 1.24291L53.4388 3.76737C53.614 3.90512 53.8592 3.91025 54.0401 3.77994L57.5598 1.24367C57.7557 1.10253 58.0244 1.12151 58.1985 1.28878L60.7068 3.69873C60.8866 3.87148 61.1662 3.88536 61.3623 3.73127L64.5408 1.23263C64.716 1.09488 64.9613 1.08975 65.1421 1.22006L68.6873 3.77469C68.8716 3.90747 69.1222 3.89938 69.2975 3.75501L72.3171 1.26824C72.5053 1.11331 72.7777 1.11659 72.962 1.27599L75.7767 3.70985C75.9681 3.8754 76.2531 3.87177 76.4403 3.7014L79.088 1.29145C79.2718 1.12415 79.5505 1.11725 79.7424 1.27524L82.7405 3.74424C82.9218 3.89358 83.1826 3.89654 83.3673 3.75136L86.5583 1.24291C86.7397 1.10035 86.995 1.10035 87.1763 1.24291L90.3747 3.75709C90.556 3.89965 90.8113 3.89965 90.9927 3.75709L94.1758 1.25482C94.3641 1.10685 94.6308 1.11309 94.8119 1.26969L97.6575 3.73031C97.8386 3.88691 98.1053 3.89315 98.2935 3.74518L101.483 1.23758C101.662 1.0975 101.912 1.09482 102.093 1.23104L105.453 3.75758C105.641 3.89904 105.903 3.89012 106.081 3.73616L108.957 1.2486C109.127 1.10168 109.374 1.0861 109.561 1.2105L113.454 3.79954C113.634 3.91916 113.87 3.90979 114.04 3.77631L117.231 1.26724C117.427 1.11379 117.705 1.12683 117.885 1.29786L120 3.30769" stroke="black"/>
</svg>
