<svg width="346" height="10" viewBox="0 0 346 10" fill="none" xmlns="http://www.w3.org/2000/svg">
<path d="M1.5 2L12.7359 8.35071C12.8982 8.44245 13.0981 8.43626 13.2544 8.33465L22.7508 2.16201C22.9044 2.06216 23.1003 2.05432 23.2614 2.14159L34.7386 8.35841C34.8997 8.44568 35.0956 8.43784 35.2492 8.33799L44.7456 2.16535C44.9019 2.06374 45.1018 2.05755 45.2641 2.14929L56.2288 8.34669C56.3948 8.44053 56.5997 8.43176 56.7571 8.32407L65.7373 2.17973C65.8976 2.07008 66.1068 2.06313 66.274 2.16192L76.7563 8.35602C76.9075 8.44535 77.0945 8.44883 77.2489 8.36521L88.7315 2.14543C88.8964 2.05614 89.0973 2.06656 89.252 2.17242L98.248 8.32758C98.4027 8.43344 98.6036 8.44386 98.7685 8.35457L110.251 2.1348C110.406 2.05117 110.592 2.05465 110.744 2.14398L121.233 8.34228C121.397 8.43889 121.601 8.43454 121.76 8.33104L131.24 2.16896C131.399 2.06546 131.603 2.06111 131.767 2.15772L142.246 8.34969C142.403 8.44241 142.597 8.44241 142.754 8.34969L153.256 2.14398C153.408 2.05465 153.594 2.05117 153.749 2.13479L165.224 8.35038C165.393 8.44185 165.599 8.42852 165.755 8.31607L174.235 2.19163C174.396 2.07524 174.611 2.06537 174.782 2.16651L185.256 8.35602C185.408 8.44535 185.594 8.44883 185.749 8.36521L197.245 2.13805C197.403 2.05267 197.594 2.05821 197.746 2.15257L207.73 8.33304C207.895 8.43496 208.104 8.43265 208.266 8.32713L217.72 2.18175C217.89 2.0717 218.109 2.07429 218.275 2.18831L227.231 8.31615C227.395 8.42792 227.609 8.43281 227.777 8.32863L237.743 2.15919C237.901 2.06132 238.1 2.05927 238.26 2.15386L248.746 8.34969C248.903 8.44241 249.097 8.44241 249.254 8.34969L259.746 2.15031C259.903 2.05759 260.097 2.05759 260.254 2.15031L270.733 8.34228C270.897 8.43889 271.101 8.43454 271.26 8.33104L280.74 2.16896C280.899 2.06546 281.103 2.06111 281.267 2.15772L291.751 8.35298C291.905 8.44394 292.096 8.44578 292.252 8.3578L303.236 2.14929C303.398 2.05755 303.598 2.06374 303.754 2.16535L313.26 8.34398C313.409 8.44063 313.597 8.45128 313.756 8.37197L326.256 2.12177C326.408 2.04585 326.588 2.05216 326.734 2.13852L337.22 8.33444C337.39 8.43509 337.604 8.42584 337.765 8.31085L344.5 3.5" stroke="black" stroke-width="3"/>
</svg>
