<?xml version="1.0" encoding="utf-8"?>
<!-- Generator: Adobe Illustrator 22.0.1, SVG Export Plug-In . SVG Version: 6.00 Build 0)  -->
<!DOCTYPE svg PUBLIC "-//W3C//DTD SVG 1.1//EN" "http://www.w3.org/Graphics/SVG/1.1/DTD/svg11.dtd">
<svg version="1.1" id="Layer_1" xmlns="http://www.w3.org/2000/svg" xmlns:xlink="http://www.w3.org/1999/xlink" x="0px" y="0px"
	 width="58.154px" height="17.689px" viewBox="0 0 58.154 17.689" enable-background="new 0 0 58.154 17.689" xml:space="preserve">
<title>Op1</title>
<desc>Created with Sketch.</desc>
<g id="Menu-Opened" transform="translate(-1143.000000, -411.000000)">
	<g id="Op1" transform="translate(1139.000000, 406.000000)">
		<path id="Fill-1" fill="#FF32A5" fill-opacity="0.9" d="M57.612,6.401c-0.032-0.073-0.064-0.146-0.096-0.22
			c-0.199,0.092-0.398,0.184-0.598,0.276c0.02,0.05,0.041,0.1,0.061,0.151C57.19,6.539,57.401,6.47,57.612,6.401z M33.988,21.857
			l-0.003,0.139l1.259-0.017c0-0.046,0-0.093,0-0.139L33.988,21.857z M51.443,6.31c-0.011,0.031-0.023,0.061-0.034,0.092
			c0.183,0.058,0.366,0.116,0.524,0.166c0.196-0.396,0.64-0.032,0.906-0.396C52.328,6.222,51.886,6.266,51.443,6.31z M10.696,22.36
			c-0.137-0.15-0.22-0.241-0.309-0.339c0.096-0.046,0.208-0.099,0.32-0.152c0.003-0.034,0.006-0.068,0.009-0.101
			c-0.478-0.078-0.955-0.166-1.435-0.231c-0.215-0.029-0.444-0.054-0.652-0.01c-0.566,0.118-1.096-0.145-1.705-0.095
			c0.243-0.09,0.434-0.161,0.625-0.231c-0.009-0.035-0.017-0.07-0.026-0.106l-1.37,0.019c0.013-0.347-0.123-0.46-0.57-0.466
			c0.203-0.292,0.427-0.603,0.634-0.926c0.034-0.054,0.008-0.169-0.025-0.24c-0.099-0.21-0.216-0.411-0.361-0.681
			c-0.179,0.023-0.444,0.058-0.709,0.092c-0.005-0.023-0.01-0.046-0.015-0.069c0.072-0.043,0.143-0.086,0.205-0.123
			c-0.108-0.265-0.215-0.528-0.354-0.871c-0.003,0-0.114,0.013-0.225,0.025c-0.016-0.019-0.032-0.037-0.047-0.055
			c0.186-0.123,0.371-0.247,0.56-0.372c-0.191-0.119-0.399-0.249-0.629-0.392c0.574-0.114,0.64-0.219,0.507-0.765
			c-0.006-0.025-0.029-0.049-0.028-0.072c0.027-0.405,0.028-0.405-0.457-0.512c0.277-0.048,0.45-0.079,0.651-0.114
			c0.015-0.247,0.03-0.492,0.047-0.778c-0.157-0.108-0.348-0.24-0.586-0.403c0.231,0.021,0.418,0.03,0.603,0.056
			c0.222,0.031,0.349-0.041,0.368-0.276c0.013-0.16,0.225-0.374-0.06-0.454c-0.256-0.072-0.535-0.059-0.587,0.314
			c-0.005,0.033-0.035,0.063-0.076,0.134c-0.029-0.195-0.051-0.349-0.076-0.52c0.361-0.237,0.403-0.667,0.367-1.083
			c-0.017-0.192-0.221-0.367-0.335-0.542c0.014-0.003,0.131-0.033,0.247-0.062c0.019-0.036,0.037-0.073,0.056-0.11
			c-0.205-0.135-0.409-0.269-0.608-0.4c0.031-0.035,0.097-0.11,0.163-0.184c-0.096-0.049-0.186-0.12-0.288-0.143
			C4.353,11.083,4.175,11.074,4,10.993c0.066-0.006,0.132-0.019,0.197-0.016c0.661,0.032,1.405-0.515,1.52-1.158
			c0.034-0.19-0.075-0.401-0.068-0.601c0.014-0.441,0.357-0.66,0.661-0.9c0.07-0.055,0.136-0.117,0.262-0.226
			C6.281,7.905,6.019,7.737,5.725,7.549c0.378-0.221,0.751-0.224,1.141-0.197c0.28,0.019,0.585,0.033,0.842-0.056
			c0.745-0.26,1.486-0.265,2.268-0.224c0.658,0.034,1.381,0.132,1.997-0.311c-0.06-0.019-0.125-0.039-0.199-0.062
			c0.029-0.016,0.048-0.036,0.066-0.036c0.648,0.032,1.296,0.066,1.944,0.099c0.899,0.046,1.798,0.103,2.698,0.134
			c0.797,0.027,1.594,0.021,2.391,0.039c0.213,0.005,0.425,0.069,0.637,0.063c0.949-0.028,1.899-0.06,2.846-0.119
			c0.232-0.015,0.454-0.195,0.685-0.206c1.404-0.065,2.812-0.068,4.215-0.158c1.776-0.113,3.548-0.294,5.322-0.434
			c0.386-0.031,0.777-0.014,1.165-0.02c0.001,0.039,0.002,0.079,0.003,0.118c-1.217,0.114-2.434,0.227-3.651,0.341
			c0,0.037,0,0.075,0.001,0.113l2.896-0.04c0.001,0.051,0.002,0.101,0.003,0.152c-0.669,0.042-1.339,0.085-2.008,0.127l0.002,0.04
			l2.722-0.037c-0.205-0.05-0.321-0.079-0.436-0.107c-0.004-0.032-0.009-0.063-0.013-0.095c0.121-0.026,0.241-0.076,0.362-0.075
			c0.689,0.005,1.378,0.037,2.067,0.031c0.809-0.007,1.62-0.024,2.428-0.074c1.192-0.074,2.382-0.181,3.573-0.273
			c0.582-0.045,1.164-0.089,1.747-0.131c0.825-0.06,1.65-0.152,2.476-0.168c1.419-0.028,2.839-0.013,4.258-0.005
			c0.559,0.003,1.119,0.043,1.678,0.049c0.115,0.001,0.34,0.095,0.302-0.186c0.191-0.009,0.382-0.032,0.572-0.023
			c0.578,0.027,1.155,0.066,1.733,0.1c0.005-0.044,0.01-0.088,0.014-0.132c-0.078-0.024-0.156-0.049-0.179-0.056
			c0.603-0.234,1.244-0.482,1.884-0.73c0.017,0.029,0.035,0.057,0.052,0.086c-0.219,0.138-0.438,0.277-0.697,0.441
			c0.331,0.108,0.681,0.223,1.119,0.366c-0.151,0.037-0.223,0.064-0.297,0.071c-0.674,0.059-1.348,0.11-2.021,0.176
			c-0.061,0.006-0.114,0.103-0.171,0.158c0.061,0.035,0.125,0.104,0.182,0.098c0.654-0.069,1.32-0.097,1.956-0.247
			c0.402-0.095,0.764-0.192,1.169-0.05c0.349,0.122,0.712,0.2,1.069,0.298c-0.004,0.035-0.007,0.071-0.011,0.106
			c-0.117,0.021-0.234,0.043-0.353,0.065c0.287,0.322,0.287,0.322,0.643,0.118c0.337-0.194,0.829,0.029,0.998,0.393
			c0.078,0.169,0.272,0.299,0.438,0.409c0.356,0.238,0.551,0.554,0.602,1.029c-0.38-0.251-0.451-0.888-1.145-0.654
			c0.177,0.268,0.337,0.511,0.523,0.792c-0.088,0.173-0.081,0.167-0.249-0.053c-0.057-0.074-0.165-0.11-0.309-0.115
			c0.043,0.078,0.068,0.18,0.133,0.231c0.325,0.262,0.292,0.584,0.212,0.939c-0.021,0.094,0.059,0.257,0.143,0.322
			c0.363,0.279,0.452,0.71,0.155,1.065c0.129-0.017,0.223-0.03,0.219-0.03c0.043,0.261,0.08,0.489,0.126,0.767
			c-0.02,0.013-0.1,0.066-0.194,0.128c0.066,0.166,0.128,0.32,0.209,0.522c-0.11,0.062-0.262,0.148-0.463,0.262
			c0.382,0.173,0.305,0.809,0.916,0.76c-0.053,0.078-0.095,0.141-0.149,0.22c0.117,0.064,0.222,0.121,0.387,0.21
			c-0.436,0.187-0.39,0.388-0.176,0.712c0.19,0.286,0.228,0.67,0.35,1.005c0.036,0.1,0.123,0.186,0.197,0.268
			c0.13,0.145,0.268,0.282,0.416,0.435c-0.193,0.046-0.324,0.077-0.454,0.108c0.03,0.101,0.06,0.202,0.07,0.236
			c-0.13,0.065-0.261,0.122-0.384,0.193c-0.141,0.081-0.29,0.261-0.411,0.242c-0.348-0.053-0.487,0.232-0.716,0.364
			c-0.033,0.019-0.04,0.168-0.006,0.202c0.054,0.053,0.182,0.105,0.229,0.076c0.192-0.117,0.275-0.012,0.364,0.131
			c0.095,0.151,0.2,0.295,0.317,0.465c-0.102,0.071-0.247,0.172-0.429,0.298c0.065,0.169,0.134,0.351,0.221,0.578
			c-0.132,0.015-0.307,0.071-0.47,0.045c-0.532-0.086-0.766,0.165-0.642,0.719c0.013,0.06,0.036,0.117,0.074,0.238
			c-0.178-0.017-0.349,0.018-0.44-0.051c-0.7-0.528-1.283-0.175-1.852,0.232c-0.289,0.207-0.569,0.345-0.929,0.187
			c-0.071-0.031-0.242-0.007-0.253,0.028c-0.181,0.56-0.615,0.231-0.938,0.273c-0.325,0.042-0.653,0.061-0.979,0.091
			c-0.004,0.044-0.007,0.088-0.011,0.131c0.187,0.064,0.373,0.129,0.579,0.2c-0.121,0.311-0.428,0.278-0.645,0.24
			c-0.934-0.163-1.863-0.043-2.796-0.025c-0.799,0.016-1.601-0.075-2.401-0.106c-0.312-0.012-0.628,0.044-0.937,0.012
			c-0.288-0.03-0.569-0.136-0.854-0.204c-0.029-0.007-0.066,0.019-0.106,0.101c0.221,0.022,0.442,0.044,0.663,0.066l-0.008,0.054
			c-0.365,0.039-0.731,0.078-1.108,0.118c-0.054-0.079-0.117-0.172-0.179-0.262c-0.42,0.204-0.788,0.173-0.955-0.009
			c-0.242,0.019-0.42,0.023-0.594,0.051c-0.072,0.011-0.135,0.1-0.205,0.103c-0.2,0.009-0.422,0.043-0.598-0.026
			c-0.279-0.109-0.565-0.102-0.818,0.025c-0.202,0.102-0.446,0.118-0.774,0.197c0.115-0.162,0.148-0.209,0.184-0.261
			c-0.71-0.014-0.71-0.014-0.603,0.268c-1.173,0.062-2.338,0.123-3.482,0.184c0.001,0.062,0.036,0.178-0.006,0.221
			c-0.049,0.051-0.226,0.076-0.24,0.051c-0.159-0.281-0.416-0.162-0.624-0.146c-1.103,0.082-2.204,0.186-3.306,0.277
			c-0.324,0.027-0.65,0.059-0.975,0.05c-0.251-0.007-0.5-0.08-0.752-0.111c-0.283-0.035-0.567-0.053-0.85-0.083
			c-0.229-0.025-0.458-0.058-0.687-0.085c-0.115-0.014-0.237-0.05-0.344-0.026c-0.298,0.066-0.591,0.158-0.913,0.248
			c0.065,0.054,0.123,0.102,0.23,0.191l-0.743,0.01c0.125-0.083,0.188-0.125,0.173-0.115c-0.729,0.01-1.521,0.002-2.311,0.042
			c-0.279,0.014-0.549,0.164-0.829,0.214c-0.13,0.023-0.275-0.063-0.414-0.066c-0.123-0.002-0.246,0.047-0.37,0.065
			c-0.331,0.048-0.662,0.091-0.993,0.136c0.01-0.034,0.02-0.068,0.03-0.102c-0.076-0.053-0.152-0.15-0.228-0.15
			c-0.364,0.002-0.729,0.036-1.093,0.048c-0.929,0.031-1.859,0.069-2.789,0.083c-1.063,0.015-2.132,0.07-3.19-0.006
			c-1.893-0.136-3.779-0.356-5.668-0.542c-0.052-0.005-0.102-0.028-0.153-0.03C11.416,21.977,10.944,21.768,10.696,22.36z"/>
		<path id="NEW" fill="#FFFFFF" d="M22.14,9.707c0.238,0.001,0.392,0.099,0.489,0.324l1.886,4.669
			c0.056,0.126,0.168,0.099,0.168-0.041l0.017-4.522c0.001-0.28,0.156-0.419,0.422-0.418l1.568,0.006
			c0.28,0.001,0.419,0.142,0.418,0.422l-0.034,8.96c-0.001,0.266-0.142,0.419-0.422,0.418l-2.058-0.008
			c-0.238-0.001-0.392-0.099-0.489-0.324l-1.886-4.669c-0.056-0.126-0.168-0.099-0.168,0.041l-0.017,4.522
			c-0.001,0.266-0.142,0.419-0.422,0.418L20.045,19.5c-0.266-0.001-0.419-0.156-0.418-0.422l0.034-8.96
			c0.001-0.28,0.156-0.419,0.422-0.418L22.14,9.707z M34.809,9.755c0.28,0.001,0.419,0.142,0.418,0.422l-0.006,1.568
			c-0.001,0.266-0.142,0.419-0.422,0.418l-3.388-0.013c-0.266-0.001-0.421,0.138-0.422,0.418l-0.002,0.448
			c-0.001,0.266,0.152,0.421,0.418,0.422l2.17,0.008c0.28,0.001,0.419,0.142,0.418,0.422l-0.006,1.568
			c-0.001,0.266-0.142,0.419-0.422,0.418l-2.17-0.008c-0.266-0.001-0.421,0.138-0.422,0.418l-0.002,0.448
			c-0.001,0.266,0.152,0.421,0.418,0.422l3.388,0.013c0.28,0.001,0.419,0.142,0.418,0.422l-0.006,1.568
			c-0.001,0.28-0.142,0.419-0.422,0.418l-5.88-0.022c-0.266-0.001-0.419-0.156-0.418-0.422l0.034-8.96
			c0.001-0.28,0.156-0.419,0.422-0.418L34.809,9.755z M35.802,10.221c-0.055-0.294,0.086-0.462,0.38-0.461l1.666,0.006
			c0.252,0.001,0.434,0.128,0.461,0.366l0.776,5.841c0.027,0.14,0.139,0.141,0.168,0.001l0.96-5.834
			c0.043-0.238,0.211-0.363,0.463-0.362l1.204,0.005c0.252,0.001,0.42,0.128,0.461,0.366l0.916,5.841
			c0.027,0.14,0.139,0.141,0.168,0.001l0.82-5.835c0.029-0.238,0.211-0.363,0.463-0.362l1.666,0.006
			c0.294,0.001,0.433,0.17,0.376,0.463l-1.756,8.967c-0.043,0.238-0.211,0.363-0.463,0.362l-1.974-0.007
			c-0.252-0.001-0.406-0.128-0.461-0.366l-0.757-3.447c-0.027-0.14-0.139-0.141-0.168-0.001l-0.783,3.441
			c-0.057,0.238-0.211,0.363-0.463,0.362l-1.974-0.007c-0.252-0.001-0.42-0.128-0.461-0.366L35.802,10.221z"/>
	</g>
</g>
</svg>
