<svg id="Layer_1" data-name="Layer 1" xmlns="http://www.w3.org/2000/svg" viewBox="0 0 468.88 193.61"><defs><style>.cls-1{fill:#fff;}.cls-2{fill:#4ab383;}</style></defs><path class="cls-1" d="M83.16,137.85v-.16c0-.17-.33-.14-.5-.13s-.16,0-.47.2c.17.15.35.3.51.29a.6.6,0,0,0,.47-.2m-5.27-5a.59.59,0,0,0-.38-.79l-.17-.15c0-.16-.18-.15-.19-.31a.53.53,0,0,1-.34-.14c0,.17,0,.33,0,.33-.14.33.06.81-.08,1.15-.09,1,.62-.38.83.26,0,.33.17,0,.3-.35m-7.83,2.22c0-.16-.2-.48-.21-.64-.32.19-.47.36-.44.68.16,0,.35.31.53.62,0-.33.13-.5.12-.66m-6.31-25.5a4.57,4.57,0,0,0,.22-1.49v-.16c0,.16,0,.16-.15.18a2.66,2.66,0,0,0-.57,1.18.51.51,0,0,0,.19.31c0,.17.32,0,.32,0M51.3,120c-.2-.48-.82-.1-.7-.6h-.16c0,.16-.31.19-.46.36a2.29,2.29,0,0,0,.51.29,1.21,1.21,0,0,0,.66.11l.32,0a.16.16,0,0,1-.17-.15m-11.19,9.81a1.54,1.54,0,0,0-.66-.11.56.56,0,0,0-.32.18l.35.3c.16,0,.33,0,.63-.37M37.56,168a1.64,1.64,0,0,1,.76-.71h.17v.16a2.61,2.61,0,0,1-.6.7c-.17,0-.17,0-.34-.14m1.85-38.84c.75-.87,1.34-1.73,2.46-2L42,127c-.08-1,.57-1,1-1.39.78-.38,1.21-1.23,2-1.78a12.11,12.11,0,0,1,1.69-1.43l.65-.05c-.17,0-.18-.15-.2-.47-.17,0,0-.17.15-.18.63-.21,1-1.22,1.87-1.12a.5.5,0,0,1,.14-.33,2.82,2.82,0,0,1,2.33-1.65c0,.16.16,0,.16,0,.08-1.15.08-1.15,1.09-.73a.6.6,0,0,0,.14-.34c-.21-.64-.06-.81.56-1.19.32-.18.47-.36.79-.38a.16.16,0,0,0,.15-.17c.15-.18.14-.34.29-.52A14.07,14.07,0,0,1,56.41,114c.61-.54,1-1.55,2.21-1a.55.55,0,0,1,.32-.19.49.49,0,0,1-.19-.31c-.35-.3-.36-.47.1-.83.16,0,.15-.17.31-.18.46-.53,1.06-1.23,1.54-1.26a.9.9,0,0,0,.78-.55,1.93,1.93,0,0,1,.75-.87c.46-.36.76-.71,1.08-.9.15-.17,0-.32,0-.49a.16.16,0,0,1,.15-.17l1.84-1.61c.16,0,.14-.33.3-.34.3-.36.6-.7.93-.73.49,0,.49,0,.3-.35,0,0,0-.16,0-.32a6.29,6.29,0,0,0,1.53-1.42.84.84,0,0,0,.63-.37,1,1,0,0,0-.12.66.36.36,0,0,0,.35.3,7.15,7.15,0,0,0,.73-1.2c-.16,0-.49,0-.5-.13,0,0,0-.32,0-.48a11.92,11.92,0,0,0,1.8-2.26c.6-.7.87-1.37,1.85-1.44.16,0,.32,0,.31-.19-.08-1.14.88-1.37,1.48-2.07.29-.51.83.1,1.17.4.18.15.17,0,.34.14a2.55,2.55,0,0,0-.24-1.12.41.41,0,0,1-.22-.64c0-.16,0-.16.14-.34,0,.17,0,.17,0,.33l0,.48a1.24,1.24,0,0,0,.13-.49c0-.17,0-.33,0-.33L76,93.64c.14-.34.43-.85.56-1.18.44-.69,1.07-1.06,1.18-1.72.29-.52.28-.68.63-.38.32,0,.64-.21.61-.53,0-.49-.06-.81-.09-1.3A.71.71,0,0,1,79.3,88c.5.13.32,0,.15-.17a1.14,1.14,0,0,0-.85-.43c-.48.2-.95.4-.85-.42,0-.17-.34-.14-.35-.3,0,.16,0,.32,0,.32-.13.5-.41,1.17-.57,1.19-.65,0-1.27.42-2,0l-.32,0v.16c.68.44.2.48-.12.67l-1.13.08a6.45,6.45,0,0,0-1.78.3,10.2,10.2,0,0,1-3,1.2,1.67,1.67,0,0,0-1.24.91,1.31,1.31,0,0,1-1.25.74,2.87,2.87,0,0,0-2,1.14L62.67,95a14.3,14.3,0,0,1-2.12,2.28,25,25,0,0,1-2,2.1c-.46.36-1.1.57-1.39,1.08-.43.69-.9,1-1.34,1.74a30.83,30.83,0,0,0-2.28,2.29,32.81,32.81,0,0,0-2.08,2.77c-1.16,1.88-2.52,3.45-3.68,5.33-1,1.39-1.92,2.76-2.8,4.13s-1.59,2.73-2.31,4.09a18.62,18.62,0,0,0-1.59,2.73c-.43.85-1,1.71-1.59,2.73a6.78,6.78,0,0,0-.89,1.21c-.62.54-1.24.91-1.52,1.58a2,2,0,0,0-.23,1.33c0,.16,0,.32.19.31,1.14-.08,1.73-.94,2.34-1.48m-5,52,.49,0a.62.62,0,0,1,.5.13.57.57,0,0,0-.2-.47l.16,0c-.17-.15-.19-.47-.37-.62-.16,0-.31.18-.46.36l-.33,0a.53.53,0,0,0-.14.34c0,.16,0,.32,0,.49a.55.55,0,0,1,.31-.19m-2.09-10.62c.31-.19.62-.38.94-.56,0-.16,0,.16,0,.16-.14.34-.3.35-.6.7l-.35-.3m1,11.84a2.5,2.5,0,0,1-1.18-.56.16.16,0,0,1-.16.17c.19.31.23.8.88.75,0-.16,0-.16.46-.36M22.26,135.68c-.19-.31-.35-.3-.53-.45,0,.16-.15.17-.14.34s.19.31.38.62a2.29,2.29,0,0,0,.29-.51m-1.84,32.47s-.17-.15,0-.16c.28-.68-.2-.48-.7-.6l0,.16c.18.31.36.46.37.62a1.26,1.26,0,0,1,.37.63c0-.16,0-.49,0-.65M18.62,190c.15-.17.46-.36.45-.52.15-.18.31-.19.46-.36-.5-.13-.86-.59-1.2-.73,0,0-.31.19-.3.35-.16,0,0,.16,0,.16,1-.23.36.46.38.79,0,.16,0,.16,0,.32s.18.32.36.47c0-.17-.19-.32-.2-.48m.29-2.63c-.17-.15-.34-.14-.35-.3-.31.18-.47.2-.62.37.16,0,.35.3.35.3a1.24,1.24,0,0,0,.62-.37m-1-39.94c-.33-.13-.53-.61-.71-.76l-.15.17.56.94.3-.35m.27,32.15c.43-.84,1.24-.9,2-1l.16,0a.56.56,0,0,0-.18-.31c-.49,0-1-.58-1.46.11,0,.16-.33,0-.32.19l0-.33c.46-.36.43-.85.38-1.5,0,0,0,.17.17.15l.53.45c0-.32,0-.48-.05-.65.32,0,.5.13.68.44v.17a2.4,2.4,0,0,0,1-.4c-.17,0-.18-.15-.19-.31-.16,0-.16,0-.18-.15l.17,0c.46-.36.63-.21.82.11l.33,0c-.06-.81.75-.87,1.36-1.41a.57.57,0,0,0,.34.14.5.5,0,0,1,.18.31,2.79,2.79,0,0,0,.62-.53c-.21-.64.12-.5.6-.7a1.71,1.71,0,0,0,1.27-.42c.27-.84.47-.36.65,0,0,.16.36.47.49,0a1.44,1.44,0,0,1,1.06-1.06l.82-.06a3.6,3.6,0,0,1,2.69-1.18c.16,0,.33.13.66.11a1.22,1.22,0,0,0-.6.7.6.6,0,0,0-.34-.14c-.16,0-.34-.14-.33,0a2.41,2.41,0,0,0-.61.54c.51.29,1.13-.25,1.5.38.16,0,.47-.2.46-.36l0-.33c0-.48.11-.66.07-1.15l.16-.17a.82.82,0,0,0,.72-1.2v-.16l.81-.06s0,.49-.11.66c0,.16-.14.34-.13.5a.35.35,0,0,0,.35.3c.18.15.49,0,.65,0l.15-.17h-.16c0-.16-.17-.15-.34-.14a.15.15,0,0,0,.15-.17,1,1,0,0,0,.38-1.5c0-.16.15-.18.14-.34.5.13.46-.36.77-.54a3.93,3.93,0,0,0,1.13-.25,1.73,1.73,0,0,0-.27.83l.82-.06c.6-.69.8-.22,1,.26l0,.32a.56.56,0,0,1,.14-.33,3.49,3.49,0,0,1-.26-1.29c0-.33,0-.33,0-.65.66.11.9-1,1.59-.61.16,0,.32,0,.31-.19.1-.82.75-.87,1.24-.9.16,0,.52.45.7.6,0,.16,0,.16.18.31a.6.6,0,0,0,.34.14c.16,0,.15-.18.14-.34a.49.49,0,0,0-.19-.31.65.65,0,0,1-.39-1c.28-.51.48,0,.66.11h.16c.1-.82.93-.72,1.22-1.23.31-.19.61-.54,1-.07v0a1.61,1.61,0,0,1,.74-1c.79-.39,1.58-.77,2.2-1.14.16,0,.6-.7.66.11a.16.16,0,0,0,.15-.17A14.63,14.63,0,0,1,51.49,160a24.1,24.1,0,0,0,4.2-2.92h.16a4.38,4.38,0,0,0,1.7-1.27,7,7,0,0,1,3-1.86l.3-.35a2.89,2.89,0,0,1,1.84-1.6c.94-.56,1.36-1.41,2.31-1.81a.57.57,0,0,0,.14-.34,7.53,7.53,0,0,1,1.06-1.05A10.35,10.35,0,0,0,69,145.11a9.44,9.44,0,0,0,.71-1.36c0-.17,0-.17-.18-.32s-.18-.15-.34-.13-.5-.13-.51-.29c-.2-.48-.54-.62-1.18-.41a.51.51,0,0,0-.33-.13c-.62.53-.68-.28-1-.26s-.63.38-1,.4a.16.16,0,0,0-.18-.15h-.16c-.12.5-.31.19-.49,0-.49-.13-1,.23-1.47,0a.56.56,0,0,0-.14.33c0,.33-.15.18-.48,0,0,0-.34-.14-.33,0-.65.05-1,.08-1.35-.55l-.17-.15a.35.35,0,0,1-.35-.3l.49,0,.17.15a.55.55,0,0,0-.19-.31c-.16,0-.33-.14-.49-.13a1,1,0,0,0-.67-.11,1.48,1.48,0,0,0-.1.82c0,.17.18.15.35.31l0,.32-.17-.15c-.17-.15-.17-.15-.19-.31,0,.16,0,.32,0,.32-.15.18-.14.34-.3.35l-.65.05c-.36-.46-1.1.57-1.19-.57l-.32,0c-.12.66-.45.52-.79.38-.32,0-.66-.11-1,.07a1.3,1.3,0,0,1-1.49-.21h-.16c-.43.85-1.1.57-1.59.61a.31.31,0,0,0-.49,0c-.91.89-1.76.46-2.91.38l-1,.08c-.33,0-.78.54-1,.39-.68-.27-1.12.41-1.78.3-.32,0-.94.56-1.26.58-.49,0-.9,1.05-1.44.44h-.16c.21.64-.45.52-.6.7-.53-.45-.48.19-.63.37-.14.34-.41,1-1,.39l-.32,0c.07,1-1.08.9-1.19,1.56a.6.6,0,0,1-.5-.13.16.16,0,0,1-.18-.15l0,.17a.35.35,0,0,1-.31.34,5.2,5.2,0,0,1-.9,1,.56.56,0,0,0-.33-.14c-.2-.47-.24-1-.41-1.11-.33,0-.26,1-.93.72v.16c.38.63-.27.68-.45.53a2.21,2.21,0,0,0-1.89,1c-.15.18-.45.53-.5-.12h-.16c0,.33-.49,0-.64.21a3.59,3.59,0,0,1-1.27.42c-.33,0-.51-.29-.85-.43a2.87,2.87,0,0,0,.76-.7l.17,0-.18-.15c-.32,0-.47.2-.8.23a.56.56,0,0,0-.14.33.56.56,0,0,0-.18-.31c0-.16,0-.49-.05-.65,0,0,0-.16,0-.33-.17-.15-.34-.3-.51-.28s-.17-.15-.34-.3c-.14.33-.31.35-.29.51a4.24,4.24,0,0,1-1.26,2.87c-.15.17-.14.33-.3.35a8.26,8.26,0,0,1-.18,2,3.64,3.64,0,0,1-.64.21l.53.45a.71.71,0,0,0-.44.69,1.2,1.2,0,0,0-.6.69,5.7,5.7,0,0,1-.34,2.15c0,.16,0,.33-.13.34-1,.39-.37,1.66-1.15,2.21l0,.16c-.33,0,.71.76-.29.51v.16a1.27,1.27,0,0,1-.1.83c-.14.33-.63.37-.78.54a.62.62,0,0,1-.34-.13c0,.16,0,.32.19.31a.77.77,0,0,1,.24,1l0,.32c0,.33.23,1-.42,1-.16,0-.63.22-.12.5.16,0,0,.17,0,.33-1.15-.08-.29.51-.27.67-.13.5-.09,1-.23,1.33a.56.56,0,0,1-.14.33c-.66-.11-1.14.09-1.08.9a.48.48,0,0,1-.13.34c-.2-.48-1.19-.57-.92-1.4a.16.16,0,0,0-.18-.15H18.2c-.13.5-.14.33-.33,0,0-.16-.2-.47-.36-.46-.33-.14-.5-.13-.55-.78.15-.17-.19-.47-.21-.63a.94.94,0,0,1-.11.66c-.28.67.57,1.1.46,1.76a3.15,3.15,0,0,0,.66.11,1.7,1.7,0,0,1,.5.13,10.65,10.65,0,0,1,.83,2.39,4.47,4.47,0,0,1,.11,1.46,6.89,6.89,0,0,1-.47,2.48c-.64.21.05.65.05.65a5.86,5.86,0,0,1-.83-.1.56.56,0,0,0-.5-.12c0,.32,0,.32.05.64,0,.17.51.29.35.31a7.58,7.58,0,0,1,0,2c0,.16.18.15.19.31ZM16.3,167.64c0-.33-.2-.48-.21-.64a1.37,1.37,0,0,0-.29.51c.18.15.19.32.36.47,0-.17.16-.18.14-.34m-1.05-12c-.18-.15-.5-.12-.68-.27,0,.16-.13.33-.12.5a.56.56,0,0,0,.18.31c.15-.18.47-.36.62-.54m.22,11.74c.15-.17.15-.17.31-.18-.35-.3-.54-.62-1.06-1.07,0-.16-.17-.15-.34-.13a1.87,1.87,0,0,0,.2.47c.66.11.2.48.39.79,0,.32.37.62.56.94,0-.33,0-.49-.06-.82m-2.11.16c-.35-.3-.55-.78-.73-.92a.57.57,0,0,0-.5-.13.62.62,0,0,0,.19.31c-.14.34.86.59.09,1.14l.17.15c.31-.19.46-.36.78-.55m-2.13,0a.16.16,0,0,1-.17-.15,2.15,2.15,0,0,0-.44.68c.17.15.35.3.36.46a2.3,2.3,0,0,1,.25-1m6.47,23.36a2.27,2.27,0,0,0-1.79,0,.6.6,0,0,0-.34-.14h.16c.78-.55.6-.7.07-1.31s-1.31-.07-1.84-.52a.62.62,0,0,1-.5-.13c-.17-.15-.17-.15-.33-.14-.32.19-.65,0-.67-.11-.33-.14-.37-.63-.68-.44v-.16A6.12,6.12,0,0,0,13,187s0-.32,0-.65a.45.45,0,0,0-.65,0l-.65.05a1.21,1.21,0,0,1,.1-.83l.32,0c.18.15.18.15.19.31.15-.17.31-.18.3-.35a1.56,1.56,0,0,0-.2-.47c-1,.07-1.86-.84-3-.76-.49,0-.84-.26-1.34-.39,0,0,0-.32-.19-.31a.52.52,0,0,1,.32-.19c.2.48.18.31.32,0a3.15,3.15,0,0,1,2-1.78c.8-.23.95-.4.41-1.18a2,2,0,0,1-.24-1c-.21-.64.48-.2.46-.36.15-.18.29-.51.13-.5a4.93,4.93,0,0,0-1-.58.16.16,0,0,0-.18-.15c.28-.67-.06-.81-.56-.94a1.68,1.68,0,0,0,.12-.66c0-.16,0-.49,0-.65s-1,.24-.36-.46a.53.53,0,0,0-.34-.14l-.3.35c-.15.17,0,.16,0,.33a.57.57,0,0,1-.34-.14c-.37-.63-.68-.28-1-.09a.64.64,0,0,1-.47.2c0-.17,0-.49,0-.65a1.61,1.61,0,0,1,.13-.5c.47-.2.28-.51-.07-.82,0-.16,0-.65-.07-1s-.06-.81-.08-1.14l-.18-.15c-.5-.12-1-.41-.88-.91.11-.66.23-1.32.35-1.82,0-.17.15-.18.3-.35,0,.16.18.15.19.31s0,.33,0,.49c0,0,.19.47.36.46s.31-.19.46-.36c.31-.19.46-.36.45-.52l0-.33c-.49,0-.35-.3,0-.49a.75.75,0,0,1,.81-.06c.52.29.48-.2.64-.21,0-.32-.21-.64.28-.67a5.69,5.69,0,0,0,.82.1c.16,0,.49,0,.48-.2.15-.17.12-.5.27-.67l-.32,0c-.61.54-1.11.41-1.5-.37-.17-.16-.34-.14-.66-.12-.16,0-.3.35-.28.67-.16,0,0,.17,0,.33s-.3.35-.3.35c-.18-.15-.35-.3-.36-.47-.18-.14-.2-.47-.38-.62-.32,0-.47.2-.79.38l0,.17h.16c.31-.19.46-.37.5.12.2.48-.13.5-.29.51l-.81.06c-.17,0-.19-.31-.19-.31a11.89,11.89,0,0,1,.39-1.34,5.52,5.52,0,0,1,.58-1c0-.16,0-.32,0-.32-.07-1,.52-1.84.77-2.84,0-.16.15-.17.14-.33,0-.33.13-.5.12-.67a.6.6,0,0,0,.19.48l.33,0c.16,0,.31-.19.47-.2,0-.16.15-.18.31-.35-.18-.15,0-.49-.5-.13-.19-.31-.35-.3-.36-.46a12.49,12.49,0,0,1,.61-2.66,8,8,0,0,0,.66-2.17,3.44,3.44,0,0,1,1-2.2c0-.16.15-.17,0-.32,0-.33,0-.33.29-.51.33,0,.28-.68.24-1.16a38.09,38.09,0,0,0,1.51-3.87c.14-.34.13-.5.27-.84v-.16c.58-.86.5-2,.94-2.68A10.75,10.75,0,0,1,15,140.79v-.16a18.72,18.72,0,0,1,1.65-4.2l1.24-3a23,23,0,0,1,1.43-2.72,16.67,16.67,0,0,0,1.41-3.05l1.73-3.07a14.73,14.73,0,0,1,.85-1.69l2.6-4.6c.88-1.38,1.58-2.9,2.46-4.27,1.17-1.88,2.33-3.76,3.35-5.47l.3-.35c0-.17.29-.51.29-.51-.35-.3-.54-.62-.86-.59-.64.21-1-.26-1.5-.38l-.49,0a2.39,2.39,0,0,1-2.24-1.63A20.18,20.18,0,0,0,25,102.16a4.8,4.8,0,0,1-1.14-2.2c.15-.17-.37-.62-.39-.78a10.81,10.81,0,0,1-.73-1.09,2,2,0,0,1,.48-2.32c.15-.18.3-.35.29-.52a2.41,2.41,0,0,1,1.8-2.09.35.35,0,0,0,.3-.35c.06-1.47,1.52-1.58,2.42-2.63a.56.56,0,0,1,.31-.18,10.58,10.58,0,0,1,1.88-1.12l.3-.35a1.86,1.86,0,0,1,.8-.23l.32,0c.42-1,1.57-.93,2.17-1.63a8.33,8.33,0,0,1,2-1.13c.32,0,.66.11.81-.06.64-.21,1.09-.74,1.73-.95l2.85-1.19a2.45,2.45,0,0,1,1-.4c.31-.18.61-.53,1-.39.32,0,.66.11.79-.39a.15.15,0,0,1,.14-.17c.53.45,1-.24,1.28-.42.16,0,.31-.19.46-.36a1.82,1.82,0,0,0,.48-.2,5.26,5.26,0,0,1,1.27-.43,25,25,0,0,0,3.65-1.41c1.43-.6,3.19-1.05,4.42-2.12a2.44,2.44,0,0,1,1.6-.45c1.61-.28,3.22-.57,5-.86.47-.2,1.31.07,1.77-.29.49,0,.8-.23,1.45-.28,1.13-.24,2.25-.49,3.54-.75A5.72,5.72,0,0,0,70.41,74l.16-.18a43.27,43.27,0,0,0,4.53-.5c.65,0,1.29-.26,1.94-.3a30.33,30.33,0,0,1,3.86-.78,24.23,24.23,0,0,1,4.32,1,3.3,3.3,0,0,1,1.16.24c.17.15.35.31.51.29.49,0,1.14-.08,1.35.56.3-.35.59-.87.65,0v.16a.81.81,0,0,1,1.18.56c.26,1.29,1.27,1.71,2.13,2.3a4.65,4.65,0,0,1,1.71,3.13,4.87,4.87,0,0,0,.67,2.4c0,.17.21.64.23,1,0,.48.06.81.08,1.14a2.8,2.8,0,0,0-.15,2.29c.18.32.06.82.08,1.14-.15.17-.27.67-.63.21,0-.16-.35-.3-.68-.28a1.9,1.9,0,0,1,.23.8,6.28,6.28,0,0,0,.39,1c0,.17,0,.49.06.81a1.49,1.49,0,0,0-.12.5,1.88,1.88,0,0,0-.87,1.54,3.37,3.37,0,0,1-.53,1.67c-.3.35-.25,1-.9,1a.16.16,0,0,0-.15.17c.25,1.13-.52,1.84-.94,2.69a17.75,17.75,0,0,1-1.33,1.89,2.47,2.47,0,0,1-.47.36c-.66-.11-.8.22-.75.87a2,2,0,0,1-.43.85c-.33-.14-.14.18-.3.35a6.52,6.52,0,0,1-1.78,2.42,11.55,11.55,0,0,0-1.19,1.56s0,.16,0,.32c-1-.41-.77.71-1.24.91-.3.35-.76.71-1.07,1.06a24.23,24.23,0,0,0-2,1.94c-.3.35-.29.51-.45.53-.48.2-.62.53-.43.84l-.65,0c0,.33.2.48,0,.65a.88.88,0,0,1-.28.68l-.32,0a5.46,5.46,0,0,0-.43-1.28l-.32,0v.16c0,.33.19.31.2.48,0,.48.2.47.54.61,0,.32-.61.7-.61.7-.52-.45-.33-.14-.31.18.18.16,0,.17,0,.33a13.92,13.92,0,0,0-1.86,1.44,7.71,7.71,0,0,0-1,1.22,2,2,0,0,0-.46.37c-.83-.11-.94.56-1.23,1.07a7.44,7.44,0,0,1-2,1.94c-.47.2-.61.54-1.09.73a.85.85,0,0,0-.62.38.5.5,0,0,0-.31.18c-.15.18-.32.19-.3.35-.54-.61-.64.21-.8.23l-.15.17c0,.16.18.31.19.48-.17-.16-.5-.13-.51-.29-.18-.32-.33-.14-.31.18-.1.83-.89,1.21-1.5,1.75-.29.51-.78.54-1.24.91s-.9,1-1.37,1.4c-.3.35-.45.53.21.64.34.14.83.1,1.33.23,1.47.05,2.94.11,4.59.31a18.29,18.29,0,0,0,2.34.64,2.64,2.64,0,0,0,1.15.08c.48,0,.82.1.69.6a1,1,0,0,0,.21.64.36.36,0,0,0,.35.3.5.5,0,0,1,.14-.33.55.55,0,0,1,.31-.19c0,.16,0,.16.19.31v.16h.16c.29-.51.58-1,1.26-.74.51.28.69.6,1.2.89a12.8,12.8,0,0,1,1.7.85c0,.16.19.31.2.48.18.14.21.63.55.77.35.3.67.28,1,.58.16,0,.31-.19.46-.36.2.47.24,1,.44,1.43.17.15.37.63.53.62.65,0,.68.27.86.59.18.15.34.13.51.29l0,.16c-.61.7.39,1,.6,1.58,0,.33.38.63.42,1.28.08,1,0,2,.07,3.1,0,.32.06.81.09,1.13s.36.47.21.64c-.6.7-.06,1.48,0,2.12a6.73,6.73,0,0,1-.47,2.49.6.6,0,0,1-.12.5c0,.16-.32.19-.47.36a.16.16,0,0,0-.15.17l.18.16a1.56,1.56,0,0,0,.2.47,15.44,15.44,0,0,1-1.32,2.06c0,.16-.12.66-.44.68-.88,1.37-1.92,2.76-3,4.14a13.65,13.65,0,0,1-1.51,1.59c-.3.34-1,.07-1.1.57a3.88,3.88,0,0,1-.59.86c-.62.53-1.22,1.23-1.83,1.77,0,.16-.5-.13-.66-.12-.15.18-.14.34-.3.35-.29.51-.59.86-.88,1.37h-.16c-.69-.44-.63.38-.93.73a5.5,5.5,0,0,1-.91.88,2.16,2.16,0,0,1-1.11.57,1,1,0,0,1-1,.07c-.16,0-.5-.12-.66-.11a5.31,5.31,0,0,0-.42,1c-.13.34-.12.5-.27.67s-.13.5-.33,0c-.16,0-.5-.13-.48,0a2.31,2.31,0,0,1-.62.53c-.11.66-.39,1.34-1.22,1.07l0,.33v.16c-.16,0-.31.18-.64.21v-.16c-.27.67-1.12.24-1.4.92a1.39,1.39,0,0,1-1.11.41c-.33,0-.66-.12-.48.2a.5.5,0,0,1-.14.33,3.23,3.23,0,0,1-1.12.25c-.15.17-.11.66-.43.85l-.32,0c-.15.18-.49,0-.64.21L55.81,174l-.66.05-.64.05,0,.32c0,.17-.14.34-.46.36l-.33,0c-.17-.15-.18-.31-.36-.46a1.69,1.69,0,0,1-.12.49c.19.48,0,.65-.28.68-.44.68-1.43.59-1.88,1.12a1.57,1.57,0,0,1-1.11.41c-.65.05-.77.71-1.08.89l-.3.35c-.53-.61-.8.22-1.12.25-.32.19-.47.36-.64.21-.33,0-.5-.13-.66-.12-.14.34-.29.52-.64.22,0,.16,0,.48,0,.48a1.3,1.3,0,0,1-.28.68c-.8.22-1.58.77-2.38,1l-.3.35c-.45.52-.61.53-1-.09a.55.55,0,0,1-.19-.31.56.56,0,0,1-.13.49c0,.17,0,.17,0,.33a3.49,3.49,0,0,1-.93.72c-.15.18-.47.2-.48,0-.39-.79-1,.07-1,.07-.24,1.16-1.4.92-2,1.3-.16,0-.3.34-.46.36a1.23,1.23,0,0,1-.79.38,1.24,1.24,0,0,0-1.09.74c-.16,0-.15.17-.3.34a6.55,6.55,0,0,0-2.39.67L31,187a3.57,3.57,0,0,1-2.25.5c-.18-.16-.49,0-.65,0l-.14.34c.16,0,.17.15.35.3-.17,0-.64.21-.82.06-.34-.3-.83-.26-.81.06-.14.34-.46.36-.44.69,0,.16-.15.17-.31.18,0-.48-.52-.45-.87-.75-.16,0-.17-.15-.19-.31-.27.67-1,.23-1.09.73-.16,0,.19.32.38.63a.16.16,0,0,0,.15-.18l.3-.34a2.53,2.53,0,0,1,.36.46.35.35,0,0,1-.3.35l-.81.06c-.17,0-.17,0-.19-.31v-.17c0-.16-.35-.3-.51-.29l-.15.18,0,.65c-.17-.15-.67-.28-.68-.44-.06-.81-.65,0-1-.41a.87.87,0,0,1-.28.67.53.53,0,0,1-.14.34c-.15.17-.62.37,0,.32l0,.33a.56.56,0,0,1-.31.18l-1,.07-1.13.09a1.27,1.27,0,0,1-.83-.1"/><path class="cls-1" d="M181.46,155.2c-.35-.3-.53-.45-.69-.44a2.23,2.23,0,0,1-.61.54c.17.15.35.3.51.29s.31-.19.79-.39m-2.24-1.46c-.16,0-.33-.14-.51-.29l0,.32a.16.16,0,0,0,.17.15c0-.16.15-.17.31-.18m-.73,5.44c.16,0,.31-.19.45-.52-.06-.82.59-.86,1.07-.9l.65,0a.84.84,0,0,1-.37-.62c0-.17-.35-.31-.36-.47-.2-.47-.4-1-.5-.12-.29.51-.45.52-.94.56a1.69,1.69,0,0,0-.8.22c-.62.37.25,1.12-.2,1.65-.16,0,0,.48.06.81.31-.19.64-.21.94-.56m.16,4.4c.15-.18.29-.52.44-.69l-.36-.46c-.33,0-.64.21-1,.23-.16.18-.14.34-.29.51,0,.16-.32.19-.47.37.18.15.5.12.51.28a3.32,3.32,0,0,1,1.13-.24M177,84h.17c.21.64-.12.66-.44.68h.16A1,1,0,0,1,177,84m.32,70.2a.82.82,0,0,0-.51-.29c-.16,0-.31.18-.61.53.16,0,.17.15.33.14a1.23,1.23,0,0,0,.79-.38m-.76,9.52-.33,0-.15.17a.55.55,0,0,1,.19.31c.15-.17.14-.33.29-.51M176,90.62a.56.56,0,0,0-.18-.32,2.1,2.1,0,0,0-.47.36c0,.17.35.3.35.3.15-.17.32-.18.3-.34m-1.54-7.57c.15-.17.32-.18.46-.36,0,.17,0,.17.19.32-.16,0-.31.18-.47.19Zm.3,74.28a1.76,1.76,0,0,1,1.7-1.27c.32,0,.47-.19.64-.21s.13-.33.13-.33a1.73,1.73,0,0,0-.83-.27c-1.48-.05-2.05,1-2.63,2a2.47,2.47,0,0,0,.36.47c.31-.19.46-.36.63-.38m-.63-1.91c-.17,0-.34-.14-.52-.29,0,.16-.3.35-.29.51s.35.3.37.47a2.35,2.35,0,0,0,.44-.69M172.59,159c0-.16-.17-.15-.35-.3.15-.17.3-.35.29-.51.15-.17.14-.34.11-.66-.15.18-.29.35-.45.52,0,.17,0,.33.05.65-.16,0-.31.19-.64.21l.19.32c.16,0,.48-.2.8-.23m-1.56.94-.33,0,0,.33v.16a1.37,1.37,0,0,0,.29-.51m-3.66-.87c.14-.34,0-.49-.41-1.12-.28.68-.28.68-.25,1a.35.35,0,0,0,.35.3c.16,0,.32,0,.31-.18m-1.71-49.36a2.54,2.54,0,0,1-.51-.29l-.32,0a.85.85,0,0,0,.67.28Zm-.46-15a2,2,0,0,1-.7-.6c-.32,0-.46.36-.61.54a.57.57,0,0,0,.34.14l1-.08m-1,12.17c0-.17,0-.33-.05-.65h-.16c-.15.17-.3.35-.29.51l0,.49c.33,0,.48-.2.47-.36m2.56,49.94c.12-.66-.36-.46-.84-.43s-1.31-.06-1.2-.73c0-.65-.21-.63-.86-.59,0,.17-.46.37-.45.53a3.32,3.32,0,0,0,2.43,1.94.71.71,0,0,0,.92-.72m-4.25-2.3c-.34-.14-.34-.14-.5-.12s-.16,0-.15.17c0,0,0,.32.19.31s.15-.17.46-.36m-2.29-59.43c-.16,0-.16,0-.18-.15,0,.16-.15.17-.15.17l.18.15c0-.16,0-.16.15-.17m-1.44,59.71a.17.17,0,0,0-.18-.15l-.32,0c.17.15.18.32.37.63,0-.33.29-.51.13-.5m-2,1.29c-.32,0-.5-.12-.66-.11v.16c0,.16.17.15.35.3l.3-.35m0-.65c0-.32.28-.67.25-1,0-.17-.35-.31-.51-.29-.31.18-.45.52-.6.69a1.22,1.22,0,0,0,.37.63l.49,0m-.64,2.34c-.18-.15-.5-.13-.67-.28-.17,0-.32.19-.47.36a.35.35,0,0,0,.35.3c.32,0,.48-.2.79-.38m-2.44,2.3c-.34-.14-.52-.29-.53-.45a.51.51,0,0,0-.14.34.62.62,0,0,0,.19.31c.16,0,.16,0,.48-.2m-1.09-3.67c-.33,0-.34-.14-.5-.13a.83.83,0,0,0-.5-.13l-.49,0c.18.15.35.3.51.29l.49,0,.49,0m-1.09-71.77c-.34-.14-.36-.47-.52-.46s-.32.19-.48.2c.18.15.19.32.36.47a.92.92,0,0,1,.64-.21m-5.25,54.6a.55.55,0,0,0-.19-.31,8.5,8.5,0,0,1-1.24.91c.18.15.18.15.34.13a7.32,7.32,0,0,1,1.09-.73M140,125.29a.16.16,0,0,1,.15-.17c0,.16.18.15.35.3l-.3.35a.64.64,0,0,1-.2-.48m-2-35.45a.36.36,0,0,1,.3-.35c.33,0,.48-.19.79-.38.16,0,.16,0,.17.15a3.19,3.19,0,0,0-.77.55c-.15.17-.33,0-.49,0m-2.34,1.48v-.16c.15-.17.15-.17.31-.19a15,15,0,0,1,1.42-.75v.16a10.69,10.69,0,0,0-1.39,1.08.53.53,0,0,0-.34-.14M133,141v-.16c-.15.17-.3.35-.29.51l0,.16c.16,0,.31-.18.28-.51M132,135.2c-.34-.14-.34-.14-.5-.12s-.32,0-.31.18a.35.35,0,0,0,.35.3c.16,0,.15-.17.46-.36m-2.74,2.66c-.18-.15-.19-.32-.35-.3s-.31.18-.46.36l.17.15a1.39,1.39,0,0,0,.64-.21m-1.14,24.25c-.34-.14-.35-.3-.52-.45a2.28,2.28,0,0,1-.44.68s.35.3.51.29c.15-.17.14-.34.45-.52m-2.48-22.35c.14-.34.31-.35.46-.53,0-.16-.18-.15-.19-.31a.49.49,0,0,0-.31.19c-.17,0-.15.17-.31.35,0,.16,0,.48,0,.65a.16.16,0,0,1,.18.15c0-.16.14-.34.12-.5m-10.31-31.08a3.76,3.76,0,0,1,1.06-1.22h.16c0,.16,0,.32-.14.33-.46.36-.6.7-1.06,1.06Zm-18.4,68.81a10.24,10.24,0,0,1-4-1.33A26.17,26.17,0,0,1,91,173.52a3.79,3.79,0,0,0-.73-1.09,12.77,12.77,0,0,1-2-2.47,14.36,14.36,0,0,1-1.73-3.46c-.18-.32,0-.65-.08-1.14a18.09,18.09,0,0,1,.93-7.25,7.08,7.08,0,0,1,.63-2.5c.39-1.34.77-2.83,1.31-4.34a27.09,27.09,0,0,1,2.31-4.1,36.08,36.08,0,0,0,2.59-4.76c.71-1.36,1.28-2.54,2-3.74.88-1.37,1.77-2.58,2.65-3.95a15.22,15.22,0,0,1,1.71-3.4,82.61,82.61,0,0,1,5.53-9.06c.89-1.21,1.62-2.41,2.49-3.78a6,6,0,0,1,1.37-1.41c1.48-2.07,3-4.14,4.6-6.22A14.44,14.44,0,0,1,118,108c.16,0,.32,0,.31-.19.24-1.16,1.5-1.74,2.26-2.61a12.78,12.78,0,0,1,3.22-2.69,15.54,15.54,0,0,0,3.7-3.06,6.13,6.13,0,0,1,3.55-2.71,2.46,2.46,0,0,0,1.52-1.58c.27-.67.75-.87,1.21-1.23,1.25-.75,2.53-1.17,3.62-1.91l1.39-1.08a13.94,13.94,0,0,1,5.34-2.84,20,20,0,0,0,3.6-2.07c.16,0,.14-.34.29-.51l-.49,0a34.74,34.74,0,0,0-3.64,1.57,6.31,6.31,0,0,1-2.05,1l-.17-.15a.48.48,0,0,1,.13-.34c0-.16.31-.35.62-.53a20.91,20.91,0,0,1,2.84-1.35c.63-.22,1.09-.74,1.73-.79a16.4,16.4,0,0,1,5.42-1.87c.16,0,.17.15.33.14l-.15.17c-.77.55-.77.55,0,1.48,0,.16.18.15.19.31-.32.19-.79.38-.93.72a8.14,8.14,0,0,0-.34,2,5.56,5.56,0,0,0,.71-1.36,9.6,9.6,0,0,0,.56-1.35c1.07-.9,1.78-2.42,3.39-2.7.15-.18.47-.2.46-.36-.26-1.29,1.1-.57,1.55-1.1.15-.17.5.13.2.48,0,.16-.45.52,0,.65a.74.74,0,0,0,.81-.06c.3-.35,1.09-.74.07-1.31v-.17a2.39,2.39,0,0,0,1,.09c.16,0,0,.49.21.64,0,.32.38.63.54.61a1.09,1.09,0,0,0,.77-.54c.58-1,.42-1,1.73-1l.32,0a2,2,0,0,0,1.69.69c.66.11,1.62-.12,1.87,1,0,.16,1.46-.11,1.45-.27.13-.5.58-1-.25-1.12h-.16a.55.55,0,0,1,.31-.19c1.43-.59,1.93-.47,2.71,1.27.17.15.2.48.37.63.65,0,.34.13,0,.48a.62.62,0,0,0-.31.19c-.14.34-.12.66-.28.67a.61.61,0,0,0,.48-.19,8.39,8.39,0,0,0,1.1-.58,1.79,1.79,0,0,0,.95-.39c0,.32.22.8.08,1.13,0,.33-.29.51-.26.84a3.51,3.51,0,0,0,.09,1.3c.48-.2,1.12-.41,1.25-.75.74-1,.58-1,1.93-.47h-.16c-.14.34-.44.69.23,1,.16,0,.51.28.67.27.18.15.19.32.37.47a.66.66,0,0,1-.48.2l-.32,0a2.89,2.89,0,0,0,.42,1.27c0,.17.18.32.51.29.31-.18.5.13.52.45a3.76,3.76,0,0,0,.82,2.23,2.08,2.08,0,0,1,.31,1.94c-.28.67.11,1.46-.32,2.31-.15.17.37.62.56.93a1.75,1.75,0,0,1,.38.79c-.9,1.05-.29,2.64-1.54,3.38a.6.6,0,0,0-.14.34,3.17,3.17,0,0,1-.44,2.81,13.25,13.25,0,0,1-1.89,3.24,9.48,9.48,0,0,1-1.94,2.43c-.83,2-2.69,3.3-3.36,5.31a9.42,9.42,0,0,1-2.17,3.76,11,11,0,0,1-2,1.94c-.63.21-1,1.22-1.31,2.06a18.09,18.09,0,0,1-3.32,3.67c0,.17-.32.19-.64.21-.64.22-1.28.43-1.22,1.24a1.72,1.72,0,0,1-1.06,1.06,3.7,3.7,0,0,0-1.54,1.25c-1.33,1.9-3.36,3.19-5.21,4.64-.15.17-.47.2-.79.38a2.53,2.53,0,0,0-.46.36c-.1.83-.74,1-1.38,1.25-.32,0-.63.21-.62.37.57,1.1-.55,1.35-.85,1.7a4.06,4.06,0,0,0-1.53,1.42.35.35,0,0,1-.3.35c-1.3.09-1.68,1.59-2.78,2.16a13.79,13.79,0,0,0-2.92,2.51c-1.36,1.4-1.18,1.72.66,2.23,1.33.39,2.33.65,3.33.9.66.11,1.31.06,2,.18.5.13,1.15.08,1.35.55a.35.35,0,0,0,.35.3c.94-.56,2.12,0,2.94,0,1,.09,2,.34,2.8.44.49,0,.68.28,1.15.08a.59.59,0,0,1,.7.6c0,.33,0,.49,0,.65.83.27,1.36.72,1.42,1.53a13.42,13.42,0,0,0,2.69,1.1l3.58-.26c.32,0,.47-.2.8-.22a.48.48,0,0,0,.13-.34c0-.16-.17-.15-.33-.14a1.09,1.09,0,0,1-1.19-.56l-.81.06c-.46.36-.94.56-1.32-.23,0-.16-.34-.14-.35-.3,0,.16-.13.5-.12.66.22.64-.27.67-.6.7a4.1,4.1,0,0,1-1.51-.54,3.3,3.3,0,0,1-.74-1.25c0-.49.61-.54.92-.73a2.69,2.69,0,0,1,1.95-.14,3,3,0,0,0,2.65.46c.62-.38,1.3-.1,2,0,2.64.3,5.28.75,7.6,1.23,1.34.39,2.51.8,3.67,1a15.66,15.66,0,0,1,3.31.57c0,.16-.15.17-.14.33a1,1,0,0,1-.11.67l.32,0,0-.65,0-.32a2,2,0,0,1,2,.83,5.86,5.86,0,0,0,1.76,1.66,2.44,2.44,0,0,0,1.65.21,1.08,1.08,0,0,1,1.18.56c.2.48.22.8-.39,1.34-.64.21,0,.49.05.65l.65-.05c.32,0,.66.11,1,.09-.32.18-.46.52-.78.55-.79.38-.78.54-.38,1.5,0,.32-.26.83-.25,1-1.28.42-.85,1.7-1.12,2.54-.14.33.56.93,1.06,1.06a1.18,1.18,0,0,0,.82.1c.17,0,.19.31.19.31l-.16,0a32.07,32.07,0,0,1-3.92,0c-.58-1.1-1.69-.69-2.52-.95-.18-.15-.52-.29-.69-.44-.51-.29-1.16-.24-1.29.26,0,.48.06.81-.41,1-.64.21-1.29.26-1.77.45a2.91,2.91,0,0,1-1.16-.24l-.32,0c-1.25-1.38-1.89-1.33-3.46-.4a1.42,1.42,0,0,1-1.14.09,13.36,13.36,0,0,0-6.74-.64l-.49,0c.14-.34.13-.5.28-.67.16,0,.15-.18.3-.35-.16,0-.34-.14-.49,0-.32,0-.47.19-.8.22-.47.2.23.8-.42.85a17,17,0,0,0-2.49-.47c-.16,0-.36-.47-.37-.63s.14-.34.29-.51a1.59,1.59,0,0,0-.64.21c.1,1.3-.9,1-1.56.93L156,164c-.49,0-.81.06-.7-.6l-.52-.45c0,.33-.14.34-.13.5,0,.49-.27.67-.62.38a2.91,2.91,0,0,0-2.61,0,8.34,8.34,0,0,1-2.75.36c-.33,0-.51-.29-.66-.11a15.73,15.73,0,0,1-7.37-.27c-.82.06-1.64,0-2.29,0-3-.11-5.88-.06-8.65,0a25.12,25.12,0,0,1-3.45-.24l-1.62.12a8.76,8.76,0,0,1-1.77.46,36.2,36.2,0,0,1-5.92-.54.59.59,0,0,1-.49-.13c-.37-.46-.69-.44-1-.25-1.29.26-2-.34-1.75-1.5s-.12-1.63-1.12-1.88c-1-.41-2-.66-2.68-.94-.5-.13-.36-.46,0-.65.65-.05.47-.36.44-.69a18.2,18.2,0,0,1-1.45-4.13c-.38-.79.35-1.83,1.14-2.21,1.28-.42,1.26-.59.84-1.86-.39-.95-.24-1.13.87-1.53,1.29-.26,2.55-.85,4-1.28.15-.18.46-.36.45-.52,0-.65.6-.7,1.09-.74-.17,0-.15.18-.3.35,0,.32-.14.34-.12.66l.33,0c0-.16.14-.34.12-.5.15-.18,0-.33,0-.49a1.92,1.92,0,0,1,.75-.87.57.57,0,0,0,.34.14c.16,0,.34.3.34.3a4.57,4.57,0,0,0,1.17.24.79.79,0,0,0,.07-1.15c-.7-.6-.08-1.14.23-1.32,1-.4,1.87-1.28,3.21-.73a1.27,1.27,0,0,0,.83.1c.15-.18.29-.51.59-.86-.33,0-.5-.13-.84-.27l-.49,0c-.48,0-.5-.13-.37-.62.16,0,.48-.2.46-.37.92-.88,1.83-1.76,2.76-2.49.45-.52.92-.72,1.46-.11.17.16.65,0,.46-.36-.23-1,.28-.67.79-.38.16,0,.65,0,.82.1.17,0,.15-.17.32-.19-.68-.27-.45-1.59-1.56-1.19,0,.17-.16,0-.16,0a.16.16,0,0,1,.15-.18,2.61,2.61,0,0,0,1.37-1.24,3,3,0,0,1,1.54-1.26,3,3,0,0,0,1.87-1.28c.14-.34,1.46-.11.57-1h.17c1-.07,1.25-.74,1.69-1.43.6-.7,1.22-1.07,1.68-1.59a1.46,1.46,0,0,1,1.75-.62l1-.08c.65,0,1.27-.42,1.21-1.23.27-.84.39-1.34,1.22-1.23.16,0,.62-.38.61-.54-.74-1.25.52-1.83,1.12-2.53,0-.33.29-.51.61-.54,1.12-.41,1.68-1.59,2.45-2.3a21.59,21.59,0,0,0,2.56-2.81,1.94,1.94,0,0,1,1.63-.12c.16,0,.65,0,.63-.21a1.06,1.06,0,0,0-.23-1,.57.57,0,0,0-.2-.47c1.11-.41,1.2-1.4,2-2.11.46-.36,1,.09,1.12-.25.3-.34.1-.82.23-1.32a.16.16,0,0,1,.15-.17c1.59-.61,1.62-2.41,2.85-3.48.15-.18.27-.68.6-.7.16,0,.51.29.85.43l.64,0c-.18-.31,0-.49-.19-.48-.19-.31-.54-.61-.39-.78a2.13,2.13,0,0,1,.73-1.2,2.65,2.65,0,0,0,1-1.55c.13-.33.28-.51.45-.52a2.5,2.5,0,0,1,1.09-.73c-.54-.62-.39-.79.06-1.32.3-.34.27-.83.55-1.34.13-.5.43-.85.56-1.35v-.16c.12-.5,0-.65-.53-.45-1.12.24-2.23.65-3.36.9-1.29.26-2.4.67-3.52.91a3.4,3.4,0,0,0-1.58.78,1.37,1.37,0,0,1-.93.72c-1.46.1-2.5,1.49-3.79,1.75a16.58,16.58,0,0,0-2.81,1.68c-1.11.41-2.24.65-3,1.85h-.17c-4.38,2.61-4.64,3.45-8,6.64,0,.16-.15.17-.3.35A54.33,54.33,0,0,0,127,121l-2.71,3.14c-1.5,1.74-2.82,3.8-4.15,5.7-1.17,1.72-2.34,3.6-3.52,5.32-.73,1.2-1.45,2.39-2.17,3.75a25.4,25.4,0,0,1-2.72,5.11,10.26,10.26,0,0,0-1.41,3c-.72,1.36-1.27,2.71-2,4.07a15.36,15.36,0,0,1-1.32,2.05.94.94,0,0,0-.11.66c0,.49.42,1.28.1,1.47a2.83,2.83,0,0,0-.72,1.19c-.12.67-.41,1.18-.53,1.68a21,21,0,0,0-.92,3c-.39,1.34.19,2.6.27,3.74.11,1.46.54,2.74.63,4a2.71,2.71,0,0,1-.49,2.15,6.85,6.85,0,0,0-.39,1.34,5.49,5.49,0,0,1-3.77,4.2,2.58,2.58,0,0,1-1.27.58,4.51,4.51,0,0,1-2.92.22"/><path class="cls-1" d="M249.34,99.54a3.53,3.53,0,0,0,.42-.85c-.36-.47-.71-.77-.89-1.08h-.16a7.41,7.41,0,0,1-.11.83c.5.12.53.45.21.64a1.26,1.26,0,0,0,.38.62.16.16,0,0,0,.15-.17m1.2,5.13c-.53-.45.26-.83-.11-1.46-.36-.46-.09-1.14-.15-1.95l-.35-.3c-.33-.14-.32,0-.33-.14,0-.65-.39-.78-1-.57,0,.16,0,.16-.14.33.16,0,.17.15.33.14.5.13,1,.74.91,1.24,0,.16,0,.16-.15.17-.46.37-.1.83-.06,1.32a4.78,4.78,0,0,0,.42,1.27.56.56,0,0,1,.33.14.55.55,0,0,0,.32-.19m-2.08-8.17c-.17-.15-.17-.15-.34-.14s-.31.19-.45.52l.18.15c.32,0,.47-.2.61-.53m-1.62-2-.32,0a3.68,3.68,0,0,0-.23,1.32h.16c.13-.5.26-.83.39-1.33m-1.14,6.61a.16.16,0,0,1,.15-.17c0-.16.15-.18.14-.34a1.7,1.7,0,0,0-.5-.13l-.33,0c0,.32.22.64.23.8s0,.16.18.31c0-.16,0-.49.13-.5m-.79-6.31,0-.32c0-.16,0-.33,0-.49l0-.32a.56.56,0,0,1-.14.33,1.79,1.79,0,0,0-.1.83c0,.32,0,.48,0,.65a1.27,1.27,0,0,0,.28-.68m-.11-1.46c.16,0,.31-.19.63-.21-.18-.31-.2-.47-.36-.46l-.32,0a.35.35,0,0,1-.3.35l-.3.35.65,0m-.36,4c-.17,0-.34-.14-.52-.29-.13.34-.12.5-.27.67a.56.56,0,0,0,.18.32l.61-.7m-.87-2.88c.66.12.3-.35.29-.51,0-.32-.2-.47-.21-.64.26-.83-.23-.8-.73-.92-.16,0-.16,0-.15.17,0,.33.06.81.08,1,.53.61.05.65-.44.68-.17,0-.17,0-.31.19,0,.65.21.64.71.76.66.12.81-.06.76-.71m-1.1,2.86a3.13,3.13,0,0,1,.09-1c-.17-.15-.33-.13-.52-.45,0,.33,0,.33-.12.5a.72.72,0,0,1-.13.5c0,.33.05.65.06.81.15-.17.47-.2.62-.37m-6.33,11.41a.85.85,0,0,0-.38-.62c-.29.35-.46.36-.59.86l.34.13a.82.82,0,0,0,.63-.37m-31.75,51.84c-.17-.15-.36-.46-.82-.1l-.49,0c-.22-.8-.35-.3-.66-.11a.61.61,0,0,1-.32.19l.49,0a.16.16,0,0,1,.18.15c0,.16,0,.16-.15.18-.81.06-1.48-.06-2.29,0-.34-.14-.66-.11-.21-.64,0-.16,0-.16,0-.48l-.3.35-1,.07a5,5,0,0,0-1.35-.56c-.35-.29-.53-.61-.71-.76s-.35-.3-.51-.29c-.17-.15-.49,0-.65.05-.49,0-.66-.11-.52-.45.12-.5,0-.65-.4-1-.66-.11-1-.58-1.83-.52a.85.85,0,0,1-.69-.43c-.22-.81-1.22-1.06-1.13-2a1.38,1.38,0,0,1-.59-1.27l0-.32c.44-.69-.07-1-.44-1.6-.17,0,0-.33-.05-.65s.11-.66.09-1a.23.23,0,0,0-.33,0c-.46.36-.5-.13-.52-.46s0-.48.3-.34c.17.15.32,0,.47-.2-.16,0-.35-.3-.35-.3-.81.06-.83-.27-.88-.92,0-.48-.23-1-.27-1.45s.12-.66.08-1.15l0-.65c-.66-.11-.36-.46-.39-.78.13-.5,0-.65-.08-1.14-.05-.65.07-1.31,0-2s-.26-1.29-.31-1.94c0-1.63.08-3.27,0-5.06a37.63,37.63,0,0,1,.42-7.54c.24-1.16.17-2.13.42-3.13a39,39,0,0,1,1.11-4.82,13.8,13.8,0,0,1,.47-2.49c.13-.49.09-1,.39-1.33.28-.67.06-1.47.67-2,.16,0,.14-.34.11-.66s.13-.5.12-.66a10.11,10.11,0,0,1,.39-1.34,1.73,1.73,0,0,1,.09-1,.34.34,0,0,1,.3-.34,2.68,2.68,0,0,0,1.85-1.45,1.64,1.64,0,0,1,.76-.71,10,10,0,0,1,1.86-1.44c1.21-1.24,2.7-1,4-.79.5.13,1,.25,1.29-.26a2.84,2.84,0,0,1,1.63,0,3.46,3.46,0,0,1,.86.59,6.22,6.22,0,0,1,2.41,1.62,27.45,27.45,0,0,1,2.28,2.12.16.16,0,0,0,.18.15c1,.08.72.92.6,1.58,0,.49.08,1,.25,1.13.86.59.78,1.74.84,2.55a4.61,4.61,0,0,1-.35,4.11,8.15,8.15,0,0,0-.49,2.16c-.15.17-.14.33-.29.51a9.59,9.59,0,0,0-.56,1.18c-.27.84-.52,1.84-.78,2.67-.51,2-1.19,3.85-1.54,5.67a35.14,35.14,0,0,0-.67,4.13c-.06,1.47-.12,2.79-.19,4.1a7.8,7.8,0,0,0,.37,2.75c0,.48.06.81.08,1.13l1.3-.09c.63-.38,1.25-.75,2-1.13a20.06,20.06,0,0,0,3.89-2.58c.77-.71,1.54-1.26,2.15-1.79.15-.18.31-.35.47-.36a2.27,2.27,0,0,1,1.36-1.41,2.26,2.26,0,0,0,1.22-1.23c.29-.52.91-.89,1.36-1.41.31-.19.44-.69.59-.86.3-.35.1-.83.77-.71.07-1.15,1-1.71,1.61-2.41a5.71,5.71,0,0,1,.9-1,.59.59,0,0,0,.13-.49c.15-.18.28-.68.43-.85.3-.35.77-.55.73-1.2,0-.16,0-.33.27-.67.91-.89,1.31-2.22,2-3.26a2.41,2.41,0,0,1,1-1.54c.15-.18.15-.18.14-.34.29-.51.23-1.33,1.18-1.72.16,0,.63-.38-.06-.82v-.16c.77-.54.53-1.67,1.12-2.53.61-.53.55-1.35,1-2.19.13-.34.46-.37.61-.54,0-.16-.52-.45-.37-.63a10.64,10.64,0,0,1,.83-2c.13-.33.11-.66.24-1.16.15-.17-.23-.8.61-.53,0,0,.46-.37.45-.53a1.09,1.09,0,0,1,0-1.63v-.17c-.2-.47-.38-.78.44-.68,0-.16,0-.49-.05-.65-.35-.3,0-.49.1-.82.45-.53.58-1,1-1.55.14-.34.44-.69.58-1a2.39,2.39,0,0,0,.5-2c0-.16,0-.16.14-.34.47-.36,1.09-.73.69-1.68-.16,0,.13-.5.28-.68a2.48,2.48,0,0,0,.6-.69c.16,0,.15-.18.14-.34l-.32,0c-.17,0-.16.18-.32.19l0-.33.3-.34a1.93,1.93,0,0,0,.64-2.34l.15-.17c.16,0,.16,0,.34.14l.17.15,0-.33c0-.16,0-.49-.05-.65s.14-.34.13-.5c.17.15.33.14.35.3l.17.15c0-.16,0-.32,0-.48-.18-.32-.18-.32.29-.51a.6.6,0,0,0,.14-.34c.15-.18.12-.66.27-.84.49.13,1.17.41,1.19.73.21.64.7.6,1.19.57a2.8,2.8,0,0,0,1.12-.25,1.86,1.86,0,0,0,.9-1c0-.32,0-.32.48-.2,1-.07.67.28.55.78-.14.34,0,.65.07,1,.31-.18.45-.52.76-.71.15-.17.13-.5.29-.51.49,0,.35.3.21.64,0,0,.19.31.35.3a.55.55,0,0,1,.31-.19,6.34,6.34,0,0,0,.8-.22,15.06,15.06,0,0,1,1.69.69,1.74,1.74,0,0,1,.57,1.1c0,.17,0,.49.05.65.21.64.37.63.82.1a.5.5,0,0,1,.31-.18c.17,0,.18.15.19.31,0,.49.07,1,.12,1.62,0,0,.35.31.51.29.48-.2.34.14.19.31-.45.53-.76.72-1.21,1.24,0,.16-.3.35-.29.51a2.29,2.29,0,0,0,.39,1c.17,0,.64-.21.67.11a3.29,3.29,0,0,1-.07,1.32c0,.16-.48.19-.48.19a.58.58,0,0,1-.19-.47c-.2-.48-.54-.61-.56-.94-.06-.81-.23-.8-.85-.43l-.16,0c-.33,0-.33,0-.3.35a3,3,0,0,0,.24,1.12.6.6,0,0,0,.34.14.53.53,0,0,1,.14-.34c0-.16,0-.32,0-.32a2.21,2.21,0,0,0,.51.29c.19.31.52.28.86.58-.13.34-.6.7.06.82.18.15.2.47.23.8a32,32,0,0,1-.7,3.8c-.13.5.1,1.3-.7,1.52l0,.33c.41,1.11-.34,2-.59,3,0,0-.12.67-.33,0,0-.16-.17-.15-.35-.3-.15.17-.14.33-.3.35,0,.16.19.31.2.47a3.59,3.59,0,0,1,.55.78l-.49,0a.62.62,0,0,0-.31.19c0,.16.17.15.35.3l0,.49c-.16,0-.31.18-.47.2l-.33,0a.6.6,0,0,0-.47.2l.32,0,.68.27c-.3.35.38.79-.26,1-.16,0-.47.2-.3.35.39.79-.22,1.32-.34,2a19.5,19.5,0,0,1-.84,1.86c-.29.51-.59.86-.39,1.34.16,0,.17.15,0,.16a30.88,30.88,0,0,1-1.37,3.53c-.28.68-.39,1.34-.66,2s-.73,1.2-1,2-1.2,1.4-1.13,2.38c0,.32-.29.51-.44.68a2.58,2.58,0,0,1-.56,1.19,3.62,3.62,0,0,1-.77.71c-.16,0-.66-.12-.61.53,0,.16,0,.33-.14.34-.65,0-.29.51-.29.51a.62.62,0,0,0,.5.13l.17,0a.51.51,0,0,1-.14.34,3.67,3.67,0,0,0-1.17,1.88c0,.33-.45.53-.62.38-.33,0-.48.19-.28.67-.16,0-.33,0-.34-.14a.35.35,0,0,1-.35-.3c0,.16-.14.34-.12.5a.56.56,0,0,1,.18.31c0,.33-.14.34-.12.5-.17,0-.18-.15-.34-.14l-.32,0a.5.5,0,0,0,.18.31c.34.14.35.3.37.63-.15.17-.3.34-.46.36-.34-.14-.32,0-.44.68,0,.33-.27.68-.4,1.18-.3.35-.44.68-.91.88-.15.18-.14.34-.29.51-1.13.25-1.21,1.4-1.63,2.25a3.88,3.88,0,0,1-.59.86l-1.2,1.39c0,.17-.33,0-.33,0l-.35-.3c0,.16-.3.34-.44.68a.6.6,0,0,1,.5.13l.33,0c-.15.18-.14.34-.3.35,0,.33-.14.34-.29.51-.32.19-.79.39-1,.24-.67-.12-.84-.27-.62.53,0,.49-.42.85-1.09.74-.16,0-.16,0-.31.19a.16.16,0,0,1,.18.14.75.75,0,0,0,.5.13,1.3,1.3,0,0,1-.28.68c-.15.17-.44.68-.77.7-.63.22-.76.72-1.06,1.06l-.16,0c-.68-.28-.62.53-.93.72-.46.36-.94.56-1.4.92a4.5,4.5,0,0,0-1.51,1.58A3.81,3.81,0,0,1,222,154a2.18,2.18,0,0,1-1.26.59c-.16,0-.15.17-.14.33-.15.18-.3.35-.46.36-.15.18-.14.34-.3.36-.33,0-.5-.13-.67-.12,0,.33,0,.49-.11.66,0,.16-.31.19-.32,0-.35-.31-.33,0-.48.19a.78.78,0,0,1-.95.4l-.32,0a2.5,2.5,0,0,1-1.72,1.1c-.31.19-.77.55-1.09.74a30.35,30.35,0,0,1-3,1,21.44,21.44,0,0,1-3.08.39c-.16,0-.76.71-.82-.1,0,.16-.15.17-.31.18-.32.19-.6.7-.77.72-.67-.28-1.27.41-1.82-.36"/><path class="cls-1" d="M335.74,51.31a2.51,2.51,0,0,1-.52-.29c-.13.34-.42.85-.56,1.19l.34.14c.3-.35.44-.69.74-1m-3.87-3.63c-.16,0-.33-.14-.5-.13.3-.35.29-.51.59-.86l.34.14c0,.16-.13.5-.11.66a.15.15,0,0,0,.17.15.16.16,0,0,1-.15.18c-.16,0-.17-.15-.34-.14m-.39,3.46-.87-.75,0,.32c0,.33.36.46.71.76a.5.5,0,0,1,.14-.33m-6.42,25.79a9,9,0,0,0-.72-.93c0,.32.05.65.08,1l-.17,0c.18.15.36.46.54.61.15-.18.45-.52.27-.67m-5.85,13.5a.51.51,0,0,0-.34-.14,1.2,1.2,0,0,0-.26.83s0,.17.17.15a3.6,3.6,0,0,0,.43-.84M319,70.19a.8.8,0,0,0-.2-.48v-.16a.56.56,0,0,1-.18-.31c-.16.18-.3.35-.29.51.17.15.36.46.52.45ZM308.6,97.09a5.65,5.65,0,0,0-.58-1.26h-.17c-.31.19.09,1.14.26,1.29l.49,0M296.32,123a3.7,3.7,0,0,0,.43-.85l-1,.07a2.24,2.24,0,0,0-.25,1v.16c.31-.18.64-.21.79-.38M281.7,93.21c0-.16-.19-.31-.2-.47-.19-.32-.35-.3-.66-.12,0-.32,0-.65-.08-1,0-.16-.17-.15-.35-.3.35.3-.77.55-.1.82,0,.17,0,.33,0,.49l.49,0c-.13.5-.12.67.39.95.33,0,.35.3.53.45,0-.32-.05-.65-.06-.81m-2.3,24a1.4,1.4,0,0,1,.1-.82c.31-.19.77-.55.09-1a1.29,1.29,0,0,1,.2-1.64,6,6,0,0,0,.52-1.84,2.06,2.06,0,0,0-.23-1c-.17,0-.34-.14-.5-.13l-.15.18c.56.94-.37,1.66-.31,2.47a2.09,2.09,0,0,1-.57,1.18c-.13.34.56.94-.24,1.17-.15.17.08,1-.06,1.31,0,.48.06.81.55.77.65,0,.62-.37.6-.7m-.66,13.12c0-.33.09-1,.06-1.31a3.57,3.57,0,0,1-.39-.95c-.15.17-.28.67-.43.84a7.61,7.61,0,0,1,.45,1.6.5.5,0,0,1,.33.14l0-.32m1,4.82c-.19-.31-.21-.64-.39-.79-.49-.12-.68-.44-.54-.77s.25-1,.09-1c-.85-.43-.38-.62-.07-1A1.08,1.08,0,0,0,279,131c-.34-.13-.67-.27-.66-.11a1.44,1.44,0,0,0-.42,1c0,.33.23.8.26,1.29H278a5.59,5.59,0,0,0,.72.93c0,.32.2.47.22.8-.14.33,0,.48.52.29Zm0-8.49c.15-.18.12-.66.48-.2a.31.31,0,0,0,.49,0l0-.16a1.52,1.52,0,0,0-1.68-.69l-.18-.15a1.24,1.24,0,0,1,.28-.67,2.12,2.12,0,0,0,.09-1,18,18,0,0,1-.38-2.91,1.27,1.27,0,0,0,0-1.64c0-.32-.35-.3-.68-.44l0,.49a6.32,6.32,0,0,0,.29,1.61h.16a2.35,2.35,0,0,1-.44.69c-.34-.14-.49,0-.31.18,0,.33,0,.49-.12.66a1,1,0,0,0,.27,1.45c0,.17,0,.33.05.65-.14.34-.6.7.24,1,.16,0,.16,0,.17.15a1.77,1.77,0,0,0,.24,1s0,.16.16,0a.6.6,0,0,0,.14-.34.64.64,0,0,1,.2.47c.17.15.18.32.21.64.15-.17.12-.5.27-.67M276.05,125h-.16c-.31.18-.45.52-.76.71l.35.3c.66.11.29-.51.57-1M262.93,104.4l.49,0c0-.16-.19-.31-.36-.46s-.19-.32-.38-.63c0-.16-.17-.15-.33-.14s-.3.35-.29.51.17.15.35.3c-.16,0-.33,0-.31.19a.6.6,0,0,1-.14.34c.16,0,.17.15.33.13.33,0,.48-.19.64-.21m-19,65.43a8.31,8.31,0,0,1-3.39-1.71c-.16,0-.53-.45-.54-.61.27-.84-.41-1.12-1.07-1.23a2.57,2.57,0,0,1-1.37-.88,10.36,10.36,0,0,1-1.84-2.8,6.44,6.44,0,0,1-.45-3.89c.15-.17-.2-.47,0-.65a13.84,13.84,0,0,1,.69-1.68,9.13,9.13,0,0,0,1.12-2.53,13.62,13.62,0,0,1,1.53-3.55c.58-1,.83-2,1.41-3a8.61,8.61,0,0,1,1-2.2c.41-1,.84-1.85,1.27-2.7s.69-1.69,1-2.36c.43-.85.55-1.51,1-2.2,0-.16.31-.35.45-.52a.55.55,0,0,0,.32-.19,3.68,3.68,0,0,1,.23-1.32l0-.16c1.24-.91.8-2.51,1.55-3.38.45-.53.57-1.19,1-1.55l0-.32a.62.62,0,0,0,.13-.5c0-.49,1.11-.41.55-1.35-.18-.31.4-1.17.69-1.68a21,21,0,0,1,1.28-2.55,9.69,9.69,0,0,1,.68-1.85c.28-.67.73-1.19,1.16-2a12.81,12.81,0,0,1,1-2.2l.15-.17c.5.12.34.14.29-.51,0-.17.28-.51.27-.68.13-.5.28-.67.41-1.17s.23-1.32.7-1.52c.45-.52.23-1.32.54-1.51.46-.36.59-.86,1.25-.75a3.79,3.79,0,0,0,.12-.66,1.87,1.87,0,0,0-.2-.47c.77-.55.53-1.68,1.13-2.38a2.41,2.41,0,0,0,1.15-2,5.24,5.24,0,0,1,1.13-2.37,27.5,27.5,0,0,1,2-3.9,9.44,9.44,0,0,0,.88-1.38c.06.82.84.43,1.22,1.06l.16,0c0-.48.26-.83.09-1-.19-.31-.2-.48.11-.66a1.12,1.12,0,0,0-.36-.47c-.17-.15-.32,0-.66-.11l.42-1c.45-.52.91-.89,1.36-1.41a6.49,6.49,0,0,1,1.18-1.72c.46-.36.25-1,.2-1.65.17,0,.15-.17.14-.33l.3-.35.45-.53,0,.49c0,.16.17.15.34.14,0-.16.45-.53.25-1-.18-.15-.05-.65-.09-1.14a11.48,11.48,0,0,1,1-1.87c.14-.33.43-.85.71-1.36,0-.16.15-.17.31-.18l.66,0c.16,0,.16,0,0-.33-.16,0-.17-.15-.17-.15a13.84,13.84,0,0,1,.69-1.68l.3-.35c-.06-.81.6-.7,1.08-.9a3.87,3.87,0,0,0,1.28-.26c.17,0,.3-.34.45-.52-.16,0-.32,0-.33-.14l-.18-.15c.13-.5.26-1-.27-1.45-.17-.15,1.19-1.56,1.37-1.41.16,0,.17.16.35.31v.16c.16,0,.31-.19.29-.51L275.5,78c0-.17-.2-.48,0-.49a.57.57,0,0,1,.47-.2c.67.28,1-.07.94-.56.15-.17.13-.5.46-.36,0,0,.14-.34.3-.35.32-.19.62-.54,1-.07s.85.43,1.18.56.35.3.51.29h.17c.16,0,.15-.17.3-.35a.64.64,0,0,1,.2.48l0,.32a1.24,1.24,0,0,1,.62-.37.56.56,0,0,1-.18-.31c0-.17-.18-.16-.19-.32a.23.23,0,0,0,.33,0,1.19,1.19,0,0,0,.62-.38l-.18-.31c.15-.17.6-.7.76-.71a1.73,1.73,0,0,1,2.09,1.81.5.5,0,0,0-.14.33l.33,0c.46-.36.79-.39.84.26-.16.18.18.32.37.63a1.17,1.17,0,0,1,.67.28c.51.28.7.6,1.31.06,0-.16.48-.2.65,0A4.9,4.9,0,0,1,290.42,81c-.13.5.05.65.08,1.14.19.31.38.62.08,1v.16c.17.15.35.3.36.47a3,3,0,0,0-.21,1.64l0,.17c-.45.52.08,1.13.11,1.46s.72.92-.27.83l-.3.35a24.58,24.58,0,0,1-.43,3,.16.16,0,0,0,.17.15c.65-.05.38.62.21.63-.73,1-.18,2-.42,3.14-.15.17-.12.5-.26.83a.6.6,0,0,0-.14.34,1,1,0,0,1-.56,1.19.56.56,0,0,0-.13.49c1-.07.7.61.75,1.25a8.66,8.66,0,0,1,0,2c0,.48-.25,1-.22,1.48-.18,2-.36,4-.53,6.08,0,1.64-.07,3.44-.26,5.25-.61.53-.07,1.31-.18,2-.4,1.17-.48,2.32-.87,3.66,0,.16,0,.49.34.14l.17.15c.05.65.25,1.12,0,1.63a3,3,0,0,0-.21,1.65c0,.33-.1.83-.07,1.15-.17,0-.14.34,0,.33.5.12.54.61.41,1.11a3.92,3.92,0,0,0,0,2c0,.16-.14.34-.27.67a.53.53,0,0,0-.14.34,10.29,10.29,0,0,0,0,2.29,6.7,6.7,0,0,0,.27,3.57c.05.65-.07,1.31,0,2l0,.32.3-.35a8.12,8.12,0,0,0,.87-1.37c.58-1,1.33-1.89,1.76-2.74.57-1.19.79-2.51,1.21-3.52.44-.69.72-1.36,1.15-2l.17,0a.6.6,0,0,0,.5.13s0-.33,0-.49c-.71-.76-.1-1.3.19-1.81a7.71,7.71,0,0,0,.87-1.53,2.26,2.26,0,0,0,.71-1.36,22.45,22.45,0,0,0,.82-2.19,15.66,15.66,0,0,1,.69-1.68,7.37,7.37,0,0,0,.69-1.68l.15-.18c.32-.19.78-.55.74-1a.55.55,0,0,1,.31-.19c.17,0,.34.14.52.29a.35.35,0,0,1-.3.35.48.48,0,0,0,.05.65c.18.31.33.13.31-.19.83.27.61-.54.6-.7-.19-.31-.69-.44-.86-.59s-.36-.46.11-.66c.64-.21.4-1.17,1.22-1.23,0,0,0-.33,0-.49a6.34,6.34,0,0,1-.22-.8c.55-1.35,1.24-3,1.78-4.54a.17.17,0,0,1,.15-.18,1.07,1.07,0,0,0,.58-1c0-.32.44-.68.42-1,.16,0,.13-.33.13-.33-.51-.29-.06-.82.08-1.15a.48.48,0,0,0,.34.13,2.27,2.27,0,0,0,.4,1,.56.56,0,0,0,.18.31.6.6,0,0,0,.14-.34c0-.32.12-.66.09-1a1.56,1.56,0,0,0-.2-.47c-.81.06-.51-.29-.37-.63.13-.5.24-1.16.37-1.66l0-.16c.95-.4.73-1.2,1-1.71.13-.5.6-.7,1.06-1.06.17,0,.35.3.52.29l.32,0a.16.16,0,0,1-.17-.15,1.4,1.4,0,0,1-.64-1.92,7.68,7.68,0,0,1,.57-1.18c0-.33.28-.67.42-.85a8.82,8.82,0,0,1,.69-1.84,3.21,3.21,0,0,1,.55-1.35,2.12,2.12,0,0,1,.4-1.18c.15-.17.46-.36.77-.7,0,.32.19.47.21.63.17.15.34.3.36.46a.45.45,0,0,0,.13-.33c.14-.34.29-.51.27-.84a.51.51,0,0,0,.14-.34,1.2,1.2,0,0,1-.58-1.1c0-.32,0-.65-.06-.81l.53.45,0,.33a.93.93,0,0,1,.21.64.56.56,0,0,0,.32-.19c0-.33.11-.66.09-1,0-.16-.34-.14-.52-.29-.18-.31,0-.48.29-.51l.15-.17a4.07,4.07,0,0,0,.07-1.31c0-.16,0-.33,0-.49a.6.6,0,0,0,.34.14c0,.16.19.31.2.47s-.3.35-.3.35a.35.35,0,0,0,.35.3h.16a6.52,6.52,0,0,1,.41-1,2.65,2.65,0,0,0,.08-1.15l0-.32,0,.32c-.15.18-.15.18-.31.19a.16.16,0,0,1-.17-.15c0-.16-.2-.48-.05-.65.28-.51.56-1.19.85-1.7.15-.17.14-.34.11-.66.32-.19.27-.84.64-.21,0,.16.34.14.34.14a.57.57,0,0,1,.14-.34c-.72-.92-.12-1.62.14-2.46.15-.18.1-.82.44-.69,1.15.08.6-.69.74-1a2.34,2.34,0,0,0,.25-1c.19.31.21.64.39.79,0,.16.17.15.18.31.17,0,.15-.17.32-.18.44-.69.26-.84-.41-1.12,0-.16,0-.32,0-.48.15-.18-.06-.82.43-.85.16,0,.14-.34.12-.5l0-.33c.31-.18.46-.36.26-.83V71c.78-.54.69-1.68,1.29-2.38,0,0,.33,0,.32-.18a.17.17,0,0,0,.15-.18c-.34-.14,0-.49-.05-.65l.32,0c.34.14.35.3.38.62.16,0,.35.3.52.45.14-.33.45-.52.59-.86.15-.17,0-.32,0-.48v-.17a.17.17,0,0,0-.15.18.5.5,0,0,1-.31.18.51.51,0,0,1-.19-.31,2.3,2.3,0,0,1-.23-1c0-.32.12-.5.11-.66.8-.22.74-1,.85-1.7h.17c0-.33.83.26.29-.51a4.61,4.61,0,0,1,.41-1,17.36,17.36,0,0,0,1.86-3.57c.15-.17.15-.17.65,0,0,0,0-.16,0-.32.09-1,.09-1,1.1-.57.18.15.33,0,.65,0l0-.49c0,.16-.15.17-.14.34l-.49,0c-.18-.31-.53-.61-.39-.95a4.18,4.18,0,0,1,.73-1c.14-.34.29-.51.28-.68.58-1,1.17-1.88,1.75-2.9a1.39,1.39,0,0,1,.59-.86l.64,0,.18.15c.15-.17.31-.19.14-.33-.38-.63.24-1.17.38-1.5a7.49,7.49,0,0,1,1.05-1.23l.65,0,0,.32a2.45,2.45,0,0,0,.25,1.13c.17.15.5.12.51.28,0-.32.63-.37.1-.82a9,9,0,0,0,.55-1.35l.16-.17c.83.26,1.11-.41,1.57-.77a4.62,4.62,0,0,1,2.6-.19l.05.65L336,48.84c-.14.34-.29.51-.27.67,0,.33,0,.49.07,1,.47-.2,1,.41,1.28-.26a2.72,2.72,0,0,1,1.13-.25,3.7,3.7,0,0,0,.85.43.35.35,0,0,0-.3.35l-.75.87a1,1,0,0,0-.12.66c0,.16.19.31,0,.49-.58,1-.65,2.33-1.55,3.38-.59.86-.68,1.85-1.26,2.71a.16.16,0,0,0,.17.15.6.6,0,0,0,.5.12c-.16,0-.15.18-.32.19-.62.37-.57,1-.86,1.53-.42,1-1,1.87-1.42,2.88-.3.35-.27.84-.56,1.19a4,4,0,0,1-.57,1.18c-.28.68-.57,1.19-.84,1.86a35.79,35.79,0,0,1-2,4.4,26.66,26.66,0,0,1-1.68,3.71,9.77,9.77,0,0,1-1.31,2.22l0,.33c.38.79-.08,1.15-.52,1.83a17,17,0,0,0-.53,1.68v.16a7.69,7.69,0,0,0-1.23,3.19c-.42,1-.51,2-.93,2.85a21.69,21.69,0,0,1-1.55,3.38c0,.16-.29.51-.29.51a2.72,2.72,0,0,1-1.14,2.21c0,.16,0,.48,0,.48a4.29,4.29,0,0,1-.54,1.51c0,.33,0,.49-.12.66,0,0,0,.17,0,.33-.79.39-.89,1.21-1,2a.55.55,0,0,1-.31.19,53.12,53.12,0,0,1-2.29,6.54c-.24,1.16-.3,2.47-.53,3.79a4.11,4.11,0,0,1-.52,1.84c-.12.66-.4,1.17-.52,1.83-.81,2.19-1.63,4.37-2.3,6.38-.84,1.86-1.52,3.71-2.2,5.55-.7,1.52-1.39,3.21-2.09,4.89,0,.16-.3.35-.45.53a.16.16,0,0,0-.15.17,35.91,35.91,0,0,0-1.35,3.69c-.14.34-.29.51-.43.85a.91.91,0,0,0-.43.85c-.16,0-.15.17-.3.35a5.21,5.21,0,0,0-.58,1,.46.46,0,0,1-.14.34c-.78.38-.86,1.53-1.29,2.38a11.66,11.66,0,0,1-1.22,3.36c-.71,1.36-1.27,2.71-2,4.07-.29.51-.56,1.34-1.37,1.4v.16c.22.64-.59.86-.54,1.51l0,.33c-.89,1.21-1.78,2.42-2.52,3.45a18.62,18.62,0,0,1-1.64,2.08,29.9,29.9,0,0,1-3,3.49,4.55,4.55,0,0,1-1.74.79c-.17-.15-.17-.15-.18-.32l-.94.56c-.16,0-.3.35-.47.36a5.3,5.3,0,0,1-3.29-.4c-.18-.15-.5-.13-.51-.29-.34-.14-.67-.12-.68-.28a1.39,1.39,0,0,0-1.54-1c-.65.05-1.16-.24-1.21-.89a1.61,1.61,0,0,0-.22-.8l-1.92-1.65a.16.16,0,0,1-.18-.15,13.07,13.07,0,0,1-.82-2.23c-.38-.78.06-1.47-.15-2.11a.16.16,0,0,1-.18-.15c-.32,0-.32,0-.5-.12.16,0,.15-.18.14-.34.15-.18.3-.35.29-.51.15-.18-.19-.32-.36-.47l-.49,0a3.63,3.63,0,0,1,.07-1.31l.31-.19c-.7-.6-.08-1.13,0-1.63.16,0,0-.17-.18-.32a.17.17,0,0,1-.16.18,1.41,1.41,0,0,0-.41,1,3.23,3.23,0,0,1-.4-1c0-.65.06-1.48-.3-1.94-.22-.64,0-1.47-.32-2.1-.19-.31.11-.66.07-1.15-.22-.8-.29-1.77-.51-2.57a3.63,3.63,0,0,1,.06-1.31c.12-.66.56-1.35-.14-1.95-.33,0-.21-.64-.24-1a22.19,22.19,0,0,1-.08-3.26c0-.33.47-.36.44-.69.14-.34-.52-.45-.54-.78-.1-1.29,0-2.61-.14-4.07,0-.32-.05-.65.42-.85a3.79,3.79,0,0,1,.12-.66c-.52-.29-.2-.47-.24-1,0-1.64-.25-3.41.28-5.08a1.47,1.47,0,0,0,0-1.8c.47-.2.28-.51.27-.67a29.26,29.26,0,0,0-.11-3.75c.1-.83.19-1.81.29-2.64l-.35-.3c-.15.18-.15.18-.14.34-.58.86-.84,1.86-1.43,2.72-.27.67-.35,1.82-1.3,2.22l-.15.17c.27,1.45-.81,2.35-1.2,3.69a12.59,12.59,0,0,0-1.28,2.54c-.42.85-.84,1.86-1.25,2.87s-1,2-1.56,3.22a25,25,0,0,0-1.41,3c-.06,1.31-1,2.2-1.22,3.36-.41,1-.84,1.86-1.25,2.87-.28.67-.71,1.52-1,2.36a5.21,5.21,0,0,0-.48,2.32,18,18,0,0,1-.69,1.68c-.28.68-.26,1-.56,1.35-.53,1.67-1.06,3.35-1.61,4.69A18.5,18.5,0,0,1,255.6,153c-.28.67-.39,1.33-.66,2.17a22.06,22.06,0,0,1-.81,2.18,12.37,12.37,0,0,0-1,2l0,.16c.57,1.1-.2,1.81-.64,2.5-.15.17-.15.17-.13.33.77,1.58-.45,2.81-.83,4.31a5.22,5.22,0,0,1-.4,1.17,3.12,3.12,0,0,1-2,1.3c-1.43.43-2.72.69-4,1.11-.32,0-1-.09-1.17-.4"/><path class="cls-1" d="M354.84,141.34s0-.16,0-.33c-.17-.15-.18-.31-.34-.3-.18-.15-.35-.3-.37-.46l-.45.52c.35.3.54.62.89.92Zm-2.88.86c.12-.66.48-.19.82-.06.18.32.33.14.48,0s.14-.34.3-.35c0-.16,0-.16.14-.34l-.32,0a2.29,2.29,0,0,0-.95.39.62.62,0,0,0-.19-.31l-.6.7-.33,0c.17,0,.19.32.35.3,0,0,.32-.18.3-.35m-.8-6.47c.16,0,.15-.17.31-.18l.32,0c.36.47.65-.05.8-.22,0,0,.14-.34,0-.33-.18-.15-.34-.13-.51-.28l-.14.33c.2.48-.14.34-.45.53,0-.33-.2-.48-.21-.64-.15.17-.48.2-.47.36-.13.34,0,.49.07.81l.3-.35m-.66,4.3c-.37-.46.12-.5.44-.69.47-.2.46-.36.11-.66.46-.36.62-.37.1-.82v-.17l0-.32a.6.6,0,0,1-.47.2c-.13.5.06.81.42,1.27-.34-.14-.35-.3-.68-.44-.33,0-1.12.41-.93.73.05.65.71.76.91,1.24.15-.18.31-.19.14-.34M348.14,104c-.34-.14-.52-.45-.68-.44a2.47,2.47,0,0,0-.47.36,2,2,0,0,1,.51.29c.18.15.32-.18.64-.21m-1.78,37.53v.16c.15-.17.14-.33.3-.35-.32,0-.5-.12-1-.09,0-.16,0,.17-.15.18.18.15.19.31.35.3s.32-.19.48-.2m-7.15-28,0-.32a.55.55,0,0,0,.31-.19.61.61,0,0,0,.5.13c-.31.18-.29.51-.6.7,0-.17-.18-.16-.19-.32m-1.06,29.64a2.81,2.81,0,0,0,.94-.56c.09-1-.66-.12-.86-.59l-.33,0a.55.55,0,0,0-.31.19.35.35,0,0,1,.35.3.16.16,0,0,0,.17.15c-.16,0-.16,0-.15.18,0,0,0,.16,0,.32Zm1.4,7.9-.32,0-3.74.28c-1,.07-2-.35-2.78-.12-1,.23-1.49-.22-2.15-.33a1.45,1.45,0,0,1-1.17-.41,9,9,0,0,1-1.35-.55,2.89,2.89,0,0,1-1.31-.06.74.74,0,0,1-.53-.46c.28-.67-.4-1-.91-1.23l0,.16a1.73,1.73,0,0,0,.39.95c-.32,0-.47.2-1,.23l-.16,0c-.34-.14-.9-1.08-1.07-1.23v-.16c-.18-.15-.37-.47-.22-.64s.47-.36.46-.52l-.56-.94c0-.16-.49,0-.65.05l-.45.52c-.18-.15-.2-.48-.39-.79a1.24,1.24,0,0,1-.37-.62,1.21,1.21,0,0,1-.21-.64.49.49,0,0,0-.19-.31c0-.17-.35-.31-.36-.47.13-.5-.2-.47-.52-.45a.35.35,0,0,1-.35-.3.62.62,0,0,1,.31-.19l.15-.17c-.17-.15-.35-.3-.51-.29-.79.39-.54-.61-.55-.78.43-.84-.22-.79-.72-.92-.35-.3-.67-.28-.55-.78.14-.33-.37-.62-.4-1a1.79,1.79,0,0,1-.22-.8,4.14,4.14,0,0,1-.26-1.28.16.16,0,0,1-.17-.15l0,.32c-.17-.15-.33-.14-.34-.3a7.14,7.14,0,0,1-.77-3.7v-.16c.62-.37.29-.51-.05-.65-.18-.15-.35-.3-.36-.46.11-.67-.28-1.62.31-2.31,0,0,.44-.69-.22-.8a4.66,4.66,0,0,1,.08-1.15l.15-.18c-.17-.15-.35-.3-.21-.64a4.55,4.55,0,0,1,.22-1.48,10.4,10.4,0,0,1,.47-2.48l.15-.18c.62-.37.92-.72.39-1.33l0-.17c.64-.21.11-.82.24-1.16.17,0,0-.32.14-.33.48-.2.28-.68.42-1,0-.48.41-1,.55-1.34a.88.88,0,0,1,.28-.68c.27-.67.55-1.35.83-2,.42-.85.84-1.86,1.28-2.54a5.5,5.5,0,0,1,.86-1.54c.29-.51.57-1.18.86-1.69v-.17c1-.07.26-.83.89-1.2.31-.19.58-.87,1-1.55.15-.17.09-1,.75-.87a1.69,1.69,0,0,1,.57-1.19l1.5-1.74a.16.16,0,0,1,.15-.18c.88.75.48-.2.62-.53s.12-.5.27-.68c.47-.36.79-.38,1.07-1,0-.33.61-.54,1.07-.9a1.26,1.26,0,0,1,1.11-.57c.16,0,.28-.52.27-.68l0-.48c.62-.38.91-.89,1.4-.93.15-.17.43-.68.79-.38,0,0,.29-.35.28-.51.11-.83.58-1,1.22-1.24l.49,0c.1-.83.76-.71,1.41-.76a.53.53,0,0,1,.14-.34c-.51-.29,0-.32.12-.5.3-.34.93-.72,1.23-1.07L340.25,90l1.39-1.08c.31-.18.8-.22,1.11-.41a.57.57,0,0,0,.47-.2c.47-.36.91-1,1.38-1.24a1.38,1.38,0,0,1,.94-.56A16.58,16.58,0,0,1,347.88,85c.47-.2,1.12-.25,1.76-.46a.55.55,0,0,0,.31-.19,3.4,3.4,0,0,1,1.4-.92c.65,0,.68.28.7.61v.16l.15-.18c0-.16.14-.34.13-.5h.16c.2.48.19.31.48-.2.15-.17-.09-1.13.79-.38.13-.34.26-.84.48,0a2.47,2.47,0,0,1,.47-.36c1,.58,1.17.4,1.1-.57a.16.16,0,0,1,.15-.18c.33.14.35.3.68.44a.17.17,0,0,1-.15.18c-.14.34-.29.51-.27.67-.28.68.35.3.53.62,0-.17.15-.18.14-.34-.55-.78.43-.85.57-1.19.17.15.33.14.51.29a.56.56,0,0,1,.18.31c.15-.17.15-.17.14-.33a4.22,4.22,0,0,0,.91-.89c.17,0,.17,0,.32-.18-.16,0-.18-.15-.34-.14l-.32,0a.16.16,0,0,1-.18-.15l.15-.17.33,0c.65,0,1.33.39,1.95-.14,0-.17.16,0,.32,0,.33,0,.67.28.81-.06,0-.16.31-.18.31-.18,1,.57,2.1-.32,3.09-.23.33,0,.31-.19.64-.21.65,0,1.12-.25,1.61-.29.66.12,1,.42,1.5.38s.6-.7,1.09-.73a6.07,6.07,0,0,1,1.63,0,17.77,17.77,0,0,1,2.82.61,4.52,4.52,0,0,1,2.77,2.08,6,6,0,0,1,.84,2.55,8.2,8.2,0,0,1,.32,2.1c0,.48.09,1.13.12,1.62-.1.83-.37,1.5.16,2.11.39.79-.39,1.34-.67,2a12.45,12.45,0,0,0-1.35,1.57c-.3.35-.29.51-.61.54-.15.17-.3.35-.29.51.22.8-.59.86-.91.88a6.2,6.2,0,0,1-2.69,1.18,14.07,14.07,0,0,1-2.59.36c-.16,0-.2-.48-.2-.48-.16,0-.47.2-.64.21-.15.18-.48,0-.65.05-.48,0-.64,0-.83-.26a.87.87,0,0,0-.37-.63c-.15.18-.14.34-.3.35a1.42,1.42,0,0,1-.95.56c-.48,0-.93.56-1.48-.22,0,0-.34-.13-.49,0a4,4,0,0,1-2.73.53,5.32,5.32,0,0,0-1.43.6,7.48,7.48,0,0,1-1.75.62c-.64.21-1.12.24-1.6.44a23.63,23.63,0,0,1-2.83,1.52c-.63.21-1.25.75-2.08.48l-.49,0c.17.15.34.13.35.3,0,0,0,.32-.14.33-.3.35-.79.39-1.1.58a1,1,0,0,1-.64.21c-.31.18-.46.36-.77.54-.47.36-.57,1.19-1.38,1.25-.65,0-.93.72-1.39,1.08a2.17,2.17,0,0,0-.46.36,2.5,2.5,0,0,0-1.05,1.22c-.13.5-1.08.9-1.68,1.6-.17,0-.32.19-.45.52-.59.86-1.18,1.72-1.76,2.75-.16,0-.15.17-.31.18a.6.6,0,0,1-.14.34,10,10,0,0,1-1.11.41c-.49,0-.63.37-.12.66a1,1,0,0,1-.09,1c-.28.51-.41,1-.7,1.52-.16,0-.15.17-.31.18a.55.55,0,0,1-.19-.31c-.55-.77-.71-.76-1.14.09-.45.52-.74,1-1.19,1.55,0,.17-.15.18-.31.19s-.34-.14-.32,0c0,0-.17,0-.16.17.24,1,.09,1.14-.84,1.86-.31.19-.57,1-.86,1.53l-.45.53c0,.16-.15.17-.14.33a2.83,2.83,0,0,0-.08,1.15c-.16,0-.15.18-.31.19v-.16a.16.16,0,0,0-.18-.15l0,.32a1,1,0,0,1-.41,1l0,.33a4.55,4.55,0,0,0-.5,2.16,3,3,0,0,0-.54,1.51,18.14,18.14,0,0,1-.12,2.78c0,.32,0,.49.05.65.21.64.05.65-.6.7a2.54,2.54,0,0,1-.29.51.16.16,0,0,1,.17.15c-.16,0-.16,0-.33-.14l-.18-.15a.74.74,0,0,1,.13-.5c-.33,0-.5-.13-.66-.11s-.14.33-.29.51c-.14.33-.13.5.36.46a2.35,2.35,0,0,0,.69.44c.33.14.65-.05.77-.55v-.16l.33,0c.36.46.38.78.74,1.25.16,0,0,.32,0,.48v.17c.45-.53,1,.57,1.62-.12.62-.54,1.15.07,1.65.2a7.07,7.07,0,0,0,2,.51c.17.15.31-.19.35.3a1,1,0,0,0,.63-.21c.47-.37.62-.54,1.14-.09a4.9,4.9,0,0,0,1.64,0c.81-.06,1.42-.59,2.11-.15.35.3.14-.34.64-.22a2.35,2.35,0,0,0,1.44-.27c.81-.22,1.44-.43,2.08-.64h.16a8.15,8.15,0,0,0,3.87-.78,9.36,9.36,0,0,0,2.09-.32,7.32,7.32,0,0,1,3.22-.73c1-.4,1.73-.78,2.85-1.19a6.28,6.28,0,0,1,1.58-.61l.33,0c.71.76,2,.67,2.9,1.74a1.64,1.64,0,0,0,1,.74c.53.62,1.18.57,2,.18.95-.4,1.45-.27,1.53.87,0,.32,0,.65.22.64.35.3.52.45,0,.65a31.31,31.31,0,0,1-3.94,1.92,2.58,2.58,0,0,0-1.2,1.4c-.12.5.41,1.11.77,1.57.51.29.69.44.05.65l-.15.18c.26,1.28-1.05,1.22-1.65,1.92-.17,0-.65,0-.62.53,0,.16-.62.37-.77.55-.63.37-1.28.42-1.74.78-.64.21-.95.4-1.31-.07l-.33,0c-.8.22-1.6.44-2.56.68-.32,0-.64.21-.28.67l0,.17c-.94.56-1.73.94-2.52,1.33l-.32,0c-.43.85-1.42.76-2,1.13-.15.18-.65.05-1,.07a6,6,0,0,1-1.6.45.15.15,0,0,0-.15.17c-1.13.25-2.25.5-3.22.73-.81.06-1.61.29-2.58.36-.49,0-1-.09-1.64,0"/><path class="cls-1" d="M442,82a2.11,2.11,0,0,1,.09-1,.55.55,0,0,0-.19-.31h-.16c-.14.34-.11.67-.25,1a.55.55,0,0,0,.19.31Zm-2.4,7.2a.76.76,0,0,1-.2-.47c-.17,0-.18-.16-.19-.32,0,.16-.15.18-.3.35a.94.94,0,0,0-.11.66.6.6,0,0,0,.18.32c.83.1,1-.24.62-.54m-3.59,44c-.35-.3-.52-.45-.69-.44s-.31.19-.47.2c.18.31.36.46.52.45a1.54,1.54,0,0,0,.64-.21M434.78,125c-.36-.47-.21-.64.09-1a2.31,2.31,0,0,0,.62-.53c.16,0,.15-.18.14-.34a.17.17,0,0,0-.18-.15c-.47.2-.78.55-1.25.74-.49,0-.61.54-.09,1a.35.35,0,0,0,.35.3.61.61,0,0,1,.2.48,1.69,1.69,0,0,1,.12-.5m-1.29.09a.45.45,0,0,1,.13-.33.45.45,0,0,0-.13.33c-.16.18-.32.19-.47.36l-.3.35.33,0c.84.43.47-.2.44-.69m-.2,6.22a1.4,1.4,0,0,0-.56-.94.15.15,0,0,1-.17-.15c0,.17-.31.19-.14.34.2.48.21.64.56.94,0,0,.33,0,.31-.19m0,2.61a.51.51,0,0,0,.13-.33l.16,0,.33,0a.55.55,0,0,0-.19-.31.57.57,0,0,0-.47.2c-.48.19-.62.53-1.08.89v.16c.68.28.84.27,1.11-.57M433,102.71c-.06-.81-.75-1.25-.63-1.91.15-.18,0-.16,0-.16h0a.57.57,0,0,0-.13.5c.2.47.25,1.12.44,1.59,0,.17.18.15.34.14Zm-.79,29c0-.32-.21-.64-.23-1l0-.33a.57.57,0,0,1-.14.34c0,.33.05.65.08,1,0,.16.18.31.19.47a.74.74,0,0,1,.13-.5m.39-16.68c.15-.18-.19-.48-.36-.47-.82-.1-.28.51-.42.85.17.15.18.31.36.47.14-.34.45-.53.42-.85M431,121.64a10.71,10.71,0,0,1,.82-2,.57.57,0,0,1,.14-.34c-.05-.65-.24-1.12-.28-1.61,0-.33,0-.33-.67-.28-.17,0-.47.36-.62.54a.64.64,0,0,0,.2.47c.18.15.35.3.51.29l0,.33a9.25,9.25,0,0,1-.51,2c0,.33.21.64-.29.51a.6.6,0,0,0-.14.34.57.57,0,0,1,.34.14c.16,0,.32-.19.47-.36m-.05,1.64a.86.86,0,0,1-.37-.63c-.3.35-.45.52-.44.69s.19.31.54.61c.15-.17.14-.34.27-.67m.1,7.83a.55.55,0,0,0,.13-.34c.13-.5-.44-1.6-1.25-1.54a.61.61,0,0,1-.32.19c0,.16.35.3.35.3,0,.16-.14.33-.12.5s.18.31.19.47c.48-.2.67.11.69.44,0,.16.18.15.19.31a.5.5,0,0,0,.14-.33m-1.9.79c.16,0-.19-.31-.37-.46-.13.34-.45.52-.58.86-.17,0,0,.16.18.31.31-.19.45-.52.77-.71m-1.35-.55h.16a3.12,3.12,0,0,1,.7-1.53c-.18-.31-.2-.47-.37-.62a.5.5,0,0,1-.31.18l-.9,1a.56.56,0,0,0,.18.31c.49,0,.18.15.2.48,0,.16,0,.16,0,.32,0-.16.15-.17.31-.18m.3,4.06a1.82,1.82,0,0,0-.22-.8.56.56,0,0,1-.31.18c.11-.66.55-1.34,0-2.12l0-.32c-.15.17-.32.18-.31.34-.12.5-.07,1.16-.2,1.65s.2.48.53.45l0,.65a.55.55,0,0,1,.19.32.36.36,0,0,0,.3-.35m-1.61-8.54c0-.16,0-.16-.18-.15a2.28,2.28,0,0,0-.43.85s0,.16,0,.33a3.48,3.48,0,0,0,.58-1m.34,2.43c0-.17.13-.5.11-.67l.33,0a.5.5,0,0,0,.31-.18,2.1,2.1,0,0,0-.36-.47c-.31.19-.64.21-.95.4l-.49,0-.17-.16c0,.17-.14.34,0,.49.34.3.54.78.88.91l.35.31c-.19-.32.45-.53-.05-.65m-1.13,26.54a5.86,5.86,0,0,0,1.24-.91c.16,0,.3-.35.29-.51s0-.49.3-.35c.17.15.31-.19.31-.19,0-.16,0-.33-.19-.31-.84-.43-1.16-.24-1.09.73,0,.16,0,.49-.12.5a1.25,1.25,0,0,0-.74,1,2.16,2.16,0,0,0-.69-.44c0,.16-.14.33.05.65.36.46.48-.2.64-.21m-4.55-52.41a.6.6,0,0,1,.34.14,3.49,3.49,0,0,1,.77-.55h-.16l-.65,0-.32,0a.34.34,0,0,0-.3.35.56.56,0,0,0,.33.14ZM419.4,153c0-.48.26-.83.38-1.49l.32,0a1.69,1.69,0,0,1,.22.8,1.42,1.42,0,0,1-.1.83c0,.32-.13.33-.29.51-.17-.15-.68-.44-.53-.62m.1-49.16-.16,0a4.46,4.46,0,0,0-1.46.1l-.33,0a.17.17,0,0,1,.18.15,1.48,1.48,0,0,0,1.77-.3m-2.38-1.29s-.35-.3-.34-.14-.3.35-.45.52.19.32.54.62c0-.32.26-.84.25-1m-2.26.33a.57.57,0,0,1-.34-.14c-.31.19-.79.39-1.1.58.16,0,.17.15.5.12a5.66,5.66,0,0,1,.94-.56m-2.5,3.78a.51.51,0,0,0,.14-.34,1.25,1.25,0,0,0-.67-.27,9.11,9.11,0,0,0-1.9.79l-.15.18.17.15c.49,0,.82.1,1.15.07a1.21,1.21,0,0,0,.51.29l.75-.87m-6.36.15.94-.56c.33,0,.5.12.66.11a11.66,11.66,0,0,1,2.24-.66,3.36,3.36,0,0,1,.78-.54h.16c.64-.22,1.45-.28,2.09-.49l.81-.06c.16,0,.3-.35.3-.35a2.33,2.33,0,0,0-.37-.62c-.48.2-.67-.11-1-.42a.58.58,0,0,0-.49-.12c0,.16.18.31.19.47.18.15.18.15.34.14a.55.55,0,0,1,.19.31.66.66,0,0,0-.48.2c-.48,0-.68-.44-.71-.76a.56.56,0,0,1-.18-.31c-.15.17-.14.33-.29.51,0,.16-.14.33-.13.5a1,1,0,0,1-.79.38.59.59,0,0,1-.19-.47l0-.17-.32,0a.83.83,0,0,1-.93.72c-1,.24-1.75.62-2.87.87-.15.17-.15.17-.33,0h-.16a2.07,2.07,0,0,0-1,.24l0,.48a3.21,3.21,0,0,0,.87.59l.64,0M396.87,118l.49,0-.38-.63a1.56,1.56,0,0,1-.47.2c-.15.18-.31.19-.64.21-.16,0-.17-.15-.17-.15-.15.18-.29.51-.44.69a.56.56,0,0,0,.33.14,12.86,12.86,0,0,1,1.28-.42m-.67-6.81c.46-.36.94-.56,1.55-1.1l0-.32c0-.16,0-.33,0-.33l.65,0c.09,1.14.68.28.85.43.34.14.64-.21,1.11-.41a.56.56,0,0,1,.32-.18.57.57,0,0,1-.34-.14,5.75,5.75,0,0,0-1.64,0l-.32,0c0-.16,0-.16.14-.34a.5.5,0,0,0,.31-.18c-.16,0-.49,0-.47.19-.46.53-1,.24-1.28.43,0-.33.13-.5.26-.84.16-.17.32-.19.29-.51.68.28,1.34.39,2,.67.5.12,1-.24,1.29-.26.16,0,.31-.19.47-.2a.55.55,0,0,1-.13.34.16.16,0,0,1-.15.17h.16c.16,0,.31-.19.46-.36a2.12,2.12,0,0,1,.46-.36,4.92,4.92,0,0,0,1.61-.45l.15-.17-.33,0c-.66-.11-1,.23-1.43.6.12-.67-.53-.62-.73-1.09,0,0-.66-.12-.61.53l0,.49a.85.85,0,0,0-.67-.28.16.16,0,0,0-.17-.15c-.54-.61-.5-.12-.48.2s0,.49-.61.54a3.08,3.08,0,0,0-1.31-.07,1,1,0,0,0-.67-.11l0-.65c-.82.06-1-.58-1.38-.88l-.33-.14a.17.17,0,0,1-.15.18,16.24,16.24,0,0,0,1.9,1.49.51.51,0,0,1-.13.33,2.22,2.22,0,0,1-.44.69h.16c.16,0,.31-.19.47-.2,0,.16,0,.16,0,.49-1,.23-.89,1.21-1.52,1.58l0,.16c.16,0,.15-.17.31-.19a.71.71,0,0,1,.48-.19c-.15.17-.14.33-.29.51v.16Zm-1.42-1.53a1.12,1.12,0,0,0,.72-1.36c0-.32.12-.5.11-.66l-.45.52c-.15.18-.11.66-.27.84l-.15.17h-.16c-.17-.15-.27-1.45,0-1.63,0-.16.14-.34.13-.5l-.49,0c-.45.53-1.09.74-1.54,1.26,0,0-.15.18,0,.17a1.17,1.17,0,0,0,.37.62l.87.75c.29-.51.48-.2.49,0a.55.55,0,0,1,.31-.19m-3.49,1.4a13.05,13.05,0,0,1,1.17-1.88s-.2-.48-.36-.46a.61.61,0,0,0-.48.19c-.62.38-1.31-.06-1.95.15-.32,0-.5-.13-.82-.1.35.3.36.46.54.61s.32,0,.33.14c.35.3,1.18.4.89.91-.28.68.65,0,.53.62Zm-3.3-.57a1.24,1.24,0,0,0-.37-.46c-.61.53-.5-.13-.85-.43h-.16c.19.32-.43.85.4,1a.6.6,0,0,1,.34.14.5.5,0,0,0,.33.14c.17,0,.15-.17.31-.35m-2.8-2.4,0-.33c.64-.21-.05-.65-.06-.81.64-.21.6-.7.4-1.17l-.49,0c-.62.38.05.65.09,1.14-.15.17.06.81-.62.53l0,.33c0,.16.19.31.53.61h.17s0-.16,0-.32m-.13,15.84a.62.62,0,0,0-.31.19,2.54,2.54,0,0,1-.38-.78c0,.16-.14.33-.29.51a.35.35,0,0,0,.35.3c.16,0,.31-.19.63-.22m-3.65,3.54.3-.35c0-.16,1-.23.11-.66-.16,0,0-.16.14-.33l0-.33c-.17,0-.33,0-.32.19a2.76,2.76,0,0,0-.76.71c-.15.17-.14.33-.11.66,0,.16.34.3.69.6l0-.49m-5.16,5.29a.6.6,0,0,1-.34-.14l.45-.53c.15-.17.14-.33.29-.51a.35.35,0,0,0,.3-.35.59.59,0,0,1,.2.48c-.45.52.06.81.1,1.3-.34-.14-.67-.12-1-.25m55.17,26.11c0-.33,0-.33-.05-.65,0-.17-.17-.15-.34-.3l0,.48c-.15.18-.15.18-.31.19v-.16c-.19-.32-.36-.47-.69-.44,0-.17-.17-.15-.34-.14,0,.16.18.15.2.47s.19.32,0,.49a1.17,1.17,0,0,1-.62.37l-1-.41c-.17-.15-.21-.64-.21-.64,0-.32-.05-.65-.06-.81l0-.32c.93-.73-.35-.3-.38-.79-.31.35-.3.51-.61.7-.29.51-.26.83-.55,1.34l-.16,0a2.94,2.94,0,0,1-.41-1.12c.12-.5-.36-.46-.53-.45-.48,0-.78.39-.67-.27a1.7,1.7,0,0,0-.5-.13l-1.5-.38a.16.16,0,0,1-.17-.15c-.55-.78-1.08-1.39-1.63-2.17-.18-.14-.36-.46.11-.66.16,0,.15-.17.32-.18.46-.36.43-.69-.23-.8-.17-.15-.52-.45-.38-.79,0-.16.15-.18.3-.35l0,.33.68.27c.31-.18.62-.37.6-.7.16,0,.13-.33.12-.5l-.17-.15a.35.35,0,0,1-.3.35c-.15.18-.33,0-.31.19,0-.16,0-.32,0-.49,0-.32-.21-.63-.25-1.12a.56.56,0,0,0-.31.18.53.53,0,0,0-.14.34c0,.16-.15.18-.31.19v-.16c.27-.68-.1-1.3.68-1.85-.18-.15-.34-.14-.52-.29a.49.49,0,0,0-.31.19c.15-.18.14-.34.29-.51s.46-.37.61-.54.15-.17.14-.34h-.16a.67.67,0,0,0-.48.2c0-.16.16-.17.13-.5l0-.32c-.35-.3-.21-.64.07-1.15a9.41,9.41,0,0,0,0-2.12c0-.17.14-.34.29-.51l.35.3v.16a2.61,2.61,0,0,1,.7.6c0-.32,0-.65-.23-.8-.52-.45-.36-.46.12-.66.31-.19,1,.09.94-.56,0-.16-.2-.48-.21-.64-.15.17-.32.19-.47.36-.31.19-.46.36-.77.55l-.18-.15c-.16,0,0-.16,0-.32,0-.33.61-.54-.06-.82a6.51,6.51,0,0,1,.24-1.16c.17.15.17.15.33.14,0,.16,0,.16.18.15l.15-.18c-.37-.62.23-1.32-.47-1.92,0,0,.29-.51.45-.52.15-.18.47-.36.12-.66a.56.56,0,0,1,.12-.5,5.84,5.84,0,0,1,1-1.71c0-.16,0-.16,0-.33-.52-.45-.22-.8.07-1.31,0,0,.29-.51-.19-.31a.84.84,0,0,1,.28-.67c.15-.18.45-.53,0-.49-.16,0-.17-.15-.18-.31.13-.34.44-.69.09-1,0,0,.11-.66.27-.67,1.13-.25.57-1.19.51-2a4.57,4.57,0,0,1,.23-1.32,3.91,3.91,0,0,0,.22-1.33,2.66,2.66,0,0,1,.57-1.18c0-.17-.06-.82.61-.54l0-.32-.35-.31c-.16,0-.34-.13-.17-.14a17.17,17.17,0,0,0,.52-1.68c.16-.17,0-.48.12-.66,0-.16,0-.49.13-.5s.12-.5.26-.83c.13-.5.24-1.17.37-1.67,0-.32,0-.48-.53-.45a5.57,5.57,0,0,1-1.61.29c-1.14.08-1.94.31-2.91.38a11.62,11.62,0,0,0-2.24.65,11.78,11.78,0,0,1-2.42.35c-.16,0-.48.2-.64.21-.31.18-.61.53-.8.22a.16.16,0,0,0-.17-.15c-.89,1.21-2.38,1-3.65,1.42a13.19,13.19,0,0,1-2.4.66,1,1,0,0,1-.67-.11l-.32,0c-.25,1-1.27.42-1.74.79a25.35,25.35,0,0,1-3.66,1.25,46.49,46.49,0,0,0-4.46,1.47c-.33,0-.64.21-.52-.29a.56.56,0,0,0-.33-.14c-.15.18-.47.37-.44.69a1.8,1.8,0,0,1-2.49-.47,2,2,0,0,0,.29-.51.16.16,0,0,0,.15-.17h-.16l-.32,0a.15.15,0,0,1,.15-.17c.31-.19.78-.39,1.1-.57.48,0,.81-.06.53.61a.6.6,0,0,0,.34.14.55.55,0,0,0,.31-.19v-.16c-.34-.14-.52-.45-.69-.44-.18-.31-.52-.45,0-.65a.16.16,0,0,0,.15-.17h-.17a2.39,2.39,0,0,1-1.12.24l-.16,0c.54.77-.6.69-.57,1.18a.16.16,0,0,1-.15.18c-1,.23-.43.84-.39,1.33v.17l.33,0a.15.15,0,0,0-.15.17c-.8.23-.77.71-.87,1.54,0,.49-.4,1.17-.52,1.83a1.27,1.27,0,0,0-.1.83,1.21,1.21,0,0,1-.56,1.18.53.53,0,0,0-.14.34c0,.16.36.46.21.64-.28.67-.38,1.5-.64,2.33a3.64,3.64,0,0,0-.07,1.31c-.14.34-.3.35-.45.53a.56.56,0,0,0-.14.33,6.87,6.87,0,0,1,0,1.8c0,.33-.26.84-.25,1a4.47,4.47,0,0,1-.46,2.65,3.27,3.27,0,0,0,.25,1.12,1.67,1.67,0,0,1-.39,1.34.34.34,0,0,0-.3.34,14.31,14.31,0,0,1-.63,2.5v.17c-1.31-.07-.89,1.2-1.18,1.71a.75.75,0,0,1-.59.87,1.24,1.24,0,0,1-.67-.28s-.35-.3-.51-.29a6.1,6.1,0,0,0-.44.69c.05.65-.12.66-.44.68-.16,0-.35-.3-.54-.61v-.16l-.15.17-.15.17c0,.65-.29.52-.77.55-.18-.15-.68-.27-.82.06l-.32,0c-.51-.29-.87-.75-1.39-1a.66.66,0,0,1-.39-.95c0-.17,0-.49,0-.49a2.31,2.31,0,0,0-3-1.25c-.16,0-.33,0-.34-.13s-.35-.3-.36-.47c-.36-.46-.25-1.12-1.06-1.06-.32,0-.65,0-.36-.46v-.17c-1,.08-.37-.62-.39-.79,0-.48,0-.64-.08-1.13a2.58,2.58,0,0,1-.18-2.44.56.56,0,0,0,.12-.5,2.28,2.28,0,0,1,.44-.68c0-.17.15-.18.14-.34-.21-.64.6-.7,1.08-.9.13-.49.59-.86.73-1.19a2.44,2.44,0,0,0,.55-1.35c.16,0,.14-.34.11-.66l-.32,0c0,.16,0,.49,0,.65l-.53-.45c-.17-.15-.17-.15-.18-.31a2.12,2.12,0,0,1,.46-.36c-.21-.64-.41-1.12-.62-1.75l0-.33s-.18-.15-.17,0a.62.62,0,0,0-.31.19c-.15.17-.15.17-.31.19,0-.17,0-.33,0-.33.17,0,.15-.17.14-.33l.9-1.05c.15-.18,0-.65-.21-.64-.5-.13-.2-.47-.21-.64.32-.18.63-.37.12-.66h.16c.31-.19.64-.21.11-.66h-.16c-.19-.31.68-1.85.83-2a.55.55,0,0,0,.31-.19c-.2-.47-.06-.81.43-.85.16,0,.31-.18.46-.36l-.48,0c-.17,0-.17,0-.34-.14.13-.5-.7-.6-.09-1.14-.25-1.28.5-2.15.58-3.3a17.17,17.17,0,0,1,.52-1.68l.72-3.48c.56-1.35.45-2.81,1.33-4.18a8.14,8.14,0,0,1,.34-2c.54-1.51,1.06-3.35,1.6-4.86a21.76,21.76,0,0,1,1-3.51,7.7,7.7,0,0,1,.7-1.68,15.25,15.25,0,0,1,1.07-3.18c.54-1.51,1.09-2.86,1.63-4.37.57-1.18,1.14-2.21,1.72-3.23a15.23,15.23,0,0,1,1.15-2.05c.43-.84.7-1.68,1.12-2.53A10.05,10.05,0,0,0,393,80.54a9.38,9.38,0,0,1,1.3-2.22l.45-.53c.31-.18.64-.21.63-.37.56-1.19,1.25-.75,2.07-.64a5.53,5.53,0,0,1,1.65.2l.32,0c.18.16.19.32.35.31a.56.56,0,0,1-.18-.32c0-.16.31-.18.31-.18.84.26,1.51.54,2.51.79.17.15.48,0,.66.11a1.25,1.25,0,0,1,.83.27c.52.29,1,.25,1.35.55.71.76,1.71,1,2.12,2.13,0,.33.7.6,1.05.9.51.29,1,.42,1.07,1.23,0,.16,0,.32,0,.49a2.77,2.77,0,0,1-.28,3,9.63,9.63,0,0,1-.66,2c-1,1.54-1.87,3.4-2.89,5.11-.58,1-1.16,1.88-1.74,2.9-.44.69-.54,1.52-1.13,2.37a14.68,14.68,0,0,0-.53,1.68,43.55,43.55,0,0,0-1.82,4,1.44,1.44,0,0,0-.42,1,1.63,1.63,0,0,0,.39.79c.15-.17.31-.19.46-.36.3-.35.45-.52.95-.4.51.29,1.3-.09,1.79-.13a.16.16,0,0,0,.15-.18.56.56,0,0,1,.14-.33,17.33,17.33,0,0,0,4.8-1.34,40.37,40.37,0,0,1,4.8-1.33c.16,0,.31-.19.62-.38l.81-.06a8.36,8.36,0,0,1,1.93-.47c2.07-.64,4.31-1.3,6.23-1.77,1.44-.43,2.73-.69,4.17-1.13a15.93,15.93,0,0,1,2.75-.36c.47-.2.95-.4,1.58-.61,1.13-.25,1.05-1.22,1.32-2.06.38-1.5.92-3,1.29-4.66a.62.62,0,0,0,.31-.19.35.35,0,0,0,.3-.35,7.9,7.9,0,0,1,.35-1.82,6,6,0,0,0,.41-1.18.34.34,0,0,1,.3-.34l.15-.18c0-.32-.06-.81.59-.86-.86-.59.07-1.15.2-1.65s.09-1,.21-1.65c.16,0,.13-.33.29-.51.8-.22.75-.87.7-1.52a17.15,17.15,0,0,1,1.93-4.72c.3-.34.27-.83.89-1.2.33,0,.59-.86.42-1a1.91,1.91,0,0,1,.68-1.84,20.73,20.73,0,0,1,2.26-4.74,9.69,9.69,0,0,0,.68-1.85c.44-.69.54-1.51,1-2.2s1.05-1.22,1.49-1.9c.61-.54,1.21-1.24,1.83-1.77.15-.18.28-.51.45-.52,1,.09,1.42-.6,1.87-1.12.15-.18.47-.36.48-.2.72.92,1.67.53,2.67.78a2.53,2.53,0,0,1,2.05,1.15c0,.17.17.15.33.14a26.7,26.7,0,0,0,3.05,1.41c0,.16.34.3.34.3.06.81.73.92,1.24,1.21.5.13.53.62.73,1.09a4.31,4.31,0,0,1,.63,1.92,1.94,1.94,0,0,1-.06,1.31l0,.32c.86.59-.09,1,0,1.48A2.7,2.7,0,0,0,462.7,70s0,.17,0,.33c-.45.52-.58,1-1,1.54a16.49,16.49,0,0,1-1.58,2.9,14.68,14.68,0,0,1-.86,1.69c-.72,1.2-1.1,2.7-2.17,3.76-.6.7-.37,1.5-.83,2a2,2,0,0,0-.87,1.37c0,.32-.77.71-.24,1.16,0,.16-.3.35-.47.36a1.83,1.83,0,0,0-1.21,1.24c-.6.69-.69,1.68-1.13,2.37a6.23,6.23,0,0,0-.7,1.52,8.91,8.91,0,0,0-1,2.19c-.16.18.21.64.37.63a2.37,2.37,0,0,0,1-.4c.15-.17.3-.35.67.28,0,.32.86.59,1.35.55.8-.22,1.32.23,2,.51a15.83,15.83,0,0,0,2.58,1.76c.36.47,1.18.57,1.24,1.38l.35.3c.83.1,1,.74,1.09,1.39a9.72,9.72,0,0,1,.48,2.09,4.14,4.14,0,0,1-.39,3.62,16.7,16.7,0,0,1-2.26,2.45c-.15.18-.48.2-.79.39l-.31.19c-.91,1-2.2,1.14-3.51,1.24-.32,0-.64,0-.63.2a7.76,7.76,0,0,1-3.2.9,3.66,3.66,0,0,1-1.29.26c-1.28.42-2.57.51-3.85.94a1.34,1.34,0,0,0-1.38,1.24,17,17,0,0,0-.95,2.52,14.6,14.6,0,0,0-1.05,3.51c-.38,1.5-.76,3-1.12,4.65-.27.84-.54,1.51-1,2.53a2.91,2.91,0,0,1-.24,1.16c-.22,1.32-.47,2.48-.7,3.8a1,1,0,0,1-.11.67c-.73,1.19-.62,2.65-.86,3.82-.1.82-.54,1.5-.65,2.17a1.59,1.59,0,0,1-.21-.64.33.33,0,0,0-.3.35,1.43,1.43,0,0,0,.22.8c0-.33.13-.5.29-.51s.18.31.18.31c-.61.53.09,1.14-.36,1.66a8.68,8.68,0,0,1-.35,2c-.3.35-.12.5-.27.68a13,13,0,0,1-.13,2.62c-.15.17-.13.5-.28.67,0,.17.37.63-.28.68,0,0-.12.5,0,.48.37.63.07,1-.05,1.48a8.81,8.81,0,0,1-.18,2,4.36,4.36,0,0,1-.18,2c-.12.66.43,1.43,0,2.12a.35.35,0,0,1-.3.35c-.47.2-.62.37-.26.83l0,.65a2.58,2.58,0,0,0-.56,1.19.64.64,0,0,1-.48.2c0,.16-.16,0-.32,0,.16,0,.16,0,.15-.17s0-.49-.2-.48l-.32,0a2.68,2.68,0,0,0-.66,2.18c-.15.17-.25,1-.8.22a.62.62,0,0,1-.31.19l-.15.17,0-.32"/><path class="cls-2" d="M91.22,60.08c-5.12.19-10.22.29-15.32.37a7.56,7.56,0,0,1-1.43-.1l11.44-.59,1.44-.08,5.77-.3a6.5,6.5,0,0,1,1.1.23c.21.07.43.12.65.17-1.19.13-2.39.25-3.65.3M373.47,5.51c5.12-.19,10.22-.3,15.32-.38a7.56,7.56,0,0,1,1.43.1l-11.44.6c-.48,0-1,0-1.44.08l-5.77.3a7.66,7.66,0,0,1-1.1-.23c-.21-.07-.43-.12-.65-.17,1.19-.13,2.39-.25,3.65-.3M403,39.75l0-.31-.05-1a3.42,3.42,0,0,0,.07-.79L401.6,13.41c0-.51,0-1,0-1.54,0-.32,0-.63,0-.95v-.48a4.46,4.46,0,0,0,0-.59,5,5,0,0,0-.08-.54c0-.12.06-.25.1-.37a7.28,7.28,0,0,0,.27-1.47,4,4,0,0,0-1.7-3.31,4.7,4.7,0,0,0-2.13-.85l-.59,0-.43,0-.87,0c-2.66-.06-5.37-.08-7.93-.26-5.91-.43-12-.33-18.11-.35-13.18,0-26.43.69-39.66,1.34l-10.21.43c-6.84.3-13.69.71-20.51.89-4.84.12-9.65.35-14.48.65-6.81.41-13.63,1-20.43,1.23-7.3.23-14.59.73-21.72,1.37-2.83.26-5.66.46-8.48.65-2.06.1-4.12.2-6.21.17a36.72,36.72,0,0,0-10.86,1.12l-4.68.38c-.13,0-.27,0-.39-.05a16.41,16.41,0,0,0-4.45-.15,27.67,27.67,0,0,1-4.66.14c-4.62-.64-9.53.48-14.18.16-1.36-.09-2.59.7-4,.53-2.6-.31-5.21.12-7.75.16A44.37,44.37,0,0,0,167.22,13c-.66.49,1.08.5.62.88-3.12.16-3.14.16-3.83-.63a1.45,1.45,0,0,0-1.06-.62c-.55.31.14.75-1.2,1-3,0-6.32.42-9.08-.1-1.46.18-1.75.9-2.93.87-3.6-.1-5.38,1-7.55,1.76l-1.26,0a25.2,25.2,0,0,1-5.45-.45,13.27,13.27,0,0,0-5.69-.37c-4.65.44-9.34.58-14,1-4.85.4-9.86.05-14.79.8-.33,0-.8-.09-1.21-.08-5,.13-10.12.08-15.09.48-4.51.37-8.68-.19-13.1.26A5.85,5.85,0,0,1,70,17.64a12.08,12.08,0,0,0-5.37.22c.8.82.67,1.76,1.25,2.65l-.24,0a5.33,5.33,0,0,0-3.83,3.88,5,5,0,0,0-.12.94v.46l0,.31,0,1a3.51,3.51,0,0,0-.07.8l1.36,24.24c0,.52,0,1,0,1.55,0,.31,0,.63,0,1v.48a4.32,4.32,0,0,0,0,.58c0,.18.05.36.08.55s-.06.24-.1.37a7.73,7.73,0,0,0-.28,1.46,4,4,0,0,0,1.71,3.32,4.8,4.8,0,0,0,2.13.84l.59,0,.43,0,.87,0c2.66.07,5.37.08,7.93.27,5.91.43,12,.33,18.11.34,13.18,0,26.43-.68,39.66-1.33l10.21-.44c6.84-.3,13.69-.7,20.51-.88,4.84-.13,9.65-.36,14.48-.65,6.81-.42,13.63-1,20.43-1.23,7.3-.24,14.58-.73,21.72-1.38,2.83-.25,5.65-.45,8.48-.65,2.06-.09,4.12-.19,6.21-.16a37.09,37.09,0,0,0,10.86-1.12l4.68-.39.39,0a15.64,15.64,0,0,0,4.45.15,26.51,26.51,0,0,1,4.65-.13c4.62.63,9.54-.49,14.18-.17,1.37.1,2.6-.69,4-.52,2.6.3,5.21-.13,7.75-.16a43.8,43.8,0,0,0,10.24-1.38c.66-.48-1.08-.49-.62-.88,3.12-.15,3.14-.16,3.83.64a1.41,1.41,0,0,0,1.06.61c.55-.3-.14-.74,1.2-1,3-.06,6.32-.42,9.08.1,1.46-.18,1.75-.91,2.93-.87,3.6.1,5.38-1,7.55-1.77l1.26,0a25.2,25.2,0,0,1,5.45.45,13.11,13.11,0,0,0,5.69.37c4.65-.43,9.34-.57,14-1,4.85-.4,9.86-.06,14.79-.8a11.12,11.12,0,0,1,1.21.08c5-.14,10.12-.08,15.09-.49,4.51-.37,8.68.19,13.1-.26a6.3,6.3,0,0,1,1.54.19,12.23,12.23,0,0,0,5.37-.21c-.8-.82-.67-1.77-1.25-2.66l.24,0a5.33,5.33,0,0,0,3.83-3.88,4.94,4.94,0,0,0,.12-.94Z"/><path class="cls-1" d="M89.06,46.13a1.72,1.72,0,1,0-.19-3.41L83.12,43l.18,3.41Zm-1.77-8c1.57-.09,2.49-.62,2.43-1.84s-1-1.65-2.61-1.57l-4.43.24.18,3.41ZM74.56,30l14.81-.8C94,28.93,96.8,30.89,97,34.74a4.7,4.7,0,0,1-3.44,5.17,5.18,5.18,0,0,1,4.77,5c.2,3.68-2.45,6.35-6.88,6.59l-15.69.84Z"/><path class="cls-1" d="M125.34,38.43c-.17-3.23-2.44-5.47-5.58-5.3s-5.15,2.64-5,5.87,2.45,5.47,5.58,5.3,5.15-2.64,5-5.87m-18.38,1c-.36-6.63,4.28-12.31,12.46-12.76s13.4,4.71,13.75,11.35-4.28,12.32-12.45,12.76S107.32,46.06,107,39.42"/><polygon class="cls-1" points="148.73 32.8 141.14 33.21 140.77 26.4 163.45 25.17 163.81 31.98 156.22 32.39 157.06 47.95 149.57 48.35 148.73 32.8"/><polygon class="cls-1" points="178.93 31.16 171.34 31.57 170.97 24.77 193.64 23.54 194.01 30.35 186.42 30.76 187.26 46.32 179.77 46.72 178.93 31.16"/><path class="cls-1" d="M220.84,33.27c-.18-3.23-2.45-5.47-5.58-5.3s-5.15,2.64-5,5.87,2.45,5.47,5.58,5.3,5.15-2.64,5-5.87m-18.39,1c-.36-6.64,4.29-12.31,12.46-12.76s13.4,4.71,13.76,11.35-4.29,12.32-12.46,12.76-13.4-4.71-13.76-11.35"/><polygon class="cls-1" points="246.71 34.43 247.18 43.08 239.35 43.5 238.14 21.14 245.46 20.74 252.62 31.38 258.6 20.03 265.92 19.63 267.13 42 259.3 42.42 258.83 33.78 253.27 43.43 246.71 34.43"/><polygon class="cls-1" points="277.19 19.02 285.01 18.6 285.86 34.16 298.45 33.48 298.82 40.29 278.39 41.39 277.19 19.02"/><polygon class="cls-1" points="307.35 17.39 328.45 16.25 328.8 22.72 315.53 23.44 315.64 25.59 326.88 24.98 327.15 29.98 315.91 30.59 316.04 32.87 329.31 32.15 329.66 38.62 308.56 39.76 307.35 17.39"/><path class="cls-1" d="M339.11,35.86l2.22-5.55a17.14,17.14,0,0,0,8.07,1.95c1.87-.1,2.66-.65,2.62-1.3-.06-1.12-2.59-1.23-5.51-1.61-3.55-.5-7.44-1.69-7.68-6.28s3.34-8.21,9.4-8.53a14.33,14.33,0,0,1,9.15,2.54l-2.42,5a15.7,15.7,0,0,0-6.71-1.48c-1.8.1-2.76.63-2.72,1.31s1.24,1,5.75,1.64c2.86.39,7.4,1.06,7.68,6.34.26,4.73-3.14,8.13-9.41,8.47a18.71,18.71,0,0,1-10.44-2.51"/><path class="cls-1" d="M368.11,34.29l2.23-5.55a17.1,17.1,0,0,0,8.06,2c1.87-.1,2.66-.65,2.63-1.3-.06-1.12-2.6-1.22-5.52-1.61-3.54-.49-7.43-1.68-7.68-6.28s3.35-8.2,9.41-8.53a14.46,14.46,0,0,1,9.15,2.54l-2.43,5a15.68,15.68,0,0,0-6.7-1.49c-1.81.1-2.77.63-2.73,1.31s1.25,1,5.76,1.64c2.85.39,7.4,1.07,7.68,6.34.26,4.74-3.15,8.13-9.41,8.47a18.77,18.77,0,0,1-10.45-2.51"/></svg>