<svg width="395" height="281" viewBox="0 0 395 281" fill="none" xmlns="http://www.w3.org/2000/svg">
<path d="M158.309 -16.3949C173.783 -23.9605 184.324 -32.2435 197.09 -35.9936C217.939 -42.1158 239.049 -41.3454 260.027 -38.2945C305.629 -31.666 345.659 -10.4438 385.33 11.2864C398.544 18.5188 397.881 24.1964 384.444 31.4427C372.534 37.8473 359.99 42.7327 346.835 45.722C304.733 55.2318 262.365 63.5975 219.349 67.5434C202.167 69.1194 184.725 67.8811 165.382 67.9349C183.523 93.1685 204.202 113.335 223.495 134.716C246.149 159.791 262.792 188.207 270.377 221.439C271.623 226.934 272.629 232.535 273.104 238.155C274.736 257.018 270.792 259.764 253.145 252.834C234.117 245.368 214.843 238.523 195.969 230.706C151.007 212.083 123.065 176.272 100.603 135.141C98.2466 130.808 96.2822 126.246 93.8538 121.954C92.8735 120.218 91.1227 118.916 89.062 116.687C83.4185 122.937 87.261 129.199 88.4271 134.551C99.2829 184.375 84.3427 229.554 64.1727 273.91C61.0833 280.691 56.8908 282.123 50.8816 278.007C47.9746 276.005 45.0981 273.81 42.7228 271.254C14.2793 240.727 -5.15942 206.263 -1.66953 162.895C-0.662568 150.266 -2.27608 137.474 2.23668 125.389C-5.85283 122.51 -9.63474 128.014 -14.2135 130.621C-37.1058 143.737 -62.4852 146.418 -87.9198 147.816C-101.064 148.537 -104.384 142.072 -97.4643 130.352C-81.9818 104.122 -66.0013 78.2113 -39.9135 60.6335C-34.6598 57.0835 -29.961 52.6935 -25.1671 48.5046C-7.07555 32.781 -4.51788 16.3997 -17.9554 -3.97635C-23.3658 -12.1667 -30.135 -19.581 -36.9475 -26.6953C-61.4241 -52.188 -65.9091 -84.0056 -65.7167 -117.138C-65.6641 -127.328 -61.5041 -129.267 -52.0118 -124.23C-32.1753 -113.746 -16.1579 -99.1284 -5.90004 -78.848C-2.19885 -71.4973 1.22929 -64.0117 6.04262 -53.9723C22.2933 -104.57 24.5915 -155.693 47.9289 -200.692C49.483 -203.663 50.8441 -207.2 54.7381 -208.284C82.1805 -183.648 97.3413 -117.758 87.8971 -58.3759C94.3189 -64.8754 97.1673 -70.1703 100.058 -75.8472C117.931 -111.081 140.857 -141.612 176.902 -160.725C195.114 -170.384 213.607 -178.841 234.035 -181.843C245.955 -183.595 250.578 -177.727 245.67 -167.04C241.27 -157.457 235.68 -148.317 229.735 -139.576C207.859 -107.431 188.965 -73.4687 168.71 -40.3569C164.643 -33.6851 162.836 -26.7331 158.309 -16.3949Z" fill="#EB5E69"/>
</svg>
