<svg width="347" height="378" viewBox="0 0 347 378" fill="none" xmlns="http://www.w3.org/2000/svg">
<path d="M157.818 10.2815C177.315 30.183 195.788 50.9235 213.796 72.0834C213.237 50.8302 214.401 29.7169 217.751 8.37057C218.961 0.63369 229.477 0.820122 229.942 8.79004C231.152 29.2509 232.362 49.6651 233.572 70.1259C247.578 45.6568 261.956 21.3741 277.125 -2.39581C280.196 -7.19641 289.317 -5.37872 288.433 1.00655C283.593 36.1954 271.355 67.376 250.835 95.6203C250.881 95.6669 250.881 95.7135 250.928 95.7601C268.377 95.061 285.734 95.2474 303.23 96.9719C311.047 97.7177 310.721 109.323 302.811 109.183C287.316 108.997 271.914 109.649 256.558 110.768C256.605 111.327 256.558 111.933 256.558 112.492C283.872 130.296 309.558 150.012 333.708 172.057C338.919 176.811 331.8 184.967 326.03 181.425C300.763 165.951 270.518 159.053 246.554 142.461C250.323 173.082 251.905 203.797 251.207 234.838C251.068 242.015 241.017 242.481 239.155 235.956C229.849 203.657 223.847 171.032 220.636 137.8C209.329 160.032 196.858 181.518 182.992 202.352C178.618 208.97 168.846 202.818 172.569 195.967L208.026 130.809C186.761 141.342 164.891 149.965 141.997 156.816C135.064 158.914 132.133 148.8 137.809 145.444C159.121 132.767 180.991 121.674 203.652 111.886C180.479 99.2091 159.447 84.2014 139.857 66.1176C134.506 61.1772 141.765 53.6733 147.535 56.7494C165.449 66.2108 183.085 76.045 200.813 85.8327C182.945 63.8338 165.449 41.6019 148.698 18.7175C144.324 12.4255 152.188 4.54874 157.818 10.2815ZM12.1273 -79.1588C13.244 -77.3877 14.4073 -75.337 15.6171 -73.2396C24.6908 -57.4396 36.5564 -33.2502 50.7486 -7.00998C55.8205 2.35818 61.1717 11.9594 66.802 21.514C84.0653 50.9701 103.888 80.0533 125.665 100.234C121.198 100.654 116.731 101.167 112.31 102.006C100.817 104.15 89.8817 108.904 79.4586 115.335C76.2945 117.293 73.2234 119.39 70.1523 121.627C66.4763 124.284 62.8933 127.127 59.3569 130.11C37.7197 148.567 18.8744 172.197 3.1001 190.7C-2.90249 197.784 0.0755403 211.534 9.75414 215.216C58.7055 233.579 126.223 245.231 177.454 229.711C182.387 228.219 187.086 226.448 191.693 224.444C193.275 223.745 194.95 223.139 196.486 222.347C197.137 232.554 198.44 242.575 200.069 251.849C203.512 271.658 210.399 290.627 219.612 308.525C222.823 314.677 226.266 320.736 230.035 326.608C240.831 343.527 253.72 359.28 268.238 373.263C271.774 376.665 276.241 377.69 280.383 377.038C284.477 376.385 288.293 374.102 290.713 370.792C291.736 370.14 292.76 369.348 293.691 368.322C311.885 348.747 319.423 319.943 320.912 289.975C322.121 265.785 319.376 240.803 315.095 219.364C362.418 232.041 421.653 219.364 468.185 215.076C482.889 213.724 484.983 197.505 475.537 187.577C444.826 155.371 408.298 101.306 364.047 87.93C350.739 83.9218 338.128 82.8964 325.937 83.6887C345.946 23.285 332.033 -48.4443 306.208 -113.509C302.206 -123.623 290.48 -126.605 282.197 -121.665C246.089 -99.9459 214.028 -62.8927 197.928 -21.0855C157.353 -58.931 108.122 -85.311 53.9593 -97.9417C51.0278 -98.6408 48.0497 -99.2467 45.0717 -99.8526C38.9295 -101.111 32.7408 -102.323 26.459 -103.208C18.4556 -104.374 12.6856 -100.319 10.4056 -94.3995C8.63737 -89.9252 8.87003 -84.3789 12.1273 -79.1588Z" fill="#FAB963"/>
<path d="M302.904 109.183C310.814 109.276 311.14 97.7176 303.323 96.9719C285.78 95.294 268.47 95.1076 251.021 95.7601C254.325 100.188 256.465 105.361 256.651 110.721C272.007 109.649 287.362 108.95 302.904 109.183Z" fill="#F5A174"/>
<path d="M148.884 18.6243C165.635 41.5088 183.131 63.7407 200.999 85.7395C183.271 75.9519 165.635 66.1177 147.721 56.6563C141.951 53.6268 134.738 61.084 140.043 66.0244C159.586 84.1083 180.665 99.116 203.838 111.793C181.177 121.581 159.26 132.674 137.995 145.351C132.319 148.753 135.25 158.821 142.183 156.723C165.077 149.872 186.947 141.249 208.212 130.716L172.755 195.874C168.986 202.772 178.757 208.877 183.178 202.306C196.998 181.425 209.515 159.986 220.775 137.754C223.986 170.985 229.989 203.611 239.295 235.91C241.156 242.435 251.207 241.969 251.347 234.791C252.045 203.75 250.463 173.036 246.694 142.415C270.611 159.054 300.857 165.905 326.123 181.425C331.847 184.921 339.013 176.811 333.801 172.057C309.651 150.012 283.965 130.297 256.605 112.492C256.419 117.153 254.837 121.907 251.254 126.428C230.873 151.829 189.18 117.34 209.608 91.9384C221.706 76.8374 241.296 82.9431 250.928 95.667C271.402 67.4227 283.64 36.2421 288.526 1.0532C289.41 -5.33206 280.289 -7.14976 277.218 -2.34916C262.003 21.4208 247.624 45.7035 233.665 70.1725C232.455 49.7117 231.245 29.2975 230.035 8.8367C229.57 0.866772 219.054 0.68034 217.844 8.41723C214.494 29.7636 213.33 50.8769 213.889 72.1301C195.881 50.9235 177.361 30.2297 157.911 10.3281C152.188 4.54878 144.324 12.4255 148.884 18.6243Z" fill="#F5A174"/>
<path d="M209.561 91.8916C189.18 117.293 230.826 151.783 251.207 126.381C254.79 121.907 256.372 117.153 256.558 112.446C256.605 111.886 256.605 111.28 256.558 110.721C256.372 105.315 254.232 100.141 250.928 95.7601C250.881 95.7135 250.881 95.6669 250.835 95.6203C241.249 82.8963 221.706 76.7907 209.561 91.8916Z" fill="#E25159"/>
</svg>
