<svg width="209" height="381" viewBox="0 0 209 381" fill="none" xmlns="http://www.w3.org/2000/svg">
<path d="M-9.40313 265.723C-8.87157 266.674 -8.2756 267.61 -7.61518 268.513C-0.817773 277.854 10.6347 281.016 17.9637 275.563C19.1396 274.692 20.1382 273.643 20.9597 272.466C20.9758 272.482 21.008 272.498 21.0241 272.514C21.8617 271.691 22.2322 270.869 22.2966 270.062C24.0685 266.078 24.1973 261.125 22.6671 256.253C21.8617 253.705 20.6054 251.172 18.8818 248.8C12.0844 239.46 0.631907 236.298 -6.69706 241.751C-13.2851 246.671 -14.2676 256.915 -9.40313 265.723ZM39.8701 174.917C44.6379 181.305 54.1414 182.192 61.0677 176.917C67.994 171.626 69.7497 162.173 64.9657 155.768C60.1979 149.38 50.6944 148.493 43.7681 153.768C36.8418 159.059 35.0861 168.529 39.8701 174.917ZM-54.6816 7.4658e-06C-87.0579 54.3964 -81.4041 135.765 -81.4041 135.765L-18.7133 2.29072C3.24138 3.79098 25.7437 8.17883 48.1172 15.7285C51.0004 16.6964 53.8515 17.7127 56.6703 18.7774C46.3292 28.2629 35.3438 37.1031 25.6309 47.2177C10.8764 62.5752 -3.05671 78.7392 -17.1509 94.7419C-26.4289 105.276 -35.2558 116.229 -41.57 128.974C-42.166 130.183 -42.6492 131.442 -43.2935 132.91C-38.2841 132.071 -38.3485 131.974 -34.4505 129.07C-21.516 119.424 -11.9803 106.437 -1.41375 94.5C10.3448 81.2074 45.105 43.1364 58.8287 32.0216C69.6692 23.2298 109.149 43.7978 128.897 59.5747C122.47 63.5108 116.123 67.6083 109.407 70.9476C98.0669 76.5937 13.9529 137.281 2.77423 145.751C0.390307 147.557 -1.70369 149.8 -3.62048 152.107C-4.37755 153.01 -4.87688 154.833 -4.49029 155.865C-2.87953 160.285 1.17958 161.995 5.27091 159.882C11.2952 156.769 71.3121 116.359 109.503 90.58C144.731 66.8017 178.766 110.906 190.605 134.523C188.479 134.958 166.492 132.894 129.912 153.526C116.8 160.915 69.5403 185.79 68.3644 188.903C64.4986 199.26 82.1848 194.565 85.7768 193.517C85.7768 193.517 85.7768 193.517 85.7929 193.517C89.8198 192.355 116.317 171.368 152.14 157.914C195.309 141.685 207.196 179.176 209 194.856C186.771 196.372 123.662 223.215 100.789 233.217C95.5219 235.524 92.3809 236.927 92.3809 236.927L206.052 248.349C205.102 252.446 203.974 256.528 202.67 260.577C195.051 284.177 182.068 304.745 165.107 321.781L143.555 303.616L82.523 251.43C82.523 251.43 108.714 328.282 125.176 351.576C125.256 351.689 113.482 354.27 112.693 354.318C98.1957 355.351 85.213 361.545 75.3229 350.882C66.9631 341.865 60.7777 318.07 56.5414 306.584C53.5454 298.486 51.2743 290.13 49.438 281.693C48.7615 278.547 46.2648 259.98 39.2741 266.336C34.5706 270.627 37.9855 282.935 38.7908 288.404C40.1439 297.422 47.7306 375.677 47.7306 375.677C45.1533 375.983 37.0029 379.968 34.3935 380.194C23.3275 380.242 8.29911 386.985 -6.24605 360.61C-15.8462 343.462 -19.7603 317.231 -20.8556 294.615C-21.2261 286.936 -22.2248 279.273 -22.5308 271.562C-22.5469 271.014 -22.5469 270.352 -22.5147 269.61C-22.3697 264.61 -21.5966 256.027 -25.6879 253.946C-31.1001 257.754 -34.982 266.384 -38.0103 274.176C-39.4438 277.87 -40.668 281.387 -41.7794 284.113C-46.9822 296.986 -47.4171 305.939 -50.7514 319.909C-54.1501 334.138 -54.7139 351.947 -52.2011 366.159C-55.4387 367.256 -60.8508 364.417 -64.169 363.288C-73.4792 360.142 -82.4834 356.561 -91.1493 352.56L-97.4312 331.234L-84.3518 287.855L-59.7233 206.213C-59.7233 206.213 -63.4119 207.31 -69.1463 209.762C-69.1463 209.745 -69.1463 209.713 -69.1463 209.697C-70.2255 209.681 -73.9946 211.326 -74.8967 212.181C-75.0255 212.31 -75.1544 212.439 -75.2833 212.552C-92.7922 221.022 -105.018 246.187 -112.943 278.547L-135.638 201.405C-129.437 194.84 -121.866 189 -112.669 184.241C-112.669 184.241 -123.703 187.145 -137.716 194.34L-167 94.8226L-163.537 49.3632C-129.421 26.9885 -84.2713 8.35627 -54.6816 7.4658e-06Z" fill="#1D4B4A"/>
</svg>
