<svg width="450" height="401" viewBox="0 0 450 401" fill="none" xmlns="http://www.w3.org/2000/svg">
<path d="M330.299 175.679C329.915 174.164 329.436 172.648 328.856 171.152C322.897 155.699 308.195 147.069 296.013 151.894C294.06 152.663 292.287 153.743 290.711 155.068C290.695 155.04 290.656 155.006 290.64 154.977C289.174 155.805 288.355 156.806 287.967 157.899C284.033 162.756 282.017 169.563 282.332 176.874C282.503 180.701 283.305 184.673 284.815 188.596C290.773 204.049 305.476 212.679 317.658 207.854C328.615 203.491 333.776 189.677 330.299 175.679ZM228.319 283.064C224.079 272.451 211.235 267.693 199.677 272.422C188.114 277.173 182.174 289.605 186.43 300.246C190.67 310.859 203.515 315.617 215.072 310.888C226.636 306.137 232.582 293.683 228.319 283.064ZM294.515 560.289C359.569 497.024 381.909 382.299 381.909 382.299L245.505 543.759C215.628 533.528 186.063 519.096 157.849 500.336C154.211 497.926 150.636 495.46 147.123 492.939C164.976 483.651 183.482 475.496 200.697 465.104C226.846 449.327 252.155 432.129 277.627 415.215C294.395 404.081 310.693 392.198 324.172 376.904C325.447 375.451 326.584 373.889 328.021 372.096C320.766 371.397 320.819 371.554 314.339 374.126C292.832 382.674 274.797 397.106 255.722 409.704C234.493 423.736 172.189 463.519 149.043 473.806C130.755 481.949 83.6567 438.816 62.1334 409.644C72.5022 406.583 82.8192 403.269 93.3686 401.142C111.182 397.539 250.288 344.782 268.925 337.212C272.899 335.597 276.634 333.271 280.146 330.79C281.531 329.821 282.899 327.483 282.746 325.91C282.152 319.194 277.16 315.32 270.705 316.725C261.199 318.797 163.017 352.437 100.516 373.932C42.865 393.76 12.0424 320.072 4.38997 282.986C7.49884 283.173 37.2112 294.198 95.5709 279.227C116.486 273.871 191.223 256.994 194.008 253.121C203.208 240.223 176.95 240.151 171.582 240.268C171.582 240.268 171.582 240.268 171.56 240.262C165.547 240.374 121.033 259.581 66.3851 264.897C0.526487 271.326 -2.04766 215.019 1.2669 192.646C32.6424 198.803 130.08 185.09 165.496 179.742C173.653 178.506 178.527 177.73 178.527 177.73L25.1921 119.7C28.0291 114.382 31.1058 109.151 34.4161 104.032C53.7303 74.1952 79.3551 50.5488 109.185 33.2701L132.323 66.4168L197.571 161.318C197.571 161.318 189.767 45.2177 175.587 6.86115C175.517 6.67494 192.796 7.47589 193.908 7.70205C214.387 11.6576 234.681 7.90571 244.436 26.3382C252.68 41.9248 252.429 77.1565 254.042 94.6278C255.191 106.949 255.241 119.359 254.657 131.719C254.428 136.324 251.003 162.951 263.05 156.751C271.162 152.558 270.993 134.253 271.905 126.385C273.374 113.401 291.88 2.26823 291.88 2.26823C295.566 2.80125 308.342 0.313465 312.043 0.970108C327.4 5.01336 350.734 1.26213 361.114 43.1714C368.062 70.4722 363.76 108.232 356.89 139.943C354.556 150.709 353.098 161.686 350.663 172.472C350.482 173.238 350.236 174.153 349.916 175.168C347.861 182.036 343.606 193.628 348.506 198.028C357.42 194.768 366.002 184.265 373.089 174.605C376.447 170.024 379.448 165.611 382 162.25C393.986 146.365 397.909 134.134 407.712 116.036C417.701 97.6052 425.087 73.1641 426.875 52.5596C431.77 52.2438 438.219 58.1838 442.4 60.9793C454.139 68.7914 465.292 77.0927 475.821 85.8489L476.62 117.7L442.401 172.883L377.982 276.739C377.982 276.739 383.502 276.591 392.36 275.327C392.354 275.349 392.343 275.394 392.337 275.416C393.827 275.839 399.662 274.962 401.229 274.113C401.456 273.982 401.682 273.852 401.903 273.743C429.315 268.524 455.595 238.233 478.582 196.386L481.433 311.59C470.401 318.374 457.741 323.645 443.227 326.816C443.227 326.816 459.599 326.895 481.693 322.141L485.377 470.762L463.717 532.397C408.127 550.694 338.631 559.714 294.515 560.289Z" fill="#1D4B4A"/>
</svg>
