<svg id="Layer_1" data-name="Layer 1" xmlns="http://www.w3.org/2000/svg" viewBox="0 0 72.8 66.75"><defs><style>.cls-1{fill:#fff;}</style></defs><path class="cls-1" d="M15.34,23.85A1.63,1.63,0,0,0,15,23.8a1.2,1.2,0,0,0-.24,0l-.06,0a.34.34,0,0,0-.22-.18s0-.08,0-.08.17-.11.26-.18c0,.09,0,.12.09.12H15a.71.71,0,0,0-.13-.12s0,0-.06,0-.07,0-.1.05c0-.15,0-.25-.18-.31s-.06-.12-.07-.19,0-.06.1-.08h.07a3.49,3.49,0,0,0,.55,0h.25c0,.09.1.06.15,0a1.35,1.35,0,0,1,.26-.09c.06,0,.07-.08.13,0s.1,0,.15,0a1,1,0,0,1,.17,0,.11.11,0,0,0,.09-.05.13.13,0,0,1,.11,0h.07c0-.1.09-.05.16-.06a.21.21,0,0,0,.17-.05.08.08,0,0,1,.1,0c.12,0,.25,0,.37-.06a.18.18,0,0,0,.13,0l.22-.07.63-.13.36-.12a.29.29,0,0,0,.16,0s.05,0,.07,0a1.72,1.72,0,0,1,.48-.17,3.89,3.89,0,0,0,.44-.16,3.14,3.14,0,0,1,.53-.23c.05,0,.1-.08.17-.08l.17-.06c.07,0,.12-.1.19-.13a3.37,3.37,0,0,0,.45-.32.7.7,0,0,0,.21-.24s0-.08,0-.13,0,0-.05-.09,0,0,0-.06a0,0,0,0,0,0,0,1.58,1.58,0,0,0-.26-.13c-.05,0-.14,0-.1-.09h-.16C21,20,20.84,20,20.73,20l-.1,0c-.07.07-.12,0-.17,0a1.21,1.21,0,0,1-.33-.07,1.52,1.52,0,0,1-.32-.06.13.13,0,0,1-.07,0c0-.06-.13-.05-.18-.07a.94.94,0,0,1-.41-.08h0a.45.45,0,0,1-.3,0l-.15,0-1-.24c-.19,0-.35-.08-.54-.11,0,0,0,0,0-.05h-.05c-.1.08-.2,0-.3,0s-.15,0-.2-.07-.12-.06-.18-.08a1.7,1.7,0,0,0-.22,0s0,0-.05,0a1.31,1.31,0,0,0-.27-.31.42.42,0,0,1-.15-.44s0-.08,0-.12-.09-.15,0-.25.12-.1.07-.18a0,0,0,0,1,0,0,0,0,0,0,1,0,0s0-.07,0-.07,0,0-.1,0a.43.43,0,0,0,.09-.1s.05,0,.07-.06,0-.05.1,0,.08,0,.1,0,.05,0,0-.06a.17.17,0,0,1,0-.1s0,0,0,0,.11-.2.22-.24.19-.11.31-.14.09,0,.14,0,0-.09,0-.1.06,0,.09-.05l.51-.2.44-.15a2.52,2.52,0,0,0,.44-.15c.06,0,.1,0,.16,0A.28.28,0,0,1,18.5,16c.05,0,.12,0,.17-.05a.35.35,0,0,0,.15-.07l.05,0a.11.11,0,0,1,.07,0v-.05s.07-.06.09-.06c.29-.09.54-.23.83-.3.12,0,.24-.1.38-.14a.08.08,0,0,1,.13,0,.12.12,0,0,0,.07,0h.08v0h-.08a.24.24,0,0,1,.14-.12c.17-.1.34-.17.51-.25s.51-.2.75-.31a3,3,0,0,0,.44-.23.5.5,0,0,1,.34,0,1.63,1.63,0,0,1,.23.11.63.63,0,0,0,.31.1c.05,0,.05,0,.05.05a1.78,1.78,0,0,1,.06.64,1.44,1.44,0,0,1-.05.37s0,0,0,0L23,16a1,1,0,0,1-.39.25.38.38,0,0,1-.34.09l-.05,0a7,7,0,0,1-.94.36l-.61.23a.8.8,0,0,1-.15,0,.11.11,0,0,0-.07,0,1.6,1.6,0,0,1-.53.19,2.35,2.35,0,0,0-.37.14s0,0,0,0-.29.12-.47.16a3.45,3.45,0,0,0-.51.18l-.24.06c-.05,0-.07,0,0,.08a.29.29,0,0,0,.18.13c.46.15.95.2,1.41.34l.66.18a5.08,5.08,0,0,1,.93.32A5.43,5.43,0,0,1,22,19c.13,0,.2.14.33.15s0,0,0,.05.06.08.13.09h.05a.18.18,0,0,0,.14.13c.05,0,.13.14.11.17s0,.24,0,.34a1.89,1.89,0,0,0,.06.18s0,0,.05.06a.13.13,0,0,1,0-.07v-.05s0-.08,0-.13,0,.08,0,.12.05.27,0,.38a.19.19,0,0,0,0,.12,1.15,1.15,0,0,1,0,.52,2.5,2.5,0,0,1-.45.75l-.29.26a3.88,3.88,0,0,1-.33.23,3.38,3.38,0,0,1-.41.24l-.28.17a3.11,3.11,0,0,1-.7.31,2.25,2.25,0,0,1-.46.15s0,0-.07,0a3,3,0,0,1-.42.15,2.33,2.33,0,0,0-.25.06.65.65,0,0,1-.24.09,1.27,1.27,0,0,1-.36.07l-.08,0a.82.82,0,0,1-.26.06,2.92,2.92,0,0,0-.4.1.82.82,0,0,1-.41,0h-.06l-.66.08h-.17l-.33,0a2.74,2.74,0,0,1-.64,0A2.79,2.79,0,0,1,15.34,23.85Zm.51-6.39s0,0,0,0l-.05.05h0A.09.09,0,0,0,15.85,17.46ZM16.18,23l-.06,0s0,0,0,0a.1.1,0,0,0,0,0S16.16,23,16.18,23Zm1.06-6.34s-.07,0-.07-.07,0,0,0,0,0,0,.05.05Zm3.85,4.69-.06,0a0,0,0,0,0,0,0s.07,0,.06,0A0,0,0,0,0,21.09,21.32Zm1.74-1.59s0,0,0-.05a.26.26,0,0,0,.08.11l-.07,0S22.85,19.76,22.83,19.73Z"/><path class="cls-1" d="M22.7,23.87c-.13-.08-.19-.21-.31-.32s-.06-.15-.06-.22a1.16,1.16,0,0,0,0-.18s0-.09.06-.12,0-.11.09-.16,0-.14.12-.15,0-.07,0-.08a.21.21,0,0,0,0-.12l.05.11s0,0,.07,0a.21.21,0,0,1-.05-.07,0,0,0,0,0-.07,0c0-.05,0-.13,0-.17s0-.23.08-.31,0-.09.06-.14,0,0,0,0a0,0,0,0,0,0,0h0s0-.07,0-.09,0-.11,0-.11.06-.05.06-.1a.35.35,0,0,1,.06-.19,1.31,1.31,0,0,1,.12-.28.6.6,0,0,0,.09-.18c.06-.08.1-.18.15-.26a.08.08,0,0,1,0-.06s0,0,0-.05.11-.22.18-.33.1-.27,0-.34a1.21,1.21,0,0,1-.24-.21s0,0,0-.07a1,1,0,0,1,.12-.53c0-.08.17-.13.28-.19a6.11,6.11,0,0,0,.64-.26.16.16,0,0,0,.1-.26c-.11-.19,0-.34.08-.49a.93.93,0,0,0,.13-.18.35.35,0,0,1,.19-.17c.07,0,.12-.08.14-.16s.05-.05.07-.07a1,1,0,0,0,.33-.22,4.63,4.63,0,0,1,.57-.5.91.91,0,0,1,.53-.13.15.15,0,0,1,.13.07.2.2,0,0,0,.23.05,6,6,0,0,0,.64-.2,5.09,5.09,0,0,1,.68-.12,2.49,2.49,0,0,1,.34-.05c.1,0,.2,0,.3,0s.2,0,.3,0a.71.71,0,0,1,.74.39.72.72,0,0,1,.11.19.47.47,0,0,1,0,.54l-.11.06c-.07.17-.24.19-.38.26a.65.65,0,0,1-.53,0s-.07,0-.1,0a6.16,6.16,0,0,0-1,0,1.51,1.51,0,0,0-.3,0,3.88,3.88,0,0,0-.61.11c-.09,0-.12.1-.16.16s-.11.17-.21.2h0a1.79,1.79,0,0,0-.13.22v.08s0,0,.06,0l.34-.06.2-.05a.8.8,0,0,1,.49.06c.06,0,.11.09.16.13l.11.12,0,.05c0,.19.15.28.25.41a.42.42,0,0,1,0,.12,1.09,1.09,0,0,1-.19.41.31.31,0,0,1-.25.13.32.32,0,0,0-.17,0,1.67,1.67,0,0,1-.83,0,1.75,1.75,0,0,1-.33-.06s0,0,0,0-.1,0-.13,0a.68.68,0,0,0-.34,0,.69.69,0,0,0-.37.05s0,0-.05.06-.07.07-.1.08-.1.18-.15.27a3.28,3.28,0,0,1-.22.37c-.05.09-.09.2-.14.28l-.2.33a1.07,1.07,0,0,1-.07.15l-.19.43c0,.06-.07.11-.1.18s0,.08,0,.07.21,0,.29-.09a1,1,0,0,1,.24-.09,1,1,0,0,0,.29-.13,1,1,0,0,1,.27-.07.57.57,0,0,0,.31-.07,1.14,1.14,0,0,1,.3-.09,3.53,3.53,0,0,1,.46-.15c.22-.08.44-.1.66-.16s.16-.08.22,0,0,0,0,0,.14,0,.17-.11.16,0,.19.07.11,0,.17-.06a.1.1,0,0,1,0-.07c0-.06.07-.06.12,0s.09,0,.13,0,.22-.06.34-.11h.05c.06.05.1.05.14,0a0,0,0,0,1,0,0l.28,0c.09,0,.09,0,.07.09s0,0,0,0a.07.07,0,0,0,0,0h0v-.07c.05,0,.12,0,.12-.06s.13-.06.25,0a1.37,1.37,0,0,0,.47.07.27.27,0,0,1,.23.13.24.24,0,0,0,.24.18.37.37,0,0,1,.18.1s0,0,0,0-.08.11-.14.11-.07,0-.11.06-.09.19-.12.27,0,.05-.07,0a.14.14,0,0,0-.19,0,.22.22,0,0,1-.18.06,1.64,1.64,0,0,1-.48.07s-.06,0-.06,0-.09.08-.16,0l0,0a2,2,0,0,1-.56.16,2.13,2.13,0,0,1-.49.1.38.38,0,0,0-.22.07c-.17.05-.34.11-.51.15a1.23,1.23,0,0,1-.29.07l-.12.05-.24.07a.39.39,0,0,0-.13.06l-.21.08c-.1.05-.22.08-.32.12a.7.7,0,0,1-.19.06,2.82,2.82,0,0,0-.49.25,2.35,2.35,0,0,1-.48.23s-.05,0-.08,0-.07,0-.09,0a.17.17,0,0,1-.22.09.1.1,0,0,0-.07,0c-.07.09-.2.09-.32.12a1.77,1.77,0,0,1-.41.12l-.57.12A.41.41,0,0,1,22.7,23.87Zm1-1.69a0,0,0,0,0,0,0s0,0,0,0v0A.05.05,0,0,0,23.7,22.18ZM27,21.82a1,1,0,0,1,0-.1s0,0,0,.05a.13.13,0,0,0,0,.08S27,21.84,27,21.82Zm.36-.12s0,0,0,0,0,0,0,0h0Zm1.16,0a.9.9,0,0,0,.1-.09.06.06,0,0,0,0-.05.13.13,0,0,0-.07,0,.55.55,0,0,0-.1.11s0,0,0,.07,0,0,0,0Zm.37-.15c-.05,0-.06-.05-.08-.05s0,0,0,0a.16.16,0,0,0,0,.09A.44.44,0,0,1,28.91,21.53ZM29,21.4a.07.07,0,0,0-.05,0l-.05,0,.05,0s0,0,0,0S29.05,21.42,29,21.4Zm.32,0-.1-.07-.06.05a.41.41,0,0,0,.11.07Zm.2.14a.59.59,0,0,0,.07-.16.11.11,0,0,0,0-.07s-.05,0-.06-.05a.44.44,0,0,0-.06.1.3.3,0,0,0,0,.15s0,.05,0,.06S29.53,21.57,29.55,21.55Zm.28-.76s0-.05,0-.06.05,0,.05,0v0A.08.08,0,0,0,29.83,20.79Z"/><path class="cls-1" d="M29.46,24.47a1,1,0,0,1-.39-.19,1.64,1.64,0,0,1-.16-.29.45.45,0,0,0-.06-.12c-.06-.1-.15-.17-.18-.27a1.55,1.55,0,0,1-.13-.38s0-.06,0-.11a2.06,2.06,0,0,1,.18-.73.6.6,0,0,1,.1-.25c.05-.13.11-.28.18-.43a2.46,2.46,0,0,1,.29-.39,4.25,4.25,0,0,0,.32-.46l.24-.36.32-.37a1.71,1.71,0,0,1,.21-.33,9.52,9.52,0,0,1,.68-.86c.1-.11.19-.23.29-.36a.75.75,0,0,1,.16-.13l.54-.58a1.67,1.67,0,0,1,.38-.25s0,0,0,0,.17-.16.26-.24a1.61,1.61,0,0,1,.36-.24,1.29,1.29,0,0,0,.41-.26.63.63,0,0,1,.4-.24.26.26,0,0,0,.17-.14c0-.07.09-.08.14-.12s.27-.09.39-.15l.15-.09a1.44,1.44,0,0,1,.58-.23,2.28,2.28,0,0,0,.4-.17s0,0,0-.05h0a2.91,2.91,0,0,0-.39.12.63.63,0,0,1-.22.07h0a.06.06,0,0,1,0,0s0,0,.07-.05l.31-.1c.06,0,.12-.06.18-.06a1.68,1.68,0,0,1,.58-.13s0,0,0,0l0,0c-.08,0-.08,0,0,.15s0,0,0,0-.09,0-.11.06a1.94,1.94,0,0,0,0,.2s.07-.08.08-.13a1.17,1.17,0,0,0,.08-.13c.12-.08.21-.23.37-.24s.06,0,.06,0,.12,0,.17-.09,0,0,0,0,0,.05,0,.07.07,0,.08,0,.12-.06,0-.13v0a.2.2,0,0,0,.1,0s0,0,0,.07,0,.07.05.07.07,0,.08,0,.06-.1.19-.08h0a.22.22,0,0,0,.17.09c.06,0,.17,0,.18.13s.15,0,.15,0,.07-.1,0-.12h0l0,0c.16,0,.21,0,.27.17,0,0,0,0,0,.06s0,0,0,.05l0,0s0,.07,0,.07a.06.06,0,0,0,.05,0,.43.43,0,0,0,.12-.05c.05,0,.06,0,.1,0s0,.09,0,.12,0,.05,0,.08a.35.35,0,0,0,0,.14s.12,0,.14-.06.07-.1.2,0h0s-.05.07,0,.1,0,0,.06,0a.13.13,0,0,1,0,.05s0,0-.05,0h0a.32.32,0,0,0,0,.14s0,0,.05,0,0,0,0,.06a.38.38,0,0,0,.06.23.2.2,0,0,1,0,.2c0,.07,0,.16-.06.24s0,.06,0,.1a.41.41,0,0,1,0,.08c-.11.1-.06.27-.2.33s0,0,0,0a.32.32,0,0,1-.08.29,1.31,1.31,0,0,1-.23.31.92.92,0,0,1-.22.22c-.11.2-.32.31-.41.51a1,1,0,0,1-.26.35,1,1,0,0,1-.23.18c-.07,0-.12.11-.16.19a1.54,1.54,0,0,1-.38.34s0,0-.07,0-.13,0-.14.11a.16.16,0,0,1-.12.09.62.62,0,0,0-.17.11,2.52,2.52,0,0,1-.59.42l-.08,0s0,0,0,0-.09.1-.16.11-.07,0-.07,0-.07.13-.1.16a.75.75,0,0,0-.18.13,0,0,0,0,1,0,0c-.13,0-.19.15-.31.19a2.37,2.37,0,0,0-.33.22c-.15.13-.14.17,0,.24l.33.13.2,0s.12,0,.13.07a0,0,0,0,0,0,0c.1-.05.21,0,.3,0l.28.08s.07,0,.12,0,.06,0,.06.07v.06a.19.19,0,0,1,.13.18,1.08,1.08,0,0,0,.26.14l.37,0,.08,0a0,0,0,0,0,0,0s0,0,0,0a.12.12,0,0,1-.12-.07h-.08a.09.09,0,0,1-.14,0s0,0,0,0,0,.05,0,.07,0,.07-.07.06a.27.27,0,0,1-.14-.07s0-.08-.07-.14.07,0,.11-.06a.28.28,0,0,1,.2,0,.3.3,0,0,0,.26.08.27.27,0,0,1,.2,0,7.07,7.07,0,0,1,.77.22,3.31,3.31,0,0,0,.36.14l.33.1s0,0,0,0a.1.1,0,0,1,0,.07h0V23a.21.21,0,0,1,.2.11.51.51,0,0,0,.16.19s.1,0,.16,0a.11.11,0,0,1,.12.07.1.1,0,0,1-.06.13c-.06,0,0,.05,0,.07h.07l.1,0s-.05.05-.09.05-.08.05,0,.15a.69.69,0,0,0,0,.1c-.14,0-.11.16-.14.25s0,.1.09.12l.08,0s0,0,0,0h0l-.4-.05c0-.12-.16-.09-.24-.13l-.07-.05c-.05,0-.11,0-.13,0s0,.09-.06.1a.84.84,0,0,0-.18,0,.25.25,0,0,1-.12,0h0c-.11-.16-.18-.16-.35-.08a.16.16,0,0,1-.12,0,1.34,1.34,0,0,0-.68-.14h-.05s0-.05,0-.07,0,0,0,0,0,0,0,0,0,0-.09,0,0,.08-.05.08L36,23.85s0-.05,0-.06a.07.07,0,0,1,0-.05H36c0,.14-.1.1-.17.08l-.15-.06s-.08,0-.06-.07a.17.17,0,0,1-.05-.05s0,0,0,.05,0,.07-.07,0-.2,0-.27,0a.9.9,0,0,1-.28,0s0,0-.07,0a1.69,1.69,0,0,1-.75-.11l-.23,0-.89-.1-.35-.06h-.16a.68.68,0,0,1-.19,0,4.25,4.25,0,0,1-.6-.12.06.06,0,0,1-.05,0,.08.08,0,0,0-.1,0c-.13,0-.19,0-.16-.17s0-.17-.09-.2-.2-.1-.26-.13,0,0,0-.07,0,0,0-.06a2.16,2.16,0,0,1-.1-.44c0-.09.06-.19.15-.22s.13,0,.1-.18,0-.11.11-.14a4,4,0,0,0,.42-.09s.05,0,.05-.05.07-.06.12-.06,0,0,0,0,0,0,0,.07h0s0,0,0-.05,0,0,0-.05a.34.34,0,0,1,.09-.08l0,0s0,0,0,0a.37.37,0,0,0,.11,0,.07.07,0,0,0,0-.11c-.06-.07,0-.12,0-.14s.21-.11.34,0l.08,0,.07-.09a.13.13,0,0,1-.08,0h0c-.05,0-.05,0,0-.07l0,0,.31-.23s.1-.06.15,0,.07,0,.05,0,0-.07.09,0,.07,0,.08,0,0,0,0,0,0-.17-.15-.14,0,0,0,0h0a.33.33,0,0,0,.16-.12.36.36,0,0,1,.17-.11.3.3,0,0,0,.2-.1s.15,0,.07-.1h0c.1,0,.14-.06.19-.13s.14-.09.19-.14a.15.15,0,0,1,.19,0h.1a.13.13,0,0,0,.14-.11c0-.09.05-.14.13-.12s.07,0,.07,0,.08-.18.15-.25,0-.05.07-.05.19-.14.27-.2a2.67,2.67,0,0,0,.3-.26.18.18,0,0,1,.16,0s.07,0,.07,0,0-.06,0-.1a.06.06,0,0,0,0-.05c.12,0,.14-.13.23-.19s.1,0,.12,0,0-.09,0-.14h0c.17-.05.2-.23.33-.33s0-.06.07-.06,0,0,.09.05h.06s0,0,0,0,0-.07,0-.09.05-.1.09-.11a.26.26,0,0,0,.12-.15s0-.05,0-.05a.27.27,0,0,1,.12-.06c-.05-.07,0-.08,0-.13s0-.09.08-.13,0-.09.07-.14h0c0-.05,0-.07-.05-.05l-.35.05L36.5,17c-.06,0-.12,0-.17.06s-.07.07-.11.06-.27.13-.4.14a1.46,1.46,0,0,0-.31.14.53.53,0,0,0-.33.15h0a3.42,3.42,0,0,0-.9.59s0,0,0,0a5.68,5.68,0,0,0-1,.85l-.32.29c-.17.16-.33.35-.49.53l-.42.5c-.09.12-.18.23-.26.36a2.51,2.51,0,0,1-.34.49.92.92,0,0,0-.18.3c-.09.13-.16.26-.25.39a1.46,1.46,0,0,1-.16.19.1.1,0,0,0,0,.07s0,.14,0,.15a.36.36,0,0,0-.08.12c0,.06-.06.11-.08.16s-.09.2-.13.3a1,1,0,0,0,0,.38c0,.15,0,.29,0,.42a.33.33,0,0,1-.08.22s0,.1-.06.13a.55.55,0,0,1-.43.38.21.21,0,0,1-.13.05A.47.47,0,0,1,29.46,24.47Zm2.69-6.82a.32.32,0,0,1,.12-.11h0s0,0,0,0-.07.06-.12.09Zm.68,5.61s0,0,0-.05,0,.05-.05.06,0,0,.05,0S32.8,23.27,32.83,23.26Zm0-2.32a.09.09,0,0,1,0,0s0,0,0,0l0,0s0,0,0,0V21h0S32.84,21,32.84,20.94Zm.39-.15,0,0a.05.05,0,0,0-.05,0v0Zm.31-.24,0,0s0,0,0,0,0,0,0,0S33.51,20.57,33.54,20.55Zm0,.61v0s0,0,0,.05v0S33.58,21.19,33.58,21.16Zm.86-5.05h0s0,0,0,0a.67.67,0,0,1,.15-.06v0a1,1,0,0,0-.15.09Zm0,3.52h0s0,0,0,0l0,0A.07.07,0,0,1,34.48,19.63ZM34.69,16s0,0,0,0,.05,0,.08,0h0l-.09.05S34.71,16,34.69,16Zm.25,5.14a.1.1,0,0,0,0,0,.64.64,0,0,1-.14.08l0,0S34.89,21.14,34.94,21.13ZM35.39,23s0,0,0,0-.05,0-.05,0h0s0,0,0,0h.1Zm.07.39s-.05,0-.05-.06a.06.06,0,0,0,0,0s0,0,0,0Zm.28-.21-.07,0s0,0-.05,0,0,0,0,0S35.7,23.15,35.74,23.14Zm.09-.23s0-.07,0-.1,0,0,0,0,0,.05-.07.07,0,.05,0,.06Zm0,.06a.12.12,0,0,1-.07,0v0s0,0,0,0Zm.22-.11h0s0,0,0,.06S36.07,22.87,36.05,22.86Zm.07-7.25s0,0,0,0h0a.13.13,0,0,0,0,0Zm.31,7.27,0,0s0,0,0,0,0,0,0,0S36.4,22.9,36.43,22.88Zm.41.28c0-.06,0-.05-.08-.05s-.13,0-.11-.09,0-.06-.08-.07-.06,0-.06.05.11.17.23.23A.07.07,0,0,0,36.84,23.16Zm0,.24s0,0,0-.12,0,.07,0,.1,0,0,0,0S36.88,23.42,36.88,23.4Zm0-6.62s0,0,0,0,0,0,0,0h0ZM37.16,18V18h0s0,0,0,.05v0S37.16,18.05,37.16,18Zm.12.31-.05,0h0a.12.12,0,0,0,.07,0Zm0,5.19h0v0S37.23,23.57,37.25,23.53Zm.16-6.73a.18.18,0,0,1-.06-.07.08.08,0,0,0-.07.05h.13Zm0,6.66s0,0,0,0,0,0,0-.05,0,0,0-.06l0,0a.2.2,0,0,1,0,.07s0,0-.06,0v0S37.38,23.45,37.42,23.46Zm.2-.35a.09.09,0,0,1,0,0s0,0,0,0,0,0,0,.06Zm0,.2a.18.18,0,0,1,.19-.11s0,0,.06,0,0,0,0,0,0,0-.08,0-.22.08-.29.17a.15.15,0,0,0,0,.06S37.64,23.31,37.66,23.31Zm.1.68h0a.07.07,0,0,1,0,0A.13.13,0,0,0,37.76,24ZM38,24l.06-.07,0-.05h-.1s0,0,0,.05,0,0,0,0,0,0,0,0Zm0-1a.09.09,0,0,0-.05,0s0,0-.06.05h0A.08.08,0,0,0,38,23Zm.07.53,0-.05c0-.09.07-.08.12-.08h.07s0,0,0-.07,0,0,0-.05,0-.1,0,0a.11.11,0,0,1-.11,0H38c-.07,0,0,.12,0,.17s0,0,0,.08A.25.25,0,0,0,38,23.55Zm.14-.55a.07.07,0,0,1,0,0v0a0,0,0,0,0,0,0S38.14,23,38.16,23Zm.21.17s0-.05-.07-.05,0,0-.07.05l.05,0S38.32,23.19,38.37,23.17Zm.12-7.45,0,0,0,0-.05,0Zm.07.79a0,0,0,0,0,0,0,.07.07,0,0,0,0,0s0,0,0,0S38.56,16.52,38.56,16.51Zm.18-.66h0c0,.06,0,.06-.06.06h0S38.72,15.86,38.74,15.85Z"/><path class="cls-1" d="M40,25.28a.15.15,0,0,1-.08-.08.31.31,0,0,0-.25-.15s-.06,0-.06-.07v0a.71.71,0,0,1-.16-.31l0-.05c-.05-.05-.06-.09,0-.14s0,0,0,0,0-.15,0-.21a.79.79,0,0,0,0-.2v0a.37.37,0,0,0,0-.11c0-.05,0-.1,0-.14s.06-.28.07-.41a1,1,0,0,1,0-.25c0-.17,0-.34.07-.52a2.18,2.18,0,0,0,0-.25c0-.17,0-.35,0-.52s0-.44.06-.65c0,0,0-.05,0-.07,0-.22,0-.42,0-.64s0-.28,0-.43,0-.34,0-.52a1.18,1.18,0,0,0,0-.27,1.51,1.51,0,0,0-.06-.36c0-.06,0-.18-.07-.27a2.5,2.5,0,0,0-.09-.25,1.44,1.44,0,0,1-.09-.24c0-.07,0-.13,0-.22s0-.05,0-.06,0-.11,0-.16a2.62,2.62,0,0,0,0-.28c0-.2.09-.4.16-.6s.13-.16.2-.26,0,0,0,0a.32.32,0,0,1,.21-.14s0,0,0,0a.1.1,0,0,1,.12,0s.06,0,.1,0h0a1.18,1.18,0,0,1,.42.1.15.15,0,0,0,.08.05.25.25,0,0,1,.21.19,1.63,1.63,0,0,1,.17.38.47.47,0,0,1,.07.35c0,.05,0,.12,0,.17a2.81,2.81,0,0,1,0,.49,3.05,3.05,0,0,0,0,.41c0,.1,0,.18,0,.26a3.11,3.11,0,0,1,0,.32v.31s0,.11,0,.18a.61.61,0,0,1,0,.17,1.5,1.5,0,0,0,0,.3,2.57,2.57,0,0,1-.05.4c0,.1,0,.2,0,.29s0,0,0,.08a0,0,0,0,1,0,0s0,0,0,0h0v0c0,.06,0,.13,0,.21s0,.09,0,.12v.3s0,.07,0,.12v.15s0,0,0,0h0a.73.73,0,0,0,.1-.13.46.46,0,0,0,.07-.07c.07,0,.08-.11.11-.18s.09-.09.12-.16,0-.08.06-.13a0,0,0,0,0,0,0c0,.05,0,0,0,0s0,0,0-.06,0,0,0-.05v0c.07,0,.09-.08.11-.13s0,0,0,0,.08,0,0,0,0,0,0,0,0-.05,0-.06,0-.12.09-.13a.1.1,0,0,0,.06-.09l.25-.36.1-.19h0c.07,0,.07-.05.09-.08s0-.07.05-.05v0c0-.12.09-.18.14-.24s.06-.18.18-.2.07-.08.09-.13,0-.08.07-.13a.76.76,0,0,0,.09-.18s0-.08.09-.11.09-.12.12-.18a2.2,2.2,0,0,1,.2-.23A2.72,2.72,0,0,0,44,18s0,0,0-.06l.07,0a2,2,0,0,1,.13-.25l.24-.32a.38.38,0,0,0,.07-.08,4.47,4.47,0,0,1,.32-.41,3.15,3.15,0,0,0,.22-.29c0-.07.12-.11.14-.16s.15-.15.17-.27.09-.09.13-.14,0,0,0,0a.89.89,0,0,1,.09-.16l.14-.18c.07-.08.11-.2.23-.23h0c-.05-.11.12-.1.09-.19h0s0,0,0,0h.07s.07,0,.06,0h0l.07,0s0,0,0,0l-.05,0a.06.06,0,0,0,.05,0s.07-.05.07,0v0a.22.22,0,0,0,0-.08l0-.06,0-.05a.07.07,0,0,0,0-.05c.1,0,0,0,.05,0h0s0,.05.06,0,0,0,0,0h0a.07.07,0,0,0,0,0l-.13,0,.07-.09s.07,0,0-.08,0-.06.09,0,.06,0,.07,0,0,0,.06,0,0,0,.06,0a.62.62,0,0,1,.33.08s0,0,0,0h-.06v0s.06,0,.06,0a.15.15,0,0,0,.12,0c0-.08.09,0,.12,0a.33.33,0,0,0,.14,0c.1,0,.2,0,.19.11s0,.13.1.17.06.07.09.1,0,0,0,0h0s0-.07,0,0,0,.12.09.18,0,.05,0,.06,0,0,0,.07,0-.05,0-.05,0,0,0,0,0,0,0,0h0l.05,0s0,0,0,0h0s0,0,0,.05,0,0,0,0,.07.11.1.11l.09-.05h.11a.18.18,0,0,1,0,.1s0,.05,0,.08l0,0c-.06,0-.08,0-.11,0v.05a.26.26,0,0,0,.1,0h0s0,0,0,.05a0,0,0,0,0,0,0s-.1,0-.1.09-.06,0-.09,0A.12.12,0,0,0,48,16s0,0-.07,0a.61.61,0,0,0-.17.07l-.19.06s0-.07-.07,0-.08,0-.13,0,0-.06,0-.06,0,0,0-.05a.06.06,0,0,0,0,0s0,0,0,0a.2.2,0,0,0,0,.1h0a.27.27,0,0,1,0,.07s0,0,0,0,0,0,0,0,0,0,0,.05a.21.21,0,0,1-.11.28c0,.06-.09.11-.17.09a.56.56,0,0,0,0,.1c0,.07,0,.1,0,.14s-.09.11-.16.16,0,.05,0,.08a.06.06,0,0,1,0,0V17l0,0h-.1a.12.12,0,0,0,.06,0h.07s0,.06,0,.08,0,0,0,.05,0,.06-.05,0l0,0s0,.07,0,.07a3.44,3.44,0,0,1-.3.35c-.06.08-.11.17-.16.25a2.31,2.31,0,0,0-.14.19l0,0s-.08,0,0,.06a.07.07,0,0,0,0,.08c-.07.07-.14.17-.21.25s0,.08-.07.09,0,0,0,0h0a0,0,0,0,0,0,0c0,.1,0,.15-.09.21s-.09.15-.14.21a.75.75,0,0,0-.13.18c-.07.09-.14.2-.21.28s0,.07-.09.07h0c0,.17-.15.25-.2.37a.11.11,0,0,0-.06.09s-.07.07-.08.1a1.58,1.58,0,0,0-.13.18,1.32,1.32,0,0,0-.16.25s0,0,0,0a3.43,3.43,0,0,0-.24.33c-.07.13-.18.27-.27.41s-.21.29-.3.44a2.14,2.14,0,0,0-.13.19,2.74,2.74,0,0,1-.23.36s0,.07-.07.08,0,.09-.06.12a.45.45,0,0,0-.1.13s0,.07,0,.08,0,.07-.09.1-.16.23-.23.36l-.11.15-.3.42,0,0s-.07,0-.06.05,0,0,0,0-.09.12-.14.18,0,0,0,.05a.76.76,0,0,1-.07.13,3.19,3.19,0,0,0-.26.26l0,0c0,.08,0,.11-.1.13a.62.62,0,0,0-.14.18s0,0,0,0,0,0,0,0a.32.32,0,0,1-.07.06l-.07.07c0,.09,0,.12-.09.13a.58.58,0,0,1-.19,0l-.13,0h-.16a.17.17,0,0,0-.2,0A.08.08,0,0,1,40,25.28Zm0-1.74c.05-.05.13-.06.17-.15h0l-.17.16Zm4.4-5a.11.11,0,0,1,0-.06s.09-.12.12-.18h0a1.25,1.25,0,0,0-.18.24v0S44.38,18.55,44.38,18.53Zm.44-.6v0h0c-.05.05-.09.12-.14.16v0h0Zm0,.52s0,0,0,0a.06.06,0,0,0-.06,0l0,0Zm.21-.28s0,0,0,0l0,0,0,.07A.08.08,0,0,0,45,18.17Zm.18-1.12h0s-.06,0-.09,0,0,0,0,0S45.14,17.07,45.18,17.05Zm0,.44c.05,0,.07-.1.12-.15s0,0,0,0,0,0,0,0a.87.87,0,0,0-.16.17,0,0,0,0,1,0,0S45.16,17.51,45.16,17.49Zm.73-.32c0-.11,0-.1.08-.15a.06.06,0,0,0,0,0h-.06a.53.53,0,0,0-.18.16c0,.06,0,.05,0,.06S45.84,17.18,45.89,17.17Zm0-1v-.07h-.08a.07.07,0,0,0,0,.06l0,0A.16.16,0,0,1,45.87,16.13Zm.29-.19,0,0h-.05s0,.05,0,.07A.15.15,0,0,1,46.16,15.94Zm.38.09v0s0,0,0,0,0,0,0,0h-.07l0,0a.06.06,0,0,0,0,0S46.51,16.08,46.54,16Zm.12-.49s0,0,0,0h-.09s-.05,0-.08,0,0,0,.05.06a.58.58,0,0,1,.14,0S46.59,15.58,46.66,15.54Zm0,.35a.13.13,0,0,0,0-.07s0,0-.05.06,0,0,0,0S46.63,15.9,46.63,15.89Zm.24.69v-.06s0,0-.07.08l0,0S46.94,16.64,46.87,16.58Zm.24-.56H47v0L47,16s0,.06.07.06Zm.15-.44s0,0,0,0h-.07a.66.66,0,0,0,0,.14h.05C47.31,15.69,47.25,15.63,47.26,15.58Zm.09-.91.07,0,0,0h0a.24.24,0,0,0-.1,0h0v0S47.33,14.69,47.35,14.67Zm.3,0,0,0s-.05-.07-.08-.07,0,0-.05,0l-.12.08v0h.11s.07,0,.09,0S47.65,14.69,47.65,14.67Zm.5.54s.05,0,.07,0v.06s0,.06,0,0S48.17,15.24,48.15,15.21Z"/><path class="cls-1" d="M44.79,24.73c-.13-.07-.19-.2-.31-.31s-.06-.15-.06-.22a1.29,1.29,0,0,0,0-.19.09.09,0,0,1,.06-.11c.05,0,.05-.12.09-.17s0-.13.12-.14,0-.07,0-.08a.42.42,0,0,0,0-.12.46.46,0,0,0,.05.1s0,0,.07,0l-.05-.07a0,0,0,0,0-.07,0c0-.05,0-.14,0-.17s0-.24.08-.32,0-.08.06-.13,0,0,0,0a0,0,0,0,0,0,0v0s0-.06,0-.08,0-.12.05-.12.06,0,.06-.1a.35.35,0,0,1,.06-.18,1.13,1.13,0,0,1,.12-.28,1.5,1.5,0,0,0,.09-.18c.06-.08.09-.18.15-.26a.21.21,0,0,1,0-.07s0,0,0,0c0-.16.11-.22.18-.33s.1-.27,0-.34a.83.83,0,0,1-.24-.21s0,0,0-.07a1,1,0,0,1,.12-.53c0-.08.17-.13.28-.19l.64-.26c.12-.05.18-.16.1-.27s0-.33.08-.48a1.4,1.4,0,0,0,.13-.18.37.37,0,0,1,.19-.18.23.23,0,0,0,.14-.16.19.19,0,0,1,.07-.06,1.36,1.36,0,0,0,.33-.22,4.63,4.63,0,0,1,.57-.5.82.82,0,0,1,.53-.13.15.15,0,0,1,.13.07.2.2,0,0,0,.23,0,6,6,0,0,0,.64-.19,5.09,5.09,0,0,1,.68-.12c.1,0,.2-.06.34-.06a1,1,0,0,0,.3,0c.1,0,.2,0,.3,0a.73.73,0,0,1,.74.4.59.59,0,0,1,.11.19.45.45,0,0,1,0,.54s-.08,0-.1.06-.24.19-.38.25a.65.65,0,0,1-.53,0s-.07,0-.1,0a5.14,5.14,0,0,0-1,0,1.51,1.51,0,0,0-.3,0,3.88,3.88,0,0,0-.61.11c-.09,0-.12.1-.16.16s-.11.16-.21.19v0c-.06.08-.09.15-.13.21v.09l.06,0a3,3,0,0,1,.34-.06,1.17,1.17,0,0,0,.2-.06.88.88,0,0,1,.49.07c.06,0,.11.09.16.13l.11.12,0,.05c0,.18.15.27.25.41a.42.42,0,0,1,0,.12,1.09,1.09,0,0,1-.19.41.31.31,0,0,1-.25.13.32.32,0,0,0-.17,0,1.57,1.57,0,0,1-.83,0,3.23,3.23,0,0,1-.33-.06s0,0-.05,0-.1,0-.13,0a1,1,0,0,0-.34,0,.69.69,0,0,0-.37.06s0,0-.05.06-.07.07-.11.08-.09.18-.14.26a4.27,4.27,0,0,1-.22.38c0,.08-.09.2-.14.28l-.2.33a1.07,1.07,0,0,1-.07.15,4,4,0,0,0-.19.43c0,.06-.07.11-.1.18s0,.08,0,.06.2,0,.29-.08a1,1,0,0,1,.24-.1.81.81,0,0,0,.29-.12.72.72,0,0,1,.27-.07.57.57,0,0,0,.31-.07.86.86,0,0,1,.3-.09,3.53,3.53,0,0,1,.46-.15c.22-.08.44-.1.66-.16s.15-.08.22,0,0,0,0,0,.14-.05.17-.11.16,0,.19.07.11,0,.17-.06a.1.1,0,0,1,0-.07.07.07,0,0,1,.11,0c.07,0,.1.05.14,0s.22-.06.34-.11h0c.06.06.1.06.13,0a.07.07,0,0,1,0,0,1.32,1.32,0,0,1,.28,0c.09,0,.09,0,.07.08s0,0,0,.05a.07.07,0,0,0,0,0V21.7s.12,0,.12-.07.13-.06.25,0a1.37,1.37,0,0,0,.47.07.23.23,0,0,1,.23.13c0,.1.11.19.24.17a.51.51,0,0,1,.18.11s0,0,0,0-.08.11-.14.11-.07,0-.11.06-.09.18-.12.27,0,0-.07,0-.12,0-.19,0a.23.23,0,0,1-.19.06,1.53,1.53,0,0,1-.47.07s-.06,0-.06,0-.09.08-.16,0h0a1.74,1.74,0,0,1-.56.17,2.13,2.13,0,0,1-.49.1.38.38,0,0,0-.22.07c-.17,0-.34.11-.51.15a1.37,1.37,0,0,1-.29.07.61.61,0,0,0-.12.05l-.23.07a.37.37,0,0,0-.14.06l-.21.08c-.1,0-.22.07-.32.12a.7.7,0,0,1-.19.06,2.26,2.26,0,0,0-.49.25,2.35,2.35,0,0,1-.48.23s0,0-.08,0-.07,0-.09,0a.17.17,0,0,1-.22.09h-.07c-.07.1-.2.1-.32.13a1.76,1.76,0,0,1-.41.11l-.57.13A.35.35,0,0,1,44.79,24.73Zm1-1.68a0,0,0,0,0,0,0s0,0,0,0v0A.09.09,0,0,0,45.79,23.05Zm3.32-.36,0-.1s0,0,0,.05,0,.05,0,.08S49.09,22.71,49.11,22.69Zm.36-.12s0,0,0,0h0v0Zm1.16,0s.08-.06.1-.1,0,0,0-.05l-.07,0a.55.55,0,0,0-.1.11s0,0,0,.07h.07ZM51,22.4s-.06-.06-.08-.06a0,0,0,0,0-.05.05.19.19,0,0,0,0,.09A.27.27,0,0,1,51,22.4Zm.12-.13a.07.07,0,0,0,0,0l0,0,0,0a0,0,0,0,1,0,0S51.14,22.28,51.12,22.27Zm.32,0a.23.23,0,0,0-.1-.07l-.06.05a.41.41,0,0,0,.11.07Zm.2.14a.77.77,0,0,0,.07-.16.21.21,0,0,0,0-.07s0,0-.07-.05,0,0,0,.09a.34.34,0,0,0,0,.15s0,.06,0,.07A.09.09,0,0,0,51.64,22.42Zm.28-.76s0-.05,0-.07,0,0,0,0v.05A.08.08,0,0,0,51.92,21.66Z"/><path class="cls-1" d="M52.34,25.37c0-.14-.11-.16-.23-.15s-.08,0-.13,0-.12-.07-.17-.12a.22.22,0,0,1-.11-.17.54.54,0,0,0-.15-.25,1.22,1.22,0,0,0-.15-.17s0-.1,0-.12a.17.17,0,0,0-.06-.18c0-.09,0-.11,0-.17s.09-.08,0-.17,0-.07-.05-.12.06-.16,0-.26a0,0,0,0,1,0,0,1.48,1.48,0,0,0,.29-.52l.26-.72c.15-.36.28-.72.43-1.07s.29-.59.44-.89a6.08,6.08,0,0,1,.34-.6c.13-.23.25-.48.38-.69a7.84,7.84,0,0,1,.41-.69V18.2s0,0-.06,0-.21,0-.34,0a1.46,1.46,0,0,1-.51-.51c-.07-.1-.15-.17-.21-.26a.4.4,0,0,1,0-.38.56.56,0,0,0,.1-.29s0,0,0,0a.11.11,0,0,0,.14-.09c0-.07.07-.07.13-.06s.1,0,.16,0,.33-.11.52-.15l.17,0c.07,0,.12-.07.19-.08s.16,0,.21,0,.36,0,.49-.06a3.1,3.1,0,0,0,.54-.05,3.64,3.64,0,0,1,.73-.09l.9,0a4.67,4.67,0,0,1,.52,0,2.29,2.29,0,0,1,.73.17.45.45,0,0,0,.18.05,2.62,2.62,0,0,1,.48.36.61.61,0,0,1,.25.36c0,.08.08.15.12.24a1.51,1.51,0,0,1,.17.78,1.76,1.76,0,0,1-.14.71,6.43,6.43,0,0,1-.35.76,4,4,0,0,1-.46.69.12.12,0,0,0-.06.1,1.63,1.63,0,0,1-.37.47A.77.77,0,0,1,58,21c-.07,0-.14.08-.12.17a.21.21,0,0,1-.07.11.82.82,0,0,1-.18.19c-.12.08-.21.22-.33.31s-.21.19-.3.29l-.41.39-.51.48a.55.55,0,0,1-.17.13,1.25,1.25,0,0,0-.26.25.36.36,0,0,1-.23.16s-.07,0-.05.07,0,.06,0,.06-.12.12-.22.13-.1.1-.16.14a.16.16,0,0,1-.08.12s-.06.06-.07,0a0,0,0,0,0,0,0s0,0,0,0-.12.14-.11.23h0c-.07,0-.17,0-.19.12s0,0,0,0-.16.21-.31.22-.05.08-.1.11l-.28.19c-.07.05-.14.06-.14.13a0,0,0,0,1,0,0,1.53,1.53,0,0,0-.29.11c-.07.05-.13.13-.24.11a.1.1,0,0,0-.12.09s0,0-.07,0l-.1-.05h-.1l-.1.08C52.39,25.44,52.36,25.43,52.34,25.37Zm.38-.24,0,0a.07.07,0,0,0-.06,0s0,0,0,.05S52.7,25.15,52.72,25.13Zm.16-1.67,0-.05s0,0,0,0a.07.07,0,0,1,0,0Zm.28-.07a.15.15,0,0,0,.08-.05c.09-.13.24-.18.35-.31a3.73,3.73,0,0,1,.36-.32,2.8,2.8,0,0,0,.38-.32c.18-.21.42-.37.63-.58l.37-.35c.14-.13.28-.29.42-.44a2.52,2.52,0,0,0,.4-.4c0-.06.14-.11.19-.18s.19-.21.28-.34a2.18,2.18,0,0,0,.34-.4h0c.07,0,.07,0,.09-.05a.42.42,0,0,1,0-.12.93.93,0,0,0,.14-.14c.09-.16.17-.33.26-.48a4,4,0,0,0,.48-.8.27.27,0,0,0-.17-.38h-.1a.69.69,0,0,1-.32,0h0a2.44,2.44,0,0,1-.39.07,3,3,0,0,0-.55.11s0,0-.07,0l-.42.39a3.07,3.07,0,0,0-.49.59c-.13.17-.23.32-.36.5s-.28.41-.41.62a4.49,4.49,0,0,1-.37.59.38.38,0,0,0-.1.22,2.73,2.73,0,0,1-.14.31c-.06.11-.14.19-.2.31s-.09.26-.15.4-.18.39-.24.59a.08.08,0,0,1-.05.06.37.37,0,0,0-.08.15.37.37,0,0,1-.07.25c-.16.13-.11.3-.22.39s0,.09,0,.09S53.12,23.4,53.16,23.39Z"/><path class="cls-1" d="M17.75,38.81c-.13-.07-.19-.21-.3-.31s-.06-.15-.06-.22a1.29,1.29,0,0,1,0-.19s0-.08,0-.11.05-.12.09-.17,0-.13.12-.14,0-.07,0-.08a.25.25,0,0,0,0-.12.51.51,0,0,0,0,.1s0,0,.07,0a.43.43,0,0,1,0-.07,0,0,0,0,0-.07,0c0-.05,0-.14-.05-.17s0-.24.08-.32,0-.08.06-.13,0,0,0,0a.07.07,0,0,0,0,0v0a.45.45,0,0,0,0-.08s0-.12.06-.12.05-.05.05-.1a.48.48,0,0,1,.06-.18.88.88,0,0,1,.13-.28,1.5,1.5,0,0,0,.09-.18c.05-.08.09-.18.14-.26a.25.25,0,0,1,0-.07.1.1,0,0,0,0-.05c-.05-.15.1-.21.18-.32s.09-.27,0-.34a1,1,0,0,1-.24-.21s0,0,0-.07a1,1,0,0,1,.13-.53c0-.08.17-.13.27-.19l.65-.26a.17.17,0,0,0,.09-.27c-.11-.19,0-.33.09-.48a.81.81,0,0,0,.12-.18.35.35,0,0,1,.2-.18.26.26,0,0,0,.13-.16.32.32,0,0,1,.07-.06,1.19,1.19,0,0,0,.33-.22,6.8,6.8,0,0,1,.57-.5.84.84,0,0,1,.53-.13.15.15,0,0,1,.13.07.2.2,0,0,0,.23,0,5.54,5.54,0,0,0,.65-.19,3.76,3.76,0,0,1,.67-.12c.11,0,.21-.06.34-.06a1.15,1.15,0,0,0,.31,0l.3,0a.74.74,0,0,1,.74.4.59.59,0,0,1,.11.19.45.45,0,0,1,0,.54s-.09,0-.1.06-.25.19-.38.25a.64.64,0,0,1-.54,0l-.1,0a5.17,5.17,0,0,0-1,0,1.51,1.51,0,0,0-.3,0,4.1,4.1,0,0,0-.61.11.26.26,0,0,0-.15.16c-.07.06-.11.16-.21.19l0,0-.13.21v.09l.07,0,.33-.06.21-.06a.84.84,0,0,1,.48.07.42.42,0,0,1,.16.13.68.68,0,0,1,.12.12l0,0c0,.18.16.27.25.41a.24.24,0,0,1,0,.12.94.94,0,0,1-.18.41.33.33,0,0,1-.26.13.25.25,0,0,0-.17,0,1.53,1.53,0,0,1-.82,0,1.7,1.7,0,0,1-.34-.07s0,0-.05,0-.1,0-.13,0a1,1,0,0,0-.33,0,.68.68,0,0,0-.37.06.17.17,0,0,0-.06.06l-.1.08c-.09.06-.09.18-.15.26a4.32,4.32,0,0,1-.21.38c-.06.08-.09.2-.15.28s-.14.23-.19.33-.06.1-.08.15-.13.29-.18.42l-.11.18s0,.09.05.07.2,0,.29-.09a1.57,1.57,0,0,1,.23-.09.69.69,0,0,0,.29-.12.72.72,0,0,1,.28-.07.53.53,0,0,0,.3-.07.85.85,0,0,1,.31-.09,3,3,0,0,1,.45-.15c.23-.08.44-.1.67-.16.08,0,.15-.08.21,0s0,0,0,0,.13,0,.17-.11.15,0,.18.08.12,0,.17-.06a.1.1,0,0,1,0-.07c0-.06.07-.06.12,0s.1,0,.13,0,.23,0,.34-.1h.05c.07.06.1.06.14,0h0a1.42,1.42,0,0,1,.29,0c.08,0,.08,0,.06.08s0,0,0,.05a0,0,0,0,0,0,0v-.08c.05,0,.12,0,.12-.07s.14-.06.26,0a1.31,1.31,0,0,0,.46.07.22.22,0,0,1,.23.13.24.24,0,0,0,.25.17c.05,0,.11.06.18.11a0,0,0,0,0,0,0c0,.05-.07.11-.14.11a.18.18,0,0,0-.1.06l-.13.26s0,.05-.07,0-.11,0-.18,0a.36.36,0,0,1-.19.06,1.53,1.53,0,0,1-.47.07s-.07,0-.07,0-.09.08-.15,0h0a1.93,1.93,0,0,1-.56.17,1.63,1.63,0,0,1-.49.09.48.48,0,0,0-.22.08l-.51.15a1.15,1.15,0,0,1-.28.07l-.12,0a1.69,1.69,0,0,1-.24.08.35.35,0,0,0-.14.06l-.2.08c-.1,0-.22.07-.32.12l-.19.06a2.6,2.6,0,0,0-.5.25,2.65,2.65,0,0,1-.48.23H19.7s-.07,0-.08,0-.13.13-.23.09h-.06c-.07.1-.21.1-.33.12a1.42,1.42,0,0,1-.4.12l-.58.13A.36.36,0,0,1,17.75,38.81Zm1-1.68,0,0s0,0,0,0l0,0Zm3.32-.36a.47.47,0,0,1,0-.1s0,0,0,0,0,.05,0,.08S22.06,36.79,22.08,36.77Zm.35-.12s0,0,0,0h0l0,0Zm1.16,0a1.09,1.09,0,0,0,.11-.1.07.07,0,0,0,0-.05s-.05,0-.06,0a.57.57,0,0,0-.11.11s0,0,0,.07h.07Zm.37-.15s-.06-.06-.08-.06a0,0,0,0,0-.05,0s0,.05,0,.08Zm.13-.13s0,0-.05,0a.09.09,0,0,0-.05,0,.14.14,0,0,0,.05,0l0,0S24.1,36.36,24.09,36.35Zm.32,0a.46.46,0,0,0-.1-.07l-.07,0a.38.38,0,0,0,.11.08Zm.19.14a.45.45,0,0,0,.08-.17l0-.06s0,0-.06-.06,0,0,0,.1a.33.33,0,0,0,0,.15.21.21,0,0,0,0,.07A.08.08,0,0,0,24.6,36.5Zm.28-.76a.08.08,0,0,1,0-.07s0,0,0,0v0S24.88,35.74,24.88,35.74Z"/><path class="cls-1" d="M25.91,39.87a.18.18,0,0,1-.08-.09.33.33,0,0,0-.25-.14s-.06,0-.06-.07v0a.71.71,0,0,1-.16-.31l0,0s-.06-.09,0-.14,0,0,0,0,0-.15,0-.22a.65.65,0,0,0,0-.2v0a.37.37,0,0,0,0-.11c0-.05,0-.11,0-.14s.06-.28.07-.42a1.1,1.1,0,0,1,0-.25c0-.16.05-.33.07-.51a2.18,2.18,0,0,0,0-.25c0-.17,0-.36,0-.52s0-.44.06-.65c0,0,0-.05,0-.07,0-.22,0-.42,0-.64s0-.28,0-.43,0-.34-.05-.52a.8.8,0,0,0,0-.27,1.51,1.51,0,0,0-.06-.36,1.8,1.8,0,0,0-.07-.27,1.25,1.25,0,0,0-.09-.25,1.44,1.44,0,0,1-.09-.24c0-.07,0-.13,0-.22s0,0,0-.07,0-.1,0-.15,0-.2,0-.28a4.39,4.39,0,0,1,.15-.6c0-.1.13-.16.2-.26s0,0,0,0a.32.32,0,0,1,.21-.14s0,0,0,0a.13.13,0,0,1,.12,0s.07,0,.1,0h0a1,1,0,0,1,.41.1.15.15,0,0,0,.08,0,.25.25,0,0,1,.21.19,1.63,1.63,0,0,1,.17.38.47.47,0,0,1,.07.35c0,.05,0,.12,0,.17a2.72,2.72,0,0,1,.05.49,3.05,3.05,0,0,0,.05.41c0,.09,0,.18,0,.26a2.79,2.79,0,0,1,0,.32c0,.1,0,.2,0,.3a1.34,1.34,0,0,1,0,.19.61.61,0,0,1,0,.17,1.55,1.55,0,0,0,0,.3c0,.13-.05.27-.05.4a2.61,2.61,0,0,0,0,.28s0,0,0,.09h0s0,0,0,0h0l0,0c.05.07,0,.14,0,.22s0,.09,0,.12l0,.3s0,.07,0,.12v.15s0,0,0,0,0,0,0,0a1.47,1.47,0,0,0,.1-.13l.07-.07c.07,0,.08-.11.11-.18s.09-.09.13-.16,0-.08.05-.13a0,0,0,0,0,0,0c.05,0,.05,0,.05,0s0,0,0-.07,0,0,0,0v0c.07,0,.09-.08.11-.13l0,0c.06,0,.08,0,0,0s0,0,0,0,0,0,.06-.07,0-.11.08-.13a.08.08,0,0,0,.06-.08l.25-.36.1-.19h0c.07,0,.07-.05.09-.08s0-.07,0-.05v0c0-.12.09-.18.14-.24s.06-.19.18-.2.07-.08.09-.13,0-.08.07-.13a.76.76,0,0,0,.09-.18s.06-.08.09-.11.09-.12.13-.18a1.37,1.37,0,0,1,.19-.23c.07-.07.09-.17.16-.25s.05,0,.05-.06l.07-.05a2,2,0,0,1,.13-.25l.25-.32s.05-.07.07-.08a3.15,3.15,0,0,1,.31-.41,3.15,3.15,0,0,0,.22-.29c0-.07.12-.12.14-.17s.15-.14.18-.26.08-.09.12-.14,0,0,0-.05a1.47,1.47,0,0,1,.09-.17l.14-.17c.07-.09.11-.2.23-.23a0,0,0,0,0,0,0c0-.1.12-.09.09-.18h0s0,0,0,0,.07,0,.07,0,.07,0,.06,0,0,0,0,0,0,0,.07,0,0,0,0,0l0,0s0,0,0,0,.07,0,.07,0v0l.06-.08,0-.06s0,0,0-.05a.09.09,0,0,0,0-.05c.1,0,0-.05,0-.05h0s0,.06.07,0,0,0,0,0h0a.1.1,0,0,0,0,0c-.06,0-.09,0-.14,0a.44.44,0,0,0,.07-.08s.07,0,0-.08,0-.06.09-.05.07,0,.07,0,0,0,.07,0,0,0,.05,0a.62.62,0,0,1,.33.08s0,0,0,0,0,0-.06,0h0v0s.06,0,.06,0,.11,0,.12,0,.09,0,.12,0a.33.33,0,0,0,.14,0c.1,0,.2,0,.19.1s0,.14.1.18.06.07.09.1,0,0,0,0h0s0-.07,0,0,0,.12.09.17a.1.1,0,0,1,0,.07s0,.05,0,.07,0-.05,0-.05,0,0,0,0,0,0,0,.05h0a.06.06,0,0,0,0,0s0,0,0,0h0s0,0,0,.05,0,0,0,.05.07.11.1.11l.09-.05h.11a.18.18,0,0,1,0,.1s0,.05,0,.08v0c-.07,0-.09.05-.12.05v.05a.26.26,0,0,0,.1,0s0,0,0,0a.06.06,0,0,1,0,.05s0,0,0,0-.1,0-.1.1,0,0-.09,0a.12.12,0,0,0-.13.06s0,0-.07,0l-.17.08-.19.06s0-.07-.07,0-.08,0-.13,0,0-.06,0-.06,0,0,0-.05a.06.06,0,0,0-.05,0s0,0,0,0a.2.2,0,0,0,0,.1h0a.27.27,0,0,1,0,.07s0,0-.05,0,0,0,0,0,0,0,0,.05a.21.21,0,0,1-.11.28c0,.06-.09.11-.17.09a.56.56,0,0,0,0,.1.09.09,0,0,1,0,.13c-.07,0-.09.12-.16.17s0,.05,0,.08h0v-.05a0,0,0,0,1,0,0h-.1a.14.14,0,0,0,.07,0h.06s0,.07-.05.09,0,0,0,0,0,.07,0,0l0,0s0,.07,0,.06a2.73,2.73,0,0,1-.3.36,2.13,2.13,0,0,0-.16.25,2.31,2.31,0,0,0-.14.19l0,0s-.08,0-.05.07,0,0,0,.08a2.76,2.76,0,0,0-.21.25s0,.08-.07.09,0,.05,0,0h0a.07.07,0,0,0,0,0c.05.1,0,.15-.09.21s-.09.15-.14.21a1.18,1.18,0,0,0-.13.18c-.07.08-.14.2-.21.28s0,.07-.09.06h0c0,.17-.15.25-.2.36s-.05.05-.05.1-.07.07-.09.1a.75.75,0,0,0-.13.18,1.32,1.32,0,0,0-.16.25s0,0,0,0-.15.23-.24.33-.18.27-.27.41-.21.29-.3.44a2.14,2.14,0,0,0-.13.19,2.74,2.74,0,0,1-.23.36s0,.07-.07.08,0,.09-.06.12a.45.45,0,0,0-.1.13s0,.06,0,.08a.81.81,0,0,1-.09.1c-.07.11-.16.23-.23.36a1.71,1.71,0,0,1-.11.14l-.3.43,0,0s-.07,0-.06,0,0,0,0,0-.09.12-.14.18,0,0,0,0,0,.1-.07.13a3.19,3.19,0,0,0-.26.26l0,0c0,.08-.06.11-.11.13s-.09.11-.14.17a.07.07,0,0,1,0,.05s0,0,0,0a.32.32,0,0,1-.07.06l-.07.07c0,.08,0,.11-.09.13a.53.53,0,0,1-.19,0l-.13,0h-.16a.18.18,0,0,0-.2,0A.08.08,0,0,1,25.91,39.87Zm0-1.74c.05-.05.13-.06.17-.15h0l-.17.16Zm4.4-5a.13.13,0,0,1,0-.07.93.93,0,0,0,.12-.18h0a3,3,0,0,0-.18.25v0S30.33,33.14,30.33,33.12Zm.45-.6v0h0l-.14.16v0h0A1.12,1.12,0,0,1,30.78,32.52Zm0,.52s0,0,0,0a.06.06,0,0,0-.06,0s0,0,0,0Zm.21-.28s0,0,0,0l0,0s0,.05.05.07A.08.08,0,0,0,31,32.76Zm.18-1.12,0,0a.15.15,0,0,0-.09,0s0,0,0,0S31.09,31.66,31.13,31.64Zm0,.44c.05,0,.07-.1.12-.15l0,0s0,0,0,0a1.33,1.33,0,0,0-.16.17,0,0,0,0,1,0,0S31.11,32.09,31.11,32.08Zm.73-.33c0-.1,0-.09.08-.14l0,0-.07,0a.52.52,0,0,0-.17.16c0,.07,0,.06,0,.07S31.79,31.77,31.84,31.75Zm0-1v-.06h-.08a.1.1,0,0,0,0,.07l0,0Zm.29-.19H32s0,.05,0,.07Zm.38.1v0s0,0,0,0,0,0-.05,0h-.07l-.05,0a.06.06,0,0,0,0,.05S32.46,30.67,32.49,30.62Zm.12-.5a0,0,0,0,1,0,0h-.09s0,0-.08,0,0,.06,0,.07l.15,0S32.54,30.17,32.61,30.12Zm0,.36a.13.13,0,0,0,0-.07s0,0,0,.06,0,0,0,0S32.58,30.49,32.58,30.48Zm.24.69v-.06s-.06,0-.07.08,0,0,0,0S32.89,31.23,32.82,31.17Zm.24-.56H33v0l-.07,0s.05.06.07.06A.29.29,0,0,0,33.06,30.61Zm.15-.44s0,0,0,0h-.07a.66.66,0,0,0,0,.14h0C33.26,30.28,33.2,30.21,33.21,30.17Zm.09-.91.07,0,0,0h0a.24.24,0,0,0-.1,0h0v0S33.28,29.28,33.3,29.26Zm.3,0,0,0s0-.07-.08-.07a.06.06,0,0,0,0,0l-.12.08v0h.11c0,.06.07,0,.09,0S33.6,29.28,33.6,29.26Zm.5.54s0,0,.07,0v.06s0,.06,0,0S34.12,29.83,34.1,29.8Z"/><path class="cls-1" d="M30.74,39.32c-.13-.07-.19-.21-.31-.31s-.06-.15-.06-.22a1.29,1.29,0,0,0,0-.19.09.09,0,0,1,.06-.11c.05,0,.05-.12.09-.17s0-.13.12-.14,0-.07,0-.08a.42.42,0,0,0,0-.12.51.51,0,0,0,0,.1s0,0,.07,0L30.74,38s0,0-.07,0,0-.14,0-.17,0-.24.08-.32,0-.08.06-.13,0,0,0,0l0,0v0s0-.07,0-.08,0-.12.05-.12.06,0,.06-.1A.35.35,0,0,1,31,36.9a.88.88,0,0,1,.13-.28s.07-.11.08-.18.1-.18.15-.26a.13.13,0,0,1,0-.07.09.09,0,0,0,0,0c0-.15.11-.21.18-.32s.1-.27,0-.34a1.64,1.64,0,0,1-.24-.21s0,0,0-.07a1,1,0,0,1,.12-.53c0-.09.17-.13.28-.19l.64-.26c.12,0,.18-.16.1-.27s0-.33.09-.48l.12-.18a.37.37,0,0,1,.19-.18.23.23,0,0,0,.14-.16.19.19,0,0,1,.07-.06,1.36,1.36,0,0,0,.33-.22,4.63,4.63,0,0,1,.57-.5.82.82,0,0,1,.53-.13.15.15,0,0,1,.13.07.2.2,0,0,0,.23,0,6,6,0,0,0,.64-.19,5.09,5.09,0,0,1,.68-.12c.1,0,.21-.06.34-.06a1,1,0,0,0,.3,0c.1,0,.2,0,.3,0a.73.73,0,0,1,.74.4.59.59,0,0,1,.11.19.45.45,0,0,1,0,.54s-.08,0-.1.06-.24.19-.38.25a.61.61,0,0,1-.53,0s-.07,0-.1,0a5.14,5.14,0,0,0-1,0,1.51,1.51,0,0,0-.3,0,3.88,3.88,0,0,0-.61.11c-.09,0-.12.1-.16.16s-.1.16-.21.19v0c-.06.08-.09.15-.13.21v.09l.06,0a3,3,0,0,1,.34-.06,1.66,1.66,0,0,0,.21-.06.86.86,0,0,1,.48.07c.06,0,.11.09.16.13l.11.12a.14.14,0,0,1,0,0c0,.18.15.27.25.41a.42.42,0,0,1,0,.12,1.09,1.09,0,0,1-.19.41.31.31,0,0,1-.25.13.25.25,0,0,0-.17,0,1.57,1.57,0,0,1-.83,0,1.76,1.76,0,0,1-.33-.07s0,0,0,0-.1,0-.13,0a1,1,0,0,0-.34,0,.71.71,0,0,0-.37.06s0,0,0,.06-.07.07-.1.08-.1.18-.15.26A3.44,3.44,0,0,1,33,36c-.05.08-.09.2-.14.28l-.2.33c0,.06,0,.1-.07.15s-.13.29-.18.42-.08.12-.11.18,0,.09,0,.07.21,0,.29-.09a1.7,1.7,0,0,1,.24-.09.74.74,0,0,0,.29-.12.72.72,0,0,1,.27-.07A.57.57,0,0,0,33.7,37a.86.86,0,0,1,.3-.09,3.53,3.53,0,0,1,.46-.15c.22-.08.44-.1.66-.16s.15-.08.22,0,0,0,0,0,.14,0,.18-.1.15,0,.18.07.12,0,.17-.06a.1.1,0,0,1,0-.07c0-.06.07-.06.12,0s.09.05.13,0,.22-.05.34-.1h.05c.06.06.1.06.13,0h0a1.32,1.32,0,0,1,.28,0c.09,0,.09,0,.07.08s0,0,0,.05l0,0v-.08c.05,0,.12,0,.12-.07s.14-.06.25,0a1.37,1.37,0,0,0,.47.07.23.23,0,0,1,.23.13.23.23,0,0,0,.24.17.51.51,0,0,1,.18.11s0,0,0,0-.08.11-.14.11-.07,0-.11.06-.09.18-.12.26,0,0-.07,0-.12,0-.19,0a.32.32,0,0,1-.18.06,1.64,1.64,0,0,1-.48.07s-.06,0-.06,0-.09.08-.16,0h0a1.74,1.74,0,0,1-.56.17,1.69,1.69,0,0,1-.49.09.48.48,0,0,0-.22.08l-.51.15a1.23,1.23,0,0,1-.29.07.61.61,0,0,0-.12,0c-.06,0-.15,0-.23.07a.3.3,0,0,0-.14.06l-.21.08c-.1,0-.22.07-.32.12l-.18.06a2.34,2.34,0,0,0-.5.25,2.12,2.12,0,0,1-.48.23s-.05,0-.08,0-.07,0-.09,0a.17.17,0,0,1-.22.09h-.07c-.07.1-.2.1-.32.12a1.39,1.39,0,0,1-.41.12l-.57.13A.36.36,0,0,1,30.74,39.32Zm1-1.68,0,0,0,0v0Zm3.31-.36,0-.1s0,0,0,0a.13.13,0,0,0,0,.08Zm.36-.12s0,0,0,0h0v0Zm1.16,0s.08-.06.1-.1,0,0,0,0l-.07,0a.55.55,0,0,0-.1.11s0,0,0,.07h.07ZM37,37c-.05,0-.06-.06-.08-.06a0,0,0,0,0,0,0,.19.19,0,0,0,0,.09A.27.27,0,0,1,37,37Zm.12-.13,0,0-.06,0,.05,0s0,0,0,0S37.09,36.87,37.07,36.86Zm.32,0a.23.23,0,0,0-.1-.07l-.06.05a.41.41,0,0,0,.11.07Zm.2.14a.77.77,0,0,0,.07-.16s0-.06,0-.07-.05,0-.06-.06a.88.88,0,0,0-.06.1.34.34,0,0,0,0,.15.11.11,0,0,0,0,.07A.09.09,0,0,0,37.59,37Zm.28-.76s0,0,0-.07.05,0,.05,0v.05A.08.08,0,0,0,37.87,36.25Z"/><path class="cls-1" d="M37.5,39.92a.86.86,0,0,1-.39-.18L37,39.45a.45.45,0,0,0-.06-.12,1.34,1.34,0,0,1-.17-.27,1.57,1.57,0,0,1-.14-.38.47.47,0,0,1,0-.12,2.06,2.06,0,0,1,.18-.73,1.22,1.22,0,0,1,.1-.24,3.93,3.93,0,0,1,.18-.43,3.27,3.27,0,0,1,.29-.39,4.25,4.25,0,0,0,.32-.46l.24-.36c.11-.13.22-.24.32-.37a1.36,1.36,0,0,1,.22-.33,7.07,7.07,0,0,1,.67-.86l.3-.36a.5.5,0,0,1,.15-.13c.18-.19.35-.39.55-.58a1.21,1.21,0,0,1,.37-.25s0,0,0,0,.17-.16.26-.24a1.13,1.13,0,0,1,.36-.24,1.53,1.53,0,0,0,.41-.27.62.62,0,0,1,.4-.23.28.28,0,0,0,.17-.15.36.36,0,0,1,.14-.11c.14-.06.27-.09.39-.15l.16-.1a1.47,1.47,0,0,1,.57-.22,2.28,2.28,0,0,0,.4-.17s0,0,0-.05h0a2.85,2.85,0,0,0-.39.11.44.44,0,0,1-.22.08l0,0,0,0s0,0,.07-.05l.31-.1c.07,0,.12-.07.19-.06a1.58,1.58,0,0,1,.57-.13s0,0,0,0h0c-.08.05-.08.05,0,.15s0,0,0,0a.2.2,0,0,0-.11.06,1.46,1.46,0,0,0,0,.2s.07-.08.08-.13a1.17,1.17,0,0,0,.08-.13c.12-.08.21-.23.38-.24,0,0,0,0,0,0s.12-.05.17-.1,0,0,0,.06,0,0,0,.06a.1.1,0,0,0,.09,0s.12-.07,0-.14h0l.1,0s0,.05,0,.06a.07.07,0,0,0,.05.07.12.12,0,0,0,.09,0c.07-.1.05-.1.18-.08h0c.06.07.06.07.16.09s.17,0,.18.13A.38.38,0,0,0,46,31s.07-.1,0-.12h0l0,0c.15,0,.2,0,.26.16,0,0,0,0,0,.07s0,0,0,.05a.07.07,0,0,0,0,0s0,.06,0,.06h0l.12-.05a.17.17,0,0,0,.1,0s0,.09,0,.12,0,.05,0,.08a.34.34,0,0,0,0,.14s.12,0,.14-.07.07-.09.2,0h0s-.05.06,0,.1l.06,0s0,0,0,.06h-.08a.32.32,0,0,0,0,.14s0,0,.05,0,0,0,0,.05A.39.39,0,0,0,47,32a.2.2,0,0,1,0,.2c0,.07,0,.15-.06.23s0,.07.05.11a.19.19,0,0,1,0,.08c-.11.1-.06.27-.2.33l0,0a.29.29,0,0,1-.08.28,1,1,0,0,1-.23.31,1,1,0,0,1-.22.23c-.11.2-.32.3-.41.5a1,1,0,0,1-.26.36,1,1,0,0,1-.23.18c-.07,0-.12.11-.16.19a1.78,1.78,0,0,1-.38.34s0,0-.07,0-.13,0-.14.12a.13.13,0,0,1-.12.09.36.36,0,0,0-.17.11,2.35,2.35,0,0,1-.58.41s-.05,0-.09,0l0,0c0,.08-.09.09-.16.11s-.06,0-.06,0-.08.13-.11.16a.36.36,0,0,0-.17.13s0,0,0,0-.19.14-.31.19a1.4,1.4,0,0,0-.32.22c-.16.13-.15.16,0,.24l.33.13.2,0c.05,0,.11,0,.13.07s0,0,0,0,.22,0,.3,0l.28.07s.07,0,.12,0a.06.06,0,0,1,.06.07v.07A.19.19,0,0,1,44,38a1.1,1.1,0,0,0,.26.15h.45l0,0s0,0,0,0a.12.12,0,0,1-.12-.07h-.08c-.05,0-.1.05-.13,0s0,0,0,0a.19.19,0,0,1,0,.07c0,.06,0,.06-.06.06a.52.52,0,0,1-.15-.07.35.35,0,0,1-.06-.14s.06,0,.1-.06a.28.28,0,0,1,.2,0,.3.3,0,0,0,.27.07c.06,0,.13,0,.2,0,.26.06.53.14.76.21l.36.15a1.43,1.43,0,0,1,.33.1s0,0,0,0,0,.05,0,.07h0v-.1c.09,0,.15,0,.2.11a.6.6,0,0,0,.16.19.27.27,0,0,0,.17,0,.1.1,0,0,1,.11.07s0,.08-.05.13,0,0,0,.07h.07l.1,0s-.05.05-.09.05-.08,0,0,.15,0,.08,0,.1-.11.16-.14.24,0,.1.09.12a.11.11,0,0,0,.08,0s0,0,0,0h0l-.4,0c0-.12-.16-.09-.24-.13l-.07,0c-.05,0-.11,0-.13,0a.09.09,0,0,1-.06.1l-.18,0a.25.25,0,0,1-.12,0h0c-.11-.15-.18-.15-.35-.08a.13.13,0,0,1-.12,0,1.44,1.44,0,0,0-.68-.15h0s0,0,0-.06,0,0,0,0h-.05l-.08,0c-.06,0,0,.08-.06.08l-.25-.08s0-.05,0-.07,0,0,0-.05l-.07,0c0,.13-.1.09-.17.08l-.15-.06c-.05,0-.08,0-.06-.07l0,0s0,0,0,0,0,.06-.07,0a.31.31,0,0,0-.26,0,1,1,0,0,1-.29,0s-.05,0-.07,0a1.58,1.58,0,0,1-.75-.12l-.23,0c-.3,0-.6-.08-.88-.1-.12,0-.24,0-.35-.07H40.5l-.19,0a4.25,4.25,0,0,1-.6-.12.06.06,0,0,1-.05,0s-.06,0-.09,0-.2-.06-.17-.17,0-.17-.09-.21l-.26-.13s0-.05,0-.06.05,0,.05-.07a2,2,0,0,1-.1-.44c0-.08.06-.18.15-.21s.13,0,.1-.18,0-.12.11-.15a3.43,3.43,0,0,0,.42-.08s0,0,.06,0,.07-.06.12-.06,0,0,0,0,0,0,0,.07h0s0,0,0,0,0,0,0-.05a.16.16,0,0,1,.08-.08l0,0s0,0,0,0a.37.37,0,0,0,.11,0,.08.08,0,0,0,0-.12c-.06-.07,0-.11,0-.13s.21-.11.34,0a.11.11,0,0,0,.08,0s0,0,.07-.08-.05,0-.08,0h0s0,0,0-.07a0,0,0,0,0,0,0,3,3,0,0,1,.31-.22c.05-.05.11-.06.15,0s.07,0,.05,0,0-.07.09,0h.08s0,0,0,0,0-.17-.15-.14,0,0,0,0a0,0,0,0,1,0,0,.26.26,0,0,0,.16-.11.26.26,0,0,1,.17-.11.27.27,0,0,0,.2-.11s.15,0,.07-.1h0c.1,0,.14-.06.19-.12s.14-.1.19-.15a.16.16,0,0,1,.19,0h.1a.13.13,0,0,0,.14-.12c0-.08.05-.13.13-.11s.07,0,.07,0,.08-.18.15-.24,0-.05.07-.05.19-.14.27-.21a2.65,2.65,0,0,0,.3-.25.2.2,0,0,1,.17,0s.06,0,.06,0a.09.09,0,0,0,0-.1.07.07,0,0,0,0-.05c.11,0,.13-.13.22-.2s.1,0,.12,0,0-.08,0-.13,0,0,0,0c.17,0,.2-.22.34-.32s0-.06.07-.06l.08.05h.07s0-.05,0-.05,0-.07,0-.08a.23.23,0,0,1,.09-.12A.28.28,0,0,0,45,33s0-.05.05-.05a.27.27,0,0,1,.12-.06c0-.07,0-.09,0-.14s0-.08.07-.13,0-.08.07-.13v0s0-.06-.05,0l-.35.06-.37.05a.29.29,0,0,0-.17.06.15.15,0,0,1-.11.06c-.15,0-.27.12-.4.14a2.22,2.22,0,0,0-.31.13.54.54,0,0,0-.33.16h0a3.67,3.67,0,0,0-.9.58s0,0,0,0a5.25,5.25,0,0,0-1,.84l-.31.29c-.18.17-.34.36-.5.54l-.42.5-.26.36a2.85,2.85,0,0,1-.34.49,1,1,0,0,0-.18.29c-.09.14-.16.27-.25.4s-.11.13-.16.19a.1.1,0,0,0,0,.07s0,.13,0,.15a.31.31,0,0,0-.08.11,1.38,1.38,0,0,1-.08.17,1.78,1.78,0,0,0-.12.29,1,1,0,0,0,0,.39c0,.15,0,.29,0,.42a.29.29,0,0,1-.08.21.48.48,0,0,0,0,.14.58.58,0,0,1-.44.38.31.31,0,0,1-.13,0A.47.47,0,0,1,37.5,39.92Zm2.69-6.81a.34.34,0,0,1,.12-.12h0s0,0,0,0-.07.06-.12.09Zm.68,5.61s0,0,0-.06a.13.13,0,0,1,0,.07s0,0,0,0S40.84,38.73,40.87,38.72Zm0-2.32s0,0,0,0,0,0,0,0h0s0,0,0,0,0,.05,0,.06a0,0,0,0,1,0,0S40.88,36.42,40.88,36.4Zm.39-.15s0,0,0,0a.07.07,0,0,0-.05,0h.08Zm.31-.24,0,0s0,0,0,0a0,0,0,0,0,0,0S41.55,36,41.58,36Zm0,.61v0s0,0,0,0v0S41.62,36.65,41.62,36.62Zm.86-5v0h0a.59.59,0,0,1,.16-.06h0l-.15.1Zm0,3.52s0,0,0,0,0,0,0,0l0,0A.06.06,0,0,1,42.52,35.09Zm.21-3.65s0,0,0,0a.13.13,0,0,0,.08,0s0,0,0,0l-.09.05S42.75,31.45,42.73,31.44ZM43,36.59s0,0,0,0l-.14.08,0,0A.45.45,0,0,1,43,36.59Zm.45,1.82s0,0,0,0h-.1l0,0h.1Zm.07.39s0,0,0,0l0,0a.07.07,0,0,0,0,0Zm.28-.2-.07,0-.05,0a0,0,0,0,0,0,0S43.74,38.61,43.78,38.6Zm.09-.24s0-.06,0-.1l0,0s0,.05-.07.06a.11.11,0,0,0,0,.07Zm0,.07s0,0-.07,0v0s0,0,0,0Zm.22-.11,0,0h0s0,0,0,.07S44.11,38.32,44.09,38.32Zm.07-7.25s0-.06,0-.06l0,0s0,0,0,0A.08.08,0,0,1,44.16,31.07Zm.31,7.27,0,0h0s0,0,0,0S44.44,38.35,44.47,38.34Zm.41.28c0-.06,0,0-.08,0s-.13,0-.11-.09,0-.07-.08-.07-.06,0-.06.05.11.17.23.23A.08.08,0,0,0,44.88,38.62Zm0,.24s0,0,0-.12,0,.06,0,.1a0,0,0,0,0,0,0Zm0-6.62v0h0v0S44.92,32.23,44.93,32.24Zm.27,1.25v-.07h0a.07.07,0,0,0,0,0v.05S45.2,33.5,45.2,33.49Zm.12.3,0,0h0s0,0,.07,0Zm0,5.2h0v0Zm.16-6.73a.18.18,0,0,1-.06-.07s-.06,0-.07,0a0,0,0,0,0,0,0Zm0,6.65,0,0s0,0,0-.05,0,0,0-.07l0,.05v.07h-.07v0Zm.2-.34a.07.07,0,0,1,0,0s0,0,0,0,0,0,0,.05A.17.17,0,0,0,45.66,38.57Zm0,.2a.18.18,0,0,1,.19-.11H46s0,0,0,0,0,0-.08,0-.22.07-.29.17,0,0,0,0Zm.11.68h-.05a.1.1,0,0,1,0,0S45.79,39.46,45.81,39.45Zm.21,0,.06-.07,0,0H46l0,0s0,0,0,0,0,0,0,0A.15.15,0,0,1,46,39.46Zm0-1,0,0s0,0-.07,0,0,0,0,0A.14.14,0,0,0,46,38.48Zm.06.52s0,0,0,0,.07-.09.12-.08h.07a.09.09,0,0,1,0-.07s0,0,0-.05,0-.1-.05,0a.11.11,0,0,1-.11,0,.12.12,0,0,0-.08,0c-.07,0,0,.12,0,.17s0,.05,0,.08S46,39,46.06,39Zm.14-.54a.1.1,0,0,1-.05,0v0s0,0,0,0S46.18,38.45,46.2,38.46Zm.21.17s0-.05-.07-.05l-.07.05,0,0Zm.12-7.46s0,0,0,0,0,0,0,0h-.05Zm.07.8a.1.1,0,0,0,0,0l-.05,0s0,0,0,0S46.6,32,46.6,32Zm.18-.67h0c0,.07,0,.07-.06.07h0A.1.1,0,0,1,46.78,31.3Z"/><path class="cls-1" d="M49.18,41.47s0,0,0-.06a.24.24,0,0,1-.23-.25s0,0,0,0,.12-.13.12-.21v-.15s-.12,0-.14.08-.07.09-.1.16,0,0-.06,0,0,0-.06,0a.2.2,0,0,1,0-.11.23.23,0,0,0,0-.21.26.26,0,0,1,.07-.23,1.83,1.83,0,0,1,.25-.35.13.13,0,0,0,0-.08c-.1-.07,0-.15,0-.22s.13-.24.18-.37a5.93,5.93,0,0,1,.29-.56l.11-.22a.79.79,0,0,0,.09-.23l.3-.61s.07-.06.1-.11l0,0c-.05-.08,0-.13.06-.2a2,2,0,0,1,.12-.19,3.39,3.39,0,0,0,.29-.53c.06-.16.21-.27.22-.46l0,0,.08-.11c0-.13.07-.27.13-.42a.32.32,0,0,0,0-.08l0,0c-.19.11-.4.22-.59.35l-.34.19a.15.15,0,0,0-.09,0,.31.31,0,0,0-.2.11s-.14.06-.21.09a2,2,0,0,1-.59.11l-.27,0a2.84,2.84,0,0,1-.42.09s-.07,0-.07,0-.29-.15-.35-.32-.1-.1-.13-.14a.35.35,0,0,1-.16-.29.19.19,0,0,0,0-.1.94.94,0,0,1-.15-.76,2,2,0,0,1,.06-.34,2.36,2.36,0,0,1,.31-.69.35.35,0,0,0,.1-.23,1.28,1.28,0,0,1,.14-.21.82.82,0,0,1,.16-.25.55.55,0,0,0,.19-.21,1.49,1.49,0,0,1,.37-.42s0,.09.06.11l0,0-.06-.05h0l.11-.1s0-.05.06,0H49a.06.06,0,0,0,0-.1c-.07,0,0,0,0-.07s.26-.16.42-.08l.08,0a.43.43,0,0,1,.35.21,1.48,1.48,0,0,0,.27.4c.11.09.09.19.09.3s-.1.35-.19.5a1.7,1.7,0,0,1-.19.18,3,3,0,0,0-.42.46c-.11.08-.15.22-.23.31s0,0,0,.07,0,0,.07,0l.2,0,.19-.09.19-.06.2-.08c.07,0,.17,0,.16-.07s0,0,0-.05a2.61,2.61,0,0,1,.37-.19h.06c.05-.1.15-.13.22-.2l.12-.08s.12,0,.14-.07c.21-.18.45-.32.67-.48a2,2,0,0,1,.21-.18c.29-.17.54-.43.83-.62a3,3,0,0,1,.31-.22,1.06,1.06,0,0,0,.25-.33c.14-.21.27-.44.44-.65a1.36,1.36,0,0,0,.22-.33,2.37,2.37,0,0,1,.35-.52c.11-.08.19-.18.3-.26a.93.93,0,0,1,.2-.09s0,0,0,0,.09-.14.15-.08.1,0,.17.05,0,0,.07,0,.06,0,.13.05a.11.11,0,0,0,.06,0c.1,0,.13.07.17.12s.12.16.14.26,0,.05.08.07A.23.23,0,0,1,56,31a.58.58,0,0,0-.06.32.4.4,0,0,1-.08.22c-.12.17-.28.34-.4.52s-.22.29-.32.44-.2.34-.36.5a1.46,1.46,0,0,0-.23.34,1.31,1.31,0,0,1-.25.33s0,0,0,.05a.43.43,0,0,1-.14.23l-.12.14a.1.1,0,0,1,0,.07,9.3,9.3,0,0,1-.59.9,5.14,5.14,0,0,0-.37.54.2.2,0,0,1-.07.1c-.09,0-.09.09-.13.16a2.2,2.2,0,0,1-.28.44,1,1,0,0,0-.11.2.62.62,0,0,1-.11.19c0,.09-.16.13-.11.27a.15.15,0,0,1,0,.12c-.09.06-.12.14-.21.2s-.07.12-.11.18-.05.12-.09.15-.11.23-.18.33,0,.14-.07.17-.07.09-.09.16l-.05.06a.47.47,0,0,1-.08.29c0,.06-.09.09-.12.14s0,.1-.11.13,0,0,0,.1a.1.1,0,0,1,0,.15s-.05,0-.05,0,0,.13-.11.11,0,.07,0,.08,0,.07,0,.11a.49.49,0,0,1-.18.22s0,0,0,.07,0,.1,0,.15a2.74,2.74,0,0,1-.15.38c0,.08-.06.2-.14.25s0,0,0,.05,0,.1-.09.1-.14,0-.2,0a0,0,0,0,0,0,0h0c.09.06.09.06.07.15s0,.07,0,.11a.2.2,0,0,1,0,.08l-.07,0c-.05,0-.1,0-.13,0s0,.09,0,.1a.53.53,0,0,0,.12,0s0,0,.05,0h0s0,0,0,.05a2.62,2.62,0,0,1-.17.21.15.15,0,0,1-.17,0c-.07,0-.13,0-.17.06s-.14.08-.14.16-.07,0-.09,0S49.17,41.52,49.18,41.47Zm.51-.31a.55.55,0,0,0,.08-.15s0-.07,0-.07l-.08,0c0,.06,0,.13,0,.18s0,0,0,0S49.69,41.17,49.69,41.16Zm.13-1.09L49.69,40l0,0,.05,0a.18.18,0,0,0,.1,0Zm0-.23s0,0,0,0a.24.24,0,0,0-.09.08v0A.49.49,0,0,1,49.84,39.84Zm0-.13s0,0,0,0-.05,0-.07.05h0A.17.17,0,0,0,49.88,39.71Zm.17.87s0-.08,0-.1l.09-.06,0,0-.12,0,0,0c0,.07,0,.05,0,.07s0,.05,0,.05l0,0A.13.13,0,0,0,50.05,40.58Zm0-1.32,0-.08s0,0,0,0a0,0,0,0,0,0,0s0,.05,0,.08,0,0,0,0S50.07,39.28,50.07,39.26Zm.35-.76.1-.18s0,0,0,0a.91.91,0,0,1-.13.16s0,0,0,0h.05Zm.31-.65s0,0,0,0l0,.06,0,0A.55.55,0,0,1,50.73,37.85Zm.25-.46s0,0,0,0l0,0a.07.07,0,0,1,0,.05Zm.13-.33s0,0,0,0v.05Zm.23-.36c0-.05.06-.1.09-.14l0-.08h0s0,0,0,0h0a1.53,1.53,0,0,0-.17.27.16.16,0,0,0,0,.06S51.34,36.71,51.34,36.7Zm.38-.73s0-.06,0-.1.06.05.06,0,0,0,0,0l-.06,0h0a.55.55,0,0,1-.06.08v0S51.72,36,51.72,36Zm.16-.24a.35.35,0,0,0,0-.07A.13.13,0,0,0,52,35.6v0s0,0,0,0,0,0,0,.06a.11.11,0,0,0-.07,0l0,0s0,0,0,.06Zm.78-1.38v0s0,0,0,0a.43.43,0,0,1,0,0Z"/><path class="cls-1" d="M25.62,54.6c0-.14-.11-.16-.23-.14a.21.21,0,0,1-.13,0c-.05,0-.11-.07-.16-.12a.18.18,0,0,1-.11-.17.63.63,0,0,0-.16-.24.84.84,0,0,0-.15-.18.22.22,0,0,1,0-.11.18.18,0,0,0-.06-.19c0-.09,0-.1,0-.17s.09-.08,0-.17,0-.06-.05-.11.06-.17,0-.27a0,0,0,0,1,0,0,1.48,1.48,0,0,0,.29-.52c.09-.23.17-.47.26-.71s.28-.73.43-1.08.29-.59.44-.88.21-.41.34-.61.25-.48.38-.69.27-.46.41-.69v-.07h-.07c-.12.09-.2,0-.34,0a1.53,1.53,0,0,1-.51-.5c-.07-.11-.15-.18-.21-.26a.39.39,0,0,1,0-.39.62.62,0,0,0,.09-.28s.05,0,.05,0,.14,0,.14-.1.07-.06.13-.06a.21.21,0,0,0,.16,0c.18,0,.34-.1.52-.15l.17,0c.07,0,.12-.07.19-.08s.17,0,.22,0,.35,0,.49-.06a3.19,3.19,0,0,0,.54,0,3.46,3.46,0,0,1,.72-.09l.9,0a4.38,4.38,0,0,1,.52,0,2,2,0,0,1,.73.16.48.48,0,0,0,.18.06,2.26,2.26,0,0,1,.48.35.61.61,0,0,1,.25.36,1.12,1.12,0,0,0,.13.24,1.62,1.62,0,0,1,.17.78,2.06,2.06,0,0,1-.15.72,4.21,4.21,0,0,1-.35.75,3.61,3.61,0,0,1-.46.69.14.14,0,0,0-.05.1,1.87,1.87,0,0,1-.38.47,1.09,1.09,0,0,1-.19.18c-.06,0-.13.07-.12.16s0,.08-.07.11a.86.86,0,0,1-.18.2c-.12.08-.21.21-.33.3l-.29.29-.42.39-.51.48a.55.55,0,0,1-.17.13,1.07,1.07,0,0,0-.26.26.36.36,0,0,1-.23.16s-.06,0-.05.06,0,.07,0,.07-.13.11-.23.12-.1.1-.15.15a.19.19,0,0,1-.09.11s-.05.07-.07,0a0,0,0,0,0,0,0s0,0,0,0-.12.15-.1.23h0c-.07,0-.17,0-.19.12s0,0,0,0-.16.21-.31.22,0,.08-.1.11l-.28.19c-.07,0-.13.07-.14.13s0,0,0,0a1,1,0,0,0-.29.1c-.07,0-.12.13-.24.11a.1.1,0,0,0-.12.09c0,.05,0,0-.07,0l-.1-.06h-.1s-.07,0-.1.08S25.64,54.67,25.62,54.6Zm.38-.24s0,0,0,0,0,0,0,0a.13.13,0,0,0,0,0S26,54.38,26,54.36Zm.17-1.67-.05,0a0,0,0,0,0,0,0s0,0,0,.05Zm.27-.07s.07,0,.08,0,.25-.17.35-.3a2.73,2.73,0,0,1,.37-.32l.38-.32c.17-.21.42-.37.62-.58s.23-.23.37-.36.28-.29.42-.43a2.22,2.22,0,0,0,.4-.41c0-.06.14-.11.19-.17s.2-.22.28-.35a1.89,1.89,0,0,0,.34-.4h0c.07,0,.07,0,.09,0a.18.18,0,0,1,0-.11,1.92,1.92,0,0,1,.14-.15c.09-.16.16-.33.25-.47a4.43,4.43,0,0,0,.48-.81A.25.25,0,0,0,31.1,47H31c-.1,0-.22,0-.31,0h-.06a1.69,1.69,0,0,1-.38.07,4,4,0,0,0-.56.11s-.05,0-.07,0-.28.24-.42.38a3.41,3.41,0,0,0-.49.59l-.35.5c-.15.22-.29.41-.42.62a3.25,3.25,0,0,1-.37.59.49.49,0,0,0-.09.22c0,.1-.1.21-.15.31a3.28,3.28,0,0,1-.2.31c-.05.13-.09.27-.15.4s-.18.39-.24.59a.07.07,0,0,1,0,.07c-.05,0-.05.1-.07.15a.38.38,0,0,1-.08.24c-.16.13-.11.3-.22.4s0,.08,0,.08S26.4,52.63,26.44,52.62Z"/><path class="cls-1" d="M36.47,54.2s0-.06,0-.06-.05,0-.08,0h-.12v-.05a.89.89,0,0,1,0-.14v0l0,0a.07.07,0,0,0,0,0s0,0,0,0,0,0-.06,0v0a0,0,0,0,0,0,0V53.8a.09.09,0,0,0,0,.07h0a.19.19,0,0,0,0-.08h-.06s0,0,0,0a.07.07,0,0,1,0-.05.23.23,0,0,0-.08-.18h0s0,0,.07,0,0-.09,0-.11,0,0,0,0,0,0,0,0a0,0,0,0,0,0,0s0-.1,0-.14l-.05,0s0-.05,0,0l-.1,0s-.07,0-.07,0,0,0,0,0h0v0a.51.51,0,0,0,.09-.13s0-.07,0-.07,0,0,0-.06a.24.24,0,0,0,.15-.16c0-.05.07-.1.1-.13a.08.08,0,0,0,0-.07l-.07,0-.11-.09s0-.1,0-.13a1.4,1.4,0,0,0,.06-.24s0-.06,0-.1v0a2.5,2.5,0,0,1,.09-.25v0a.12.12,0,0,0,0-.05s0,0,0,0-.05-.08,0-.12,0,0,0,0h-.12c-.2,0-.42,0-.64.06l-.3,0a.4.4,0,0,1-.15,0c-.18,0-.34,0-.52.06a.31.31,0,0,0-.23.16c0,.07-.07.12-.12.18a2.75,2.75,0,0,1-.23.33,2.26,2.26,0,0,1-.25.29c0,.08-.1.15-.14.23s-.09.11-.13.18l-.12.2s0,0-.07,0l-.22.14h0s0,0,0,0a0,0,0,0,0,0,0l-.3.07a.23.23,0,0,1-.22,0h0a.41.41,0,0,1-.28-.21,2.28,2.28,0,0,1-.21-.3.53.53,0,0,1,0-.17s0-.08,0-.08-.09-.09-.07-.15v-.21a.05.05,0,0,1,0-.05c.07-.06.09-.18.14-.26s.14-.16.21-.24.11-.08.18-.15a1,1,0,0,1,.07-.18h0a.22.22,0,0,0,.07-.07l.14-.14a.07.07,0,0,1,0,0,1.27,1.27,0,0,1,.14-.17,2.83,2.83,0,0,0,.23-.28.44.44,0,0,0,.09-.18l.07-.08s.14-.08.13-.18,0-.07.07-.07.15-.14.21-.22a1.51,1.51,0,0,0,.17-.2l.09-.13a1.88,1.88,0,0,0,.18-.24,1.4,1.4,0,0,1,.12-.18c.06-.08.11-.17.16-.23a3.46,3.46,0,0,0,.22-.31,1.91,1.91,0,0,1,.14-.21s0-.12.09-.17a0,0,0,0,0,0,0,2.44,2.44,0,0,1,.16-.23,1.91,1.91,0,0,0,.14-.21.06.06,0,0,1,0,0s.08,0,0,0,0,0,0-.06,0-.07,0-.08a1.26,1.26,0,0,1,.11-.17l0,0h0c0-.08,0-.1.08-.13s.06,0,.05-.06,0-.07.08-.08l.29-.29.27-.28a.12.12,0,0,0,.09,0,.2.2,0,0,1,.15-.11v-.07s0,0,.06,0,0,0,.06-.06,0,0,.07-.07v0s0,0,0,0a.81.81,0,0,1,.06-.13.14.14,0,0,1,0-.1l0,0,.05,0c0-.08,0-.07.07-.05l.14,0h0c0-.06,0,0,.07-.08s0,0,0,0h0s0,0,0,0,.07-.08.14,0l0,0h.1a1.38,1.38,0,0,0,.17.08s.08,0,.13,0,0,0,0,0a0,0,0,0,0,0,0c0-.06.12,0,.19-.06s.06,0,.06.07a.2.2,0,0,0,.08.17s0,0,0,0,.09.12.14.19H38s.1.16.08.21l0,0h0s0,0,0,0a.13.13,0,0,1,.13.14s0,.07,0,0h0c0,.07.1.11.06.19v0c-.1,0,0,0,0,0s.06.1.07.16a1.56,1.56,0,0,1,0,.35s0,.1,0,.13v0c.07.08,0,.18,0,.28s0,.07,0,.12a.42.42,0,0,1,0,.15s0,0,0,.07,0,0,0,0,0,0,0,.07,0,0,0,0,0,.09,0,.13,0,0-.07.05,0,0,0,0,0,.06,0,.07,0,.1,0,.12,0,.18-.07.25,0,.08,0,.11a.1.1,0,0,0,0,0c0,.07,0,.15,0,.23s0,.09.07.07h0a.39.39,0,0,0,.15,0,2.14,2.14,0,0,1,.44,0c.07,0,.11.07.16.11l.1.09a.27.27,0,0,1,.13.19.86.86,0,0,1,.05.23l0,0c.11,0,.14.11.1.24a.94.94,0,0,1,0,.16l0,0s0,.09,0,.1,0,0-.07.08a.42.42,0,0,0-.14.18c0,.09-.19.13-.27.11h0l-.46.08a.34.34,0,0,0-.11,0H38a.9.9,0,0,0-.25,0l0,0c0,.07,0,.12,0,.18s0,0,0,0a.14.14,0,0,0,0,0,.65.65,0,0,1,0,.21.33.33,0,0,1,0,.15,1,1,0,0,1,0,.24v0h-.07s0,0,0,0,0,0,0,.08-.07.11-.05.2,0,.07,0,0-.06,0,0,0,0,.07,0,.07v0s0,0,0,.07,0,0,0,.08a.54.54,0,0,0,0,.31h0s-.05,0-.07,0,0,0,0,0h0a.13.13,0,0,1,0,.07.12.12,0,0,1,0,0h0s0,0-.05,0h0s0,0,0,.06,0,0,.07,0,.08,0,0,.14h0a.1.1,0,0,1,0,.07s0,0,0-.05h0s0,0,0,.05a0,0,0,0,1,0,0h0a.06.06,0,0,1,0,0S37.05,54,37,54l-.06,0a.1.1,0,0,0-.12,0s0,0-.09,0a.05.05,0,0,0,0,0s-.05.07-.08,0,0,0,0,0,0,.07-.07.08l0,0S36.47,54.22,36.47,54.2Zm-1-4.15.31,0a3.29,3.29,0,0,1,.47-.08s.08,0,.13,0h0s.07-.06.07-.09a1,1,0,0,1,.08-.25.83.83,0,0,1,.06-.32c0-.13.08-.26.1-.41a1.19,1.19,0,0,0,.08-.34,1.45,1.45,0,0,0,0-.25s0,0,0,0a2.23,2.23,0,0,1-.21.22l-.13.2s0,0,0,0,0,0,0,0l0,0a.57.57,0,0,1-.11.14c-.06,0,0,.14-.14.17a.13.13,0,0,1,0,.08,2.93,2.93,0,0,1-.19.26.9.9,0,0,1-.25.33l0,0-.16.26,0,0s0,0,.06,0S35.41,50.07,35.42,50.05Zm.28,2.83a.13.13,0,0,1,0-.1h0s0,0,0,0,0,.05,0,.09h0A.07.07,0,0,1,35.7,52.88Zm.07.81s0,0,0,0,0,0,.08.05l-.07.08A.64.64,0,0,1,35.77,53.69Zm.63-7.15s0,0,0,0a.06.06,0,0,0-.05,0s0,0,0,.05S36.37,46.57,36.4,46.54Zm.12-.21,0,0-.07,0s0,0,0,0A.33.33,0,0,0,36.52,46.33Zm.56,1.31a1.29,1.29,0,0,0,0-.25c0-.07,0-.14,0-.19h0s0,0-.07,0,0,0-.06,0-.09,0-.06.06v0s-.07,0-.07,0,0,.09,0,.09,0,0,0,.08v0h0a.06.06,0,0,1,.05,0v0s0,.07,0,.08,0,0,0,0h.1l.06,0a0,0,0,0,0,0,0l0,0c0,.09-.07,0-.09,0h0s0,0,0,0,0-.07.07,0,0,0,0,0h.08a1.39,1.39,0,0,1,0,.15v.07s0,0,0,.05S37.08,47.66,37.08,47.64Zm0,5.11.07,0,0,0,0,0h0c0,.05,0,.05-.05.05a.06.06,0,0,0,0,0s0,0,0,0S37.11,52.77,37.11,52.75Zm.14-.23c0-.08-.1,0-.15,0l0,0s.1,0,.13.06S37.24,52.56,37.25,52.52Zm-.08.45s0,0,0,0h0s0,0,.07,0h.06l0,0s0,0,0,0a.12.12,0,0,1-.13-.14s.09,0,.1,0,0,0,0-.08a0,0,0,0,0,0,0,0,0,0,0,1,0,0c-.06,0-.06,0,0,.06l0,0s0,0,0,.06V53a.14.14,0,0,1,.07,0h0Z"/><path class="cls-1" d="M41.65,56.32s0,0,0-.07a.22.22,0,0,1-.22-.24s0,0,0,0,.12-.13.12-.22v-.15s-.12,0-.14.08-.07.1-.1.17,0,0-.06,0-.05,0-.06-.05a.12.12,0,0,1,0-.1.24.24,0,0,0,0-.22.31.31,0,0,1,.08-.23,1.76,1.76,0,0,1,.25-.34.15.15,0,0,0,0-.08c-.1-.07,0-.15,0-.22s.12-.25.18-.38.18-.38.29-.56a2,2,0,0,0,.11-.21.92.92,0,0,0,.09-.23c.09-.22.2-.41.29-.61l.11-.11,0,0c-.05-.09,0-.13,0-.2l.13-.2a3.29,3.29,0,0,0,.29-.52c.06-.17.21-.28.22-.46,0,0,0,0,0,0a.47.47,0,0,0,.07-.12c.06-.13.08-.26.14-.41a.13.13,0,0,0,0-.08l0,0-.58.34-.34.19h-.09a.37.37,0,0,0-.2.11c0,.05-.14.07-.21.1a3.06,3.06,0,0,1-.59.11l-.27,0c-.13,0-.29.05-.42.08s-.07,0-.07,0-.29-.14-.35-.31a.45.45,0,0,0-.13-.14.36.36,0,0,1-.16-.29.23.23,0,0,0,0-.11.93.93,0,0,1-.15-.76,2.1,2.1,0,0,1,.06-.33,2.36,2.36,0,0,1,.31-.69.37.37,0,0,0,.1-.23c0-.09.09-.13.14-.22a.91.91,0,0,1,.16-.24.63.63,0,0,0,.19-.21,1.49,1.49,0,0,1,.37-.42s0,.08.06.1l0,0s0,0-.06-.05h0l.1-.09s0,0,.07,0h.05s0-.06,0-.1,0-.05,0-.06.25-.16.42-.09a.13.13,0,0,0,.08,0,.44.44,0,0,1,.35.22,1.59,1.59,0,0,0,.27.39c.11.09.09.19.08.31s-.09.35-.18.49a.82.82,0,0,1-.19.18,3.08,3.08,0,0,0-.42.47c-.11.08-.15.21-.24.31s0,0,0,.07h.07l.2,0,.19-.1.19-.06.2-.07c.07,0,.17,0,.16-.08s0,0,0,0a3.14,3.14,0,0,1,.37-.18s0,0,.06,0,.15-.13.22-.19a.42.42,0,0,1,.12-.08s.12-.05.14-.08c.21-.18.45-.32.67-.48s.12-.13.21-.17c.29-.18.54-.43.83-.62l.31-.23a1.19,1.19,0,0,0,.25-.32c.14-.21.27-.44.44-.66a2,2,0,0,0,.22-.32,2.37,2.37,0,0,1,.35-.52c.11-.08.19-.18.3-.26a.61.61,0,0,1,.2-.09s0,0,0,0,.09-.13.15-.08.1,0,.17.06,0,0,.07,0,.06,0,.13.06l.06,0c.1,0,.13.08.16.13a.79.79,0,0,1,.15.25s0,.06.08.07a.26.26,0,0,1,.07.31.44.44,0,0,0-.06.32.46.46,0,0,1-.08.21c-.12.18-.28.34-.41.52l-.31.44c-.13.15-.2.35-.36.51a1,1,0,0,0-.23.34,1.51,1.51,0,0,1-.25.33s0,0,0,.05a.37.37,0,0,1-.14.22.79.79,0,0,0-.12.15.1.1,0,0,1,0,.07,9.3,9.3,0,0,1-.59.9c-.14.16-.25.35-.38.53s0,.09-.07.1-.08.1-.12.17a2.2,2.2,0,0,1-.28.44.93.93,0,0,0-.11.19.66.66,0,0,1-.11.2c0,.08-.16.13-.11.26a.15.15,0,0,1,0,.12c-.09.06-.12.15-.21.21s-.07.11-.11.18-.05.12-.09.15-.11.23-.18.33,0,.13-.07.16-.07.1-.09.16-.05,0-.05.07a.49.49,0,0,1-.08.28c0,.07-.09.1-.13.15s0,.1-.1.13,0,.05,0,.1a.1.1,0,0,1,0,.15s0,0,0,.05,0,.13-.11.11,0,.07,0,.08,0,.07,0,.1-.08.17-.18.23,0,0,0,.07,0,.1,0,.15-.1.26-.15.38-.06.2-.14.24a.06.06,0,0,0,0,0c0,.07,0,.1-.09.1a.66.66,0,0,0-.2.06,0,0,0,0,0,0,0h0c.1.05.1.05.08.15s0,.07,0,.1,0,.07,0,.08-.05,0-.07,0-.1,0-.13,0,0,.08,0,.1.08,0,.12,0,0,0,.05,0h0s0,0,0,0a1.73,1.73,0,0,1-.17.21.17.17,0,0,1-.17,0c-.07,0-.13,0-.17.06s-.14.08-.14.16-.07,0-.09,0S41.64,56.37,41.65,56.32Zm.51-.32a.31.31,0,0,0,.07-.14s0-.07,0-.07h-.08c0,.07,0,.14,0,.18s0,0,0,0S42.16,56,42.16,56Zm.13-1.08-.13-.07h0l.05,0a.18.18,0,0,0,.1,0Zm0-.24s0,0-.05,0a.15.15,0,0,0-.08.08h0A1.05,1.05,0,0,1,42.31,54.68Zm0-.13s0,0,0,0,0,0-.07,0a0,0,0,0,1,0,0Zm.17.88s0-.08-.05-.1l.09-.07h0a.42.42,0,0,0-.12,0l0,0c0,.07,0,.05,0,.06s0,0,0,0,0,0,0,0Zm0-1.32s0,0,.05-.08,0,0,0,0a0,0,0,0,0,0,0s0,.05,0,.08a.06.06,0,0,0,0,0Zm.35-.76a1.45,1.45,0,0,1,.1-.18s0,0,0,0a.65.65,0,0,1-.13.16s0,0,0,0v0Zm.31-.66s0,0,0,0l0,.07,0,0Zm.25-.46,0,0h0a.09.09,0,0,1,0,0Zm.13-.33a0,0,0,0,0,0,0v0h0S43.58,51.92,43.58,51.9Zm.23-.36s.06-.1.09-.13a.35.35,0,0,1,.05-.08s0,0,0,0,0,0,0,0a0,0,0,0,0,0,0,2.09,2.09,0,0,0-.17.28s0,.05,0,.05S43.81,51.56,43.81,51.54Zm.38-.72a.31.31,0,0,1,0-.1s.06.05.06,0,0,0,0,0,0,0,0,0h0l-.06.08v.05Zm.16-.25v-.06a.13.13,0,0,0,.06-.07v0l0,0s0,0,0,.07,0,0-.07,0,0,0,0,0a.2.2,0,0,1,0,0Zm.78-1.37v0l-.05,0a.43.43,0,0,0,0,.05Z"/><path class="cls-1" d="M1.45,26a44.23,44.23,0,0,1,6-11.67,30.43,30.43,0,0,1,4.9-5,35,35,0,0,1,3.95-2.72,35.44,35.44,0,0,1,4.55-2.22,36,36,0,0,1,8.91-2.28,33.81,33.81,0,0,1,5.08-.25,51.78,51.78,0,0,1,5.63.46A41.84,41.84,0,0,1,46.7,3.77a39.17,39.17,0,0,1,7.13,3A35,35,0,0,1,66.39,18.72a30.23,30.23,0,0,1,4.63,16,29,29,0,0,1-4.14,14.88A31.55,31.55,0,0,1,52.47,62.15a36.35,36.35,0,0,1-13.65,3A45.2,45.2,0,0,1,25,63.27a31,31,0,0,1-7.68-3.51,37.73,37.73,0,0,1-6.55-5.32A33,33,0,0,1,3.26,42.67,29.44,29.44,0,0,1,1.7,28.91a10.49,10.49,0,0,0,.12-1.22,4.15,4.15,0,0,0-.29-1c-.24.19-.62.32-.69.58A23.62,23.62,0,0,0,.77,39.53,39.35,39.35,0,0,0,3.3,46.22a33.21,33.21,0,0,0,9,11.37,44.75,44.75,0,0,0,12.61,7.17,17.36,17.36,0,0,0,1.87.54A39.51,39.51,0,0,0,49.2,65,38.51,38.51,0,0,0,60,59.6a31.15,31.15,0,0,0,8.31-8.84A30,30,0,0,0,72.64,38,30.54,30.54,0,0,0,71,24.63a37.52,37.52,0,0,0-6.76-11.94,33.13,33.13,0,0,0-5.73-5.43,38,38,0,0,0-13.75-6.1,48.25,48.25,0,0,0-14.92-1,34.26,34.26,0,0,0-9,2,29.56,29.56,0,0,0-4.19,2,26.69,26.69,0,0,0-3.79,2.63l-3.48,3a23.06,23.06,0,0,0-5.12,6,28.64,28.64,0,0,0-3,7.26A13.85,13.85,0,0,0,.9,25a6.72,6.72,0,0,0,0,1.25c.07.54.28.48.57-.29"/></svg>