<svg width="28px" height="29px">
	<path d="M8.29686045,0.0845271928 C6.79411058,0.152179909 5.76810483,0.389196635 4.87005739,0.735742644 C3.94159938,1.09366731 3.1545895,1.57296436 2.36984091,2.35197688 C1.58462447,3.13129902 1.10195419,3.91255631 0.741627959,4.83415041 C0.392296316,5.72563363 0.153534376,6.74437208 0.0853835154,8.23598289 C0.0164528966,9.73061253 0,10.2077422 0,14.0138655 C0,17.8199887 0.0164528966,18.2968862 0.0853835154,19.7918255 C0.153534376,21.2835911 0.392296316,22.3020199 0.741627959,23.1931161 C1.10195419,24.1149424 1.58462447,24.8965093 2.36984091,25.6754444 C3.1545895,26.4547666 3.94159938,26.9335992 4.87005739,27.2920657 C5.76810483,27.6386117 6.79411058,27.8753188 8.29686045,27.9432037 C9.80272935,28.0114757 10.2831383,28.0278083 14.1171311,28.0278083 C17.9514358,28.0278083 18.4320787,28.0114757 19.9377916,27.9432037 C21.4403855,27.8753188 22.4665472,27.6386117 23.3648286,27.2920657 C24.2925848,26.9335992 25.0802965,26.4547666 25.8650451,25.6754444 C26.6497937,24.8965093 27.13223,24.1149424 27.493258,23.1931161 C27.8421218,22.3020199 28.0811177,21.2835911 28.1495025,19.7918255 C28.2181992,18.2968862 28.2342622,17.8199887 28.2342622,14.0138655 C28.2342622,10.2077422 28.2181992,9.73061253 28.1495025,8.23598289 C28.0811177,6.74437208 27.8421218,5.72563363 27.493258,4.83415041 C27.13223,3.91255631 26.6497937,3.13129902 25.8650451,2.35197688 C25.0802965,1.57296436 24.2925848,1.09366731 23.3648286,0.735742644 C22.4665472,0.389196635 21.4403855,0.152179909 19.9377916,0.0845271928 C18.4320787,0.0162552294 17.9514358,0 14.1171311,0 C10.2831383,0 9.80272935,0.0162552294 8.29686045,0.0845271928 M8.41281048,25.4206244 C7.03638143,25.3586223 6.28898326,25.1307394 5.7917315,24.9386955 C5.13236802,24.6840303 4.66256375,24.3805219 4.16843102,23.8900784 C3.67429829,23.3997897 3.36839918,22.9331872 3.11209268,22.2788755 C2.91879064,21.7852584 2.68907389,21.0430911 2.62606944,19.6766455 C2.55823048,18.1989678 2.54357102,17.7555096 2.54357102,14.0138655 C2.54357102,10.2717569 2.55823048,9.82884055 2.62606944,8.35085317 C2.68907389,6.98471725 2.91879064,6.24270473 3.11209268,5.74885539 C3.36839918,5.09462111 3.67429829,4.6277864 4.16843102,4.13749772 C4.66256375,3.64720904 5.13236802,3.34331365 5.7917315,3.08934505 C6.28898326,2.89737853 7.03638143,2.66910866 8.41281048,2.60664214 C9.9012128,2.53922164 10.3479362,2.52497896 14.1171311,2.52497896 C17.8864819,2.52497896 18.3329714,2.53922164 19.8220755,2.60664214 C21.1980367,2.66910866 21.9456688,2.89737853 22.4431545,3.08934505 C23.102284,3.34331365 23.5723222,3.64720904 24.066377,4.13749772 C24.5605097,4.6277864 24.866019,5.09462111 25.1223255,5.74885539 C25.3156275,6.24270473 25.5455782,6.98471725 25.6085826,8.35085317 C25.6764996,9.82884055 25.6903793,10.2717569 25.6903793,14.0138655 C25.6903793,17.7555096 25.6764996,18.1989678 25.6085826,19.6766455 C25.5455782,21.0430911 25.3156275,21.7852584 25.1223255,22.2788755 C24.866019,22.9331872 24.5605097,23.3997897 24.066377,23.8900784 C23.5723222,24.3805219 23.102284,24.6840303 22.4431545,24.9386955 C21.9456688,25.1307394 21.1980367,25.3586223 19.8220755,25.4206244 C18.3334393,25.4885093 17.8869498,25.5025972 14.1171311,25.5025972 C10.3479362,25.5025972 9.9012128,25.4885093 8.41281048,25.4206244 M19.959001,6.53305409 C19.959001,7.46161472 20.7173938,8.2150059 21.6530256,8.2150059 C22.5885794,8.2150059 23.3471281,7.46161472 23.3471281,6.53305409 C23.3471281,5.60426125 22.5885794,4.85156672 21.6530256,4.85156672 C20.7173938,4.85156672 19.959001,5.60426125 19.959001,6.53305409 M6.86779772,14.0138655 C6.86779772,17.9885013 10.113463,21.2099781 14.1171311,21.2099781 C18.1211891,21.2099781 21.3663865,17.9885013 21.3663865,14.0138655 C21.3663865,10.0392297 18.1211891,6.8173658 14.1171311,6.8173658 C10.113463,6.8173658 6.86779772,10.0392297 6.86779772,14.0138655 M9.41160267,14.0138655 C9.41160267,11.4340058 11.5181972,9.34257698 14.1171311,9.34257698 C16.7162209,9.34257698 18.8229714,11.4340058 18.8229714,14.0138655 C18.8229714,16.5939574 16.7162209,18.6852314 14.1171311,18.6852314 C11.5181972,18.6852314 9.41160267,16.5939574 9.41160267,14.0138655" id="instagram" fill="#FFFFFF"></path>
</svg>