<svg width="28px" height="24px">
	<path d="M28.6665676,2.80733563 C27.6132559,3.28350361 26.4791791,3.60551648 25.2895763,3.74939457 C26.5044182,3.0094501 27.4365822,1.83615851 27.8757425,0.438485615 C26.7383005,1.12361939 25.4813934,1.62205421 24.1386734,1.88925638 C23.0685356,0.726241799 21.5390463,0 19.8463441,0 C16.6005961,0 13.9673169,2.68058589 13.9673169,5.98635634 C13.9673169,6.45567297 14.0177951,6.91128693 14.1187515,7.34977255 C9.23077947,7.09969872 4.89806763,4.71885886 1.99557135,1.09278837 C1.48910679,1.9800366 1.19969846,3.0094501 1.19969846,4.10566413 C1.19969846,6.18161946 2.2378667,8.01435231 3.81615163,9.0882995 C2.85370069,9.05918131 1.94509316,8.78684064 1.15090287,8.34150368 L1.15090287,8.41515556 C1.15090287,11.3166971 3.17844375,13.7369321 5.87061421,14.2850392 C5.3776105,14.4254916 4.85768508,14.4957178 4.32093359,14.4957178 C3.94234712,14.4957178 3.57217368,14.4597483 3.21377849,14.3895221 C3.9625384,16.7669363 6.13310083,18.4986119 8.70748884,18.5448584 C6.69509142,20.1514971 4.15772076,21.1089715 1.40329385,21.1089715 C0.928798809,21.1089715 0.459351585,21.0815662 0,21.0267555 C2.60299231,22.7224616 5.69562313,23.7141927 9.01540583,23.7141927 C19.8345659,23.7141927 25.7489279,14.5933494 25.7489279,6.68176712 C25.7489279,6.42141628 25.74388,6.16106545 25.7337844,5.90585312 C26.8830047,5.06142575 27.8807903,4.00803257 28.6665676,2.80733563" id="twitter" fill="#FFFFFF"></path>
</svg>