<svg width="26px" height="26px" viewBox="0 0 26 26">
    <g id="Social" fill="#FFFFFF">
        <path d="M11.9965167,-1.77635684e-15 L11.9965167,0.000199099077 L12.0034833,0.000199099077 C18.6188742,0.000199099077 24,5.38284264 24,12.0000995 C24,18.6171574 18.6188742,24 12.0034833,24 C9.56321687,24 7.29930252,23.2734875 5.4022243,22.0177696 L0.789802367,23.4918992 L2.2850129,19.0334735 C0.846330561,17.0580125 1.77635684e-15,14.6242254 1.77635684e-15,11.9999005 C1.77635684e-15,5.38264354 5.38112575,-1.77635684e-15 11.9965167,-1.77635684e-15 Z M8.64642511,6.09541823 C8.41374391,5.53813992 8.23739187,5.51703541 7.88488684,5.50270028 C7.76486395,5.49573181 7.63110709,5.48876335 7.48282011,5.48876335 C7.02422518,5.48876335 6.54473075,5.62275702 6.25552137,5.91901645 C5.90301633,6.27878848 5.02842167,7.11819019 5.02842167,8.83960081 C5.02842167,10.5610114 6.28378546,12.2258779 6.45297196,12.4588238 C6.629324,12.6913715 8.90040389,16.2751549 12.4266485,17.7357458 C15.1841894,18.8785745 16.0024549,18.7726537 16.6300372,18.6386601 C17.546829,18.4411538 18.696501,17.7636196 18.9857104,16.9455215 C19.2749198,16.1270252 19.2749198,15.4285856 19.1901275,15.2804559 C19.1055342,15.1323262 18.872654,15.0479082 18.520149,14.8713073 C18.1676439,14.6949056 16.4536852,13.8483363 16.1292452,13.7354471 C15.8117717,13.6155895 15.5086293,13.6579976 15.2689816,13.9966651 C14.9304096,14.4693263 14.5990031,14.9491551 14.3308923,15.2382469 C14.1193097,15.4640253 13.7735721,15.4922974 13.4845617,15.3722406 C13.0966271,15.210174 12.0106488,14.8288992 10.6704927,13.636694 C9.63367806,12.7126751 8.92846895,11.562878 8.72405185,11.217242 C8.51943571,10.8646375 8.7029533,10.6597646 8.86497425,10.4694258 C9.04132629,10.250616 9.21051278,10.0955178 9.38686482,9.89084393 C9.56321687,9.68636918 9.66194216,9.58044847 9.77479951,9.34053408 C9.8948224,9.10778726 9.81003011,8.86787288 9.72543686,8.69147109 C9.64084361,8.51506931 8.93563449,6.79365869 8.64642511,6.09541823 Z"></path>
    </g>
</svg>