<svg width="33px" height="24px">
	<path d="M13.1134399,15.9062267 L13.112407,6.62208724 L22.0426843,11.2801623 L13.1134399,15.9062267 Z M32.7216269,5.01329075 C32.7216269,5.01329075 32.3983356,2.73639969 31.407804,1.73374154 C30.1507895,0.417171877 28.7419417,0.410976255 28.0963919,0.334563584 C23.4711569,0 16.5333044,0 16.5333044,0 L16.518844,0 C16.518844,0 9.58099152,0 4.9557565,0.334563584 C4.30917385,0.410976255 2.9013589,0.417171877 1.6433115,1.73374154 C0.652779931,2.73639969 0.330521484,5.01329075 0.330521484,5.01329075 C0.330521484,5.01329075 0,7.68773421 0,10.3611451 L0,12.8683067 C0,15.5427502 0.330521484,18.2161611 0.330521484,18.2161611 C0.330521484,18.2161611 0.652779931,20.4930521 1.6433115,21.4957103 C2.9013589,22.8122799 4.55293344,22.7709758 5.28834374,22.9083121 C7.93251562,23.1623326 16.5260742,23.2408105 16.5260742,23.2408105 C16.5260742,23.2408105 23.4711569,23.2304844 28.0963919,22.8959208 C28.7419417,22.8184756 30.1507895,22.8122799 31.407804,21.4957103 C32.3983356,20.4930521 32.7216269,18.2161611 32.7216269,18.2161611 C32.7216269,18.2161611 33.0521484,15.5427502 33.0521484,12.8683067 L33.0521484,10.3611451 C33.0521484,7.68773421 32.7216269,5.01329075 32.7216269,5.01329075 L32.7216269,5.01329075 Z" id="youtube" fill="#FFFFFF"></path>
</svg>